<svg width="100" height="16" fill="none" xmlns="http://www.w3.org/2000/svg"><path d="M0 .39v1.627h4.781V15.19h1.805V2.017h4.993V.39H0zm31.16 1.709A5.334 5.334 0 0026.655.114a5.464 5.464 0 00-4.521 2.147 8.815 8.815 0 00-1.627 5.383 9.416 9.416 0 001.627 5.61 5.107 5.107 0 004.326 2.18 5.724 5.724 0 004.7-2.05 9.106 9.106 0 001.626-5.724 8.505 8.505 0 00-1.627-5.56zM29.777 12.18a3.464 3.464 0 01-3.122 1.627 3.578 3.578 0 01-3.253-1.79 8.473 8.473 0 01-1.04-4.39 8.132 8.132 0 011.04-4.293 3.708 3.708 0 013.253-1.627h.146c1.008 0 4.082 0 4.082 5.936a7.904 7.904 0 01-1.106 4.537zM52.513.39v10.165L44.138 0v15.157h1.626V5.123l8.538 10.31V.39h-1.79zm20.442 6.376L77.345.39h-1.902l-5.855 7.985V.39H67.8v14.766h1.79v-3.984l2.146-3.025 4.293 7.01h1.968l-5.041-8.392zM94.032.147l-5.969 15.01h1.854l1.269-3.17h5.773l1.252 3.17H100L94.032.148zm-2.326 10.197l2.26-5.887 2.261 5.887h-4.521z" fill="#252A3A"/></svg>