<svg width="86" height="86" fill="none" xmlns="http://www.w3.org/2000/svg"><path d="M43 85.24c23.328 0 42.24-18.912 42.24-42.24C85.24 19.672 66.327.76 43 .76 19.672.76.76 19.672.76 43 .76 66.328 19.672 85.24 43 85.24z" fill="#fff"/><path d="M16.63 48.572v.857h2.523v6.949h.952v-6.949h2.633v-.857h-6.107zm16.436.9a2.812 2.812 0 00-2.376-1.046 2.881 2.881 0 00-2.384 1.132 4.65 4.65 0 00-.858 2.84 4.967 4.967 0 00.858 2.959 2.694 2.694 0 002.281 1.15 3.02 3.02 0 002.48-1.081 4.804 4.804 0 00.857-3.02 4.486 4.486 0 00-.858-2.934zm-.729 5.319a1.826 1.826 0 01-1.647.858 1.887 1.887 0 01-1.715-.944 4.47 4.47 0 01-.55-2.316 4.29 4.29 0 01.55-2.265 1.955 1.955 0 011.715-.858h.077c.532 0 2.154 0 2.154 3.132a4.169 4.169 0 01-.584 2.393zm11.993-6.22v5.362l-4.418-5.568v7.995h.858v-5.292l4.503 5.438v-7.935h-.943zm10.782 3.363l2.316-3.362h-1.004l-3.088 4.211v-4.211h-.943v7.788h.943v-2.1l1.133-1.596 2.264 3.697h1.038l-2.66-4.426zm11.118-3.491l-3.149 7.918h.978l.669-1.673h3.045l.66 1.672h.944l-3.148-7.917zm-1.228 5.378l1.193-3.105 1.192 3.105h-2.385zM26.29 60.538a.755.755 0 01.249.292 1.111 1.111 0 010 .858.729.729 0 01-.249.282.635.635 0 01-.36.103.583.583 0 01-.3-.077.549.549 0 01-.206-.189v.815h-.395v-2.144h.395v.231a.438.438 0 01.197-.197.678.678 0 01.67.026zm-.171 1.115a.574.574 0 00.103-.369.634.634 0 00-.103-.377.368.368 0 00-.3-.129.353.353 0 00-.292.129.6.6 0 00-.103.377.592.592 0 00.12.369.352.352 0 00.292.129.37.37 0 00.283-.129zm2.856-.317h-1.072c.005.117.05.23.128.317a.448.448 0 00.326.112.764.764 0 00.472-.172l.12.274a.857.857 0 01-.274.146.917.917 0 01-.335.06.858.858 0 01-.609-.223.806.806 0 01-.223-.592.96.96 0 01.094-.428.695.695 0 01.275-.292.771.771 0 01.395-.103.65.65 0 01.514.214c.13.163.198.367.189.575v.112zm-.952-.54a.567.567 0 00-.12.3h.729a.48.48 0 00-.103-.3.31.31 0 00-.249-.104.352.352 0 00-.257.103zm3.011-.001h-.232c-.266 0-.394.163-.394.403v.858h-.404v-1.578h.386v.317a.524.524 0 01.498-.309h.12l.026.31zm1.561-.317h.412v.317h-.412v1.27h-.403v-1.27h-.3v-.3h.3a.694.694 0 01.215-.558.858.858 0 01.549-.188h.154v.291h-.146a.428.428 0 00-.274.086.326.326 0 00-.078.24l-.017.112zm2.779 0v1.57h-.395v-.24a.616.616 0 01-.197.197.626.626 0 01-.283.068c-.386 0-.584-.223-.584-.652v-.943h.404v.952a.38.38 0 00.068.24.241.241 0 00.215.086.36.36 0 00.266-.112.42.42 0 00.103-.291v-.858l.403-.017zm3.388.12a.755.755 0 01.129.489v.96h-.395v-.951a.404.404 0 00-.069-.258.224.224 0 00-.188-.086.326.326 0 00-.258.112.472.472 0 00-.086.309v.858h-.403v-.935a.403.403 0 00-.06-.258.231.231 0 00-.197-.086.308.308 0 00-.24.112.472.472 0 00-.094.309v.858h-.404v-1.553h.395v.223a.438.438 0 01.197-.197.601.601 0 01.283-.069.455.455 0 01.472.3.514.514 0 01.215-.214c.09-.06.199-.09.308-.086a.498.498 0 01.395.163zm2.625.738h-1.072a.472.472 0 00.128.317.448.448 0 00.326.112.764.764 0 00.472-.172l.12.274a.933.933 0 01-.274.146.917.917 0 01-.335.06.858.858 0 01-.609-.223.806.806 0 01-.223-.592.96.96 0 01.094-.428.695.695 0 01.275-.292.754.754 0 01.394-.103.65.65 0 01.515.214c.13.163.198.367.189.575v.112zm-.952-.54a.506.506 0 00-.12.3h.72a.438.438 0 00-.051-.3.31.31 0 00-.25-.104.35.35 0 00-.3.103zm2.179 1.226a.764.764 0 01-.3-.155l.111-.274a.97.97 0 00.575.18.334.334 0 00.206 0 .137.137 0 00.077-.129.136.136 0 00-.052-.111.653.653 0 00-.18-.069l-.257-.06a.532.532 0 01-.317-.154.36.36 0 01-.112-.283.404.404 0 01.086-.258.575.575 0 01.223-.171.987.987 0 01.935.137l-.112.274a.858.858 0 00-.489-.18.317.317 0 00-.197.052.154.154 0 00-.034.24.439.439 0 00.154.069l.266.06a.755.755 0 01.343.154.42.42 0 01.112.292.412.412 0 01-.18.351.798.798 0 01-.48.13 1.293 1.293 0 01-.378-.095zm5.901-1.424a.754.754 0 01.129.489v.96h-.403v-.951a.403.403 0 00-.06-.258.231.231 0 00-.197-.086.326.326 0 00-.25.112.472.472 0 00-.085.309v.858h-.403v-.935a.403.403 0 00-.06-.258.23.23 0 00-.198-.043.325.325 0 00-.248.112.472.472 0 00-.086.309v.857h-.403v-1.595h.394v.223a.438.438 0 01.198-.197.575.575 0 01.283-.069.455.455 0 01.471.3.618.618 0 01.735-.264c.07.028.133.072.183.127zm1.536 1.372a.747.747 0 01-.283-.283.996.996 0 01-.094-.437.96.96 0 01.094-.43.747.747 0 01.283-.282.857.857 0 01.42-.103.858.858 0 01.43.103.73.73 0 01.274.283c.068.132.1.28.094.429a.858.858 0 01-.094.437.73.73 0 01-.275.283.858.858 0 01-.429.103.858.858 0 01-.42-.103zm.72-.343a.583.583 0 00.104-.377.6.6 0 00-.103-.378.369.369 0 00-.3-.128.35.35 0 00-.292.128.6.6 0 00-.103.378.583.583 0 00.103.377.352.352 0 00.291.129.369.369 0 00.3-.103v-.026zm1.733.395a.86.86 0 01-.3-.155l.112-.274a.97.97 0 00.574.18c.07.02.145.02.215 0a.137.137 0 00.068-.129.137.137 0 00-.051-.111.492.492 0 00-.172-.069l-.257-.06a.558.558 0 01-.326-.154.385.385 0 01-.103-.283c0-.092.026-.182.077-.258a.608.608 0 01.232-.171.97.97 0 01.334-.06c.111 0 .221.017.327.051.098.035.19.084.274.146l-.111.275a.858.858 0 00-.49-.18.368.368 0 00-.205.05.154.154 0 00-.078.138.12.12 0 00.052.103.325.325 0 00.146.069l.266.06c.126.02.244.073.343.154a.388.388 0 01.111.292.413.413 0 01-.18.351.771.771 0 01-.472.13 1.31 1.31 0 01-.386-.095zm2.351-.052a.669.669 0 01-.274-.283.961.961 0 01-.095-.429.909.909 0 01.103-.428.712.712 0 01.283-.292.857.857 0 01.43-.103.858.858 0 01.325.06.737.737 0 01.257.137l-.12.283a.724.724 0 00-.197-.12.69.69 0 00-.223 0 .421.421 0 00-.326.129.6.6 0 00-.111.377.592.592 0 00.111.37.42.42 0 00.326.128.685.685 0 00.429-.163l.12.274a.73.73 0 01-.266.155 1.059 1.059 0 01-.335.051.858.858 0 01-.437-.146zm2.281 0a.746.746 0 01-.283-.317.858.858 0 01-.094-.437.86.86 0 01.094-.43.747.747 0 01.283-.282.91.91 0 01.858 0 .747.747 0 01.283.283.96.96 0 01.095.429.99.99 0 01-.095.437.747.747 0 01-.283.283.91.91 0 01-.858 0v.035zm.712-.343a.583.583 0 00.103-.377.6.6 0 00-.103-.377.353.353 0 00-.291-.13.377.377 0 00-.3.13.601.601 0 00-.103.377c-.01.146.036.29.128.403a.368.368 0 00.3.129.353.353 0 00.266-.129v-.026zm3.637-1.149h.386l-.609 1.57h-.351l-.386-1.013-.378 1.013h-.343l-.617-1.57h.411l.395 1.09.403-1.09h.317l.395 1.098.377-1.098zM45.539 28.585a12.815 12.815 0 00-2.453-7.103l-.386-.506-.395.506a12.815 12.815 0 00-2.453 7.103 12.739 12.739 0 002.238 6.81 6.657 6.657 0 00-1.063 3.432 6.708 6.708 0 001.278 3.706l.395.506.386-.506a6.709 6.709 0 001.278-3.706 6.622 6.622 0 00-1.064-3.431 12.738 12.738 0 002.239-6.811zm-2.84-5.92a11.666 11.666 0 011.853 5.92 11.64 11.64 0 01-1.852 5.927 11.735 11.735 0 01-1.853-5.927 11.62 11.62 0 011.852-5.92zm0 18.598a4.812 4.812 0 010-4.94c.42.757.653 1.604.678 2.47a5.309 5.309 0 01-.678 2.47z" fill="#252A3A"/></svg>