<svg width="71" height="71" fill="none" xmlns="http://www.w3.org/2000/svg"><path d="M35.5 70.197c19.162 0 34.697-15.535 34.697-34.697C70.197 16.337 54.662.803 35.5.803 16.337.803.803 16.337.803 35.5c0 19.162 15.534 34.697 34.697 34.697z" fill="#FFEEF5"/><path d="M40.59 29.339c-.16-4.396-1.69-8.645-4.391-12.2l-.691-.869-.707.87c-2.7 3.554-4.23 7.803-4.391 12.199.141 4.187 1.532 8.247 4.008 11.698a11.108 11.108 0 00-1.904 5.893 11.223 11.223 0 002.287 6.365l.707.869.69-.87a11.223 11.223 0 002.289-6.364 11.051 11.051 0 00-1.904-5.893c2.475-3.451 3.866-7.511 4.007-11.698zm-5.082-10.166a19.472 19.472 0 013.316 10.166 19.429 19.429 0 01-3.316 10.18 19.585 19.585 0 01-3.317-10.18 19.372 19.372 0 013.317-10.166zm0 31.941a8.013 8.013 0 01-1.222-4.243c0-1.494.422-2.96 1.222-4.243a9.025 9.025 0 011.213 4.243 8.84 8.84 0 01-1.213 4.243z" fill="#252A3A"/></svg>