<svg width="72" height="72" fill="none" xmlns="http://www.w3.org/2000/svg"><path d="M36 71.2c19.44 0 35.2-15.76 35.2-35.2C71.2 16.56 55.44.8 36 .8 16.56.8.8 16.56.8 36 .8 55.44 16.56 71.2 36 71.2z" fill="#fff"/><path d="M41.164 29.75c-.163-4.46-1.715-8.77-4.455-12.376l-.701-.882-.717.882c-2.74 3.605-4.292 7.916-4.455 12.375.143 4.248 1.554 8.367 4.066 11.868a11.27 11.27 0 00-1.932 5.979 11.386 11.386 0 002.321 6.457l.717.881.7-.881a11.386 11.386 0 002.322-6.457 11.212 11.212 0 00-1.932-5.979c2.511-3.5 3.923-7.62 4.066-11.868zm-5.156-10.314a19.754 19.754 0 013.364 10.313 19.71 19.71 0 01-3.364 10.329 19.87 19.87 0 01-3.365-10.329 19.652 19.652 0 013.365-10.313zm0 32.404a8.13 8.13 0 01-1.24-4.304c0-1.516.428-3.004 1.24-4.305a9.155 9.155 0 011.23 4.305 8.967 8.967 0 01-1.23 4.304z" fill="#252A3A"/></svg>