<svg width="124" height="124" fill="none" xmlns="http://www.w3.org/2000/svg"><path d="M62 123.348c33.881 0 61.348-27.467 61.348-61.348C123.348 28.118 95.881.652 62 .652 28.118.652.652 28.118.652 62c0 33.881 27.466 61.348 61.348 61.348z" fill="#FDECEF"/><path d="M23.702 70.092v1.246h3.663v10.091h1.383V71.338h3.825v-1.246h-8.87zM47.573 71.4a4.087 4.087 0 00-3.452-1.52 4.186 4.186 0 00-3.463 1.645 6.752 6.752 0 00-1.246 4.124 7.213 7.213 0 001.246 4.298 3.912 3.912 0 003.314 1.67 4.386 4.386 0 003.6-1.57 6.977 6.977 0 001.246-4.386 6.516 6.516 0 00-1.245-4.26zm-1.06 7.725a2.654 2.654 0 01-2.392 1.246A2.741 2.741 0 0141.63 79a6.49 6.49 0 01-.797-3.365 6.229 6.229 0 01.797-3.289 2.84 2.84 0 012.491-1.246h.113c.772 0 3.127 0 3.127 4.548a6.054 6.054 0 01-.847 3.476zm17.417-9.033v7.786l-6.415-8.085v11.611h1.245v-7.687l6.541 7.899V70.092h-1.37zm15.661 4.884l3.364-4.884h-1.458l-4.485 6.117v-6.117h-1.37v11.312h1.37v-3.052l1.645-2.317 3.289 5.37h1.507l-3.862-6.43zm16.147-5.071l-4.573 11.5h1.42l.972-2.43h4.423l.96 2.43h1.37l-4.572-11.5zm-1.782 7.812l1.732-4.51 1.731 4.51h-3.463zm-56.225 9.755c.155.107.28.253.361.423.081.198.123.41.125.623 0 .214-.041.426-.125.623a1.06 1.06 0 01-.361.411.923.923 0 01-.523.15.847.847 0 01-.436-.112.797.797 0 01-.3-.275V90.5H35.9v-3.115h.573v.337a.635.635 0 01.286-.287.983.983 0 01.972.037zm-.25 1.62a.835.835 0 00.15-.537.922.922 0 00-.15-.548.536.536 0 00-.435-.187.511.511 0 00-.424.187.873.873 0 00-.15.548.86.86 0 00.175.536.51.51 0 00.424.187.538.538 0 00.41-.187zm4.149-.462h-1.557a.75.75 0 00.187.461.647.647 0 00.473.162c.25-.003.492-.091.685-.249l.175.399a1.245 1.245 0 01-.399.212c-.155.059-.32.088-.486.087a1.246 1.246 0 01-.884-.324 1.17 1.17 0 01-.324-.86 1.395 1.395 0 01.137-.623 1.01 1.01 0 01.398-.423c.175-.1.373-.152.574-.15a.946.946 0 01.747.312c.19.235.287.532.274.834v.162zm-1.383-.785a.822.822 0 00-.174.436h1.059a.698.698 0 00-.15-.436.448.448 0 00-.361-.15.51.51 0 00-.374.15zm4.373 0h-.336c-.386 0-.573.237-.573.586v1.246h-.586v-2.293h.56v.461a.76.76 0 01.723-.448h.175l.037.448zm2.268-.461h.598v.461h-.598v1.844h-.585v-1.844h-.436v-.436h.436a1.01 1.01 0 01.311-.81c.226-.18.508-.278.797-.274h.225v.424h-.212a.623.623 0 00-.399.125.475.475 0 00-.112.348l-.025.162zm4.036 0v2.28h-.574v-.349a.897.897 0 01-.286.287.91.91 0 01-.411.1c-.56 0-.847-.324-.847-.947v-1.37h.585v1.382a.548.548 0 00.1.349.349.349 0 00.311.125.522.522 0 00.387-.162.61.61 0 00.15-.424V87.41l.585-.025zm4.92.176c.142.207.208.458.187.71v1.395h-.573v-1.383a.585.585 0 00-.1-.374.324.324 0 00-.274-.125.473.473 0 00-.373.162.686.686 0 00-.125.449v1.246h-.585v-1.358a.586.586 0 00-.088-.374.336.336 0 00-.286-.125.45.45 0 00-.35.162.685.685 0 00-.136.449v1.246h-.586v-2.255h.573v.324a.635.635 0 01.287-.287.872.872 0 01.411-.1.66.66 0 01.685.436.748.748 0 01.312-.311.76.76 0 01.448-.125.722.722 0 01.573.237zm3.813 1.07h-1.558c.003.172.07.336.187.461a.647.647 0 00.474.162c.25-.003.491-.091.685-.249l.174.399c-.12.092-.255.164-.398.212-.155.059-.32.088-.486.087a1.245 1.245 0 01-.885-.324 1.17 1.17 0 01-.324-.86 1.395 1.395 0 01.137-.623c.089-.177.228-.324.4-.423.173-.102.371-.154.572-.15a.946.946 0 01.748.312c.19.235.287.532.274.834v.162zm-1.383-.785a.735.735 0 00-.175.436h1.047a.636.636 0 00-.075-.436.448.448 0 00-.361-.15.511.511 0 00-.436.15zm3.165 1.782a1.108 1.108 0 01-.436-.224l.162-.4c.243.174.535.266.834.263a.485.485 0 00.3 0 .2.2 0 00.112-.187.199.199 0 00-.075-.162.948.948 0 00-.262-.1l-.373-.087a.773.773 0 01-.462-.224.525.525 0 01-.161-.412.586.586 0 01.124-.373.835.835 0 01.324-.25 1.441 1.441 0 011.359.2l-.163.398a1.246 1.246 0 00-.71-.261.461.461 0 00-.287.075.225.225 0 00-.05.349.635.635 0 00.225.1l.386.086c.182.032.354.109.498.225a.61.61 0 01.162.423.597.597 0 01-.261.511 1.16 1.16 0 01-.698.187 1.884 1.884 0 01-.548-.137zm8.571-2.067c.142.207.208.458.187.71v1.395h-.585v-1.383a.586.586 0 00-.088-.374.336.336 0 00-.286-.125.474.474 0 00-.362.162.686.686 0 00-.124.449v1.246h-.586v-1.358a.586.586 0 00-.087-.374.337.337 0 00-.286-.062.474.474 0 00-.362.162.686.686 0 00-.124.448v1.246h-.586v-2.317h.573v.324a.635.635 0 01.287-.287.834.834 0 01.411-.1.66.66 0 01.685.436.897.897 0 01.748-.436.735.735 0 01.585.237zm2.23 1.992a1.084 1.084 0 01-.41-.41 1.445 1.445 0 01-.137-.636 1.394 1.394 0 01.137-.623c.097-.172.239-.314.41-.411.188-.101.398-.153.611-.15.217-.005.432.046.623.15.168.098.306.24.399.41.099.193.146.408.137.624.011.22-.036.44-.137.635-.093.171-.23.313-.399.411a1.245 1.245 0 01-.623.15 1.245 1.245 0 01-.61-.15zm1.047-.498a.848.848 0 00.15-.548.873.873 0 00-.15-.549.536.536 0 00-.436-.186.51.51 0 00-.423.186.872.872 0 00-.15.549.848.848 0 00.15.548.511.511 0 00.423.187.535.535 0 00.436-.15v-.037zm2.517.573a1.245 1.245 0 01-.436-.224l.162-.4c.243.174.535.266.834.263.102.03.21.03.312 0a.199.199 0 00.1-.187.2.2 0 00-.075-.162.71.71 0 00-.25-.1l-.373-.087a.81.81 0 01-.474-.224.562.562 0 01-.15-.412.66.66 0 01.113-.373.884.884 0 01.336-.25c.156-.057.32-.087.486-.087.161 0 .32.025.474.075.142.05.277.122.398.212l-.162.398a1.245 1.245 0 00-.71-.261.536.536 0 00-.299.075.224.224 0 00-.112.199.176.176 0 00.075.15c.061.05.134.084.212.1l.386.086c.183.03.355.106.498.225a.561.561 0 01.162.423.598.598 0 01-.261.511c-.203.135-.443.2-.686.187a1.907 1.907 0 01-.56-.137zm3.414-.075a.97.97 0 01-.399-.41 1.395 1.395 0 01-.137-.624c-.002-.217.05-.43.15-.623.093-.178.235-.325.41-.423.192-.104.406-.155.624-.15.162-.002.322.028.473.087.137.041.264.109.374.2l-.175.41a1.05 1.05 0 00-.286-.174.995.995 0 00-.324 0 .61.61 0 00-.474.187.872.872 0 00-.161.549.86.86 0 00.161.535.61.61 0 00.474.187.999.999 0 00.623-.237l.174.399a1.059 1.059 0 01-.386.224c-.157.051-.32.076-.486.075a1.245 1.245 0 01-.635-.212zm3.313 0a1.084 1.084 0 01-.41-.46 1.245 1.245 0 01-.138-.636c-.009-.216.038-.43.137-.623.097-.172.24-.314.411-.411a1.32 1.32 0 011.246 0c.172.097.314.239.411.41.093.195.14.408.137.624a1.42 1.42 0 01-.137.635 1.086 1.086 0 01-.41.411 1.32 1.32 0 01-1.247 0v.05zm1.034-.498a.847.847 0 00.15-.548.871.871 0 00-.15-.549.511.511 0 00-.423-.186.548.548 0 00-.436.186.872.872 0 00-.15.549.847.847 0 00.187.585.535.535 0 00.436.187.51.51 0 00.386-.187v-.037zm5.283-1.67h.56l-.884 2.28h-.511l-.56-1.47-.549 1.47h-.498l-.897-2.28h.598l.573 1.582.585-1.582h.461l.573 1.595.549-1.595zM65.687 41.063a18.613 18.613 0 00-3.563-10.315l-.56-.735-.574.735a18.613 18.613 0 00-3.563 10.315 18.501 18.501 0 003.252 9.893 9.668 9.668 0 00-1.545 4.983 9.742 9.742 0 001.856 5.382l.573.735.561-.735a9.742 9.742 0 001.856-5.382 9.618 9.618 0 00-1.544-4.983 18.501 18.501 0 003.251-9.893zm-4.123-8.596a16.944 16.944 0 012.69 8.596c-.1 3.06-1.03 6.036-2.69 8.61a17.043 17.043 0 01-2.692-8.61 16.861 16.861 0 012.691-8.596zm0 27.01a6.99 6.99 0 010-7.176c.61 1.1.947 2.33.984 3.588a7.711 7.711 0 01-.985 3.588z" fill="#252A3A"/></svg>