<svg width="98" height="121" viewBox="0 0 98 121" fill="none" xmlns="http://www.w3.org/2000/svg">
<path d="M84.4417 15.7393C80.2219 10.4682 74.7978 6.29391 68.6284 3.56957C62.4589 0.845226 55.7257 -0.348947 48.9985 0.0880489C42.1526 -0.134369 35.3528 1.28637 29.1655 4.23195C22.9781 7.17752 17.5822 11.5627 13.4272 17.0222C4.65247 29.3964 0.15855 44.3102 0.631836 59.4857C0.109341 75.2259 4.59017 90.7253 13.4272 103.745C17.2378 109.212 22.3424 113.644 28.2828 116.644C34.2233 119.645 40.8138 121.119 47.463 120.936C54.4558 121.309 61.4391 120.043 67.8583 117.237C74.2774 114.431 79.9556 110.163 84.4417 104.772C93.6301 91.5805 98.1359 75.6785 97.2371 59.6141C98.2256 43.9383 93.6975 28.4117 84.4417 15.7393ZM73.5656 95.2783C70.9879 99.4229 67.3494 102.799 63.0288 105.055C58.7081 107.312 53.8632 108.365 48.9985 108.107C43.8535 108.327 38.7471 107.127 34.2349 104.639C29.7228 102.151 25.9778 98.4695 23.4077 93.9955C17.6051 83.404 14.7751 71.4334 15.2186 59.3575C14.7786 47.5267 17.6129 35.8046 23.4077 25.4892C26.2151 21.3272 30.0445 17.9604 34.5268 15.7134C39.009 13.4664 43.9931 12.4149 48.9985 12.6603H50.15C58.0832 12.6603 82.2665 12.6603 82.2665 59.4857C83.0283 72.0229 79.9956 84.4986 73.5656 95.2783Z" fill="#252A3A"/>
</svg>
