<svg width="98" height="121" fill="none" xmlns="http://www.w3.org/2000/svg"><path d="M84.44 15.74A41.981 41.981 0 0068.628 3.57 41.872 41.872 0 0048.997.088a42.897 42.897 0 00-19.832 4.144 43.014 43.014 0 00-15.739 12.79A69.66 69.66 0 00.631 59.486a74.418 74.418 0 0012.795 44.259 40.198 40.198 0 0014.856 12.899 40.087 40.087 0 0019.18 4.292 44.94 44.94 0 0020.395-3.699 45.051 45.051 0 0016.584-12.465 71.98 71.98 0 0012.795-45.158A67.22 67.22 0 0084.441 15.74zM73.566 95.277a27.28 27.28 0 01-10.537 9.777 27.19 27.19 0 01-14.03 3.052 28.089 28.089 0 01-14.764-3.468 28.183 28.183 0 01-10.827-10.643 66.98 66.98 0 01-8.19-34.638 64.28 64.28 0 018.19-33.869 29.197 29.197 0 0111.119-9.776 29.11 29.11 0 0114.471-3.053h1.152c7.933 0 32.117 0 32.117 46.826a62.478 62.478 0 01-8.701 35.792z" fill="#fff"/></svg>