<svg width="98" height="121" viewBox="0 0 98 121" fill="none" xmlns="http://www.w3.org/2000/svg">
<path d="M84.4407 15.7393C80.221 10.4682 74.7968 6.29391 68.6274 3.56957C62.4579 0.845226 55.7247 -0.348947 48.9975 0.0880489C42.1516 -0.134369 35.3519 1.28637 29.1645 4.23195C22.9771 7.17752 17.5812 11.5627 13.4263 17.0222C4.65149 29.3964 0.157574 44.3102 0.630859 59.4857C0.108364 75.2259 4.5892 90.7253 13.4263 103.745C17.2368 109.212 22.3414 113.644 28.2819 116.644C34.2223 119.645 40.8129 121.119 47.462 120.936C54.4548 121.309 61.4381 120.043 67.8573 117.237C74.2764 114.431 79.9546 110.163 84.4407 104.772C93.6291 91.5805 98.1349 75.6785 97.2361 59.6141C98.2246 43.9383 93.6965 28.4117 84.4407 15.7393ZM73.5646 95.2783C70.987 99.4229 67.3484 102.799 63.0278 105.055C58.7071 107.312 53.8622 108.365 48.9975 108.107C43.8525 108.327 38.7461 107.127 34.2339 104.639C29.7218 102.151 25.9768 98.4695 23.4067 93.9955C17.6042 83.404 14.7741 71.4334 15.2176 59.3575C14.7777 47.5267 17.612 35.8046 23.4067 25.4892C26.2141 21.3272 30.0435 17.9604 34.5258 15.7134C39.0081 13.4664 43.9921 12.4149 48.9975 12.6603H50.1491C58.0822 12.6603 82.2655 12.6603 82.2655 59.4857C83.0273 72.0229 79.9946 84.4986 73.5646 95.2783Z" fill="white"/>
</svg>
