<?xml version="1.0" standalone="no"?>
<!DOCTYPE svg PUBLIC "-//W3C//DTD SVG 1.1//EN" "http://www.w3.org/Graphics/SVG/1.1/DTD/svg11.dtd" >
<svg xmlns="http://www.w3.org/2000/svg" xmlns:xlink="http://www.w3.org/1999/xlink" version="1.1">
<metadata>
Created by FontForge 20170924 at Thu Sep 16 14:50:21 1999
 By www-data
Copyright (c) FontLab 4.6 by Fee, 2004. All rights reserved.
</metadata>
<defs>
<font id="AllegrettoScriptOne" horiz-adv-x="389" >
  <font-face 
    font-family="Allegretto Script One"
    font-weight="500"
    font-stretch="normal"
    units-per-em="1000"
    panose-1="3 0 6 5 7 0 0 9 0 2"
    ascent="800"
    descent="-200"
    x-height="278"
    cap-height="712"
    bbox="-264 -401 1450 917"
    underline-thickness="50"
    underline-position="-125"
    unicode-range="U+0020-FB02"
  />
<missing-glyph horiz-adv-x="194" 
 />
    <glyph glyph-name=".notdef" horiz-adv-x="194" 
 />
    <glyph glyph-name=".null" horiz-adv-x="0" 
 />
    <glyph glyph-name="nonmarkingreturn" horiz-adv-x="194" 
 />
    <glyph glyph-name="space" unicode=" " horiz-adv-x="194" 
 />
    <glyph glyph-name="space" unicode="&#xa0;" horiz-adv-x="194" 
 />
    <glyph glyph-name="dollar" unicode="$" 
d="M378 366q10 -7 13 -17t8 -20q-1 -3 4 -4t7 -1q10 0 22 15.5t12 43.5q0 16 -9 29t-21 23zM327 464q-37 -5 -64 -28.5t-27 -65.5q0 -13 2.5 -24.5t10.5 -27.5zM185 3q24 2 42 12t29.5 24t17.5 30.5t6 31.5q0 24 -3 37.5t-7 24.5zM136 107q-7 1 -8.5 10t-1.5 13q0 6 2 16
q-5 11 -14.5 14.5t-20.5 3.5q-28 0 -41.5 -20.5t-13.5 -46.5q0 -25 14 -44.5t38 -31.5zM257 301q8 -16 16 -32.5t16 -33.5l45 85q-2 2 -4 8t-2 9q0 16 8 26.5t25 10.5l39 71q-10 8 -25.5 12.5t-29.5 6.5zM105 15q11 -6 28 -8.5t32 -3.5l95 178q-7 17 -15 33t-16 33l-52 -97
q5 -11 5 -23q0 -14 -8.5 -22.5t-16.5 -8.5q-5 0 -8 1zM220 264q-11 20 -17.5 43.5t-6.5 46.5q0 27 11.5 49t31 38t44 25t50.5 10l29 54h19l-30 -55q14 -2 28 -7t27 -11l39 73h20l-45 -83q17 -12 26.5 -27t9.5 -38q0 -37 -22 -60.5t-53 -23.5q-18 0 -33 12l-50 -94
q6 -14 10.5 -25.5t7 -22t3.5 -22.5t1 -27q0 -26 -11.5 -49t-30.5 -40.5t-44 -28t-52 -10.5h-4l-30 -57h-18l30 58q-17 1 -33 3.5t-28 7.5l-37 -69h-18l41 77q-30 12 -44.5 36t-14.5 54q0 36 24.5 60.5t60.5 24.5q15 0 28.5 -7t26.5 -16z" />
    <glyph glyph-name="percent" unicode="%" horiz-adv-x="778" 
d="M214 -6l406 562h22l-406 -562h-22zM698 293q0 34 -13 43.5t-27 9.5q-19 0 -40.5 -13.5t-43 -36t-41 -51t-34.5 -58.5t-24 -59.5t-9 -53.5q0 -21 11.5 -39.5t34.5 -18.5q15 0 34.5 12.5t40.5 34t40.5 49.5t35.5 59t25.5 62.5t9.5 59.5zM414 481q0 34 -13 43.5t-27 9.5
q-19 0 -40.5 -13.5t-43 -36t-41 -51t-34.5 -58.5t-24 -59.5t-9 -53.5q0 -21 11.5 -39.5t34.5 -18.5q15 0 34.5 12.5t40.5 34t40.5 49.5t35.5 59t25.5 62.5t9.5 59.5zM367 550q21 0 34.5 -7t21 -18t10.5 -25.5t3 -29.5q0 -24 -9 -54.5t-25 -62t-37 -61t-44.5 -53t-48.5 -37.5
t-48 -14t-39 10t-25.5 25t-13.5 33t-4 35q0 42 21 87.5t54 84t72.5 63t77.5 24.5zM651 362q21 0 34.5 -7t21 -18t10.5 -25.5t3 -29.5q0 -24 -9 -54.5t-25 -62t-37 -61t-44.5 -53t-48.5 -37.5t-48 -14t-39 10t-25.5 25t-13.5 33t-4 35q0 42 21 87.5t54 84t72.5 63t77.5 24.5z
" />
    <glyph glyph-name="ampersand" unicode="&#x26;" horiz-adv-x="500" 
d="M288 393q0 -15 0.5 -30.5t5.5 -30.5q26 10 57 21t57.5 27.5t44 40.5t17.5 59q0 26 -16.5 44t-44.5 18q-29 0 -51 -14.5t-38 -36t-24 -48t-8 -50.5zM98 96q0 -38 21.5 -64t60.5 -26q58 0 106.5 30t83.5 72q-20 53 -44 102t-40 105q-36 -14 -70 -34t-60 -47t-42 -61
t-16 -77zM410 -24q0 -54 -22 -106t-61 -92.5t-93 -65t-117 -24.5q-28 0 -56.5 8.5t-51 25t-37 41t-14.5 55.5q-1 37 15.5 61.5t37.5 38.5t41 20t26 6t6 -5t-12 -5.5t-38 -13.5q-7 -4 -18 -11t-21 -17.5t-17.5 -26t-7.5 -35.5q0 -28 13 -48.5t32 -33.5t41 -19.5t40 -6.5
q54 0 106.5 23t94.5 62t67.5 90t25.5 106q0 19 -4.5 47t-11.5 47q-17 -21 -37.5 -39.5t-45 -32.5t-52.5 -22.5t-59 -8.5q-28 0 -53 8.5t-43.5 24t-29 37t-10.5 48.5q0 50 22.5 85t57.5 60t77 42t82 30q-7 25 -7 54q0 28 8 58.5t24.5 55.5t41 41t57.5 16q35 0 55 -20.5
t20 -55.5q0 -34 -19 -59.5t-47 -44.5t-60 -32t-58 -23q3 -17 12.5 -42.5t22 -53.5t25.5 -55.5t22 -47.5q16 20 34 42t34.5 44t31 42t25.5 36q13 19 32.5 43t43 45t49 35.5t51.5 14.5q16 0 26.5 -8.5t10.5 -25.5t-10 -26.5t-27 -9.5q-10 0 -16 5.5t-10 12.5t-8.5 12.5
t-11.5 5.5t-19 -7t-27 -19.5t-31 -29.5t-30 -36q-35 -49 -72.5 -96.5t-70.5 -89.5q25 -63 25 -134z" />
    <glyph glyph-name="quoteright" unicode="&#x2019;" horiz-adv-x="222" 
d="M314 480q0 -20 -19 -47t-43 -51t-46.5 -41t-28.5 -17q-5 0 -5 5q0 3 3 5.5t14 10.5q29 21 46.5 41.5t18.5 40.5q1 49 10 65t29 16q11 0 16 -8.5t5 -19.5z" />
    <glyph glyph-name="parenleft" unicode="(" horiz-adv-x="500" 
d="M164 34q0 87 38 175t106 171t162 157.5t206 134.5q18 10 35.5 18t20.5 8q4 0 4 -4q0 -2 -1 -3t-5 -3l-12 -6l-22 -11q-56 -29 -114 -74t-113 -100t-103 -118.5t-84 -131t-57 -136.5t-21 -135q0 -44 8.5 -75t19 -52t19 -32.5t8.5 -14.5q0 -2 -3 -2t-12.5 9t-25.5 34
t-26.5 48.5t-16.5 46.5t-8.5 46.5t-2.5 49.5z" />
    <glyph glyph-name="parenright" unicode=")" horiz-adv-x="500" 
d="M448 464q0 -87 -38 -175t-106 -171t-162 -157.5t-206 -134.5q-18 -10 -35.5 -18t-20.5 -8q-4 0 -4 4q0 2 1 3t5 3t12 5.5t22 11.5q56 29 114 74t113 100t103 118.5t84 131t57 136.5t21 135q0 43 -8.5 74.5t-19 52.5t-19 32.5t-8.5 14.5q0 2 3 2t12.5 -9t25.5 -34
q32 -51 43 -95t11 -96z" />
    <glyph glyph-name="asterisk" unicode="*" 
d="M200 486q-7 0 -11.5 6.5t-4.5 14.5q0 13 29.5 21.5t100.5 28.5q-36 24 -57.5 37.5t-32.5 22t-14.5 13t-3.5 10.5q0 8 4.5 14t12.5 6q7 0 13 -3.5t16 -13.5t26 -28t44 -46l6 102q1 15 5.5 21t14.5 6q11 0 16.5 -5.5t5.5 -12.5q0 -4 -2 -10t-6.5 -18t-11 -32t-14.5 -51
q15 5 33 14.5t35 18.5t31 15.5t20 6.5q7 0 12 -7t5 -11q0 -11 -5.5 -16t-20.5 -9t-41 -9.5t-68 -15.5q20 -13 40.5 -25.5t37 -23t27 -19t10.5 -12.5q0 -10 -6 -17t-17 -7q-4 0 -9.5 4.5t-16 15.5t-27 28.5t-43.5 43.5q-2 -50 -4 -77.5t-5 -40.5t-7 -15.5t-10 -2.5
q-17 0 -17 18q0 9 3.5 25t8.5 33t10 33.5t7 26.5q-8 -4 -25.5 -13.5t-36.5 -19.5t-35 -17.5t-22 -7.5z" />
    <glyph glyph-name="plus" unicode="+" horiz-adv-x="400" 
d="M198 278h30v-124h124v-30h-124v-124h-30v124h-124v30h124v124z" />
    <glyph glyph-name="comma" unicode="," horiz-adv-x="222" 
d="M182 38q0 -24 -18.5 -49t-45 -46t-55 -34t-47.5 -13q-6 0 -6 4q0 5 5.5 5.5t24.5 7.5q43 16 58.5 34t17.5 48q3 38 11.5 52.5t28.5 14.5q11 0 18.5 -5.5t7.5 -18.5z" />
    <glyph glyph-name="hyphen" unicode="-" horiz-adv-x="333" 
d="M289 120h-221l12 38h221z" />
    <glyph glyph-name="hyphen" unicode="&#xad;" horiz-adv-x="333" 
d="M289 120h-221l12 38h221z" />
    <glyph glyph-name="period" unicode="." horiz-adv-x="222" 
d="M153 62q29 0 29 -25q0 -20 -9 -31.5t-30 -11.5q-12 0 -18.5 5.5t-6.5 22.5t8 28.5t27 11.5z" />
    <glyph glyph-name="slash" unicode="/" horiz-adv-x="278" 
d="M495 698h35l-559 -704h-35z" />
    <glyph glyph-name="zero" unicode="0" 
d="M116 61q0 -24 9.5 -39.5t35.5 -15.5q25 0 53 20.5t55.5 54.5t52 77t43.5 87t30 85.5t11 73.5q0 26 -12 41t-41 15q-23 0 -49.5 -20t-52.5 -52.5t-50.5 -74.5t-43.5 -86.5t-30 -87.5t-11 -78zM76 120q0 34 13 73.5t34.5 79t49.5 75.5t59 63.5t62 44t59 16.5q38 0 53.5 -20
t15.5 -62q0 -40 -12.5 -85.5t-33.5 -89.5t-48 -84t-56.5 -70.5t-58.5 -48.5t-53 -18q-44 0 -64 36t-20 90z" />
    <glyph glyph-name="one" unicode="1" 
d="M109 0q69 111 142 219.5t136 214.5l-2 2q-42 -44 -92 -92t-116 -101q-39 -31 -54.5 -42t-22.5 -11q-4 0 -4 5q0 3 5.5 8t21 16.5t43.5 33t72 59.5q46 39 77 69t50.5 50.5t29.5 30.5t14 10q5 0 5 -10q0 -5 -10 -28t-26.5 -58.5t-39 -81t-48 -94.5t-52.5 -99t-53 -95
q-20 0 -38.5 -2t-37.5 -4z" />
    <glyph glyph-name="two" unicode="2" 
d="M63 53q0 1 9.5 9t23.5 18t32 18t35 8q10 0 20.5 -3t19.5 -9.5t14.5 -18t5.5 -28.5q0 -16 5 -23.5t19 -7.5q9 0 21.5 7.5t25.5 19t26 26t24 28.5t15.5 19.5t6.5 5.5q5 0 5 -6q0 -2 -8.5 -15t-39.5 -48q-20 -23 -46 -41t-55 -18q-32 0 -44 15.5t-15 38.5q-3 21 -6 28.5
t-16 7.5q-8 0 -19 -5t-23 -13t-24.5 -18.5t-21.5 -21.5q-18 -22 -24 -30t-9 -8q-6 0 -6 8q0 3 4 13t11 23t17 27t23 26q17 17 38 32.5t46.5 33t57 38.5t70.5 49q22 16 41 37t32.5 43.5t21 44.5t7.5 40q0 34 -19 45.5t-48 11.5q-30 0 -58.5 -12.5t-50.5 -32.5t-35.5 -44.5
t-13.5 -47.5q0 -20 11.5 -32.5t32.5 -12.5q17 0 34 11.5t31 28t25 35t16 32.5q8 21 11.5 28t5.5 7q5 0 5 -7q0 -22 -9.5 -48t-26 -49t-40 -38.5t-50.5 -15.5q-23 0 -40.5 14t-17.5 44q0 27 14 54t38 49t55.5 35.5t65.5 13.5q51 0 79.5 -24t28.5 -68q0 -53 -25.5 -87.5
t-63.5 -58.5t-82 -42t-80 -40q-21 -12 -41.5 -27t-36.5 -28.5t-26 -24t-10 -14.5z" />
    <glyph glyph-name="three" unicode="3" 
d="M431 396q0 -34 -19 -57.5t-46 -40t-57.5 -28.5t-53.5 -24v-2q44 0 69 -22.5t25 -58.5q0 -32 -17.5 -62.5t-45.5 -54t-63.5 -38t-72.5 -14.5q-31 0 -51.5 7.5t-32.5 20t-17 28t-5 30.5q0 16 10.5 31.5t27.5 15.5t24 -8.5t7 -19.5q0 -27 -33 -36q-9 -2 -11.5 -6t-2.5 -9
q1 -17 18.5 -29.5t51.5 -12.5q28 0 58 18.5t54.5 46t40.5 60.5t16 63q0 38 -45 38q-15 0 -27.5 -4t-21.5 -9.5t-15 -9.5t-9 -4q-7 0 -7 8q0 3 3 5t12 6.5l25 12.5t41 23q71 44 98.5 82t27.5 71q0 47 -52 47q-25 0 -50.5 -10t-45.5 -26t-33 -36t-13 -40q0 -14 10 -21t19 -7
q25 0 50.5 23.5t45.5 54.5q10 16 10.5 22t5.5 6q3 0 3 -8q1 -17 -7 -36t-22 -35.5t-33.5 -27.5t-41.5 -11q-23 0 -37.5 10t-14.5 33q0 18 12.5 39t34.5 39.5t50.5 30.5t60.5 12q16 0 32.5 -4.5t29.5 -14t21.5 -24t8.5 -33.5z" />
    <glyph glyph-name="four" unicode="4" 
d="M355 472q-66 -95 -133 -188t-142 -179l2 -2q24 11 52 11q18 0 30 -1.5t22 -3t21 -2.5t27 -1q58 88 90 136.5t47.5 71.5t20 28t7.5 5q7 0 7 -5q0 -2 -4 -9t-16 -30.5t-35 -69.5t-62 -125q23 0 38 8t29 16q13 8 15 10t4 2q4 0 4 -5q0 -3 -7 -10t-19.5 -14.5t-30.5 -13
t-39 -5.5l-44 -96q-8 0 -19 -0.5t-23 -1t-22 -1t-16 -0.5l66 97q-18 0 -29.5 1t-20.5 2.5t-18.5 3t-24.5 1.5q-32 0 -50.5 -11t-23.5 -11q-4 0 -4 6q0 4 14.5 22t43 60.5t69.5 114.5t94 183z" />
    <glyph glyph-name="five" unicode="5" 
d="M163 241l1 -1q17 17 42 31t55 14q48 0 72.5 -28.5t24.5 -70.5q0 -36 -20 -70.5t-51 -61.5t-69 -43.5t-73 -16.5q-51 0 -75 23.5t-24 53.5q0 26 12 41.5t31 15.5q31 0 31 -27q0 -17 -10.5 -24t-25.5 -9q-9 -2 -10.5 -7.5t-1.5 -13.5q0 -14 12.5 -27.5t44.5 -13.5
q38 0 71 22t57.5 56t38.5 72.5t14 71.5q0 20 -15 32.5t-37 12.5q-24 0 -44 -10.5t-35 -23t-25 -23t-15 -10.5q-8 0 -8 6q0 2 3 7t17 27t42.5 68.5t79.5 130.5q8 11 10.5 16t7.5 5q6 0 13.5 -2.5t18 -5.5t25.5 -5.5t36 -2.5q42 0 63 11t24 11q4 0 4 -4t-9.5 -14.5t-28 -22
t-46 -20.5t-62.5 -9q-14 0 -28.5 2.5t-27.5 8.5z" />
    <glyph glyph-name="six" unicode="6" 
d="M108 51q0 -20 11 -32.5t28 -12.5q28 0 57 24t52 58.5t37.5 72t14.5 65.5q0 27 -8.5 40.5t-29.5 13.5q-30 0 -59 -25t-52 -61t-37 -75.5t-14 -67.5zM352 199q0 -33 -16 -69.5t-43 -66.5t-61.5 -49.5t-71.5 -19.5q-44 0 -65 31t-21 85q0 41 16 84t42 83.5t60.5 76t72 61.5
t74.5 41.5t70 15.5q39 0 62 -17.5t23 -49.5q0 -21 -11.5 -33.5t-23.5 -12.5q-31 0 -31 30q0 12 4.5 18t9.5 9.5t9.5 7t4.5 9.5q0 11 -12.5 19t-36.5 8q-27 0 -54.5 -14t-54.5 -36.5t-51 -51t-43 -56t-32.5 -52.5t-18.5 -41l2 -2q9 13 20.5 28t26.5 27.5t32.5 21t37.5 8.5
q35 0 57.5 -27t22.5 -66z" />
    <glyph glyph-name="seven" unicode="7" 
d="M249 486q-14 -20 -27.5 -41t-27.5 -40l2 -2q6 6 17 15t23.5 18t24.5 15.5t20 6.5q15 0 27 -7t23.5 -16t24 -16t29.5 -7q18 0 30 5.5t22 14.5q7 7 10.5 14l6.5 13t6.5 9.5t9.5 3.5q7 0 7 -9q0 -12 -16.5 -28.5t-42.5 -53.5q-32 -45 -57.5 -82t-52 -78.5t-57.5 -93.5
t-73 -127q-31 -1 -48.5 -1.5t-31.5 -4.5q23 37 52.5 78t61.5 82t63.5 80t60.5 73t52 60.5t38 41.5l-2 2q-20 -10 -41 -19.5t-45 -9.5q-12 0 -25 6t-25.5 13.5t-23.5 14t-19 6.5q-18 0 -33 -14t-27 -31.5t-22.5 -31.5t-19.5 -14q-13 0 -13 12q0 9 6.5 17.5t15 16.5t17.5 15
t14 14q3 4 9.5 14.5t13 22t12.5 22.5t9 16z" />
    <glyph glyph-name="eight" unicode="8" 
d="M400 399q0 30 -17.5 45.5t-49.5 15.5q-18 0 -35 -8t-29.5 -22t-20.5 -32t-8 -37q0 -28 13 -51t29 -44q23 9 44 21.5t37.5 29t26.5 37t10 45.5zM278 121q0 14 -4 29.5t-10.5 30.5t-14.5 29t-16 24q-23 -10 -48.5 -24.5t-46.5 -33.5t-34.5 -42.5t-13.5 -52.5
q0 -40 20.5 -57.5t57.5 -17.5q24 0 44 9t35 25t23 36.5t8 44.5zM328 149q0 -29 -12.5 -57t-34.5 -50t-53 -35t-67 -13q-26 0 -45.5 7.5t-32.5 20.5t-20 29t-7 33q0 30 18.5 55.5t45 45.5t56 35t50.5 24q-14 23 -25 49t-11 54q0 26 12.5 49t32.5 40t45.5 26.5t52.5 9.5
q39 0 64 -18.5t25 -59.5q0 -28 -12.5 -49.5t-32 -38t-43 -29t-45.5 -22.5q14 -24 26.5 -50.5t12.5 -55.5z" />
    <glyph glyph-name="nine" unicode="9" 
d="M346 460q-35 0 -62 -29t-46.5 -67.5t-29.5 -75t-10 -51.5q0 -20 9.5 -33.5t32.5 -13.5t49 21t48 53t36.5 70t14.5 72q0 25 -9.5 39.5t-32.5 14.5zM154 275q0 33 15.5 68t41 63.5t58.5 47t67 18.5q48 0 67 -30.5t19 -76.5q0 -79 -32 -146.5t-79 -117.5t-101 -78.5
t-99 -28.5q-20 0 -38.5 4.5t-32.5 14t-22 25t-8 38.5q0 15 8.5 25.5t26.5 10.5q14 0 21.5 -10t7.5 -20t-4 -16t-9 -11l-9 -9t-4 -10q0 -13 14.5 -21.5t44.5 -8.5t59.5 14t56 36t49 51t40.5 59t30 58.5t16 51.5l-2 2q-30 -51 -59 -75.5t-64 -24.5q-21 0 -36 8t-24.5 21.5
t-14 31t-4.5 36.5z" />
    <glyph glyph-name="colon" unicode=":" horiz-adv-x="333" 
d="M275 260q29 0 29 -25q0 -20 -9 -31.5t-30 -11.5q-12 0 -18.5 5.5t-6.5 22.5t8 28.5t27 11.5zM153 62q29 0 29 -25q0 -20 -9 -31.5t-30 -11.5q-12 0 -18.5 5.5t-6.5 22.5t8 28.5t27 11.5z" />
    <glyph glyph-name="semicolon" unicode=";" horiz-adv-x="333" 
d="M275 260q29 0 29 -25q0 -20 -9 -31.5t-30 -11.5q-12 0 -18.5 5.5t-6.5 22.5t8 28.5t27 11.5zM182 38q0 -24 -18.5 -49t-45 -46t-55 -34t-47.5 -13q-6 0 -6 4q0 5 5.5 5.5t24.5 7.5q43 16 58.5 34t17.5 48q3 38 11.5 52.5t28.5 14.5q11 0 18.5 -5.5t7.5 -18.5z" />
    <glyph glyph-name="less" unicode="&#x3c;" horiz-adv-x="400" 
d="M342 -4l-278 128v30l278 128v-30l-244 -113l244 -113v-30z" />
    <glyph glyph-name="equal" unicode="=" horiz-adv-x="400" 
d="M352 70h-278v30h278v-30zM352 178h-278v30h278v-30z" />
    <glyph glyph-name="greater" unicode="&#x3e;" horiz-adv-x="400" 
d="M100 26l244 113l-244 113v30l278 -128v-30l-278 -128v30z" />
    <glyph glyph-name="question" unicode="?" 
d="M113 62q29 0 29 -25q0 -20 -9 -31.5t-30 -11.5q-12 0 -18.5 5.5t-6.5 22.5t8 28.5t27 11.5zM343 490q39 0 62 -26t23 -65q0 -37 -14.5 -62t-37 -43.5t-48.5 -33t-50 -29.5q-36 -23 -59.5 -47t-38 -44t-22.5 -33t-12 -13t-4 6q0 3 9.5 18t25.5 35.5t36.5 44t41.5 42.5
q37 33 62 59.5t41 50t23 43.5t7 40q0 23 -15.5 34t-36.5 11q-18 0 -35.5 -6.5t-31.5 -17t-22.5 -24.5t-8.5 -30q13 -5 21.5 -11t8.5 -22q0 -11 -8 -19t-21 -8q-16 0 -23.5 10.5t-7.5 26.5q0 22 12.5 42.5t32 36t43.5 25t47 9.5z" />
    <glyph glyph-name="at" unicode="@" horiz-adv-x="800" 
d="M636 420q0 32 -14.5 49t-52.5 17q-29 0 -57.5 -19t-51 -49t-36 -66.5t-13.5 -72.5q0 -51 19.5 -70t52.5 -19q18 0 42 15t47 44.5t41 72t23 98.5zM661 512h44l-66 -257q-2 -9 -3.5 -15t-1.5 -12q0 -18 16.5 -34.5t39.5 -16.5q40 0 69.5 21t49 55t29 75t9.5 82
q0 43 -20.5 90t-59.5 86.5t-96.5 65.5t-132.5 26q-69 0 -128 -24t-101.5 -68.5t-66.5 -107.5t-24 -142q0 -65 22.5 -122.5t65 -100.5t103.5 -68t139 -25q34 0 61.5 4t51.5 10.5t45.5 15.5t43.5 18l14 -17q-50 -21 -102.5 -39t-112.5 -18q-100 0 -172 33.5t-119 83.5
t-69.5 109.5t-22.5 110.5q0 82 30 150t81 116t118.5 74.5t142.5 26.5q71 0 132 -22.5t106 -63t71 -95.5t26 -119q0 -39 -12.5 -82t-36.5 -78.5t-59 -59t-80 -23.5q-26 0 -43.5 9.5t-28 21.5t-15 24t-4.5 17h-2q-5 -7 -15.5 -19t-26 -23.5t-35 -20t-42.5 -8.5
q-45 0 -71.5 31.5t-26.5 94.5q0 17 5.5 41t16.5 50.5t27.5 53t38.5 47t50.5 33.5t62.5 13q31 0 47.5 -14.5t26.5 -33.5z" />
    <glyph glyph-name="A" unicode="A" horiz-adv-x="1056" 
d="M868 233q0 30 -5.5 63.5t-14.5 55.5q-53 -52 -102 -106t-106 -102q42 -32 95 -48t101 -22q14 38 23 77.5t9 81.5zM874 146q63 146 152 277.5t204 242.5l-2 2q-17 -2 -55.5 -27.5t-89.5 -67t-109.5 -96t-115.5 -115.5q13 -30 17.5 -61t4.5 -61q0 -46 -8 -92zM532 342
q0 -68 28.5 -113.5t67.5 -76.5q58 49 109.5 103.5t105.5 109.5q-14 25 -30.5 47.5t-37 39.5t-45.5 27t-56 10q-26 0 -51.5 -8.5t-45.5 -26.5t-32.5 -46t-12.5 -66zM876 0h-72l28 62q-54 8 -106.5 24.5t-95.5 48.5q-34 -30 -73.5 -55.5t-84.5 -44.5t-96 -30t-106 -11
q-52 0 -98.5 14.5t-81.5 41.5t-55.5 64t-20.5 82q0 55 25 97.5t63 72t82.5 45t83.5 15.5q46 0 81 -12.5t59 -33.5t36 -48t12 -57q0 -39 -18.5 -70t-47.5 -52.5t-65 -33t-71 -11.5q-31 0 -38.5 2t-7.5 7q0 6 6 6q4 0 10.5 -1.5t19.5 -1.5q39 0 74.5 10.5t62.5 30.5t43 48.5
t16 63.5q0 51 -38.5 83t-114.5 32q-43 0 -87 -15.5t-79.5 -43t-58 -66.5t-22.5 -85q0 -37 19.5 -68.5t51.5 -54.5t73 -36t83 -13q101 0 185.5 33.5t166.5 103.5q-53 42 -89 95t-36 122q0 40 13.5 69.5t35.5 49.5t48.5 30t53.5 10q34 0 65.5 -11.5t58.5 -31t48.5 -45.5
t35.5 -55q78 85 146 146t121.5 100t90.5 57.5t54 18.5q5 0 5 -7q0 -2 -12 -15.5t-33.5 -40.5t-51.5 -69.5t-66 -101.5q-31 -50 -57.5 -99t-51 -98t-48 -98.5t-48.5 -98.5q21 0 42.5 5t45.5 14q21 8 35 17.5t23.5 17.5t14.5 13.5t7 5.5q5 0 5 -5q0 -3 -11.5 -15t-33.5 -25.5
t-55.5 -25.5t-76.5 -14z" />
    <glyph glyph-name="B" unicode="B" horiz-adv-x="944" 
d="M166 348q0 -40 22.5 -64t68.5 -24q49 0 97 32.5t86.5 80t62 101.5t23.5 98q0 36 -7.5 61t-20.5 39q-50 -12 -108 -40t-108 -70t-83 -96t-33 -118zM774 364q28 -6 52.5 -19.5t43 -32.5t29.5 -44t11 -55q0 -45 -23 -84.5t-58.5 -69.5t-79.5 -47.5t-86 -17.5q-23 0 -43.5 7
t-36.5 19.5t-25.5 30.5t-9.5 41q0 35 17.5 63.5t35.5 46.5q7 7 16 15t17 14.5t14 10.5t7 4q5 0 5 -6q0 -3 -12.5 -11.5t-35.5 -30.5t-37.5 -50t-14.5 -52q0 -42 27.5 -66t68.5 -24q42 0 76.5 21.5t60 55.5t39.5 74t14 78q0 34 -8 57t-20 37.5t-27 20.5t-30 6q-12 0 -18.5 -2
l-13 -4t-15 -4t-23.5 -2q-19 0 -19 14q0 8 8.5 12t30.5 4q15 0 22.5 -1t13.5 -1q30 0 55 17t42 42.5t26.5 55.5t9.5 57q0 38 -11 62t-37 40q-46 -31 -82 -76.5t-66 -96.5t-57 -103t-55 -97q-30 -48 -70 -98t-88 -90t-103.5 -65.5t-117.5 -25.5q-26 0 -48 6.5t-38.5 18.5
t-25.5 27.5t-9 33.5q0 17 12 28.5t29 11.5q37 0 37 -36q0 -10 -5 -18.5t-5 -16.5q0 -17 13 -30t45 -13q40 0 79 13t77 45t77.5 85.5t81.5 135.5q33 64 65.5 117t69 98t78.5 83t92 71q-44 20 -93 28t-98 8q-56 0 -115 -14q23 -21 33.5 -55t10.5 -64q0 -54 -24.5 -110
t-65.5 -101t-95 -73.5t-113 -28.5q-45 0 -76.5 27t-31.5 80q0 57 32.5 110.5t82.5 98t109.5 76t113.5 44.5q-24 19 -53 27.5t-59 8.5q-40 0 -76.5 -11.5t-68 -30t-56.5 -41.5t-41 -47q-23 -33 -34.5 -54.5t-16.5 -34t-6 -17t-4 -4.5q-5 0 -5 5q0 4 12.5 34.5t43.5 73.5
q20 28 47.5 53.5t60 44.5t69.5 30t76 11q34 0 66.5 -11t58.5 -32q33 8 65 12.5t64 4.5q106 0 202 -39q17 9 35.5 19t34.5 10q4 0 4 -4q0 -2 -4 -3.5t-11.5 -4t-18.5 -8t-26 -15.5q41 -21 66 -55t25 -79q0 -32 -15 -58t-39 -46t-53 -33t-57 -20v-2z" />
    <glyph glyph-name="C" unicode="C" horiz-adv-x="667" 
d="M634 223q0 31 -15 50t-47 19t-64 -24.5t-58 -62.5t-42.5 -85t-16.5 -92v-22q37 1 80 20t79 49t60 68.5t24 79.5zM798 686q-32 0 -66 -8.5t-66 -22t-60.5 -29t-48.5 -29.5q13 -17 23.5 -34t18.5 -31.5t12.5 -24t4.5 -10.5q0 -6 -6 -6q-2 0 -5 6.5t-9.5 19t-17.5 31.5
t-30 44q-66 -42 -117.5 -99t-90.5 -125q68 0 132.5 13t121.5 34.5t104.5 49t81.5 57.5t53 59.5t19 54.5q0 20 -12 35t-42 15zM299 716q-47 0 -86.5 -14.5t-68 -39t-44.5 -56.5t-16 -66q0 -38 18.5 -68.5t47 -52t62.5 -33.5t66 -14q22 37 54.5 72t68 65t71.5 55t65 42
q-44 54 -107 82t-131 28zM864 634q0 -30 -23 -63t-62.5 -65.5t-92 -62.5t-112.5 -53.5t-123.5 -38.5t-124.5 -17q-23 -49 -38.5 -101.5t-15.5 -107.5q0 -61 21.5 -89t84.5 -30q-1 8 -2 15.5t-1 15.5q0 58 15 108t41 86t61 56.5t76 20.5q38 0 58 -25t20 -61q0 -43 -24 -82.5
t-61.5 -70.5t-82.5 -51t-86 -23q4 -42 11 -65.5t7 -27.5q0 -6 -5 -6q-2 0 -6 11t-8 27t-7 32.5t-4 27.5q-85 0 -128.5 47.5t-43.5 127.5q0 19 4.5 41t11.5 44.5t16 43.5t18 38q-38 3 -72.5 18.5t-60.5 40t-41.5 57t-15.5 70.5q0 45 18 83t50 65t76 42.5t97 15.5q27 0 59 -7
t63.5 -21t61.5 -36t54 -52q25 14 55 29.5t61.5 28t64 20.5t62.5 8q32 0 53 -15t21 -49z" />
    <glyph glyph-name="D" unicode="D" horiz-adv-x="889" 
d="M210 322q0 -46 26 -65t68 -19q52 0 97.5 27t80 69.5t54.5 93.5t20 99q0 40 -13 80.5t-42 68.5q-53 -16 -105.5 -49.5t-93.5 -80t-66.5 -103.5t-25.5 -121zM334 8q17 1 36.5 -0.5t49.5 -1.5q91 0 175.5 27t150 78.5t105 125.5t39.5 169q0 51 -16 102.5t-53 89.5
q-31 -35 -55.5 -73.5t-47 -78.5t-44 -81.5t-45.5 -82.5q-22 -38 -53.5 -80.5t-69.5 -81t-82 -68.5t-90 -42v-2zM104 27q0 17 42 17q26 0 48.5 -4t43.5 -8.5t41.5 -8t42.5 -3.5q36 0 70 26.5t65.5 67.5t61 91.5t55.5 98.5q32 58 61.5 104.5t57.5 84t56 67t57 53.5
q-17 18 -41.5 31.5t-53 23t-58 14t-57.5 4.5q-20 0 -42 -1.5t-40 -5.5q28 -27 41 -69t13 -78q0 -52 -21 -106t-57.5 -98.5t-85.5 -73t-104 -28.5q-30 0 -56 10t-44.5 28.5t-29 44t-10.5 56.5q0 62 30 116t77.5 96t105.5 70.5t115 39.5q-25 17 -56.5 25t-62.5 8
q-78 0 -138 -38t-105 -100q-28 -39 -42 -77.5t-21 -69.5t-10 -50t-7 -19t-4 7q0 3 2 22t8.5 47t18.5 61t32 64q53 83 123 124t145 41q29 0 65.5 -10t65.5 -32q27 4 49.5 6t37.5 2q30 0 61.5 -4.5t61.5 -14.5t56.5 -24.5t46.5 -33.5q19 15 40.5 29t40 24.5t31.5 17t14 6.5
q5 0 5 -9q0 -2 -10.5 -7t-27 -15t-37.5 -24.5t-42 -36.5q37 -40 55 -90.5t18 -104.5q0 -105 -42.5 -183t-113 -130t-161 -78t-185.5 -26q-20 0 -40.5 3t-40.5 3q-26 0 -51.5 -3t-51.5 -3q-112 0 -112 33z" />
    <glyph glyph-name="E" unicode="E" horiz-adv-x="556" 
d="M670 664q0 32 -46 32q-17 0 -35.5 -5.5t-36.5 -13.5t-35 -18t-31 -19q17 -19 32 -35.5t15 -18.5q0 -6 -5 -6q-2 0 -4.5 3l-7.5 9t-14.5 16.5t-25.5 25.5q-44 -32 -74 -73.5t-30 -92.5q45 7 97 26t97 46t74.5 59.5t29.5 64.5zM522 222q0 31 -16 50.5t-48 19.5
q-30 0 -62 -25.5t-58 -64.5t-43 -85t-17 -87v-13t1 -11q39 -2 82 16.5t79 49.5t59 70t23 80zM110 596q0 -35 14.5 -60t38.5 -41.5t56 -24.5t68 -8q8 0 17 0.5t18 1.5q-1 7 -1.5 13.5t-0.5 14.5q0 28 11.5 52.5t30.5 45.5t42 37.5t46 28.5q-37 29 -81 45.5t-91 16.5
q-24 0 -53.5 -7.5t-55 -22.5t-42.5 -38t-17 -54zM396 402q-31 11 -59 38q-32 -8 -60 -8q-41 0 -76 10t-61 28t-41 44.5t-15 59.5q0 38 18 67t46 49t63 30t69 10q50 0 96 -18.5t84 -49.5q38 18 79 32t85 14q27 0 42.5 -11.5t15.5 -39.5q0 -23 -18 -47.5t-46 -47.5t-63 -43
t-69 -35.5t-64 -25t-48 -10.5q5 -17 15.5 -29.5t29.5 -12.5q5 0 14.5 2t22.5 2q14 0 27 -4.5t13 -10.5q0 -13 -23 -13q-26 0 -38 6t-21 6q-30 0 -71.5 -18.5t-79 -53t-63.5 -84t-26 -110.5q0 -56 22.5 -85t69.5 -36q-2 9 -3 19t-1 20q0 57 16 105t43 83t62.5 54.5t73.5 19.5
q37 0 57 -26t20 -60q0 -44 -24 -84.5t-61.5 -72t-82.5 -51t-86 -20.5q3 -32 11.5 -60t8.5 -33q0 -3 -5 -3q-4 0 -5.5 9t-9.5 34q-5 14 -7.5 28.5t-4.5 24.5q-34 0 -63.5 9.5t-51.5 27.5t-34.5 45.5t-12.5 63.5q0 54 27.5 98.5t70.5 78t94 55t98 28.5v2z" />
    <glyph glyph-name="F" unicode="F" horiz-adv-x="889" 
d="M740 664q-80 0 -139.5 -16t-98.5 -41.5t-58.5 -57.5t-19.5 -64q0 -37 27 -60t71 -23q36 0 69 9.5t62.5 25t54.5 35.5t45 41q16 18 26.5 32t16.5 23.5t9 14.5t5 5q3 0 4.5 -2t1.5 -4q0 -1 -7.5 -17.5t-23 -39.5t-38 -50t-51.5 -50t-65.5 -38t-78.5 -15q-33 0 -59.5 9.5
t-45.5 24.5t-29 35t-10 41q0 22 8.5 45.5t29 46.5t53.5 44.5t83 39.5q28 10 59.5 16.5t79.5 10t119.5 4.5t181.5 1q50 0 86.5 3t61.5 6t39.5 6t22.5 3q2 0 2 -5q0 -3 -10 -13.5t-29.5 -21.5t-48.5 -19.5t-67 -8.5q-42 0 -80 3.5t-77.5 8t-83.5 8.5t-98 4zM283 394
q-47 0 -93.5 -16t-84.5 -44.5t-61.5 -67t-23.5 -84.5q0 -39 19 -71.5t53 -55.5t81 -36t103 -13q80 0 144 20.5t116 59t94 93t80 123.5q-42 -12 -76 -34t-59 -45q-21 -20 -25 -27.5t-8 -7.5q-5 0 -5 6q0 2 12.5 17t36 34.5t57.5 39.5t77 31q20 31 40.5 62t40 59t37 51
t32.5 37q25 24 48.5 42.5t43 31.5t33 20t17.5 7t4 -4q0 -5 -20 -15.5t-52 -38.5q-22 -20 -44 -51.5t-42.5 -66.5t-37.5 -68.5t-30 -57.5q27 6 54.5 13.5t52.5 16t45 16.5t33 15q8 4 12 7.5t8 3.5q7 0 7 -6q0 -2 -12.5 -15.5t-30.5 -37t-37 -55.5t-32 -70q-17 -8 -41 -18
t-47 -22l-2 2q5 16 20 38.5t34.5 47t42 49.5t43.5 47l-2 2q-36 -16 -75.5 -26t-80.5 -20q-39 -74 -91 -133t-116.5 -100t-140 -63t-160.5 -22q-57 0 -107 14t-87 40.5t-58.5 64.5t-21.5 87q0 47 22.5 88.5t60 72t85.5 48t100 17.5q33 0 67.5 -8.5t63 -26.5t47 -46t18.5 -67
q0 -41 -19 -72.5t-50 -53.5t-69 -33t-76 -11q-24 0 -46.5 5t-40 11.5t-27.5 12.5t-10 9q0 8 4 8q3 0 11 -5.5t23 -11.5t37.5 -11.5t52.5 -5.5q34 0 68.5 10t62.5 29.5t45.5 49t17.5 67.5q0 53 -41.5 85.5t-123.5 32.5z" />
    <glyph glyph-name="G" unicode="G" horiz-adv-x="833" 
d="M1020 638q0 26 -14.5 37t-47.5 11q-28 0 -59.5 -7.5t-62.5 -19.5t-59.5 -27.5t-50.5 -31.5q23 -35 39.5 -62t16.5 -35q0 -5 -8 -5q-3 0 -17 29t-41 65q-60 -42 -109 -97t-73 -125q55 0 113 12.5t112 33t101.5 47.5t83 56.5t56 60t20.5 58.5zM250 536q0 -39 20 -69
t51.5 -51t70 -31.5t74.5 -10.5q15 40 40.5 74t56.5 63.5t66 54t71 46.5q-42 49 -104 76.5t-134 27.5q-48 0 -87 -16t-67 -41.5t-43 -57.5t-15 -65zM836 353q-24 -24 -56 -53.5t-67.5 -55t-73 -43t-74.5 -17.5q-26 0 -47 10t-35 27t-21.5 39t-7.5 47q0 6 1 13.5t3 13.5
q-38 0 -78 13t-72.5 37t-53 58t-20.5 76q0 49 19.5 88t51.5 66t74.5 41.5t89.5 14.5q69 0 132.5 -29.5t108.5 -80.5q23 13 54 27t65 26t67.5 19.5t60.5 7.5q37 0 57.5 -17.5t17.5 -44.5q0 -29 -21.5 -61t-58.5 -63t-87 -60.5t-106.5 -53t-116.5 -40t-118 -22.5
q-5 -11 -8.5 -25.5t-3.5 -27.5q0 -49 15 -66t40 -17q35 0 71 15.5t69 38.5t62.5 49.5t52.5 49.5t39 38.5t22 15.5q7 0 7 -4q0 -5 -6 -12.5t-21 -32t-40.5 -74.5t-64.5 -140q-34 -78 -84.5 -138t-112 -101.5t-131 -63t-142.5 -21.5q-56 0 -104 14.5t-83 40t-55 61.5t-20 78
q0 51 25.5 94t65.5 73.5t88.5 47.5t93.5 17q38 0 73 -10t61.5 -29t42.5 -47t16 -64q0 -38 -18 -68.5t-46.5 -52.5t-64 -33.5t-71.5 -11.5q-26 0 -50.5 4t-43 10t-29.5 12t-11 9q0 2 2 3.5t4 1.5q3 0 12 -4.5t24 -9.5t36.5 -9.5t50.5 -4.5q33 0 67.5 10t62.5 29.5t45.5 48.5
t17.5 67q0 28 -12.5 50t-34 37.5t-50.5 23.5t-61 8q-46 0 -94 -15.5t-87 -44.5t-64 -70t-25 -92q0 -32 17 -61.5t48 -52t74.5 -35.5t96.5 -13q59 0 108.5 15t91.5 44t79.5 71t72.5 95q34 52 65.5 100t57 87t45 67t30.5 40z" />
    <glyph glyph-name="H" unicode="H" horiz-adv-x="1056" 
d="M1364 648q0 19 -9 26.5t-27 7.5q-32 0 -72.5 -24t-82.5 -62t-82 -86t-69 -96q21 7 54.5 18t71.5 26t76.5 34.5t69.5 43.5t50.5 52t19.5 60zM742 316q10 6 38 16.5t60 22t61 22t43 15.5q17 23 43.5 54.5t59.5 65.5t70 67t75 59.5t75 43t70 16.5q24 0 40.5 -11t16.5 -37
q0 -32 -21 -61t-55 -54.5t-76.5 -48t-85 -40.5t-81.5 -31.5t-65 -21.5q-14 -22 -36.5 -62.5t-44 -88.5t-37.5 -99t-16 -94q0 -15 6 -24t16 -9q23 0 51 17.5t66 53.5q30 29 42.5 45t16.5 16q5 0 5 -5q0 -3 -21.5 -27t-51.5 -52q-27 -25 -56 -44.5t-52 -19.5q-29 0 -47.5 21
t-18.5 75q0 44 9 83.5t23 74t31 63t33 51.5l-2 2l-45 -15t-55 -19t-54 -20.5t-41 -19.5q-36 -64 -82.5 -119t-104.5 -95.5t-127 -64t-149 -23.5q-56 0 -102.5 13.5t-80 38.5t-52.5 60.5t-19 78.5q0 56 22.5 101t60.5 76.5t87.5 48.5t102.5 17q32 0 63.5 -10t57 -28.5t41 -46
t15.5 -62.5q0 -39 -19 -70.5t-50 -54t-69 -34.5t-75 -12q-20 0 -39 3t-34 7t-24.5 8t-9.5 7q0 7 7 7q1 0 9 -3t21 -7t29.5 -7t35.5 -3q34 0 70 10t65 30t48 49.5t19 68.5q0 24 -11.5 45t-32.5 36t-50 24t-65 9q-48 0 -93.5 -16t-81.5 -45t-58 -70.5t-22 -92.5
q0 -34 17 -63.5t47.5 -52t74 -35.5t96.5 -13q62 0 118.5 21.5t105 57.5t87.5 84t66 101q-18 -7 -39.5 -19t-41 -24t-33 -20.5t-14.5 -8.5q-8 0 -8 5q0 4 14.5 14t36.5 22.5t48.5 26.5t50.5 26q16 27 41 66.5t54.5 82t62.5 82.5t66 67l-2 2q-19 -11 -40.5 -24t-44 -24
t-46 -18.5t-46.5 -7.5q-69 0 -69 71q0 29 3 45t3 26q0 22 -15 22q-5 0 -16.5 -4.5t-29.5 -16t-42 -31t-54 -50.5q-51 -54 -72.5 -88t-26.5 -34q-6 0 -6 6q0 1 9 14.5t23.5 33t34 43t40.5 44.5q43 44 83 71.5t81 27.5q31 0 42 -20.5t11 -44.5q0 -17 -2 -31t-2 -35
q0 -22 5 -27.5t19 -5.5q19 0 42 8t47.5 21t50 29t50.5 32q15 10 31 23.5t32 26t30.5 21.5t26.5 9q16 0 16 -12q0 -11 -12.5 -17.5t-32 -14.5t-44 -21t-47.5 -36q-22 -22 -44 -58t-44.5 -76.5t-44 -80.5t-41.5 -70z" />
    <glyph glyph-name="I" unicode="I" horiz-adv-x="778" 
d="M1012 681q-2 0 -4 0.5t-4 0.5q-12 0 -45.5 -5t-77 -16.5t-90.5 -31.5t-86.5 -49t-65 -68.5t-25.5 -91.5q0 -18 4 -34t13.5 -28.5t26 -20.5t40.5 -9q28 55 65.5 111.5t79.5 105t85 84t84 50.5v2zM30 196q0 50 25 92t64 72t86.5 47t91.5 17q35 0 70.5 -9.5t63.5 -28.5
t45.5 -48t17.5 -67q0 -36 -16.5 -66.5t-45 -53t-66.5 -35t-82 -12.5q-23 0 -45.5 5t-40.5 11.5t-29 12.5t-11 8q0 7 5 7q3 0 12.5 -5t25 -11t36.5 -11t47 -5q43 0 79.5 12t62.5 32.5t41 48.5t15 60q0 33 -14 56t-36.5 37.5t-51 21t-56.5 6.5q-47 0 -95 -15.5t-86.5 -44.5
t-62.5 -70.5t-24 -92.5q0 -45 23 -75.5t57.5 -49.5t76 -27.5t77.5 -8.5q77 0 136.5 25.5t107 68t85.5 98.5t73 118q-23 2 -44 9t-37 20.5t-25.5 32.5t-9.5 45q0 54 29 95t74.5 71.5t101.5 51.5t111 33.5t102.5 18t75.5 5.5q4 0 4 -6q0 -2 -8 -3t-23 -6.5t-37 -17.5t-50 -35
q-32 -27 -57.5 -62.5t-48 -75t-43 -81.5t-42.5 -81q28 5 52.5 19t42.5 29t29 26.5t13 11.5q4 0 4 -6q0 -5 -13 -18.5t-34 -29t-47.5 -29t-53.5 -17.5q-29 -54 -57.5 -97t-62 -77.5t-74 -61t-91.5 -48.5q-54 -23 -101 -30.5t-92 -7.5t-89.5 12.5t-80 38t-58 63.5t-22.5 88z
" />
    <glyph glyph-name="J" unicode="J" horiz-adv-x="833" 
d="M1062 678q-72 -9 -145 -34.5t-132.5 -64.5t-97 -90t-37.5 -110q0 -38 24 -64t66 -25q40 73 76 127.5t73.5 99t79.5 82.5t95 77zM-56 -132q0 -41 17.5 -73t46.5 -54.5t65.5 -34.5t74.5 -12q64 0 124.5 23t114.5 61t99 87.5t77 102.5q-27 -4 -71 -16t-87 -27t-76 -29
t-39 -22q-23 -30 -49 -52t-48 -22q-13 0 -17 5.5t-4 15.5t17.5 22t39 22.5t40 18t19.5 8.5q9 10 15.5 26t6.5 41q0 34 -12 56.5t-31 36.5t-44 20t-50 6q-44 0 -85 -16t-73 -44t-51.5 -66.5t-19.5 -83.5zM640 -2q45 14 80 36t61 44q37 32 51.5 51.5t17.5 19.5q6 0 6 -6
q0 -2 -7 -10.5t-17.5 -20t-23.5 -24t-25 -22.5q-30 -26 -70.5 -50t-88.5 -37q-38 -54 -87.5 -107t-108 -95t-123.5 -68.5t-133 -26.5q-58 0 -104 15t-78 42t-49 65t-17 83q0 47 19.5 88.5t51.5 73t74.5 49.5t88.5 18q33 0 63 -9.5t53.5 -27.5t37.5 -45t14 -63
q0 -18 -4.5 -35t-9.5 -34q63 26 127.5 48t132.5 34q21 36 42.5 76t42.5 79.5t40.5 74.5t34.5 60q-23 0 -44.5 7.5t-38.5 22.5t-27 36.5t-10 48.5q0 53 28 96.5t73.5 77.5t103 59.5t115 42.5t110.5 25t90 8q10 0 10 -5q0 -4 -17.5 -8t-46 -19t-65.5 -47.5t-77 -94.5
q-24 -38 -42.5 -70t-33.5 -60t-27.5 -53t-25.5 -50q16 2 37 11t37 20q34 22 45 38t16 16t5 -4q0 -2 -10 -15t-29.5 -29t-47 -31.5t-63.5 -21.5q-40 -70 -77 -139.5t-82 -135.5z" />
    <glyph glyph-name="K" unicode="K" horiz-adv-x="1111" 
d="M858 338q48 -18 73 -54t25 -80q0 -11 -3 -28t-6 -37t-6 -41t-3 -41t6.5 -32.5t21.5 -12.5q11 0 36.5 14.5t61.5 52.5q37 38 51.5 56.5t17.5 18.5q5 0 5 -6q0 -2 -12.5 -17t-42.5 -48q-74 -83 -125 -83q-14 0 -29 8.5t-27 23.5t-20 36.5t-8 47.5q0 20 3 42.5t6 43t6 37
t3 24.5q0 17 -5.5 29t-14 20t-17 12t-14.5 4q-5 0 -12 -3t-12 -3q-6 0 -11.5 4.5t-5.5 7.5q0 10 16 10q31 0 61.5 14.5t57.5 37t50.5 48t41.5 48.5q35 43 73.5 80.5t78 65.5t79 44t77.5 16q44 0 69.5 -20t25.5 -52q0 -16 -10.5 -26t-27.5 -10q-14 0 -27 7.5t-13 23.5
q0 14 7 22t7 19t-12.5 17.5t-32.5 6.5q-18 0 -39 -9.5t-43.5 -27t-46.5 -42t-46 -53.5q-59 -77 -126 -131.5t-162 -82.5v-2zM900 596q-15 -7 -34 -16t-38.5 -17t-39 -13.5t-36.5 -5.5q-34 0 -53 20t-19 65q0 21 2 29t2 13q0 7 -13 7q-21 -2 -56 -24t-86 -80
q-21 -25 -34 -42.5t-20 -29t-10 -16.5t-5 -5q-6 0 -6 5q0 2 10 19t27 40.5t40 51t49.5 50t55 37.5t56.5 14q23 0 36.5 -13t15.5 -54q1 -22 3 -35.5t5 -20.5t8 -9t11 -2q20 0 42.5 7t43.5 17.5t39.5 22t32.5 19.5q39 24 60.5 39t32.5 23.5t16 12t10 3.5q10 0 15 -5t5 -12
q0 -11 -13.5 -17.5t-33 -13.5t-41 -16t-37.5 -24q-20 -20 -42.5 -55t-49.5 -82t-58.5 -104.5t-70.5 -121.5q-81 -135 -194.5 -199t-242.5 -64q-61 0 -108.5 15t-80 41.5t-49.5 62.5t-17 77q0 49 22 93t58.5 76.5t84.5 51.5t100 19q34 0 67.5 -9.5t60 -28.5t43 -47.5
t16.5 -66.5q0 -37 -19 -68.5t-49 -54t-67.5 -35t-74.5 -12.5q-20 0 -39 3.5t-34 8.5t-24.5 10t-9.5 8q0 6 6 6q1 0 8.5 -4t20 -8.5t30 -8t39.5 -3.5q34 0 69.5 11.5t63.5 32.5t46 51t18 66q0 21 -10 40.5t-30.5 35.5t-50.5 25.5t-70 9.5q-47 0 -91.5 -15t-79.5 -43.5
t-56.5 -68.5t-21.5 -89q0 -44 19.5 -76t51 -53t72.5 -31t84 -10q55 0 107 13.5t101 46.5t95.5 88.5t91.5 138.5q25 46 48 83t49 72t56.5 70t70.5 76z" />
    <glyph glyph-name="L" unicode="L" horiz-adv-x="722" 
d="M288 54q-47 14 -93.5 29t-95.5 15q-32 0 -48.5 -12.5t-16.5 -29.5q0 -15 23.5 -32.5t68.5 -17.5q46 0 84 12.5t78 35.5zM580 396q58 19 112 50.5t95.5 66.5t66 70.5t24.5 64.5q0 38 -37 38q-19 0 -42 -11.5t-45 -28.5t-40.5 -35.5t-28.5 -31.5q16 -25 27 -44.5t11 -21.5
q0 -5 -4 -5q-5 0 -12 15.5t-29 44.5q-29 -41 -52 -84.5t-46 -87.5zM148 541q0 -43 22.5 -74.5t56.5 -52.5t74.5 -31.5t76.5 -10.5q32 0 63 2.5t63 7.5q36 54 73.5 107t85.5 98q-27 33 -61 57.5t-70.5 40t-74.5 23.5t-72 8q-41 0 -83 -11.5t-76.5 -34t-56 -55t-21.5 -74.5z
M104 110q20 0 46.5 -3.5t54 -9t53.5 -12t46 -13.5q34 32 55 58t38.5 55.5t36 67t48.5 93.5q-29 -5 -56.5 -8.5t-47.5 -3.5q-54 0 -99.5 14t-78.5 39t-51.5 60t-18.5 77q0 46 22.5 84t59 64.5t82 41t92.5 14.5q33 0 70.5 -7.5t75 -23t73.5 -41t66 -61.5q12 14 32.5 32
t43.5 33.5t47.5 26.5t45.5 11q50 0 50 -50q0 -37 -30 -76t-76.5 -76.5t-104.5 -70t-113 -55.5q-28 -50 -56.5 -95.5t-58.5 -85t-62 -71t-67 -52.5q54 -16 106 -29t108 -13q42 0 75 14t62 42q21 21 33 33.5t18.5 19.5t8.5 9.5t4 2.5q4 0 4 -7q0 -2 -9 -12.5t-40 -42.5
q-86 -89 -189 -89q-24 0 -51 5.5t-53.5 14t-51.5 18t-45 18.5q-38 -23 -85 -39.5t-89 -16.5q-45 0 -75.5 17.5t-30.5 46.5q0 20 19 36t63 16z" />
    <glyph glyph-name="M" unicode="M" horiz-adv-x="1167" 
d="M1036 650q-23 -15 -56.5 -42t-71.5 -60.5t-77 -70t-71 -69.5q-66 -68 -127.5 -141t-125 -134t-132.5 -100t-149 -39q-34 0 -72 13t-70.5 38.5t-54 64t-21.5 88.5q0 44 20 84t54.5 70t80.5 48t97 18q46 0 81.5 -12.5t59.5 -33.5t36.5 -48.5t12.5 -57.5q0 -38 -16.5 -68.5
t-43.5 -52t-62.5 -33.5t-72.5 -12q-20 0 -41 4.5t-39 10t-29.5 11t-11.5 8.5q0 6 6 6q2 0 10.5 -4.5t23.5 -9.5t35.5 -9.5t47.5 -4.5q31 0 62.5 9.5t57 28t41.5 46t16 62.5q0 22 -9.5 44t-29 39.5t-49.5 28t-72 10.5q-41 0 -84.5 -12.5t-79.5 -36.5t-59 -60t-23 -83
q0 -38 17 -71t44.5 -58t63 -39t71.5 -14q81 0 150.5 42.5t135.5 108.5t133.5 146t144.5 155q61 59 114 104t93 75t64.5 45.5t28.5 15.5q8 0 8 -5q0 -2 -7 -9t-22 -23.5t-38.5 -45t-56.5 -75t-76 -112.5t-97 -157q-16 -27 -33 -61t-31.5 -65t-23.5 -54.5t-9 -28.5q0 -8 9 -8
q7 0 16.5 7t30.5 30t58 68t100 121q91 111 164.5 190t126 129.5t83.5 74.5t36 24q2 0 4 -2t2 -4t-17 -25.5t-48.5 -71t-77.5 -120t-103 -172.5q-60 -106 -82 -171.5t-22 -88.5q0 -16 5.5 -22.5t20.5 -6.5q16 0 35 10t38 25t37 33t32.5 33t23.5 25t11 10q5 0 5 -6
q0 -1 -9.5 -13t-25 -28.5t-35.5 -35.5t-41 -35.5t-41.5 -27t-37.5 -10.5q-72 0 -72 86q0 31 16.5 80.5t58 119t112 161.5t177.5 209l-2 2q-80 -66 -152.5 -141.5t-140 -154.5t-131.5 -157t-126 -148q-29 -33 -44.5 -42t-28.5 -9t-21 11t-8 32q0 54 36 129.5t93.5 158.5
t128.5 165.5t142 151.5z" />
    <glyph glyph-name="N" unicode="N" horiz-adv-x="1111" 
d="M934 616q-44 -70 -89 -149.5t-95 -155.5t-108 -142.5t-128 -109.5q-61 -38 -119.5 -51.5t-108.5 -13.5q-59 0 -109 12.5t-86.5 37.5t-57.5 61.5t-21 84.5q0 44 20 86t56 74.5t86 52t110 19.5q48 0 86 -11t65 -30.5t41 -46t14 -57.5q0 -38 -18.5 -70t-49 -55.5t-70 -36.5
t-80.5 -13q-16 0 -34 2.5t-33 6.5t-25 8.5t-10 7.5q0 5 5 5q3 0 9.5 -3t18 -6t28.5 -6t42 -3q42 0 79 13t64 34t42.5 48.5t15.5 57.5q0 25 -11.5 47t-34 38.5t-55.5 26t-76 9.5q-45 0 -92 -15.5t-85.5 -44.5t-63 -69.5t-24.5 -89.5q0 -38 18 -68t50 -51t77.5 -32.5
t100.5 -11.5q63 0 125.5 17.5t125.5 61.5t127.5 118t130.5 188q37 63 70 120t58.5 99.5t42.5 68t21 25.5t6.5 -3t2.5 -4q0 -8 -6.5 -20t-14.5 -35.5t-14.5 -60.5t-6.5 -95q0 -28 2 -55t2 -55q0 -76 -8 -151.5t-28 -148.5l2 -2q35 68 75.5 141t83 142.5t86.5 131.5
t86.5 108.5t82 73.5t73.5 27q19 0 33 -14.5t14 -28.5t-10.5 -25.5t-28.5 -11.5q-16 0 -22.5 7t-9.5 16t-5.5 16t-11.5 7q-41 0 -136.5 -110.5t-225.5 -343.5q-42 -75 -64.5 -120t-33.5 -69t-15.5 -31.5t-10.5 -7.5q-2 0 -4 1t-2 5q0 9 3.5 15.5t8 19.5t8.5 36t4 66
q0 55 -8 111.5t-8 106.5q0 61 8.5 106t19 77.5t19.5 54t11 35.5h-2z" />
    <glyph glyph-name="O" unicode="O" horiz-adv-x="778" 
d="M430 277q0 -38 18 -60.5t57 -22.5q40 0 71 25t52.5 62.5t32.5 79.5t11 77q0 42 -14 75.5t-40 60.5q-35 -18 -68.5 -49t-60 -70.5t-43 -85.5t-16.5 -92zM292 136q0 -59 25 -97.5t79 -38.5q45 0 93.5 19.5t94 53t86 78t71 95t48 104.5t17.5 105q0 70 -29.5 105.5
t-82.5 35.5q-31 0 -65 -17q36 -35 54.5 -81.5t18.5 -94.5q0 -37 -14 -76.5t-39 -72.5t-59.5 -54.5t-75.5 -21.5t-68.5 25t-27.5 68q0 54 17.5 102t45 88.5t61.5 71t68 49.5q-12 11 -27 20.5t-32 14.5q-51 -38 -98 -91.5t-83 -116.5t-57 -132.5t-21 -140.5zM818 457
q0 -48 -16.5 -101t-46.5 -105.5t-70.5 -100t-88 -83.5t-101 -57.5t-107.5 -21.5q-42 0 -71 17t-47.5 44t-27 61.5t-8.5 69.5q0 62 24.5 125.5t66 122t95 109.5t110.5 89q-39 14 -84 14q-59 0 -108 -24t-85.5 -63t-58.5 -89t-26 -102q-1 -10 -2.5 -13t-3.5 -3q-6 0 -6 7
q0 1 1 13t4.5 30.5t11 42t21.5 49.5q17 33 43 62.5t58.5 52t71 36t80.5 13.5q52 0 95 -17q54 34 106.5 53.5t97.5 19.5q58 0 91 -30.5t33 -88.5q0 -3 -0.5 -11.5t-2 -17.5t-4 -15.5t-6.5 -6.5q-3 0 -3 7q0 3 2 20t2 26q0 53 -31 79t-81 26q-44 0 -90.5 -18.5t-94.5 -52.5
q32 -13 60 -38q40 21 73 21q56 0 90 -39.5t34 -111.5z" />
    <glyph glyph-name="P" unicode="P" horiz-adv-x="778" 
d="M164 354q0 -47 23.5 -72.5t62.5 -25.5q49 0 98 30.5t88.5 77t64.5 102.5t25 108q0 27 -4 51t-20 41q-61 -12 -121.5 -45t-108.5 -77t-78 -94t-30 -96zM78 76q0 17 9.5 29.5t27.5 12.5q17 0 29 -10.5t12 -27.5q0 -14 -5 -20.5t-5 -14.5q0 -16 14.5 -27.5t49.5 -11.5
q44 0 82.5 17.5t72 46.5t62 66.5t52.5 77t44.5 78.5t38.5 72q20 37 47 77t58.5 78t67 71t71.5 56q-42 20 -85.5 27t-81.5 7q-35 0 -64.5 -2t-58.5 -9q23 -26 31.5 -57.5t8.5 -64.5q0 -54 -25 -108.5t-66 -99t-94 -72t-109 -27.5q-22 0 -42 7t-35 20.5t-24 34t-9 48.5
q0 38 16 75t42.5 70.5t61 63.5t72.5 53.5t76 39.5t71 23q-24 17 -56 25t-61 8q-57 0 -110 -23.5t-96 -66.5q-27 -27 -44 -53t-27 -45.5t-15 -31.5t-8 -12q-2 0 -3 2t-1 3q0 6 8 26.5t24.5 47t41 55.5t58.5 53.5t77.5 40.5t96.5 16q38 0 74.5 -13t55.5 -29q28 7 63.5 10.5
t69.5 3.5q53 0 101 -9.5t81 -25.5q21 12 37 23.5t24 11.5q4 0 4 -5t-16 -13.5t-36 -22.5q47 -26 76.5 -69.5t29.5 -98.5q0 -38 -19 -71t-48.5 -57.5t-66 -38.5t-71.5 -14q-14 0 -28.5 5t-26 11t-19 12t-7.5 9q0 5 6 5q1 0 6.5 -4t13.5 -9t18.5 -9t23.5 -4q37 0 67.5 19
t52 48t33 65t11.5 69q0 38 -16.5 69t-50.5 51q-32 -22 -60 -57.5t-55 -81t-56 -99t-62 -111.5q-33 -59 -76.5 -112.5t-94 -94t-106 -65t-113.5 -24.5q-23 0 -44.5 4.5t-38 14.5t-26 25.5t-9.5 37.5z" />
    <glyph glyph-name="Q" unicode="Q" horiz-adv-x="722" 
d="M36 53q0 -22 24 -34.5t68 -12.5q38 0 80.5 7.5t84.5 27.5q-22 7 -47 16.5t-51 18t-51.5 14.5t-46.5 6q-28 0 -44.5 -10.5t-16.5 -32.5zM536 579q0 28 -7 52.5t-28 44.5q-54 -11 -112 -44t-105 -78t-77.5 -97t-30.5 -100q0 -46 20.5 -72.5t70.5 -26.5q48 0 96 32t86.5 80
t62.5 104.5t24 104.5zM24 53q0 26 22.5 42.5t74.5 16.5q54 0 109 -16t109 -31q41 21 84 51t83 66.5t76 79.5t62.5 90.5t42 99.5t15.5 107q0 66 -32.5 96.5t-101.5 30.5q-8 0 -24.5 -1.5t-24.5 -3.5q26 -32 36.5 -61t10.5 -68q0 -52 -24 -107t-65 -100t-95 -74t-114 -29
q-25 0 -44 9.5t-32.5 24.5t-20.5 34t-7 39q0 57 32 112.5t81 101t107 78t109 44.5q-17 14 -44 22.5t-61 8.5q-58 0 -107 -22t-87 -56t-65 -75t-41 -79q-5 -12 -9 -12q-3 0 -3 5q0 3 6 18.5t18.5 38.5t31.5 50.5t46 53.5q38 37 89 63.5t117 26.5q52 0 81.5 -13.5t43.5 -25.5
q17 3 33 6t33 3q85 0 133 -49.5t48 -132.5q0 -84 -39 -152t-98.5 -123.5t-130 -100t-134.5 -80.5q41 -12 80.5 -26t87.5 -14q35 0 64.5 13t62.5 36q29 20 45.5 35t25.5 24.5t12.5 14.5t5.5 5q6 0 6 -6q0 -2 -5.5 -9t-16 -17.5t-25 -23t-31.5 -25.5q-28 -21 -52 -35
t-46 -22.5t-44 -12t-46 -3.5q-46 0 -88 12t-83 29q-23 -10 -44.5 -17.5t-43 -13t-44.5 -8t-50 -2.5q-49 0 -75 18.5t-26 40.5z" />
    <glyph glyph-name="R" unicode="R" horiz-adv-x="889" 
d="M128 344q0 -43 25 -64.5t67 -21.5q47 0 95 30t87 76t63.5 102t24.5 109q0 30 -5 54t-21 41q-54 -11 -113 -41t-108.5 -73.5t-82 -98t-32.5 -113.5zM674 330q16 -5 30.5 -18t25 -30.5t16.5 -36.5t6 -34q0 -19 -5.5 -41t-11.5 -45t-11.5 -44.5t-5.5 -38.5q0 -16 5 -26
t20 -10q14 0 32.5 13t52.5 47q28 28 42.5 43.5t21.5 23.5t8.5 10t3.5 2q6 0 6 -6q0 -2 -22 -26t-54 -56q-20 -20 -34 -32t-24.5 -19t-19 -9.5t-16.5 -2.5q-15 0 -29 9t-24.5 23t-16.5 32.5t-6 36.5q0 27 5.5 49t11.5 43t11.5 42.5t5.5 48.5q0 12 -7.5 28t-26.5 19
q-7 1 -16.5 -2t-15.5 -3q-15 0 -24.5 5t-9.5 11q0 5 8 10.5t22 5.5q9 0 20.5 -6t18.5 -6q21 0 49 15t53.5 41.5t43 62.5t17.5 78q0 33 -12 62t-39 46q-51 -42 -88.5 -97.5t-66.5 -115.5q-21 -45 -48.5 -95.5t-60 -99t-70.5 -92.5t-81.5 -77.5t-93 -53.5t-104.5 -20
q-31 0 -53 8t-36.5 19.5t-21.5 24t-7 22.5q0 21 10.5 35.5t33.5 14.5q16 0 27 -9.5t11 -26.5q0 -14 -6 -20.5t-6 -17.5q0 -18 14.5 -28t31.5 -10q65 0 112.5 23.5t85.5 65.5t70.5 100.5t67.5 127.5q24 48 50 90.5t57 83t69.5 79.5t88.5 79q-15 8 -35.5 14t-43.5 9.5t-47 5.5
t-45 2q-29 0 -57 -3t-56 -10q18 -21 28.5 -55.5t10.5 -65.5q0 -54 -24 -109t-65 -100t-95.5 -73t-115.5 -28q-47 0 -75.5 28.5t-28.5 75.5q0 40 15.5 78.5t41.5 72.5t60 64t72 53.5t76.5 40t73.5 24.5q-21 18 -55 26.5t-62 8.5q-83 0 -158.5 -51t-126.5 -150
q-8 -17 -10.5 -27t-7.5 -10q-3 0 -3 9q0 5 8.5 25t25.5 46.5t42.5 56.5t59.5 55t76.5 41.5t93.5 16.5q18 0 37 -3t37 -8.5t33.5 -13.5t25.5 -18q32 8 66 11.5t66 3.5q24 0 48.5 -3t48 -7.5t43.5 -10t35 -11.5l13 6.5l19 9.5t19 8.5t12 3.5q5 -1 5 -6q0 -2 -14 -7t-37 -22
q17 -7 33.5 -20t30 -31t21.5 -40t8 -48q0 -44 -25 -78t-59.5 -57.5t-71 -37t-58.5 -15.5v-2z" />
    <glyph glyph-name="S" unicode="S" horiz-adv-x="778" 
d="M1046 650q0 16 -9.5 26t-27.5 10t-38.5 -9.5t-40 -24t-36 -31.5t-26.5 -31q3 -5 9 -14.5t12 -19.5t10.5 -18.5t4.5 -9.5q0 -4 -4 -4q-2 0 -12 19t-26 39q-31 -38 -52 -80.5t-41 -84.5q44 6 92.5 28.5t89.5 55t68 71.5t27 78zM426 567q0 -37 22.5 -67t57 -51t75 -32
t76.5 -11q14 0 26.5 0.5t21.5 2.5q27 53 61.5 102.5t77.5 94.5q-21 26 -47 46.5t-55 34.5t-60 21.5t-61 7.5q-40 0 -75.5 -10t-62 -29t-42 -46.5t-15.5 -63.5zM30 191q0 53 24 95.5t62.5 72t87 45.5t96.5 16q34 0 68.5 -8.5t62.5 -26.5t45.5 -46.5t17.5 -68.5
q0 -39 -18 -69.5t-46.5 -52t-65 -33t-72.5 -11.5q-29 0 -54 5t-43 11.5t-28.5 12.5t-10.5 8q0 5 5 5q1 0 9.5 -4.5t24 -10.5t39 -10.5t56.5 -4.5q34 0 68.5 9.5t62 29t44.5 48.5t17 68q0 34 -15.5 56.5t-40 36.5t-54 20t-57.5 6q-46 0 -92.5 -16.5t-83.5 -46.5t-60 -71.5
t-23 -90.5q0 -41 23 -71t57.5 -49.5t74 -29t73.5 -9.5q93 0 156 32t108.5 84.5t78.5 121t66 140.5q-14 -1 -27.5 -2.5t-28.5 -1.5q-42 0 -84 11.5t-76 33.5t-55.5 54t-21.5 74q0 40 17.5 72.5t47 55t69 35t83.5 12.5q71 0 132 -32.5t103 -83.5q13 13 32 28.5t40 28t42.5 21
t41.5 8.5q26 0 38 -12.5t12 -35.5q0 -41 -29 -82.5t-73 -77t-96.5 -60.5t-98.5 -34q-25 -58 -51 -113t-60 -103t-79 -87t-108 -66q-39 -17 -85.5 -25t-88.5 -8q-45 0 -91 11.5t-83.5 35.5t-61 61t-23.5 89z" />
    <glyph glyph-name="T" unicode="T" horiz-adv-x="889" 
d="M1058 692q42 0 70.5 2.5t48 5.5t32 5.5t23.5 2.5q3 0 3 -5q0 -3 -9.5 -13t-28.5 -21t-49 -20t-70 -9q-30 0 -52.5 2t-43.5 5t-43 6t-51.5 6t-68.5 5t-93 2q-68 0 -123.5 -15.5t-95 -41t-61.5 -57.5t-22 -66q0 -39 27 -61.5t71 -22.5q46 0 85.5 14t71.5 35t56.5 45
t41.5 45t25.5 35t9.5 14q6 0 6 -5q0 -3 -8.5 -20t-24.5 -41t-39 -50.5t-52 -49t-64.5 -37.5t-75.5 -15q-69 0 -107.5 31.5t-38.5 78.5q0 32 21 69t69 68.5t127.5 52t196.5 20.5h236zM283 394q-47 0 -93.5 -16t-84.5 -44.5t-61.5 -67t-23.5 -84.5q0 -39 19 -71.5t53 -55.5
t81 -36t103 -13q94 0 162 26.5t119 69.5t90 99t75 115.5t74 117.5t88 106q21 20 42 36t39 27t30.5 17t16.5 6t4 -4q0 -5 -8.5 -9t-21 -10.5t-27 -16.5t-27.5 -26q-26 -32 -63.5 -93t-86.5 -155q-39 -74 -91 -133t-116.5 -100t-140 -63t-160.5 -22q-57 0 -107 14t-87 40.5
t-58.5 64.5t-21.5 87q0 47 22.5 88.5t60 72.5t85.5 49t100 18q33 0 67.5 -8.5t63 -27t47 -47t18.5 -67.5q0 -41 -19 -72.5t-50 -53.5t-69 -33t-76 -11q-24 0 -46.5 5t-40 11.5t-27.5 12.5t-10 9q0 6 3 6q4 0 13 -5t24 -11t36.5 -11t51.5 -5q34 0 68.5 10t62.5 29.5t45.5 49
t17.5 67.5q0 53 -41.5 85.5t-123.5 32.5z" />
    <glyph glyph-name="U" unicode="U" horiz-adv-x="833" 
d="M502 602q0 23 -9 43t-29 33q-53 -11 -102.5 -38.5t-88 -63.5t-62 -77.5t-23.5 -80.5q0 -36 18 -61t53 -25q25 0 53 12t55 32.5t51.5 47t43 56.5t29.5 61.5t11 60.5zM1050 686l-200 -312q-33 -52 -68.5 -103.5t-64 -97.5t-46.5 -82.5t-17 -58.5q0 -11 5.5 -18.5t16.5 -7.5
q20 0 45 18t55 46q38 35 54.5 57t20.5 22q7 0 7 -5q0 -1 -5 -7t-13.5 -15.5t-18.5 -21t-19 -21.5q-11 -12 -27.5 -27t-34 -28t-34.5 -21.5t-29 -8.5q-23 0 -33 15.5t-10 43.5q0 44 12.5 78.5t29.5 70.5l-2 2q-11 -15 -30 -37t-42.5 -45t-50 -46t-53 -41.5t-51 -29.5
t-44.5 -11q-22 0 -37.5 17t-15.5 46q0 42 20.5 89.5t51.5 97t67 99.5t67 97t51.5 88.5t20.5 74.5q0 22 -9 37.5t-23 25.5t-32 15t-36 5q-11 0 -22.5 -1t-23.5 -3q22 -18 31 -44t9 -55q0 -45 -20.5 -92.5t-55.5 -86.5t-81 -63.5t-97 -24.5q-48 0 -70 27.5t-22 69.5
q0 44 24 87.5t63 80.5t88.5 65t99.5 41q-31 17 -81 17q-56 0 -110.5 -27.5t-98.5 -75t-74 -110.5t-37 -134q-1 -13 -6 -13t-5.5 4t-0.5 10q0 7 2.5 21.5t6.5 31.5t10 36t14 36q20 45 51 87t70 74.5t84 52t94 19.5q32 0 56.5 -6.5t42.5 -17.5q27 6 53 6q66 0 101 -32t35 -99
q0 -43 -20.5 -91.5t-51.5 -98.5t-67 -100t-67 -95t-51.5 -83t-20.5 -65q0 -17 6 -22.5t22 -5.5q19 0 55.5 20t81 58t93.5 91.5t93 121.5q61 93 103 158t69.5 108t43.5 66.5t25.5 35.5t15 14.5t12.5 3.5z" />
    <glyph glyph-name="V" unicode="V" horiz-adv-x="778" 
d="M794 663q0 10 -6 16.5t-20 6.5q-23 0 -43.5 -15.5t-37.5 -38t-29.5 -47.5t-17.5 -43q33 3 61.5 15t49 29.5t32 37.5t11.5 39zM440 583q0 -18 -5.5 -44.5t-17 -56t-28.5 -58.5t-39.5 -51.5t-51 -37t-62.5 -13.5q-54 0 -85 31t-31 85q0 45 25 91.5t66 84t93 61t105 23.5
q42 0 65.5 -10.5t36.5 -27t19.5 -35.5t13.5 -36t18.5 -29.5t35.5 -15.5q10 19 29 45.5t42.5 50.5t49 41t48.5 17q17 0 28 -9t11 -31q0 -18 -14 -40t-37.5 -41.5t-54 -33.5t-64.5 -17q-30 -140 -92.5 -268.5t-153.5 -239.5l2 -2q75 51 140 114t125 130.5t116 137t112 134.5
q78 89 124 127.5t73 38.5q17 0 29.5 -11.5t12.5 -27.5q0 -13 -8.5 -25t-22.5 -12q-12 0 -18.5 4t-11.5 9t-11.5 9t-17.5 4q-21 0 -58 -35t-83.5 -88.5t-99 -117.5t-102.5 -122q-68 -78 -127 -135t-103.5 -94.5t-72 -55.5t-31.5 -18q-9 0 -9 8q0 6 4 9l12 9q25 19 46 57.5
t40.5 86.5t37 102.5t34.5 105.5t33.5 95t34.5 73q-41 9 -65 24.5t-38 32.5t-21.5 34.5t-16 31t-21.5 22.5t-38 9q-40 0 -85 -20t-82.5 -53.5t-62 -77t-24.5 -90.5q0 -45 20 -69t59 -24q38 0 80 24.5t72 69.5q20 30 32 57t19 47t10 32t5 12q7 0 7 -7z" />
    <glyph glyph-name="W" unicode="W" horiz-adv-x="1000" 
d="M608 540q23 0 50 10t50 27t38.5 38.5t15.5 45.5q0 14 -8.5 20.5t-20.5 6.5q-18 0 -37.5 -15.5t-37 -38t-31 -48t-19.5 -46.5zM890 582q-60 -56 -109.5 -112.5t-90.5 -109t-75 -98.5t-64 -80q-34 -42 -69.5 -79t-66 -65.5t-54 -45t-32.5 -16.5t-9 7q0 6 7 12t16 17
q26 31 47 71.5t38.5 86t33 94t31.5 95.5t32.5 90.5t36.5 78.5q-40 6 -63 19.5t-37.5 30.5t-23 35.5t-18 33.5t-24 25t-40.5 10q-40 0 -84.5 -21t-81.5 -55t-61.5 -76.5t-24.5 -84.5q0 -45 20 -72t68 -27q32 0 60.5 16t59.5 48q30 30 46.5 60.5t25.5 55t12.5 39.5t6.5 15
q5 0 5 -8q0 -5 -2 -18.5t-7.5 -31.5t-13.5 -39.5t-20 -42.5q-13 -23 -30.5 -45t-38.5 -38.5t-44 -26.5t-48 -10q-28 0 -49 9.5t-35 26.5t-21 40t-7 50q0 45 26.5 90t68.5 81t92.5 58.5t98.5 22.5q41 0 64.5 -11t37.5 -27.5t21 -36t14.5 -36.5t19 -30t33.5 -15q15 24 34 52
t41 51.5t46 39t48 15.5q14 0 25.5 -11t11.5 -29q0 -25 -16.5 -48.5t-42 -42t-55.5 -30t-56 -11.5q-17 -69 -36.5 -137.5t-52.5 -132.5q-15 -30 -34.5 -64.5t-40 -68.5t-41 -63t-39.5 -48l2 -2q13 5 34.5 22.5t46 42.5t51 54.5t50.5 58.5q28 33 51.5 64t48.5 63t53.5 68
t65.5 79q33 38 62 68.5t53.5 57t45 50t36.5 48.5q7 10 15 10q3 0 7 -3.5t4 -8.5t-5 -10t-13 -14q-23 -25 -39.5 -49.5t-29.5 -56.5q-7 -17 -16 -45t-18.5 -57t-18 -55t-14.5 -38q-25 -51 -46 -95t-44.5 -84.5t-50.5 -81.5t-64 -86q12 2 42 26.5t65.5 57t68.5 66t50 53.5
q36 41 65 75.5t54.5 66.5t50 63t51.5 65q25 32 55.5 68t62 66.5t62 50.5t56.5 20q17 0 27.5 -8t10.5 -27q0 -14 -9.5 -24.5t-23.5 -10.5q-11 0 -18.5 4.5t-13.5 9.5t-11.5 9.5t-11.5 4.5q-14 0 -34 -14t-51 -47.5t-76 -89t-111 -137.5q-86 -108 -155 -180.5t-118.5 -116.5
t-78 -62.5t-34.5 -18.5q-8 0 -8 8q0 3 8.5 14.5t21.5 32t29.5 51t33.5 71.5q13 34 24.5 63.5t21.5 57t20.5 54.5t22.5 56q13 32 29 61t32 53.5t30 43.5t25 30z" />
    <glyph glyph-name="X" unicode="X" horiz-adv-x="722" 
d="M1012 638q0 24 -10 34t-30 10q-28 0 -61.5 -17t-67.5 -44.5t-67.5 -62t-62 -69.5t-51 -66.5t-34.5 -53.5q17 6 52.5 16.5t78 27t87.5 38.5t82 50t60.5 62t23.5 75zM518 604q0 22 -7.5 41.5t-27.5 33.5q-36 -11 -80 -37t-82.5 -62t-64.5 -79t-26 -86q0 -26 13 -43.5
t40 -17.5q39 0 80.5 25t76 62.5t56.5 81t22 81.5zM116 70q0 -32 14.5 -48t47.5 -16q44 0 97 32.5t104 81.5t95 106t70 106q-22 -6 -62 -16.5t-87.5 -26.5t-97 -38t-90 -49t-66 -60t-25.5 -72zM672 506q24 28 60.5 61.5t78.5 62.5t85.5 48.5t81.5 19.5q28 0 44 -20.5
t16 -46.5q0 -36 -22.5 -68t-59 -60t-82 -51.5t-92 -42.5t-89.5 -33t-73 -22q-20 -36 -40 -73.5t-35.5 -75t-25 -74.5t-9.5 -72q0 -23 9 -38t34 -15q31 0 63.5 21.5t59.5 47.5t45 47.5t22 21.5q5 0 5 -5l-9 -11t-24.5 -27t-35.5 -35t-41.5 -35t-43 -26.5t-40.5 -10.5
q-39 0 -56.5 33.5t-17.5 93.5q0 10 1.5 19.5t2.5 19.5q-26 -26 -63.5 -55.5t-79.5 -54t-85.5 -40.5t-81.5 -16q-15 0 -32 3.5t-31.5 11t-23.5 20.5t-9 32q0 42 27.5 77.5t71 65.5t97.5 53.5t106.5 41.5t98.5 30t73 19q13 27 28.5 54.5t28.5 56.5t22 59t9 60q0 57 -26.5 83.5
t-72.5 26.5q-11 0 -23 -2t-21 -4q22 -21 29.5 -44t7.5 -52q0 -46 -20.5 -91t-54.5 -81t-78 -58t-90 -22q-37 0 -55 23.5t-18 57.5q0 43 25.5 87t64 81t82.5 64.5t82 38.5q-13 9 -36.5 12.5t-40.5 3.5q-60 0 -113 -27.5t-95 -71.5t-70.5 -99t-40.5 -109q-5 -21 -5.5 -30.5
t-5.5 -9.5t-5 7q0 26 10.5 62.5t31 75.5t50 77.5t67 69t82.5 49t97 18.5q30 0 53.5 -8t34.5 -15q13 2 28 5.5t27 3.5q26 0 49.5 -8.5t41 -27t28 -49.5t10.5 -76v-31z" />
    <glyph glyph-name="Y" unicode="Y" horiz-adv-x="889" 
d="M824 358q-16 -23 -48 -55.5t-69.5 -63t-75 -52t-65.5 -21.5q-32 0 -44 18.5t-12 48.5q0 36 13 71t32 67.5t42 63t42 60t32 56.5t13 53q0 22 -10 38t-25.5 25.5t-35.5 14t-39 4.5q-43 0 -99 -19t-106 -52t-84.5 -78t-34.5 -96q0 -32 24 -51.5t55 -19.5q42 0 90 27.5
t92 79.5q25 29 38 58t19.5 51.5t9 36.5t7.5 14q7 0 7 -8q0 -6 -3.5 -29t-13.5 -53.5t-27 -64.5t-45 -62.5t-67 -47t-93 -18.5q-49 0 -77 25t-28 60q0 33 15.5 65t41.5 61t59.5 53.5t70.5 42t74.5 27.5t70.5 10q64 0 102 -31.5t38 -112.5q0 -32 -13 -64t-32 -64t-42 -62.5
t-42 -59t-32 -53.5t-13 -46q0 -15 9 -21t23 -6q16 0 46.5 15t67 41t74 61.5t66.5 77.5q75 107 136.5 171.5t106.5 98.5t72.5 44.5t35.5 10.5q7 0 7 -6q0 -5 -10 -8.5t-27 -10.5t-40 -20.5t-49.5 -37.5t-54.5 -61.5t-56 -92.5q-13 -26 -32 -63.5t-41 -79.5t-46.5 -86t-49 -84
t-47.5 -73t-43 -53q-81 -81 -187.5 -124.5t-221.5 -43.5q-47 0 -94 12.5t-85 38.5t-62 65t-24 92q0 49 25.5 90.5t65 71.5t86.5 47t91 17t80.5 -12t62 -33t39.5 -48t14 -57q0 -41 -19 -73t-49 -53.5t-67.5 -32.5t-74.5 -11q-13 0 -27 2t-26 5t-19.5 6t-7.5 6q0 5 5 5
q3 0 7.5 -2t14 -4t25 -4t39.5 -2q31 0 64 11t59 30.5t43 47.5t17 63q0 34 -13.5 57.5t-36 37.5t-51 20.5t-57.5 6.5q-47 0 -94.5 -16t-85 -45t-61 -71t-23.5 -93q0 -45 24.5 -76t61 -50.5t77.5 -28t74 -8.5q80 0 143 19.5t113.5 54t91 81t75.5 101t66 114t64 120.5z" />
    <glyph glyph-name="Z" unicode="Z" horiz-adv-x="778" 
d="M716 536q11 -3 22.5 -5.5t22.5 -2.5q37 0 76.5 11.5t72.5 30t54.5 42t21.5 47.5q0 19 -12.5 26t-29.5 7q-32 0 -64.5 -16.5t-62.5 -40.5t-56 -51t-45 -48zM424 229q-8 3 -20 5.5t-24.5 4t-24 2.5t-18.5 1q-58 0 -110 -18.5t-91.5 -45.5t-62.5 -58.5t-23 -58.5
q0 -29 20 -42t48 -13q39 0 83 23.5t85.5 58t77.5 73t60 68.5zM318 334q-57 0 -83.5 31.5t-26.5 85.5q0 50 29 96.5t73 82.5t96 58t98 22q36 0 60.5 -10.5t41.5 -27t28.5 -36t20.5 -38t18 -33t21 -19.5q23 22 51.5 49.5t61 51.5t67 40.5t69.5 16.5q24 0 39.5 -12t15.5 -32
q0 -26 -21.5 -52t-56.5 -46.5t-79.5 -33t-89.5 -12.5q-14 0 -26.5 1t-24.5 3q-61 -70 -120.5 -140t-122.5 -142q40 -15 63.5 -37t37 -46t19.5 -48t11 -43.5t11.5 -31.5t21.5 -12q20 0 48 16.5t53 39.5q28 25 43 40.5t22.5 24.5l10 12t4.5 3q4 0 4 -6q0 -2 -6.5 -10
t-16.5 -18.5t-21 -22t-21 -20.5q-42 -42 -78 -60.5t-62 -18.5q-28 0 -45 15t-26.5 35t-13.5 41t-7 32q-5 19 -10 34.5t-11.5 27.5t-17 20.5t-26.5 15.5q-32 -35 -72.5 -74.5t-84 -73.5t-86.5 -56.5t-80 -22.5t-60 16t-23 48q0 31 24.5 65.5t66 63.5t96.5 48t117 19
q20 0 49 -2.5t46 -8.5q57 75 117.5 145t123.5 140q-33 11 -53 27.5t-32.5 35.5t-20.5 38t-18 34.5t-25 25t-41 9.5q-41 0 -88 -22t-87 -57t-66.5 -80t-26.5 -90q0 -49 21 -72t71 -23q33 0 65.5 21.5t60 54t47 70t27.5 70.5q4 15 4.5 21t3.5 6q4 0 4 -7q0 -35 -13 -79.5
t-38.5 -83.5t-64 -66t-90.5 -27z" />
    <glyph glyph-name="bracketleft" unicode="[" horiz-adv-x="500" 
d="M450 698h245l-12 -24h-187l-422 -846h189l-12 -24h-247z" />
    <glyph glyph-name="backslash" unicode="\" horiz-adv-x="278" 
d="M143 698l223 -704h-31l-223 704h31z" />
    <glyph glyph-name="bracketright" unicode="]" horiz-adv-x="500" 
d="M158 -196h-245l12 24h187l422 846h-189l12 24h247z" />
    <glyph glyph-name="asciicircum" unicode="^" horiz-adv-x="400" 
d="M166 265l101 201h25l102 -201h-31l-83 165l-84 -165h-30z" />
    <glyph glyph-name="underscore" unicode="_" horiz-adv-x="500" 
d="M0 -125v50h500v-50h-500z" />
    <glyph glyph-name="quoteleft" unicode="&#x2018;" horiz-adv-x="222" 
d="M132 352q0 20 19 47t43 51t46.5 41t28.5 17q5 0 5 -5q0 -3 -3 -5.5t-14 -10.5q-29 -21 -46.5 -41.5t-18.5 -40.5q-1 -25 -3.5 -40.5t-7 -24.5t-11.5 -12.5t-17 -3.5q-11 0 -16 8.5t-5 19.5z" />
    <glyph glyph-name="a" unicode="a" 
d="M56 44q0 -14 5.5 -23t17.5 -9q22 0 53 23.5t60 57.5t49.5 71.5t20.5 65.5q0 15 -7.5 25.5t-23.5 10.5q-30 0 -61.5 -24.5t-56.5 -59.5t-41 -73t-16 -65zM376 273q-7 -8 -20.5 -27.5t-29.5 -44t-32.5 -51.5t-30.5 -52t-22.5 -44t-8.5 -28q0 -14 17 -14q23 0 60.5 34.5
t81.5 85.5q9 11 11 13.5t4 2.5q3 0 4.5 -2t1.5 -4q0 -1 -5.5 -7.5t-13.5 -15.5t-17.5 -20t-18.5 -20q-35 -36 -63 -57.5t-48 -21.5t-32 14t-12 55q0 5 0.5 9.5t0.5 8.5q-11 -11 -26.5 -26t-32.5 -28.5t-34 -23t-31 -9.5q-19 0 -31.5 8t-19.5 20.5t-9.5 29t-2.5 33.5
q0 12 1.5 23.5t3.5 23.5q-2 0 -3 -1.5t-3 -1.5q-4 0 -4 5q0 3 3 6t13 15q20 25 45 46t51.5 37t54 25t53.5 9q23 0 33 -14.5t10 -34.5q0 -18 -3 -27l2 -2q13 21 20.5 35t12.5 21.5t9.5 11t12.5 3.5z" />
    <glyph glyph-name="b" unicode="b" horiz-adv-x="333" 
d="M381 602q-92 -153 -153.5 -255.5t-98.5 -167t-52.5 -96.5t-15.5 -45q0 -11 4.5 -18.5t18.5 -7.5q28 0 58.5 15.5t55.5 43.5t41 66.5t16 85.5q0 28 5.5 41.5t24.5 13.5q13 0 18.5 -12t5.5 -26q0 -23 -9 -46.5t-21 -45t-24.5 -38.5t-19.5 -25q3 -1 9 -1q23 0 46.5 12.5
t39.5 30.5q14 15 16 18t4 3q5 0 5 -5q0 -3 -4 -7.5l-12 -13.5q-22 -25 -50 -37.5t-54 -12.5q-5 0 -7.5 0.5t-3.5 0.5q-9 -9 -24 -21t-33 -23.5t-39 -20t-42 -8.5q-32 -1 -45.5 19.5t-13.5 50.5q0 27 15 56t32.5 54.5t32.5 43.5t15 23q0 2 -2 2t-13.5 -14t-37.5 -42
q-20 -22 -31 -35l-16.5 -19.5t-7.5 -8t-4 -1.5q-5 0 -5 4q0 2 13 17.5t29.5 34.5t32.5 36.5t21 23.5q13 14 36.5 49.5t53.5 83.5t63 103.5t64 110.5z" />
    <glyph glyph-name="c" unicode="c" horiz-adv-x="278" 
d="M280 229q0 -14 -10 -28.5t-27 -14.5q-14 0 -19.5 7.5t-5.5 17.5t4.5 14t10.5 6.5t10.5 6t4.5 11.5q0 6 -5.5 11.5t-17.5 5.5q-23 0 -50.5 -17.5t-51.5 -47t-40.5 -68.5t-16.5 -82q0 -39 42 -39q26 0 60.5 18.5t67.5 53.5q20 21 31.5 34t17 19.5t7.5 9t3 2.5q6 0 6 -6
q0 -2 -11.5 -15.5t-27.5 -30.5q-48 -52 -85.5 -74.5t-75.5 -22.5q-23 0 -38.5 10.5t-24.5 26.5t-12.5 35.5t-3.5 37.5q0 12 1.5 18.5t1.5 8.5t-2 2t-3.5 -2t-3.5 -2q-5 0 -5 5q0 1 1 2.5l4 6t10 12.5t19 22q43 51 85.5 73t84.5 22q29 0 47 -12.5t18 -36.5z" />
    <glyph glyph-name="d" unicode="d" 
d="M263 234q0 17 -6 27.5t-23 10.5q-25 0 -55.5 -22.5t-57.5 -57t-45 -75.5t-18 -78q0 -27 27 -27q19 0 49 22t58.5 55.5t49.5 72.5t21 72zM493 600l59 2q-59 -105 -116 -201.5t-102 -174t-72.5 -129t-27.5 -66.5q0 -19 17 -19q11 0 31 13t52 45q40 39 55.5 59t17.5 20
q6 0 6 -4t-21 -28q-53 -61 -88 -89t-63 -28q-17 0 -27 15t-10 38q0 12 2.5 22.5t4.5 18.5l-2 2q-8 -13 -23 -29.5t-33 -31.5t-38.5 -25t-39.5 -10q-15 0 -26 8.5t-18 21.5t-10 29.5t-3 31.5q0 11 1 24t3 24q-2 0 -3.5 -2.5t-2.5 -2.5q-5 0 -5 6l0.5 1.5t3.5 5.5t9 11.5
t17 19.5q41 45 89 75.5t98 30.5q19 0 33 -11t14 -34v-14q0 -6 -2 -11l2 -2z" />
    <glyph glyph-name="e" unicode="e" horiz-adv-x="278" 
d="M221 266q-20 0 -44 -16.5t-46.5 -40.5t-39.5 -51t-22 -48q25 3 55 14.5t56 30t43.5 42t17.5 50.5q0 19 -20 19zM271 230q0 -28 -24 -50.5t-57 -39t-68 -27.5t-57 -15q-2 -8 -3 -16.5t-1 -16.5q0 -29 9.5 -40.5t32.5 -12.5q20 -1 57 16.5t83 62.5q29 30 39.5 44t13.5 14
q5 0 5 -6q0 -2 -6.5 -10t-16.5 -19.5t-22.5 -24.5t-23.5 -23q-38 -35 -69.5 -50t-66.5 -16q-21 0 -35.5 9t-24.5 24t-14.5 34t-4.5 39q0 11 1.5 19t1.5 10t-1 2v0l-3 -3q-1 0 -3 2t-2 4q0 1 4.5 7t11 13t12.5 13.5t9 9.5q42 42 87 68.5t86 26.5q23 0 36.5 -13.5t13.5 -34.5z
" />
    <glyph glyph-name="f" unicode="f" horiz-adv-x="222" 
d="M192 281q19 17 47 39t59 48t62 54.5t55.5 58t39.5 59t15 57.5q0 23 -28 23q-30 0 -61.5 -30t-63.5 -78t-64 -108.5t-63 -120.5zM61 20q32 2 69 25t79 70q20 21 23.5 27t7.5 6q5 0 5 -5q0 -2 -5 -8t-12.5 -14.5t-16 -18t-16.5 -17.5q-32 -32 -68 -54t-74 -28l-143 -267
l-61 -8l155 282q-8 5 -10 13t-2 16q0 14 8 22.5t20 8.5q8 0 13 -3l115 205l-2 2q-30 -26 -47.5 -46t-36.5 -41q-22 -24 -33 -38.5t-14 -14.5q-5 0 -5 5q0 1 4 6t13 16t25 29t40 44q20 22 34 35.5t24 22.5t17.5 17.5t14.5 21.5q11 20 28.5 50.5t38.5 64t45.5 67t50.5 60
t52.5 43t51.5 16.5q20 0 28.5 -12t8.5 -34q0 -36 -25 -74t-67.5 -78t-98 -84t-115.5 -92z" />
    <glyph glyph-name="g" unicode="g" 
d="M-70 -262q0 -17 4.5 -27.5t24.5 -10.5q19 0 39.5 15t41.5 38.5t40.5 53t36 58t28 53.5t16.5 40q-25 -15 -64 -38t-76 -52t-64 -62t-27 -68zM244 266q-30 0 -62.5 -24t-59.5 -59t-44.5 -73.5t-17.5 -66.5q0 -13 6.5 -22t19.5 -9q19 0 40 12.5t42 32t40 43.5t33.5 48
t23.5 45.5t9 35.5q0 17 -6 27t-24 10zM391 274l-168 -278l2 -2q21 9 43 23.5t43 32.5t40.5 38t35.5 39q12 14 15 18t6 4q4 0 4 -5q0 -4 -7 -12t-29 -32q-40 -45 -84 -77.5t-75 -43.5q-9 -19 -25.5 -48t-38 -61.5t-47 -64.5t-51.5 -58t-52 -42.5t-49 -16.5q-22 0 -36 12.5
t-14 38.5q0 30 18 57t52 55t83 57.5t112 65.5q11 25 26.5 57t43.5 86l-2 2q-11 -15 -28 -35.5t-37.5 -39t-42.5 -31.5t-43 -13q-35 0 -48.5 24t-13.5 63q0 19 3.5 30t3.5 22q0 3 -4 3q-5 0 -7 -3.5t-4 -3.5q-4 0 -4 6q0 2 5.5 8.5t26.5 29.5q17 18 40.5 35.5t49.5 31.5
t52 23t48 9q24 0 38 -11t14 -37q0 -22 -4 -35l2 -2q10 16 21 35.5t21 40.5z" />
    <glyph glyph-name="h" unicode="h" 
d="M-28 0q82 144 167 272l-1 2q-21 -23 -36 -42.5t-42 -48.5q-16 -18 -25 -28l-13.5 -15t-6 -6.5t-2.5 -1.5q-4 0 -4 6q0 4 20 25t50.5 56.5t67 84t69.5 105.5l108 186l61 7q-9 -17 -29.5 -51.5t-47.5 -79t-57.5 -95t-59.5 -100t-55 -94t-44 -75.5l2 -2q72 83 125 128t79 45
q22 0 31 -16t9 -36q0 -21 -17 -48.5t-38 -55.5t-38 -54t-17 -42q0 -5 3.5 -9.5t11.5 -4.5q23 0 49 21t68 65q9 9 17 18.5t15 17.5t12 13.5t7 5.5q5 0 5 -5q0 -2 -15 -20t-35 -39q-27 -29 -47 -46.5t-35 -27t-26 -12.5t-20 -3q-15 0 -27.5 11t-12.5 44t17 62.5t38 54.5
t38 45.5t17 35.5q0 5 -3.5 9t-7.5 4q-13 0 -36 -15.5t-49.5 -39.5t-55 -54t-53.5 -59t-43.5 -53.5t-25.5 -38.5z" />
    <glyph glyph-name="i" unicode="i" horiz-adv-x="222" 
d="M225 436q0 13 9 25.5t26 12.5q11 0 17 -7.5t6 -18.5q0 -13 -9 -25.5t-26 -12.5q-11 0 -17 7.5t-6 18.5zM190 278q-45 -74 -72.5 -118.5t-42 -70t-19.5 -37t-5 -19.5q0 -13 6 -17t13 -4q12 0 26 7t29 17.5t29.5 23.5t26.5 26q10 10 20.5 21.5t19 21.5t14.5 16.5t7 6.5
q6 0 6 -5q0 -2 -14.5 -19.5t-46.5 -50.5q-74 -77 -118 -77q-23 0 -35.5 14.5t-12.5 37.5q0 25 10 50t24.5 49t31 46t29.5 41l-2 2q-9 -9 -29 -30t-56 -62q-8 -9 -10 -11t-4 -2q-4 0 -4 6q0 2 5 7.5t25 28.5q10 11 22.5 24.5t24.5 27t22.5 25.5t16.5 20z" />
    <glyph glyph-name="j" unicode="j" horiz-adv-x="222" 
d="M229 434q0 13 9 25.5t26 12.5q11 0 17 -7.5t6 -18.5q0 -13 -9 -25.5t-26 -12.5q-11 0 -17 7.5t-6 18.5zM-238 -274q0 -14 9 -20t23 -6q20 0 40.5 15t39.5 38.5t37 52.5t32.5 57.5t26 53t17.5 39.5l-2 2q-26 -17 -63.5 -41.5t-72 -54.5t-59.5 -64.5t-28 -71.5zM208 278
q-15 -28 -37.5 -69.5t-46.5 -84.5t-45.5 -81t-35.5 -59l2 -2q45 23 88.5 59t85.5 85q14 16 16.5 19.5t5.5 3.5q4 0 4 -5q0 -4 -4 -7.5t-15 -17.5q-34 -42 -79 -81.5t-114 -74.5q-10 -19 -26 -47t-35.5 -58.5t-41.5 -60.5t-46 -54.5t-48.5 -39.5t-48.5 -15q-23 0 -37 10.5
t-14 34.5q0 35 27.5 69t67.5 65t85 58t80 49q53 111 90 182.5t50 90.5l-2 2q-14 -11 -24 -20l-20 -18t-19.5 -19t-21.5 -22q-11 -12 -17.5 -18.5t-9.5 -10.5t-4 -5t-2 -1q-5 0 -5 6q0 1 1 2.5t4.5 5.5t11 11.5t19.5 21.5q20 21 47.5 46.5t50.5 45.5z" />
    <glyph glyph-name="k" unicode="k" 
d="M357 220q-16 0 -20.5 9.5t-5.5 26.5q-17 -3 -25.5 -12.5t-20.5 -29.5q-13 -20 -36.5 -34.5t-47.5 -19.5v-2q10 -2 19.5 -8.5t17 -15.5t12 -19t4.5 -18t-3.5 -19t-7.5 -21.5t-7.5 -18.5t-3.5 -11q0 -6 4.5 -10.5t10.5 -4.5q12 0 26 8.5t28.5 19.5t26.5 23t19 20
q21 22 32 34.5t16.5 19.5t7 9t3.5 2q6 0 6 -5q0 -1 -4.5 -7t-12 -14.5t-16.5 -19t-18 -19.5q-13 -14 -28.5 -29t-31.5 -27t-31 -19.5t-27 -7.5q-14 0 -24 7.5t-16.5 19t-9.5 24.5t-3 24t3 20t7 16.5t7 14t3 12.5t-6 11t-12 5q-8 0 -16.5 -7t-22.5 -7q-15 0 -15 12
q0 5 6.5 10.5t28.5 5.5q4 0 7.5 -1t11.5 -1q6 0 16.5 5t23 14t25 21t23.5 26q22 28 36 37t31 9t27.5 -8.5t10.5 -22.5q0 -13 -8.5 -20t-19.5 -7zM387 602l-350 -598l-68 -4l160 259l-2 2q-6 -7 -14.5 -17t-17.5 -21.5t-18.5 -22t-17.5 -19.5q-17 -18 -26.5 -29t-14.5 -17
t-7 -7.5t-3 -1.5q-4 0 -4 6q0 2 2.5 5.5t11.5 13t25.5 28.5t45.5 52q25 29 44 53.5t35.5 48.5t32 49.5t33.5 56.5t40 69t51 88z" />
    <glyph glyph-name="l" unicode="l" horiz-adv-x="222" 
d="M396 602q-98 -154 -163.5 -257t-106 -168.5t-57.5 -100t-17 -51.5q0 -5 4.5 -9t11.5 -4q23 0 50.5 19t65.5 57q34 34 43.5 47.5t13.5 13.5q5 0 5 -5q0 -1 -4 -6t-10 -12t-12.5 -14t-11.5 -13q-44 -47 -79 -73t-64 -26q-26 0 -34.5 15t-8.5 35q0 22 6 40.5t19 40t32 50
t45 71.5l-2 2q-13 -15 -27 -32t-39 -44q-14 -16 -22.5 -25.5t-13.5 -15t-7 -7t-4 -1.5q-4 0 -4 5q0 3 18.5 23t48 54.5t66 82t72.5 105.5l120 196z" />
    <glyph glyph-name="m" unicode="m" horiz-adv-x="611" 
d="M208 0q5 9 17.5 29t28.5 45t33 52.5t31.5 52t23.5 44t9 28.5q0 14 -13 15q-10 1 -30 -14.5t-44.5 -41t-50.5 -56.5t-49 -60.5t-41 -53t-25 -34.5l-65 -6q73 116 113 178t40 74q0 14 -15 14q-21 0 -45.5 -19.5t-49.5 -45.5q-35 -38 -46.5 -52.5t-14.5 -14.5t-4 2t-1 4
t15.5 19.5t43.5 49.5q35 39 60 54t43 15q40 0 40 -38q0 -17 -6 -35t-15 -35.5t-19 -34.5t-17 -30l2 -2q13 14 36.5 43t50 58.5t53 51.5t46.5 22q17 0 25.5 -10.5t8.5 -34.5q0 -17 -5 -34t-12.5 -33.5t-16 -31.5t-15.5 -27l2 -2q13 15 36.5 44t51 57.5t55 50t48.5 21.5
q14 0 24.5 -12t10.5 -39q0 -24 -15 -50t-34 -51.5t-35 -49t-18 -42.5q-1 -8 3.5 -15t12.5 -7q14 0 38.5 17.5t52.5 46.5q25 27 38 41.5t19 21t7.5 8t3.5 1.5q5 0 5 -5q0 -2 -5.5 -8.5t-13.5 -15.5t-18 -20t-20 -21q-38 -39 -63.5 -58.5t-46.5 -19.5q-23 0 -33 17.5t-10 46.5
q0 31 16.5 60t36.5 54t36.5 45t16.5 34q0 3 -2.5 6t-10.5 3q-14 0 -36 -16.5t-47 -42t-51 -56t-48.5 -59.5t-39.5 -52.5t-24 -33.5z" />
    <glyph glyph-name="n" unicode="n" horiz-adv-x="444" 
d="M26 0q5 9 18.5 29t31.5 45.5t37.5 53.5t35.5 52.5t26.5 43.5t10.5 27t-4.5 11.5t-10.5 3.5q-21 0 -44.5 -17.5t-61.5 -59.5q-18 -19 -27.5 -30t-14 -16.5t-6 -7t-2.5 -1.5q-5 0 -5 6q0 1 4 6.5t10 12t12.5 14t11.5 13.5q36 42 67 67t60 25q20 0 28.5 -13t8.5 -36
q0 -15 -7 -32.5t-16.5 -34.5t-20.5 -32.5t-19 -26.5l2 -2q15 14 41.5 43.5t56.5 59t59 52t48 22.5t27.5 -15.5t8.5 -31.5q0 -26 -12 -47.5t-25 -38.5q-67 -91 -67 -113q0 -8 4 -14t12 -6q17 0 46 23.5t60 56.5q19 20 29 31.5t14.5 17t6 7t3.5 1.5q4 0 4 -5q0 -2 -8 -12
t-18.5 -22t-21 -23t-15.5 -16q-33 -33 -59 -52t-43 -19q-23 0 -33.5 18.5t-10.5 45.5q0 30 17 59.5t37 55t37 45.5t17 30q0 12 -14 12q-12 0 -34 -16t-48 -41t-54 -55.5t-53 -59.5t-44 -52.5t-26 -35.5z" />
    <glyph glyph-name="o" unicode="o" horiz-adv-x="333" 
d="M267 221q0 18 -8 31.5t-27 13.5q-26 0 -55 -22t-53 -55t-39.5 -71t-15.5 -69q0 -21 7.5 -29t18.5 -8q30 0 60.5 20t55 50.5t40.5 67.5t16 71zM289 209q0 -15 -5 -32.5t-13.5 -34t-19 -32t-21.5 -26.5q4 -2 11 -2q26 0 50 13.5t43 35.5q10 11 12.5 14t4.5 3q5 0 5 -5
q0 -2 -4 -7t-21 -23q-19 -20 -44.5 -31.5t-54.5 -11.5q-10 0 -13 1q-23 -26 -54.5 -48.5t-73.5 -22.5q-30 0 -46 24t-16 65q0 27 2.5 37t2.5 15q0 6 -3 6q-6 0 -11 -8t-7 -8q-6 0 -6 5q0 2 5.5 9t14.5 16l19 19l19 19q44 42 87 60.5t77 18.5q29 0 44.5 -19.5t15.5 -49.5z
" />
    <glyph glyph-name="p" unicode="p" 
d="M295 454l-213 -361l2 -2q14 16 40.5 47.5t57 62.5t62 54t55.5 23q20 0 28.5 -15.5t8.5 -36.5q0 -24 -16.5 -50.5t-37 -53.5t-37 -52t-16.5 -44q0 -14 16 -14q8 0 18.5 3.5t24.5 13t32 26.5t41 43q15 17 23.5 27t13 15.5t6 7t3.5 1.5q5 0 5 -5q0 -2 -1 -3.5t-4 -5t-9 -10
t-17 -19.5q-51 -61 -84 -83.5t-55 -22.5q-23 0 -33 17.5t-10 46.5q0 30 16.5 57.5t37 51.5t37 44.5t16.5 35.5q0 13 -13 13q-14 0 -47 -23t-78 -70t-98 -118t-108 -167l-83 -146l-67 -4l343 557l-2 2q-20 -23 -43 -51.5t-44 -53.5t-35.5 -42t-15.5 -17q-6 0 -6 5q0 2 1.5 4
t7 8.5t17.5 20t33 39.5q23 29 40.5 50t31 38t24.5 31.5t22.5 31t25 36.5t31.5 48z" />
    <glyph glyph-name="q" unicode="q" 
d="M64 40q0 -10 4.5 -19t12.5 -9q29 0 63 24.5t63.5 59t49 71.5t19.5 62q0 20 -8.5 28.5t-28.5 8.5q-23 0 -53 -20.5t-57 -53.5t-46 -73t-19 -79zM383 272l-266 -450l2 -2q60 76 124.5 149t127.5 142q24 26 29.5 32.5t7.5 6.5q6 0 6 -6q0 -1 -9.5 -11.5t-22 -24l-25 -27
t-18.5 -20.5q-18 -21 -53.5 -60t-76 -85.5t-79 -94.5t-60.5 -86l-64 -7l226 372l-2 2q-7 -8 -23 -25t-37 -34t-44 -30t-44 -13q-29 0 -43.5 24.5t-14.5 65.5q0 19 3.5 34.5t3.5 17.5t-3 2q-6 0 -8 -5t-4 -5q-1 0 -3 1.5t-2 5.5q0 2 10.5 13.5t27.5 29.5q23 24 49 41.5
t51.5 29t48.5 17.5t41 6q21 0 35 -11t14 -38q0 -6 -2.5 -17.5t-3.5 -16.5l2 -2l44 77z" />
    <glyph glyph-name="r" unicode="r" horiz-adv-x="333" 
d="M30 0q38 61 66.5 104.5t48 72.5t29.5 47t10 28q0 14 -17 14q-11 0 -29.5 -10.5t-48.5 -41.5q-23 -24 -37 -39.5t-21.5 -24.5t-11 -12.5t-4.5 -3.5q-5 0 -5 5q0 2 5.5 9t14.5 17t19.5 21t19.5 22q32 35 56.5 52.5t45.5 17.5q19 0 29 -14.5t10 -32.5q0 -15 -7 -34t-17 -38
t-21 -36t-18 -27l2 -2q40 46 72 74t39 48q8 22 24 42t42 20q24 0 24 -16q0 -15 -17.5 -28.5t-38.5 -29.5t-38.5 -35t-17.5 -45q0 -15 9.5 -24.5t23.5 -9.5q25 0 45 20q17 17 24 27.5t10 10.5q6 0 6 -5q0 -2 -9 -13t-16 -19q-15 -17 -31 -24t-30 -7q-17 0 -30.5 10.5
t-13.5 28.5q0 17 5 30.5t15 25.5l-2 2q-39 -36 -76 -79t-75 -92z" />
    <glyph glyph-name="s" unicode="s" horiz-adv-x="222" 
d="M245 143q0 -2 -13 -17.5t-28 -32.5q-41 -46 -78 -69.5t-79 -23.5q-17 0 -26 1.5t-19 9.5q-6 5 -11 15.5t-5 18.5q0 28 25 28q8 0 14.5 -4.5t6.5 -11.5q0 -8 -2 -11t-5 -5t-5 -4.5t-2 -9.5q0 -15 17 -15q18 0 36 18t32.5 43.5t23.5 54t9 48.5q0 36 0.5 63t5.5 31l-2 2
q-5 -3 -20 -19.5t-33.5 -37.5t-36 -41.5t-26.5 -30.5q-6 -8 -9 -8q-4 0 -4 4q0 5 11.5 17t32.5 38q9 11 22.5 26.5t27 30t24.5 25.5t13 12q1 0 3 5t6 10.5t10 10t14 4.5q17 0 17 -15q0 -14 -13 -20t-27 -11q-2 -8 -3 -11.5t-1 -11.5q0 -28 3.5 -47t7 -34t7 -28t3.5 -28
q0 -18 -8 -33t-19 -27l1 -1q25 17 42 36t30 34q16 17 19 22.5t6 5.5q5 0 5 -6z" />
    <glyph glyph-name="t" unicode="t" horiz-adv-x="222" 
d="M249 464l62 4l-65 -100h117q5 0 5 -6t-5 -6h-124q-8 -14 -25 -40.5t-38 -59t-43.5 -68.5t-41 -67.5t-30.5 -57t-12 -36.5q0 -15 19 -15q23 0 49.5 18.5t60.5 52.5q19 19 30.5 31.5t18 20t9 11t4.5 3.5q5 0 5 -6q0 -1 -5.5 -8t-13.5 -16t-17.5 -19t-17.5 -18
q-46 -46 -75 -64t-50 -18q-26 1 -36.5 16.5t-10.5 32.5q0 21 6 41.5t18 43t29.5 48t39.5 57.5l-2 2q-14 -17 -27.5 -32t-33.5 -38q-3 -4 -9.5 -11t-12.5 -14t-11 -12.5t-6 -5.5q-5 0 -5 4q0 1 1 3.5t5.5 7.5t13 14.5t23.5 26.5q11 12 27.5 31t35 42t38 48.5t36.5 50.5h-36
q-5 0 -5 6t4 6h42z" />
    <glyph glyph-name="u" unicode="u" 
d="M199 278q-46 -74 -74.5 -116.5t-44 -67t-21 -37.5t-5.5 -28q0 -9 5.5 -13t11.5 -4q19 0 51.5 26t68.5 65t70.5 85t57.5 86l64 4q-7 -12 -20.5 -32t-30.5 -44t-34.5 -50t-32 -49.5t-24 -43t-9.5 -30.5q0 -17 17 -17q11 0 35 16t59 53q22 23 34.5 36.5t18.5 20t7.5 8.5
t3.5 2q5 0 5 -5q0 -1 -6 -8.5t-15 -17.5t-19.5 -21t-18.5 -20q-38 -39 -63.5 -57.5t-45.5 -18.5q-13 0 -21.5 6.5t-13 16.5t-6 21t-1.5 20q0 19 7 38l-2 2q-11 -12 -27 -29.5t-35 -34t-38.5 -28.5t-36.5 -12q-24 0 -35 15.5t-11 38.5q0 28 10.5 53.5t26.5 48t34 44t32 42.5
l-2 2q-22 -17 -45.5 -42t-46.5 -49q-10 -11 -12 -14t-5 -3q-4 0 -4 6q0 1 1.5 3.5t6.5 8.5t15.5 16.5t27.5 28.5q15 16 34.5 35t45.5 40z" />
    <glyph glyph-name="v" unicode="v" 
d="M88 70q0 30 15.5 57t34.5 50.5t34.5 43t15.5 34.5q0 11 -17 11q-16 0 -34 -11.5t-35 -28.5q-42 -40 -63 -66t-24 -26q-4 0 -4 6q0 1 1.5 3.5t7 9t16.5 18.5t30 33q40 44 65 59t42 15q24 0 32.5 -16t8.5 -35q0 -27 -14.5 -52t-31.5 -48.5t-31.5 -45.5t-14.5 -42
q0 -27 25 -27q28 0 59.5 18.5t58 48.5t44 68t17.5 76q0 55 31 55q23 0 23 -33q0 -15 -10.5 -38.5t-25.5 -48.5t-31 -46t-27 -30l2 -2q25 2 46.5 11.5t37.5 22.5q20 17 26 26t8 9q6 0 6 -5q0 -2 -4 -7.5t-10.5 -12.5t-14 -14t-14.5 -11q-28 -19 -52.5 -25t-38.5 -6
q-5 0 -17.5 -10.5t-30 -23.5t-39.5 -23.5t-46 -10.5q-29 0 -43 19t-14 51z" />
    <glyph glyph-name="w" unicode="w" horiz-adv-x="500" 
d="M374 278q-7 -10 -20 -29.5t-28.5 -43t-31.5 -49.5t-29 -49.5t-21.5 -42.5t-8.5 -29q0 -23 25 -23q24 0 54.5 16t58 43.5t47.5 65t22 80.5q2 40 8 50.5t23 10.5q11 0 17 -7t6 -15q0 -19 -10 -44.5t-24.5 -50.5t-31.5 -46.5t-32 -32.5l2 -2q32 2 58.5 18t40.5 31
q10 11 13 15.5t6 4.5q5 0 5 -6q0 -2 -12 -16t-32 -28q-17 -11 -38.5 -20t-50.5 -11q-4 0 -15 -11t-28.5 -23.5t-40 -23t-49.5 -10.5q-18 0 -29 6.5t-17 17t-8 24t-2 27.5q0 7 1.5 13t3.5 10l-2 2q-11 -11 -26.5 -28t-33.5 -33t-37 -27.5t-37 -11.5q-26 0 -38 15.5t-12 40.5
t11 50t26.5 48.5t33 45t31.5 39.5l-2 2q-24 -20 -40.5 -36.5t-35.5 -39.5q-17 -20 -22 -25t-7 -5q-4 0 -4 6q0 2 5.5 7.5t19.5 23.5q26 31 54.5 58t48.5 45l57 3q-6 -10 -19.5 -29.5t-29.5 -44t-33.5 -51.5t-31.5 -51t-23 -42t-9 -25q0 -8 4.5 -15.5t14.5 -7.5
q24 0 57.5 26.5t67.5 65.5t64.5 84.5t49.5 83.5z" />
    <glyph glyph-name="x" unicode="x" horiz-adv-x="333" 
d="M140 108q-10 -15 -24.5 -34t-31.5 -35.5t-36.5 -27.5t-38.5 -11q-25 0 -34 8.5t-9 22.5q0 13 6 21t21 8q23 0 23 -27q0 -17 7 -17q11 0 27.5 11t34 27.5t33.5 36.5t27 38q5 9 11.5 26t12 36t9.5 35.5t4 22.5q0 17 -11 17q-18 0 -41 -18t-52 -47q-20 -20 -31.5 -32.5
t-18 -20.5t-9.5 -11t-4 -3q-4 0 -4 6q0 1 1.5 3.5t8 10t19 21.5t34.5 37q29 30 53 48t47 18q21 0 31.5 -17t10.5 -47q0 -32 -4 -42l2 -2q7 14 20.5 32.5t30.5 35.5t36 28.5t36 11.5q18 0 28.5 -9t10.5 -23q0 -10 -5.5 -17t-16.5 -7q-9 0 -15.5 5t-8.5 17q-1 7 -2.5 9.5
t-12.5 2.5q-14 0 -37 -21t-45 -54t-38.5 -73.5t-16.5 -79.5q0 -16 12 -16q33 0 110 81q29 31 38 43t13 12q5 0 5 -5q0 -1 -5.5 -8t-14.5 -17.5t-21 -23.5t-25 -27q-33 -35 -57 -51t-46 -16q-15 0 -25 6.5t-15 18t-7 26t-2 30.5q0 5 1 13.5t3 13.5h-2z" />
    <glyph glyph-name="y" unicode="y" horiz-adv-x="444" 
d="M221 -32q-68 -44 -115 -78t-76 -61.5t-41.5 -49.5t-12.5 -41q0 -20 8.5 -29t21.5 -9q19 0 41.5 14t49.5 46t58 82.5t67 124.5zM451 278l-178 -289l2 -2q26 12 49.5 29t44.5 35.5t38.5 37.5t31.5 35q14 17 17 20.5t7 3.5t4 -5q0 -1 -4.5 -6.5t-11 -13.5t-14 -16.5
t-13.5 -15.5q-21 -23 -41 -41t-39.5 -32.5t-39.5 -26.5t-42 -23q-78 -137 -146 -208.5t-113 -71.5q-21 0 -35 13.5t-14 40.5t20.5 55t57 58t87.5 63t112 69l87 166l-2 2q-7 -9 -19.5 -24t-28.5 -32t-34.5 -34t-37 -31t-35 -23t-28.5 -9q-19 0 -31 18.5t-12 38.5
q0 27 15 54.5t33 53t33 47.5t15 39q0 13 -16 13q-19 0 -41.5 -17t-51.5 -47q-21 -23 -33 -36t-18 -20.5t-8 -9.5t-4 -2q-4 0 -4 5q0 1 1 3t6 8t15 17t27 31q43 48 69.5 64t43.5 16q23 0 33.5 -17.5t10.5 -37.5q0 -27 -15 -55.5t-33 -54.5t-33 -48t-15 -36q0 -15 14 -15
q15 0 38 14.5t48 38t51.5 52.5t49.5 57.5t40.5 54t25.5 41.5z" />
    <glyph glyph-name="z" unicode="z" horiz-adv-x="333" 
d="M216 84q1 -12 -2.5 -21t-9 -16.5t-10 -14t-4.5 -13.5q0 -3 3.5 -5t6.5 -2q7 0 18 6.5t23.5 17.5t26.5 24.5t27 27.5q20 21 30.5 33t15.5 18t6.5 7.5t3.5 1.5q5 0 5 -5q0 -3 -12.5 -17t-39.5 -44q-22 -25 -38.5 -41t-29 -25t-21.5 -12.5t-17 -3.5q-20 0 -34 13.5t-14 33.5
q0 16 10 26t10 22q0 9 -13 9q-11 0 -31.5 -9.5t-41 -22t-37.5 -25t-21 -19.5t-13.5 -17.5t-17.5 -10.5q-14 0 -14 9q0 7 6 13.5t14 12.5t16.5 10.5t13.5 7.5q3 2 24.5 20.5t53.5 45.5t70.5 57t75.5 55l-2 2q-5 -3 -15 -8t-23 -9.5t-27 -8t-27 -3.5q-19 0 -32 6t-27 15
q-10 -8 -21 -19t-21 -22t-19 -21.5l-15 -17.5q-5 -5 -6.5 -7t-4.5 -2t-3 7q0 1 10 12.5t23.5 26t28 29t22.5 21.5q-5 10 -5 20q0 14 8.5 20t21.5 6q11 0 17.5 -6t6.5 -14q0 -11 -6.5 -15.5t-6.5 -13.5q0 -6 11 -9.5t25 -3.5q8 0 22 3.5t28.5 8t26.5 10t17 10.5q7 6 20.5 18
t21.5 12t8 -12q0 -8 -5.5 -13.5t-13.5 -10t-16.5 -8.5t-15.5 -7q-5 -2 -33 -24t-80 -66q-13 -11 -27 -21.5t-25.5 -19t-19 -14t-7.5 -6.5q0 -3 3 -3t12.5 6.5t23.5 15t30.5 15t33.5 6.5q15 0 28.5 -7.5t15.5 -24.5z" />
    <glyph glyph-name="braceleft" unicode="{" horiz-adv-x="500" 
d="M178 -60q-12 -24 -20.5 -45.5t-8.5 -37.5q0 -13 13 -23t35 -10l-6 -24q-43 0 -69.5 9.5t-26.5 41.5q0 16 6 39.5t22 55.5l92 184q9 18 17.5 39t8.5 33q0 31 -42 47q27 7 47 17t35.5 24.5t28.5 33.5t25 44l92 185q23 47 47.5 75.5t50.5 44t55 20.5t61 5l-13 -24
q-50 -4 -82 -33.5t-58 -82.5l-88 -175q-14 -28 -27.5 -49.5t-30.5 -38t-38.5 -27.5t-50.5 -18l-1 -2q23 -7 33 -19t10 -29q0 -16 -7 -35.5t-22 -49.5z" />
    <glyph glyph-name="bar" unicode="|" horiz-adv-x="222" 
d="M148 750h30v-1000h-30v1000z" />
    <glyph glyph-name="braceright" unicode="}" horiz-adv-x="500" 
d="M428 558q12 24 20.5 45.5t8.5 37.5q0 13 -13 23t-35 10l6 24q43 0 69.5 -9.5t26.5 -41.5q0 -16 -6 -39.5t-22 -55.5l-92 -184q-9 -18 -17.5 -39t-8.5 -33q0 -31 42 -47q-27 -7 -47 -17t-35.5 -24.5t-28.5 -33.5t-25 -44l-92 -185q-23 -47 -47.5 -75.5t-50.5 -44
t-55 -20.5t-61 -5l13 24q50 4 82 33.5t58 82.5l88 175q14 28 27.5 49.5t30.5 38t38.5 27.5t50.5 18l1 2q-23 7 -33 19t-10 29q0 16 7 35.5t22 49.5z" />
    <glyph glyph-name="asciitilde" unicode="~" horiz-adv-x="400" 
d="M340 154q-13 -17 -28 -32t-41 -15q-15 0 -28.5 5t-27.5 13t-29 14t-34 6q-18 0 -29 -13t-17 -28l-20 20q9 17 25 32t44 15q14 0 29.5 -5t31.5 -12q15 -7 30 -13.5t26 -6.5q17 0 27.5 12.5t20.5 27.5z" />
    <glyph glyph-name="exclamdown" unicode="&#xa1;" horiz-adv-x="333" 
d="M264 210q-29 0 -29 25q0 20 9 31.5t30 11.5q12 0 18.5 -5.5t6.5 -22.5t-8 -28.5t-27 -11.5zM36 -200l-74 -6l266 392h18z" />
    <glyph glyph-name="cent" unicode="&#xa2;" 
d="M271 208q6 9 11.5 13.5t10 7.5t7.5 6.5t3 9.5q0 17 -30 17q-24 0 -49.5 -19.5t-47.5 -49t-36 -64t-14 -63.5q0 -21 9 -35t31 -18zM365 380h16l-61 -117q9 -8 13 -15t4 -23q0 -17 -9 -29.5t-27 -12.5q-11 0 -21 8l-99 -179q20 3 38.5 13t37 26t39.5 37l46 46q7 7 11 7
q5 0 5 -5q0 -3 -10.5 -14t-23.5 -24.5t-25 -25t-16 -15.5q-21 -20 -49.5 -38.5t-59.5 -18.5l-60 -110h-16l61 112q-42 3 -62.5 32t-20.5 68q0 31 19 62t48 55.5t63 39.5t64 15q9 0 17.5 -1t17.5 -3z" />
    <glyph glyph-name="sterling" unicode="&#xa3;" 
d="M-2 42q0 -15 8.5 -25.5t22.5 -10.5q7 0 15.5 4.5t20 16t25 31.5t30.5 51q-10 5 -20 7.5t-21 2.5q-15 0 -29.5 -6.5t-26 -17t-18.5 -24.5t-7 -29zM376 460q-19 0 -35 -13t-28.5 -31t-21 -37.5t-13.5 -32.5q14 -8 29.5 -10.5t30.5 -2.5q25 0 43.5 7t31 18t19 24.5t6.5 25.5
q0 20 -16.5 36t-45.5 16zM226 233q-19 -39 -36.5 -68.5t-38.5 -60.5q13 -9 27 -20.5t29 -21.5t31 -16.5t34 -6.5t31 12.5t22 27.5t14.5 27.5t7.5 12.5q7 0 7 -9q0 -4 -2.5 -10.5t-10.5 -23.5q-14 -31 -38.5 -56.5t-59.5 -25.5q-18 0 -32.5 9.5t-27.5 23.5t-23.5 29.5
t-19.5 28.5q-11 -12 -24 -28t-28 -30t-31.5 -23.5t-33.5 -9.5q-21 0 -31 12.5t-10 32.5q0 19 9 36t23 29.5t30.5 19.5t32.5 7t28.5 -3.5t20.5 -6.5q13 27 24 55t22 57h-58q-6 0 -6 8t6 8h64q11 29 24 56t29 53q-5 3 -15.5 12t-21.5 19.5t-19.5 20t-8.5 14.5t7 5q3 0 19 -19
q10 -11 19.5 -20t26.5 -20q14 19 28.5 37.5t31 33t36 23t43.5 8.5q35 0 54 -21t19 -51q0 -23 -8.5 -40.5t-22 -29.5t-30.5 -18t-33 -6q-22 0 -44.5 6.5t-40.5 19.5q-9 -17 -18 -40.5t-19 -42.5h54q6 0 6 -8t-6 -8h-62z" />
    <glyph glyph-name="fraction" unicode="&#x2044;" horiz-adv-x="167" 
d="M385 472l-471 -478h-30l471 478h30z" />
    <glyph glyph-name="fraction" unicode="&#x2215;" horiz-adv-x="167" 
d="M385 472l-471 -478h-30l471 478h30z" />
    <glyph glyph-name="yen" unicode="&#xa5;" 
d="M279 248q17 36 21.5 64t4.5 54q0 18 -3 35t-10.5 30t-20.5 21t-33 8q-30 0 -58.5 -12.5t-50.5 -32.5t-35.5 -44.5t-13.5 -47.5q0 -20 11.5 -32.5t32.5 -12.5q17 0 34 11.5t31 28t25 35t16 32.5q8 21 11.5 28t5.5 7q5 0 5 -7q0 -22 -9.5 -48t-26 -49t-40 -38.5
t-50.5 -15.5q-23 0 -40.5 14t-17.5 44q0 27 14 54t38 49t55.5 35.5t65.5 13.5q51 0 74.5 -35.5t23.5 -86.5q0 -12 -1.5 -27t-5.5 -32l2 -2q18 29 42.5 61t52 59t56.5 45t56 18q9 0 9 -5q0 -6 -10 -6q-9 0 -27 -6q-16 -6 -38 -23.5t-47 -44.5t-50.5 -62t-47.5 -77h91
q6 0 6 -8t-6 -8h-100l-9.5 -19t-8.5 -19h102q6 0 6 -8t-6 -8h-108l-71 -172q-14 0 -29 -2t-31 -4l83 178h-88q-6 0 -6 8t6 8h95l17 38h-96q-6 0 -6 8t6 8h102z" />
    <glyph glyph-name="florin" unicode="&#x192;" 
d="M238 284q29 54 61.5 115t68 112.5t72 85t73.5 33.5q30 0 50.5 -19t20.5 -54q0 -20 -10.5 -37.5t-35.5 -17.5q-11 0 -17.5 6.5t-6.5 15.5q0 13 6 18t13.5 8t14 8t6.5 17q0 18 -13 28.5t-30 10.5q-23 0 -45 -19.5t-42.5 -50.5t-39.5 -69t-35 -74.5t-29.5 -68t-22.5 -48.5
h106q6 0 6 -8t-6 -8h-112q-70 -143 -126 -251.5t-102 -181.5t-85 -110t-76 -37q-35 0 -51.5 24t-16.5 53q0 10 3 20.5t9 19t14 14t18 5.5q11 0 20 -6.5t9 -20.5q0 -8 -7 -15t-15 -8q-21 -2 -21 -24q0 -15 12 -25.5t26 -10.5q17 0 32.5 8.5t33.5 30.5t40.5 61t53.5 100.5
t71.5 148.5t95.5 205h-115q-6 0 -6 8t6 8h124z" />
    <glyph glyph-name="section" unicode="&#xa7;" horiz-adv-x="500" 
d="M198 296q0 -24 9 -45t23.5 -43t31.5 -47.5t33 -58.5q26 0 49 6t40.5 18.5t28 31.5t10.5 45q0 28 -11 55t-26.5 52.5t-32.5 49.5t-28 46q-24 -2 -46.5 -9t-40.5 -20.5t-29 -33.5t-11 -47zM318 -2q0 -30 -11.5 -58t-32.5 -49t-51.5 -34t-67.5 -13q-31 0 -56.5 10
t-43.5 27.5t-28 40t-10 46.5q0 35 23 60.5t59 25.5q34 0 55.5 -16.5t21.5 -45.5q0 -15 -9.5 -25t-24.5 -10q-30 0 -30 31q0 13 4.5 17t4.5 14q0 3 -6.5 9t-21.5 6q-26 0 -43 -16.5t-17 -46.5q0 -53 32.5 -82t85.5 -29q28 0 52.5 9.5t42.5 27.5t28 43t10 56q0 35 -20.5 68
t-44.5 67t-44.5 70.5t-20.5 78.5q0 33 14 59.5t37.5 44.5t53 28t60.5 10q-5 16 -8.5 34t-3.5 36q0 34 11 63.5t31 52t48 35.5t63 13q24 0 46.5 -8t39.5 -23t27.5 -35.5t10.5 -45.5q0 -32 -18 -56t-52 -24q-28 0 -46 13.5t-18 33.5q0 14 8 23.5t24 9.5q17 0 24.5 -8t7.5 -22
q0 -7 -2.5 -11.5t-2.5 -8.5q-1 -6 3.5 -8t9.5 -2q24 0 35 19.5t11 40.5q0 45 -31.5 70.5t-77.5 25.5q-26 0 -47.5 -9t-37.5 -25t-24.5 -37.5t-8.5 -46.5q0 -45 19.5 -80t43.5 -68t43.5 -68.5t19.5 -83.5q0 -35 -14 -60.5t-37.5 -42t-53 -25t-60.5 -8.5q6 -22 11 -43.5
t5 -44.5z" />
    <glyph glyph-name="currency" unicode="&#xa4;" 
d="M375 233q0 27 -10 52t-28 44t-42.5 30.5t-52.5 11.5q-29 0 -53.5 -11.5t-42.5 -30.5t-28 -44t-10 -52t10 -52t28 -44t42.5 -30.5t53.5 -11.5q28 0 52.5 11.5t42.5 30.5t28 44t10 52zM380 397l25 -25l-36 -37q36 -42 36 -102t-36 -102l36 -37l-25 -25l-36 37
q-21 -17 -47 -27t-55 -10t-55.5 10t-47.5 27l-36 -37l-25 25l36 37q-17 20 -26.5 46.5t-9.5 55.5t9.5 55.5t26.5 46.5l-36 37l25 25l36 -37q21 17 47.5 27t55.5 10t55 -10t47 -27z" />
    <glyph glyph-name="quotesingle" unicode="'" horiz-adv-x="222" 
d="M222 280q-1 -11 -3 -18.5t-7 -7.5t-7 7.5t-3 18.5l-12 156q-1 8 -1 15v13q0 18 4.5 31t18.5 13t18.5 -13t4.5 -31v-13t-1 -15z" />
    <glyph glyph-name="quotedblleft" unicode="&#x201c;" 
d="M311 352q0 20 19 47t43 51t46.5 41t28.5 17q5 0 5 -5q0 -3 -3 -5.5t-14 -10.5q-29 -21 -46.5 -41.5t-18.5 -40.5q-1 -25 -3.5 -40.5t-7 -24.5t-11.5 -12.5t-17 -3.5q-11 0 -16 8.5t-5 19.5zM163 352q0 20 19 47t43 51t46.5 41t28.5 17q5 0 5 -5q0 -3 -3 -5.5t-14 -10.5
q-29 -21 -46.5 -41.5t-18.5 -40.5q-1 -25 -3.5 -40.5t-7 -24.5t-11.5 -12.5t-17 -3.5q-11 0 -16 8.5t-5 19.5z" />
    <glyph glyph-name="guillemotleft" unicode="&#xab;" 
d="M195 145q18 12 39 29t53 43q15 12 23.5 19.5t13.5 12t7.5 6t4.5 1.5q5 0 5 -4q0 -5 -10 -17.5t-24.5 -29t-30.5 -34.5t-28 -32q8 -17 16 -35t14.5 -33t10.5 -26.5t4 -15.5q0 -7 -5 -7q-3 0 -5.5 2.5t-7 9.5t-13.5 19t-25 31q-12 14 -21.5 26t-20.5 26v9zM83 145
q18 12 39 29t53 43q15 12 23.5 19.5t13.5 12t7.5 6t4.5 1.5q5 0 5 -4q0 -5 -10 -17.5t-24.5 -29t-30.5 -34.5t-28 -32q8 -17 16 -35t14.5 -33t10.5 -26.5t4 -15.5q0 -7 -5 -7q-3 0 -5.5 2.5t-7 9.5t-13.5 19t-25 31q-12 14 -21.5 26t-20.5 26v9z" />
    <glyph glyph-name="guilsinglleft" unicode="&#x2039;" horiz-adv-x="278" 
d="M77 145q18 12 39 29t53 43q15 12 23.5 19.5t13.5 12t7.5 6t4.5 1.5q5 0 5 -4q0 -5 -10 -17.5t-24.5 -29t-30.5 -34.5t-28 -32q8 -17 16 -35t14.5 -33t10.5 -26.5t4 -15.5q0 -7 -5 -7q-3 0 -5.5 2.5t-7 9.5t-13.5 19t-25 31q-12 14 -21.5 26t-20.5 26v9z" />
    <glyph glyph-name="guilsinglright" unicode="&#x203a;" horiz-adv-x="278" 
d="M245 133q-18 -12 -39 -29t-53 -43q-15 -12 -23.5 -19.5t-13.5 -12t-7.5 -6t-4.5 -1.5q-5 0 -5 4t10 17t24.5 29.5t30.5 34.5t28 32q-8 17 -16 35t-14.5 33t-10.5 26t-4 16q0 7 5 7q3 0 5.5 -2.5t7 -9.5t13.5 -19t25 -31q12 -14 21.5 -26t20.5 -26v-9z" />
    <glyph glyph-name="fi" unicode="&#xfb01;" horiz-adv-x="444" 
d="M447 436q0 13 9 25.5t26 12.5q11 0 17 -7.5t6 -18.5q0 -13 -9 -25.5t-26 -12.5q-11 0 -17 7.5t-6 18.5zM192 281q19 17 47 39t59 48t62 54.5t55.5 58t39.5 59t15 57.5q0 23 -28 23q-30 0 -61.5 -30t-63.5 -78t-64 -108.5t-63 -120.5zM412 278q-45 -74 -72.5 -118.5
t-42 -70t-19.5 -37t-5 -19.5q0 -13 6 -17t13 -4q12 0 26 7t29 17.5t29.5 23.5t26.5 26q10 10 20.5 21.5t19 21.5t14.5 16.5t7 6.5q6 0 6 -5q0 -2 -14.5 -19.5t-46.5 -50.5q-74 -77 -118 -77q-23 0 -35.5 14.5t-12.5 37.5q0 25 10 50t24.5 49t31 46t29.5 41l-2 2
q-24 -25 -42.5 -45.5t-34.5 -39t-31.5 -35t-32.5 -34.5q-32 -32 -68 -54.5t-74 -28.5l-143 -267l-61 -8l155 282q-8 5 -10 13t-2 16q0 14 8 22.5t20 8.5q8 0 13 -3l115 205l-2 2q-30 -26 -47.5 -46t-36.5 -41q-22 -24 -33 -38.5t-14 -14.5q-5 0 -5 5q0 1 4 6t13 16t25 29
t40 44q20 22 34 35.5t24 22.5t17.5 17.5t14.5 21.5q11 20 28.5 50.5t38.5 64t45.5 67t50.5 60t52.5 43t51.5 16.5q20 0 28.5 -12t8.5 -34q0 -36 -25 -74t-67.5 -78t-98 -84t-115.5 -92l-119 -238q22 2 44.5 13.5t43 26.5t37.5 31.5t28 29.5q52 60 88 98.5t47 54.5z" />
    <glyph glyph-name="fl" unicode="&#xfb02;" horiz-adv-x="444" 
d="M192 281q19 17 47 39t59 48t62 54.5t55.5 58t39.5 59t15 57.5q0 23 -28 23q-30 0 -61.5 -30t-63.5 -78t-64 -108.5t-63 -120.5zM618 602q-97 -154 -162.5 -257t-105.5 -168.5t-57 -100t-17 -51.5q0 -5 4.5 -9t11.5 -4q23 0 50.5 19t65.5 57q34 34 43.5 47.5t13.5 13.5
q5 0 5 -5q0 -1 -4 -6t-10 -12t-12.5 -14t-11.5 -13q-44 -47 -79 -73t-64 -26q-26 0 -34.5 16t-8.5 41q0 22 15.5 54.5t35.5 64t39 58.5t25 39l-2 2q-12 -17 -33.5 -42.5t-45.5 -53.5t-47 -53t-38 -40q-32 -32 -68 -54.5t-74 -28.5l-143 -267l-61 -8l155 282q-8 5 -10 13
t-2 16q0 14 8 22.5t20 8.5q8 0 13 -3l115 205l-2 2q-30 -26 -47.5 -46t-36.5 -41q-22 -24 -33 -38.5t-14 -14.5q-5 0 -5 5q0 1 4 6t13 16t25 29t40 44q20 22 34 35.5t24 22.5t17.5 17.5t14.5 21.5q11 20 28.5 50.5t38.5 64t45.5 67t50.5 60t52.5 43t51.5 16.5q20 0 28.5 -12
t8.5 -34q0 -36 -25 -74t-67.5 -78t-98 -84t-115.5 -92l-119 -238q22 2 44.5 13.5t43 26.5t37.5 31.5t28 29.5q40 47 91 102.5t97 128.5l150 243z" />
    <glyph glyph-name="endash" unicode="&#x2013;" horiz-adv-x="500" 
d="M512 120h-500l12 38h500z" />
    <glyph glyph-name="dagger" unicode="&#x2020;" horiz-adv-x="500" 
d="M83 -156l147 287q19 36 29.5 62.5t16 45t7 31t1.5 20.5q31 27 52.5 66t43.5 82h-46q-18 0 -32 -4.5t-26 -10.5t-24 -10.5t-26 -4.5q-11 0 -22.5 9.5t-11.5 25.5q0 17 10 29t28 12q9 0 19 -4.5t22 -10.5t27.5 -10.5t36.5 -4.5h53q8 16 16 29t14 27.5t10 32t4 43.5t11.5 41
t32.5 15q17 0 26.5 -9.5t9.5 -32.5q0 -11 -6.5 -16.5t-16.5 -12.5t-22.5 -19t-25.5 -36l-33 -62h32q27 0 46.5 4t33.5 9t23.5 9t16.5 4q15 0 26.5 -10t11.5 -26q0 -13 -9 -24.5t-24 -11.5q-11 0 -20.5 4.5t-23.5 10.5t-37 10.5t-61 4.5h-22q-14 -29 -30.5 -65t-16.5 -77
q0 -2 -4 -4t-11.5 -9.5t-18.5 -22t-24 -40.5l-195 -376h-18z" />
    <glyph glyph-name="daggerdbl" unicode="&#x2021;" horiz-adv-x="500" 
d="M214 22q-12 -23 -19.5 -39.5t-12 -30.5t-6.5 -28t-2 -30q0 -30 -14.5 -41t-28.5 -11t-23.5 9.5t-9.5 26.5q0 12 7 20.5t18 18.5t24.5 25t26.5 40l20 40h-45q-15 0 -27.5 -4.5t-24.5 -9.5t-24.5 -9.5t-26.5 -4.5q-20 0 -29.5 11t-9.5 22q0 21 11 30t28 9q13 0 23 -4.5
t23 -9.5t32.5 -9.5t51.5 -4.5h26q19 37 31 63t19.5 46.5t11 38.5t6.5 40q18 11 37.5 40t37.5 63t33.5 66.5t25.5 50.5h-45q-15 0 -27.5 -4.5t-24.5 -9.5t-24.5 -9.5t-26.5 -4.5q-20 0 -29.5 11t-9.5 22q0 21 11 30t28 9q13 0 23 -4.5t23 -9.5t32.5 -9.5t51.5 -4.5h26
q12 24 19 40.5t11 30.5t6 27.5t4 30.5q2 20 11 35.5t32 15.5q15 0 24 -11.5t9 -25.5t-7.5 -24t-18.5 -20.5t-23.5 -22.5t-21.5 -30l-25 -46h28q29 0 50 4t36 9t25 9t17 4q16 0 28 -9.5t12 -25.5t-7.5 -25.5t-24.5 -9.5q-10 0 -22 4.5t-27 9.5t-35 9.5t-46 4.5h-42
q-31 -59 -48 -93.5t-25 -56.5t-9.5 -36.5t-1.5 -32.5q-21 -22 -36 -42t-28 -41.5t-25.5 -47t-28.5 -58.5h28q29 0 50 4t36 9t25 9t17 4q16 0 28 -9.5t12 -25.5t-7.5 -25.5t-24.5 -9.5q-10 0 -22 4.5t-27 9.5t-35 9.5t-46 4.5h-42z" />
    <glyph glyph-name="periodcentered" unicode="&#xb7;" horiz-adv-x="222" 
d="M115 106q-13 0 -21 10.5t-8 22.5t8 22.5t21 10.5t21 -10.5t8 -22.5t-8 -22.5t-21 -10.5z" />
    <glyph glyph-name="periodcentered" unicode="&#x2219;" horiz-adv-x="222" 
d="M115 106q-13 0 -21 10.5t-8 22.5t8 22.5t21 10.5t21 -10.5t8 -22.5t-8 -22.5t-21 -10.5z" />
    <glyph glyph-name="paragraph" unicode="&#xb6;" horiz-adv-x="600" 
d="M782 620q-29 -2 -47 -4.5t-29.5 -7t-18 -13t-12.5 -21.5l-353 -732h-40l371 770h-79l-371 -770h-40l188 389q-68 0 -101.5 30.5t-33.5 83.5q0 62 28.5 116t75 94.5t107 63.5t125.5 23h240z" />
    <glyph glyph-name="bullet" unicode="&#x2022;" horiz-adv-x="500" 
d="M180 346q0 36 13.5 67.5t37 55t55 37t67.5 13.5t67.5 -13.5t55 -37t37 -55t13.5 -67.5t-13.5 -67.5t-37 -55t-55 -37t-67.5 -13.5t-67.5 13.5t-55 37t-37 55t-13.5 67.5z" />
    <glyph glyph-name="quotesinglbase" unicode="&#x201a;" horiz-adv-x="222" 
d="M140 44q0 -20 -19 -47t-43 -51t-46.5 -41t-28.5 -17q-5 0 -5 5q0 3 3 5.5t14 10.5q29 21 46.5 41.5t18.5 40.5q1 49 10 65t29 16q11 0 16 -8.5t5 -19.5z" />
    <glyph glyph-name="quotedblbase" unicode="&#x201e;" 
d="M128 44q0 -20 -19 -47t-43 -51t-46.5 -41t-28.5 -17q-5 0 -5 5q0 3 3 5.5t14 10.5q29 21 46.5 41.5t18.5 40.5q1 49 10 65t29 16q11 0 16 -8.5t5 -19.5zM276 44q0 -20 -19 -47t-43 -51t-46.5 -41t-28.5 -17q-5 0 -5 5q0 3 3 5.5t14 10.5q29 21 46.5 41.5t18.5 40.5
q1 49 10 65t29 16q11 0 16 -8.5t5 -19.5z" />
    <glyph glyph-name="quotedblright" unicode="&#x201d;" 
d="M302 480q0 -20 -19 -47t-43 -51t-46.5 -41t-28.5 -17q-5 0 -5 5q0 3 3 5.5t14 10.5q29 21 46.5 41.5t18.5 40.5q1 49 10 65t29 16q11 0 16 -8.5t5 -19.5zM450 480q0 -20 -19 -47t-43 -51t-46.5 -41t-28.5 -17q-5 0 -5 5q0 3 3 5.5t14 10.5q29 21 46.5 41.5t18.5 40.5
q1 49 10 65t29 16q11 0 16 -8.5t5 -19.5z" />
    <glyph glyph-name="guillemotright" unicode="&#xbb;" 
d="M238 133q-18 -12 -39 -29t-53 -43q-15 -12 -23.5 -19.5t-13.5 -12t-7.5 -6t-4.5 -1.5q-5 0 -5 4t10 17t24.5 29.5t30.5 34.5t28 32q-8 17 -16 35t-14.5 33t-10.5 26t-4 16q0 7 5 7q3 0 5.5 -2.5t7 -9.5t13.5 -19t25 -31q12 -14 21.5 -26t20.5 -26v-9zM350 133
q-18 -12 -39 -29t-53 -43q-15 -12 -23.5 -19.5t-13.5 -12t-7.5 -6t-4.5 -1.5q-5 0 -5 4t10 17t24.5 29.5t30.5 34.5t28 32q-8 17 -16 35t-14.5 33t-10.5 26t-4 16q0 7 5 7q3 0 5.5 -2.5t7 -9.5t13.5 -19t25 -31q12 -14 21.5 -26t20.5 -26v-9z" />
    <glyph glyph-name="ellipsis" unicode="&#x2026;" horiz-adv-x="1000" 
d="M534 62q29 0 29 -25q0 -20 -9 -31.5t-30 -11.5q-12 0 -18.5 5.5t-6.5 22.5t8 28.5t27 11.5zM867 62q29 0 29 -25q0 -20 -9 -31.5t-30 -11.5q-12 0 -18.5 5.5t-6.5 22.5t8 28.5t27 11.5zM201 62q29 0 29 -25q0 -20 -9 -31.5t-30 -11.5q-12 0 -18.5 5.5t-6.5 22.5t8 28.5
t27 11.5z" />
    <glyph glyph-name="perthousand" unicode="&#x2030;" horiz-adv-x="944" 
d="M164 -6l406 562h22l-406 -562h-22zM364 481q0 34 -13 43.5t-27 9.5q-19 0 -40.5 -13.5t-43 -36t-41 -51t-34.5 -58.5t-24 -59.5t-9 -53.5q0 -21 11.5 -39.5t34.5 -18.5q15 0 34.5 12.5t40.5 34t40.5 49.5t35.5 59t25.5 62.5t9.5 59.5zM648 293q0 34 -13 43.5t-27 9.5
q-19 0 -40.5 -13.5t-43 -36t-41 -51t-34.5 -58.5t-24 -59.5t-9 -53.5q0 -21 11.5 -39.5t34.5 -18.5q15 0 34.5 12.5t40.5 34t40.5 49.5t35.5 59t25.5 62.5t9.5 59.5zM962 293q0 34 -13 43.5t-27 9.5q-19 0 -40.5 -13.5t-43 -36t-41 -51t-34.5 -58.5t-24 -59.5t-9 -53.5
q0 -21 11.5 -39.5t34.5 -18.5q15 0 34.5 12.5t40.5 34t40.5 49.5t35.5 59t25.5 62.5t9.5 59.5zM601 362q21 0 34.5 -7t21 -18t10.5 -25.5t3 -29.5q0 -24 -9 -54.5t-25 -62t-37 -61t-44.5 -53t-48.5 -37.5t-48 -14t-39 10t-25.5 25t-13.5 33t-4 35q0 42 21 87.5t54 84
t72.5 63t77.5 24.5zM317 550q21 0 34.5 -7t21 -18t10.5 -25.5t3 -29.5q0 -24 -9 -54.5t-25 -62t-37 -61t-44.5 -53t-48.5 -37.5t-48 -14t-39 10t-25.5 25t-13.5 33t-4 35q0 42 21 87.5t54 84t72.5 63t77.5 24.5zM915 362q21 0 34.5 -7t21 -18t10.5 -25.5t3 -29.5
q0 -24 -9 -54.5t-25 -62t-37 -61t-44.5 -53t-48.5 -37.5t-48 -14t-39 10t-25.5 25t-13.5 33t-4 35q0 42 21 87.5t54 84t72.5 63t77.5 24.5z" />
    <glyph glyph-name="questiondown" unicode="&#xbf;" 
d="M323 210q-29 0 -29 25q0 20 9 31.5t30 11.5q12 0 18.5 -5.5t6.5 -22.5t-8 -28.5t-27 -11.5zM93 -218q-39 0 -62 26t-23 65q0 37 14.5 62t37 43.5t48.5 33t50 29.5q36 23 59.5 47t38 44t22 33t12.5 13q4 0 4 -6q0 -3 -9.5 -18t-25.5 -35.5t-36.5 -44t-41.5 -42.5
q-37 -33 -62.5 -59.5t-41 -50t-22.5 -44t-7 -39.5q0 -23 15.5 -34t36.5 -11q18 0 35.5 6.5t31.5 17t22.5 24.5t8.5 30q-13 5 -21.5 11t-8.5 22q0 11 8 19t21 8q16 0 23.5 -10.5t7.5 -26.5q0 -22 -12.5 -42.5t-32 -36t-43.5 -25t-47 -9.5z" />
    <glyph glyph-name="grave" unicode="`" horiz-adv-x="222" 
d="M101 492q15 0 21.5 -9.5t10.5 -24.5t9.5 -34t18.5 -37q7 -11 17 -20t18 -16t14 -11.5t6 -7.5q0 -4 -5 -4q-8 0 -29.5 15.5t-44.5 37.5t-41 46.5t-18 42.5q0 7 6 14.5t17 7.5z" />
    <glyph glyph-name="acute" unicode="&#xb4;" horiz-adv-x="222" 
d="M267 492q11 0 17 -7.5t6 -14.5q0 -18 -18 -42.5t-41 -46.5t-44.5 -37.5t-29.5 -15.5q-2 1 -4 1q-1 0 -1 3t6 7.5t14 11.5t17.5 16t17.5 20q13 18 18.5 37t9.5 34t10.5 24.5t21.5 9.5z" />
    <glyph glyph-name="circumflex" unicode="&#x2c6;" horiz-adv-x="222" 
d="M223 492q6 -30 17 -58.5t22.5 -51t19.5 -37t8 -15.5q0 -2 -2 -2q-6 0 -18.5 14t-25.5 32t-23.5 35.5t-13.5 23.5q-17 -17 -37.5 -35.5t-39 -34t-33 -25.5t-17.5 -10q-4 0 -4 2q0 3 14 17t34.5 36t43.5 50t41 59h14z" />
    <glyph glyph-name="tilde" unicode="&#x2dc;" horiz-adv-x="222" 
d="M133 449q17 0 35 -5.5t37 -12.5t37 -12.5t33 -5.5q18 0 27.5 7t15 15.5t8 15.5t6.5 7t4 -7q0 -3 -3.5 -15t-12 -25t-23.5 -23.5t-39 -10.5q-17 0 -34 5t-34 12t-33.5 12t-32.5 5q-15 0 -24 -6.5t-15 -15t-9.5 -15t-7.5 -6.5t-4 7q0 3 4.5 15t13 25t21.5 23.5t30 10.5z
" />
    <glyph glyph-name="macron" unicode="&#xaf;" horiz-adv-x="222" 
d="M80 383q-10 0 -10 8q0 5 11 12.5t30 7.5h193q9 0 11.5 -2t2.5 -6q0 -9 -9 -14.5t-41 -5.5h-188z" />
    <glyph glyph-name="macron" unicode="&#x2c9;" horiz-adv-x="222" 
d="M80 383q-10 0 -10 8q0 5 11 12.5t30 7.5h193q9 0 11.5 -2t2.5 -6q0 -9 -9 -14.5t-41 -5.5h-188z" />
    <glyph glyph-name="breve" unicode="&#x2d8;" horiz-adv-x="222" 
d="M191 377q28 0 52.5 10.5t43 23t30.5 23t15 10.5q2 0 4 -1t2 -3l-12.5 -15t-34 -33t-49 -32.5t-57.5 -14.5q-23 0 -40.5 8.5t-29.5 22.5t-18.5 32t-6.5 36q0 6 5 6t5 -5q0 -4 6 -18q10 -21 30 -35.5t55 -14.5z" />
    <glyph glyph-name="dotaccent" unicode="&#x2d9;" horiz-adv-x="222" 
d="M203 442q29 0 29 -25q0 -20 -9 -31.5t-30 -11.5q-12 0 -18.5 5.5t-6.5 22.5t8 28.5t27 11.5z" />
    <glyph glyph-name="dieresis" unicode="&#xa8;" horiz-adv-x="222" 
d="M275 442q29 0 29 -25q0 -20 -9 -31.5t-30 -11.5q-12 0 -18.5 5.5t-6.5 22.5t8 28.5t27 11.5zM131 442q29 0 29 -25q0 -20 -9 -31.5t-30 -11.5q-12 0 -18.5 5.5t-6.5 22.5t8 28.5t27 11.5z" />
    <glyph glyph-name="ring" unicode="&#x2da;" horiz-adv-x="222" 
d="M132 410q0 -27 19.5 -46.5t46.5 -19.5t46.5 19.5t19.5 46.5t-19.5 46.5t-46.5 19.5t-46.5 -19.5t-19.5 -46.5zM110 410q0 37 25.5 62.5t62.5 25.5t62.5 -25.5t25.5 -62.5t-25.5 -62.5t-62.5 -25.5t-62.5 25.5t-25.5 62.5z" />
    <glyph glyph-name="cedilla" unicode="&#xb8;" horiz-adv-x="222" 
d="M20 -52h16q84 0 84 -52q0 -33 -36.5 -53t-100.5 -20q-20 0 -31.5 0.5t-17.5 2t-8 2.5t-2 3q0 6 6 6q4 0 8 -1t15 -1q25 0 47.5 3t39.5 9.5t27.5 17.5t10.5 28q0 35 -46 35h-35l39 82h11z" />
    <glyph glyph-name="hungarumlaut" unicode="&#x2dd;" horiz-adv-x="222" 
d="M335 492q11 0 17 -7.5t6 -14.5q0 -18 -18 -42.5t-41 -46.5t-44.5 -37.5t-29.5 -15.5q-2 1 -4 1q-1 0 -1 3t6 7.5t14 11.5t17.5 16t17.5 20q13 18 18.5 37t9.5 34t10.5 24.5t21.5 9.5zM199 492q11 0 17 -7.5t6 -14.5q0 -18 -18 -42.5t-41 -46.5t-44.5 -37.5t-29.5 -15.5
q-2 1 -4 1q-1 0 -1 3t6 7.5t14 11.5t17.5 16t17.5 20q13 18 18.5 37t9.5 34t10.5 24.5t21.5 9.5z" />
    <glyph glyph-name="ogonek" unicode="&#x2db;" horiz-adv-x="222" 
d="M12 10q-19 -5 -47 -14t-54.5 -23.5t-45 -35.5t-18.5 -50q0 -20 12 -35.5t41 -15.5q22 0 39.5 5.5t30.5 12.5t21 12.5t11 5.5q6 0 6 -7q0 -2 -9 -10t-25.5 -16.5t-40 -15.5t-51.5 -7q-36 0 -54.5 19.5t-18.5 42.5q0 28 21 51.5t52 41.5t66.5 30t63.5 17v-8z" />
    <glyph glyph-name="caron" unicode="&#x2c7;" horiz-adv-x="222" 
d="M175 328q-6 30 -17 58.5t-22.5 51t-19.5 36.5t-8 16t2 2q6 0 18.5 -14t25.5 -32t23.5 -35.5t13.5 -23.5q16 17 37 35.5t39.5 34t33 25.5t17.5 10q4 0 4 -2q0 -3 -14 -17.5t-34.5 -36t-43.5 -49.5t-41 -59h-14z" />
    <glyph glyph-name="emdash" unicode="&#x2014;" horiz-adv-x="1000" 
d="M1012 120h-1000l12 38h1000z" />
    <glyph glyph-name="AE" unicode="&#xc6;" horiz-adv-x="1056" 
d="M734 338q39 23 80 42.5t86 27.5v2q-32 6 -50.5 27.5t-27.5 50.5q-23 -37 -48 -72.5t-42 -75.5zM560 231q0 29 -4.5 58t-15.5 57q-50 -52 -98 -105t-100 -103q20 -15 46.5 -26.5t52.5 -20t49 -13.5t36 -6q20 36 27 77t7 82zM862 486q0 -10 4 -20q50 10 101.5 33t93 51.5
t67.5 59t26 54.5q0 32 -47 32q-41 0 -84.5 -21.5t-79 -53.5t-58.5 -68.5t-23 -66.5zM570 156q110 217 216 349.5t204 174.5l-2 2q-52 -17 -99.5 -40t-98.5 -60t-108.5 -91t-129.5 -131q11 -32 17.5 -64.5t6.5 -66.5q0 -18 -2.5 -36t-5.5 -35zM790 10q42 3 84.5 21.5t76 48.5
t54.5 70t21 85q0 65 -61 65q-27 0 -57.5 -22.5t-56.5 -60t-43.5 -87.5t-17.5 -105v-15zM262 279q0 -37 19 -73.5t49 -57.5q52 51 103.5 103.5t100.5 108.5q-20 37 -52.5 61.5t-75.5 24.5q-35 0 -62 -14t-45 -37.5t-27.5 -53.5t-9.5 -62zM494 0q7 14 13 28t13 28
q-20 4 -44 10.5t-49 15.5t-49.5 20.5t-45.5 25.5q-30 -28 -62 -52.5t-66.5 -42.5t-72 -28.5t-79.5 -10.5q-41 0 -80 13t-69 37.5t-48.5 59.5t-18.5 79q2 56 20 99.5t46.5 74t65.5 46.5t77 17q30 0 56.5 -8t46.5 -25.5t32 -43.5t12 -62q0 -46 -21 -77.5t-47.5 -50.5
t-49.5 -27t-26 -8q-8 0 -8 5t5 7t15 5t25 10t36 23q25 19 40 46t15 65q0 25 -10.5 45.5t-27.5 34.5t-39 21t-45 6q-29 -2 -63 -15.5t-62.5 -39t-47.5 -63t-19 -85.5q0 -40 15.5 -72t42 -54.5t61.5 -34.5t73 -12q78 0 145 37t121 91q-38 29 -62 67.5t-26 90.5q0 36 9 68
t28 56.5t48.5 39t71.5 15.5q27 0 50 -8t43 -22t36 -32.5t28 -38.5q73 80 142 142.5t136.5 105t135.5 64.5t140 22q35 0 50.5 -11.5t15.5 -30.5q0 -31 -27 -65t-69.5 -64.5t-94.5 -55t-101 -35.5q11 -16 21 -24t30 -8q11 0 21 2t21 2q9 0 20 -4t11 -15q0 -8 -6.5 -12.5
t-14.5 -4.5q-17 0 -31.5 8t-31.5 8q-15 0 -41.5 -8.5t-56.5 -24t-61 -37.5t-56 -50.5t-41 -62t-16 -71.5q0 -28 10.5 -52t28.5 -41.5t42 -28.5t51 -12q-1 10 -2.5 20.5t-1.5 18.5q0 43 12 90t36 86.5t61.5 65t88.5 25.5q38 0 56 -27t18 -60q0 -44 -23.5 -85.5t-60 -74.5
t-81 -53.5t-85.5 -21.5q4 -24 8 -40t7 -26t5 -15t2 -7q0 -8 -5 -8t-9 8t-8 21.5t-8 31t-8 35.5q-26 0 -51.5 7t-47.5 19.5t-39 32t-25 45.5q-15 -23 -25 -48t-18 -50h-76z" />
    <glyph glyph-name="ordfeminine" unicode="&#xaa;" horiz-adv-x="233" 
d="M147 331q0 -19 15 -19q14 0 34.5 14.5t39 34.5t32 42.5t13.5 38.5q0 9 -5 15.5t-15 6.5q-20 0 -40 -14.5t-36.5 -35.5t-27 -44t-10.5 -39zM355 469q-7 -8 -22.5 -29t-31 -45t-27.5 -45t-12 -29q0 -9 11 -9q14 0 40 21.5t52 50.5q5 7 6.5 8.5t2.5 1.5q4 0 4 -4
q0 -1 -4.5 -6t-10.5 -11.5t-13 -14t-13 -12.5q-26 -23 -39.5 -32.5t-25.5 -9.5q-10 0 -14 2t-8 7q-8 8 -8 33v11q-6 -7 -15.5 -16t-21 -17.5t-23 -14t-20.5 -5.5q-25 0 -33 18t-8 38q0 9 0.5 14.5t2.5 13.5q-1 0 -1.5 -1t-2.5 -1t-2 3q0 2 11 14q13 15 29.5 27.5t34 21.5
t35 14.5t33.5 5.5q15 0 21.5 -9.5t6.5 -21.5q0 -3 -0.5 -6.5t-1.5 -8.5l3 -1q8 13 12.5 21t7.5 13t6 7t8 2z" />
    <glyph glyph-name="Oslash" unicode="&#xd8;" horiz-adv-x="778" 
d="M683 595q-25 -1 -54 -16q16 -17 27 -33zM739 696q-43 -2 -88 -20.5t-90 -50.5q32 -13 60 -38q38 20 69 20zM481 198q8 -4 24 -4q40 0 71 25t52.5 62.5t32.5 79.5t11 77q0 45 -16 77zM648 531q-5 12 -13 22.5t-17 20.5q-35 -18 -68.5 -49t-60 -70.5t-43 -85.5t-16.5 -92
q0 -26 9 -45.5t28 -28.5zM461 192q-43 25 -43 79t17.5 102t45 88.5t61.5 71t68 49.5q-12 11 -27 20.5t-32 14.5q-51 -38 -98 -91.5t-83 -116.5t-57 -132.5t-21 -140.5q0 -47 16 -81.5t51 -47.5zM373 3q9 -3 23 -3q45 0 93.5 19.5t94 53t86 78t71 95t48 104.5t17.5 105
q0 69 -28 104t-79 37l-34 -64q19 -29 28 -62.5t9 -66.5q0 -37 -14 -76.5t-39 -72.5t-59.5 -54.5t-75.5 -21.5q-21 0 -40 8zM705 608q51 -4 82 -43.5t31 -107.5q0 -48 -16.5 -101t-46.5 -105.5t-70.5 -100t-88 -83.5t-101 -57.5t-107.5 -21.5q-6 0 -11.5 0.5t-10.5 1.5
l-66 -118h-16l67 120q-32 8 -54 27t-36 44.5t-20.5 56t-6.5 60.5q0 62 24.5 125.5t66 122t95 109.5t110.5 89q-39 14 -84 14q-59 0 -108 -24t-85.5 -63t-58.5 -89t-26 -102q-1 -10 -2.5 -13t-3.5 -3q-6 0 -6 7q0 1 1 13t4.5 30.5t11 42t21.5 49.5q17 33 43 62.5t58.5 52
t71 36t80.5 13.5q52 0 95 -17q54 34 106.5 53.5t97.5 19.5l58 106h16l-60 -107q52 -3 81 -33.5t29 -84.5q0 -3 -0.5 -11.5t-2 -17.5t-4 -15.5t-6.5 -6.5q-3 0 -3 7q0 3 2 20t2 26q0 51 -28.5 77t-75.5 28z" />
    <glyph glyph-name="OE" unicode="&#x152;" horiz-adv-x="1000" 
d="M866 494q0 -9 0.5 -16t1.5 -12q33 6 79.5 24t89.5 44.5t73 59t30 67.5q0 17 -13 24t-29 7q-25 0 -64 -18t-76.5 -46.5t-64.5 -64t-27 -69.5zM776 10q43 0 83 19.5t71.5 52t50.5 72.5t19 81q0 25 -14 43t-39 18q-29 0 -59.5 -25t-55 -64.5t-40.5 -87.5t-16 -94v-15z
M372 279q0 -32 14 -54.5t49 -22.5q27 0 55 22.5t50.5 58.5t37 80.5t14.5 89.5q0 29 -10.5 63t-30.5 57q-38 -23 -70.5 -55t-56.5 -70.5t-38 -81t-14 -87.5zM722 453q0 27 -6 52.5t-18.5 45.5t-32 32.5t-45.5 12.5q-14 0 -29 -5t-23 -10q29 -37 43.5 -80t14.5 -88
q0 -32 -14 -72.5t-39.5 -77.5t-60 -62t-74.5 -25q-41 0 -61.5 31.5t-20.5 73.5q0 47 16 91.5t42 84t60 71.5t69 53q-11 13 -23.5 22.5t-26.5 15.5q-50 -38 -97 -93t-83 -118t-57.5 -130t-21.5 -130q0 -27 5 -52t17 -44t32.5 -30.5t52.5 -11.5q43 0 88 22t87.5 57.5t80 82
t65.5 96t44 97.5t16 88zM614 160l-2 2q-31 -29 -61.5 -59t-64.5 -54t-73.5 -39.5t-88.5 -15.5q-37 -2 -65 15.5t-46.5 44.5t-28 59t-8.5 61q0 66 26.5 132t68 126t93.5 111t103 86q-32 9 -65 9q-53 0 -96.5 -20.5t-76.5 -54t-55 -76t-31 -85.5q-5 -25 -6.5 -37.5t-6.5 -12.5
q-2 0 -4.5 1.5t-2.5 3.5q0 54 22.5 107.5t61 95.5t90 68t109.5 26q20 0 39.5 -4t37.5 -10q38 26 86.5 47t95.5 21q26 0 47 -9.5t36 -25.5t23.5 -38t8.5 -47q0 -15 -3.5 -28.5t-7.5 -13.5q-5 0 -5 7q0 4 2 12.5t2 22.5q0 47 -28 75.5t-76 28.5q-42 0 -82 -18.5t-75 -43.5
q30 -18 52 -40q16 8 32.5 13t34.5 5q27 0 48 -12.5t35 -34t21.5 -51.5t7.5 -64q0 -28 -9 -62t-21 -60l2 -2q42 31 87.5 53.5t96.5 28.5v2q-17 8 -32 17t-28 23q-8 -2 -21 -3t-21 -1q-17 0 -17 5q0 7 10 7q11 0 23.5 1t17.5 3q-8 13 -8 26q0 44 29 84t71 70t89.5 48t85.5 18
q23 0 41 -11.5t18 -37.5q0 -25 -15.5 -49t-40 -45.5t-55.5 -40t-62.5 -32t-60 -22.5t-48.5 -12q5 -20 18.5 -32t34.5 -12q7 0 15 2t16 2q6 0 13 -3.5t7 -8.5q0 -12 -24 -12q-6 0 -17.5 2t-20.5 2q-48 0 -91 -25t-74.5 -63.5t-50 -85.5t-18.5 -92q0 -43 18 -74t64 -42
q-1 11 -2.5 20.5t-1.5 20.5q-1 45 13.5 91t40 83.5t60.5 61t76 23.5q17 0 30 -7.5t22 -19.5t13.5 -27t4.5 -30q0 -43 -21 -85t-55 -75.5t-76.5 -54t-85.5 -19.5q2 -31 8 -55t6 -29q0 -6 -5 -6q-6 0 -11.5 24t-13.5 66q-32 0 -59.5 11t-47 31t-30.5 47t-11 57v20z" />
    <glyph glyph-name="ordmasculine" unicode="&#xba;" horiz-adv-x="200" 
d="M278 438q0 11 -5 18.5t-18 7.5q-17 0 -35.5 -13t-34.5 -32.5t-26 -42.5t-10 -42q0 -12 5 -17t12 -5q19 0 39 12t36.5 30.5t26.5 40.5t10 43zM292 430q0 -18 -11.5 -39.5t-26.5 -35.5q1 0 2.5 -0.5t4.5 -0.5q17 0 34.5 10t31.5 26q4 4 6 4q3 0 3 -3q0 -2 -16 -18
q-11 -10 -27 -18.5t-36 -8.5q-6 0 -10 2q-15 -16 -35.5 -30t-47.5 -14q-20 0 -30.5 15t-10.5 39q0 17 2 23t2 9t-2 3q-3 0 -6.5 -4.5t-5.5 -4.5q-4 0 -4 3q0 2 12 13.5t26 23.5q28 25 56 36.5t50 11.5q19 0 29 -12t10 -30z" />
    <glyph glyph-name="ae" unicode="&#xe6;" horiz-adv-x="500" 
d="M461 247q0 19 -20 19t-43 -12.5t-46 -33.5t-45.5 -49.5t-41.5 -60.5q34 3 68.5 14.5t63 30t46.5 42t18 50.5zM56 44q0 -14 5.5 -23t17.5 -9q22 0 54.5 23t63 56t52 70t21.5 64q0 15 -9.5 28t-29.5 13q-30 0 -61.5 -24.5t-56.5 -59.5t-41 -73t-16 -65zM358 274
q-5 -8 -12 -19t-17 -23l2 -2q23 20 51.5 34t58.5 14q23 0 36.5 -13.5t13.5 -34.5q0 -28 -24.5 -50.5t-59.5 -39t-75 -27.5t-71 -15q-6 -8 -11 -26.5t-5 -30.5q0 -14 9 -21.5t32 -7.5q16 0 38 5t47.5 16t52 28.5t51.5 42.5q15 15 23 23.5t11.5 13.5t5 6.5t3.5 1.5q5 0 5 -4
t-13 -19.5t-33 -33.5q-41 -37 -90.5 -64.5t-106.5 -27.5q-41 0 -58 13.5t-17 36.5q0 9 2.5 21.5t3.5 14.5l-2 2q-3 -4 -7.5 -8.5l-9.5 -9.5q-11 -11 -25 -23.5t-28.5 -23t-30 -17t-29.5 -6.5q-19 0 -31.5 8t-19.5 20.5t-9.5 29t-2.5 33.5q0 15 1.5 25t3.5 22q-2 0 -3 -1.5
t-3 -1.5q-4 0 -4 5q0 3 4 7.5t14 16.5q20 24 45 45t52 36t54 24t51 9t35.5 -12t15.5 -26h2q7 18 11.5 23.5t15.5 6.5z" />
    <glyph glyph-name="dotlessi" unicode="&#x131;" horiz-adv-x="222" 
d="M190 278q-45 -74 -72.5 -118.5t-42 -70t-19.5 -37t-5 -19.5q0 -13 6 -17t13 -4q12 0 26 7t29 17.5t29.5 23.5t26.5 26q10 10 20.5 21.5t19 21.5t14.5 16.5t7 6.5q6 0 6 -5q0 -2 -14.5 -19.5t-46.5 -50.5q-74 -77 -118 -77q-23 0 -35.5 14.5t-12.5 37.5q0 25 10 50
t24.5 49t31 46t29.5 41l-2 2q-9 -9 -29 -30t-56 -62q-8 -9 -10 -11t-4 -2q-4 0 -4 6q0 2 5 7.5t25 28.5q10 11 22.5 24.5t24.5 27t22.5 25.5t16.5 20z" />
    <glyph glyph-name="oslash" unicode="&#xf8;" horiz-adv-x="333" 
d="M230 266q-26 -1 -54.5 -23t-52 -55t-39 -70.5t-15.5 -68.5q0 -19 6.5 -27t15.5 -9zM105 14q29 3 58 23.5t52 50.5t37.5 65t14.5 68q0 15 -5.5 27t-18.5 16zM297 362l-49 -89q20 -6 30.5 -23t10.5 -41q0 -15 -5 -32.5t-13.5 -34t-19 -32t-21.5 -26.5q4 -2 11 -2
q26 0 50 13.5t43 35.5q10 11 12.5 14t4.5 3q5 0 5 -5q0 -2 -4 -7t-21 -23q-19 -20 -44.5 -31.5t-54.5 -11.5q-10 0 -13 1q-22 -25 -51.5 -46.5t-69.5 -23.5l-62 -113h-14l62 113q-26 2 -40.5 26t-14.5 62q0 27 2.5 37t2.5 15q0 6 -3 6q-6 0 -11 -8t-7 -8q-6 0 -6 5
q0 2 5.5 9t14.5 16l19 19l19 19q44 42 87 60.5t77 18.5q6 0 7 -1l47 85h14z" />
    <glyph glyph-name="oe" unicode="&#x153;" horiz-adv-x="500" 
d="M463 247q0 19 -20 19t-42.5 -15.5t-43.5 -39t-37 -50.5t-23 -51q22 3 51 14.5t54.5 30t43 42t17.5 50.5zM69 49q0 -21 7.5 -29t18.5 -8q30 0 59.5 21.5t53 52t38.5 64.5t15 60t-8 41t-27 15q-24 0 -51.5 -22t-51 -55t-39 -71t-15.5 -69zM493 230q0 -28 -24 -50.5
t-56.5 -39t-66 -27.5t-53.5 -15q-3 -8 -5.5 -16.5t-2.5 -17.5q0 -29 8.5 -40t31.5 -12q20 -1 56 15.5t77 58.5q21 21 32.5 33t17 19t7 9t3.5 2q5 0 5 -6q0 -2 -7 -10.5t-17.5 -20t-21.5 -23.5t-20 -20q-35 -33 -69.5 -50.5t-69.5 -18.5q-21 0 -34 8.5t-21 21t-11 27.5t-3 27
q0 24 6 41l-2 2q-12 -24 -30 -46.5t-39 -40.5t-45 -29t-48 -11q-30 0 -46 24t-16 65q0 27 2.5 37t2.5 15q0 6 -3 6q-5 0 -10.5 -8t-7.5 -8q-6 0 -6 5q0 2 5.5 8.5t14 15.5t18.5 19.5t20 19.5q44 42 86.5 60.5t71.5 18.5t44.5 -19.5t15.5 -49.5q0 -8 -1.5 -17.5t-5.5 -17.5
l2 -2q13 23 32.5 42.5t41.5 33.5t45.5 22t45.5 8q23 0 36.5 -13.5t13.5 -34.5z" />
    <glyph glyph-name="germandbls" unicode="&#xdf;" 
d="M-163 -277l312 551l-2 2q-13 -10 -26.5 -24t-26.5 -28.5t-24.5 -28.5t-19.5 -23q-23 -26 -28.5 -32t-6.5 -6q-5 0 -5 6q0 1 7 9.5t17 20t21 24t19 22.5q22 25 36.5 38.5t24 22t15.5 14t11 14.5q41 75 79 135.5t73 102.5t67.5 64.5t61.5 22.5q22 0 34.5 -13t12.5 -34
q0 -32 -19.5 -72.5t-71.5 -101.5q-21 -24 -39.5 -39t-32.5 -25.5t-22 -19t-8 -19.5q0 -15 4.5 -26t10.5 -23q13 -29 20 -63t7 -59q0 -37 -13 -68l2 -2q9 8 26.5 25.5t26.5 28.5q9 10 13.5 16t7 9t3.5 3.5t3 0.5q5 0 5 -6q0 -2 -5.5 -8t-9.5 -11q-61 -72 -104 -100.5
t-77 -28.5q-65 0 -65 56q0 11 7.5 20t19.5 9q7 0 13 -6t6 -19q0 -11 -5.5 -18.5t-5.5 -11.5q0 -8 6.5 -11t12.5 -3q7 0 23 12t32.5 33.5t29 51t12.5 64.5q0 20 -3.5 40t-8.5 36q-8 27 -12 40t-4 25q0 14 13.5 25t24.5 19q24 16 51 45t50 61t38.5 63.5t15.5 52.5q0 36 -33 36
q-38 0 -87 -64t-110 -181l-334 -643z" />
    <glyph glyph-name="divide" unicode="&#xf7;" horiz-adv-x="400" 
d="M182 255q0 13 9 22t22 9t22 -9t9 -22t-9 -22t-22 -9t-22 9t-9 22zM182 23q0 13 9 22t22 9t22 -9t9 -22t-9 -22t-22 -9t-22 9t-9 22zM74 124v30h278v-30h-278z" />
    <glyph glyph-name="registered" unicode="&#xae;" horiz-adv-x="800" 
d="M434 346h58q38 0 60.5 25t22.5 71q0 22 -7.5 37t-20 24.5t-28 14t-31.5 4.5h-54v-176zM333 538h173q22 0 44 -5.5t39 -16.5t27.5 -28t10.5 -41q0 -42 -24.5 -70t-59.5 -39l59 -81q23 -29 46 -54t38 -33v-8h-49q-11 0 -22.5 11t-27.5 32t-37.5 52.5t-51.5 72.5h-64v-100
q0 -19 0.5 -28.5t5 -14t15.5 -6t31 -3.5v-16h-153v16q20 2 30.5 3.5t15 6t5 14t0.5 28.5v241q0 19 -0.5 29t-5 15t-15 6.5t-30.5 3.5v13zM496 24q62 0 118 26t98 70.5t67 102.5t25 122q0 65 -24.5 123.5t-66.5 103t-98 70.5t-119 26q-62 0 -118 -26.5t-98 -70.5t-67 -103
t-25 -123t25 -122t67 -102.5t98 -70.5t118 -26zM152 345q0 73 27 137t73.5 112t109.5 76t134 28q72 0 134.5 -27.5t109 -75.5t73.5 -112.5t27 -137.5q0 -72 -27 -136t-73.5 -111.5t-109 -75.5t-134.5 -28q-71 0 -134 28t-109.5 75.5t-73.5 111.5t-27 136z" />
    <glyph glyph-name="ccedilla" unicode="&#xe7;" horiz-adv-x="278" 
d="M64 -52h16q84 0 84 -52q0 -33 -36.5 -53t-100.5 -20q-20 0 -31.5 0.5t-17.5 2t-8 2.5t-2 3q0 6 6 6q4 0 8 -1t15 -1q25 0 47.5 3t39.5 9.5t27.5 17.5t10.5 28q0 35 -46 35h-35l36 76q-16 5 -26.5 16.5t-17 26t-9 31.5t-2.5 32q0 12 1.5 18.5t1.5 8.5t-2 2t-3.5 -2
t-3.5 -2q-5 0 -5 5q0 1 1 2.5l4 6t10 12.5t19 22q43 51 85.5 73t84.5 22q29 0 47 -12.5t18 -36.5q0 -14 -10 -28.5t-27 -14.5q-14 0 -19.5 7.5t-5.5 17.5t4.5 14t10.5 6.5t10.5 6t4.5 11.5q0 6 -5.5 11.5t-17.5 5.5q-23 0 -50.5 -17.5t-51.5 -47t-40.5 -68.5t-16.5 -82
q0 -39 42 -39q26 0 60.5 18.5t67.5 53.5q20 21 31.5 34t17 19.5t7.5 9t3 2.5q6 0 6 -6q0 -2 -11.5 -15.5t-27.5 -30.5q-48 -52 -85.5 -74.5t-75.5 -22.5h-7q-3 0 -6 2z" />
    <glyph glyph-name="plusminus" unicode="&#xb1;" horiz-adv-x="400" 
d="M74 30h278v-30h-278v30zM198 278h30v-100h124v-30h-124v-100h-30v100h-124v30h124v100z" />
    <glyph glyph-name="Ccedilla" unicode="&#xc7;" horiz-adv-x="667" 
d="M634 223q0 31 -15 50t-47 19t-64 -24.5t-58 -62.5t-42.5 -85t-16.5 -92v-22q37 1 80 20t79 49t60 68.5t24 79.5zM798 686q-32 0 -66 -8.5t-66 -22t-60.5 -29t-48.5 -29.5q13 -17 23.5 -34t18.5 -31.5t12.5 -24t4.5 -10.5q0 -6 -6 -6q-2 0 -5 6.5t-9.5 19t-17.5 31.5
t-30 44q-66 -42 -117.5 -99t-90.5 -125q68 0 132.5 13t121.5 34.5t104.5 49t81.5 57.5t53 59.5t19 54.5q0 20 -12 35t-42 15zM299 716q-47 0 -86.5 -14.5t-68 -39t-44.5 -56.5t-16 -66q0 -38 18.5 -68.5t47 -52t62.5 -33.5t66 -14q22 37 54.5 72t68 65t71.5 55t65 42
q-44 54 -107 82t-131 28zM279 -52h16q84 0 84 -52q0 -33 -36.5 -53t-100.5 -20q-20 0 -31.5 0.5t-17.5 2t-8 2.5t-2 3q0 6 6 6q4 0 8 -1t15 -1q25 0 47.5 3t39.5 9.5t27.5 17.5t10.5 28q0 35 -46 35h-35l42 83q-45 19 -67.5 60t-22.5 98q0 19 4.5 41t11.5 44.5t16 43.5
t18 38q-38 3 -72.5 18.5t-60.5 40t-41.5 57t-15.5 70.5q0 45 18 83t50 65t76 42.5t97 15.5q27 0 59 -7t63.5 -21t61.5 -36t54 -52q25 14 55 29.5t61.5 28t64 20.5t62.5 8q32 0 53 -15t21 -49q0 -30 -23 -63t-62.5 -65.5t-92 -62.5t-112.5 -53.5t-123.5 -38.5t-124.5 -17
q-23 -49 -38.5 -101.5t-15.5 -107.5q0 -61 21.5 -89t84.5 -30q-1 8 -2 15.5t-1 15.5q0 58 15 108t41 86t61 56.5t76 20.5q38 0 58 -25t20 -61q0 -43 -24 -82.5t-61.5 -70.5t-82.5 -51t-86 -23q4 -42 11 -65.5t7 -27.5q0 -6 -5 -6q-2 0 -6 11t-8 27t-7 32.5t-4 27.5
q-43 0 -75 13z" />
    <glyph glyph-name="copyright" unicode="&#xa9;" horiz-adv-x="800" 
d="M667 257l-16 -69q0 -9 -7 -12.5t-19 -7.5q-16 -5 -43.5 -10.5t-64.5 -5.5q-42 0 -81 10.5t-68.5 34.5t-47.5 62.5t-18 94.5q0 32 13.5 67t41.5 64t69 48t97 19q40 0 63 -6.5t43 -13.5q23 -7 23 -21v-71h-16q-1 19 -7 36.5t-19.5 30.5t-36 21t-55.5 8q-40 0 -70 -13.5
t-50 -37t-30 -56t-10 -71.5q-1 -85 40.5 -137.5t128.5 -52.5q28 0 48.5 7t35.5 19.5t25 28.5t17 34h14zM496 24q62 0 118 26t98 70.5t67 102.5t25 122q0 65 -24.5 123.5t-66.5 103t-98 70.5t-119 26q-62 0 -118 -26.5t-98 -70.5t-67 -103t-25 -123t25 -122t67 -102.5
t98 -70.5t118 -26zM152 345q0 73 27 137t73.5 112t109.5 76t134 28q72 0 134.5 -27.5t109 -75.5t73.5 -112.5t27 -137.5q0 -72 -27 -136t-73.5 -111.5t-109 -75.5t-134.5 -28q-71 0 -134 28t-109.5 75.5t-73.5 111.5t-27 136z" />
    <glyph glyph-name="logicalnot" unicode="&#xac;" horiz-adv-x="400" 
d="M322 178h-248v30h278v-138h-30v108z" />
    <glyph glyph-name="trademark" unicode="&#x2122;" horiz-adv-x="990" 
d="M399 373q0 -20 0.5 -30.5t5 -15.5t14.5 -6.5t29 -4.5v-16h-142v16q19 3 29 4.5t14.5 6.5t5 15.5t0.5 30.5v303h-62q-30 0 -44.5 -21t-22.5 -49h-12v86h326v-86h-12q-8 28 -22 49t-45 21h-62v-303zM676 602h-2v-224q0 -30 9.5 -44t41.5 -18v-16h-122v16q32 4 40.5 18
t8.5 44v251q-6 21 -24.5 34t-39.5 13v16h94l164 -328l163 328h83v-16q-31 -2 -44 -16.5t-13 -40.5v-246q0 -20 0.5 -30.5t5 -15.5t14.5 -6.5t29 -4.5v-16h-141v16q19 3 29 4.5t14 6.5t4.5 15.5t0.5 30.5v232h-2l-154 -309h-9z" />
    <glyph glyph-name="degree" unicode="&#xb0;" horiz-adv-x="300" 
d="M182 394q0 -25 17 -43.5t42 -18.5t42 18.5t17 43.5t-17 43.5t-42 18.5t-42 -18.5t-17 -43.5zM162 394q0 33 23 55.5t56 22.5t56 -22.5t23 -55.5t-23 -55.5t-56 -22.5t-56 22.5t-23 55.5z" />
    <glyph glyph-name="mu" unicode="&#xb5;" 
d="M199 278q-46 -74 -74.5 -116.5t-44 -67t-21 -37.5t-5.5 -28q0 -9 5.5 -13t11.5 -4q19 0 51.5 26t68.5 65t70.5 85t57.5 86l64 4q-7 -12 -20.5 -32t-30.5 -44t-34.5 -50t-32 -49.5t-24 -43t-9.5 -30.5q0 -17 17 -17q11 0 35 16t59 53q22 23 34.5 36.5t18.5 20t7.5 8.5
t3.5 2q5 0 5 -5q0 -1 -6 -8.5t-15 -17.5t-19.5 -21t-18.5 -20q-38 -39 -63.5 -57.5t-45.5 -18.5q-13 0 -21.5 6.5t-13 16.5t-6 21t-1.5 20q0 19 7 38l-2 2q-11 -12 -27 -29.5t-35 -34t-38.5 -28.5t-36.5 -12q-11 0 -21 4t-15 12l-161 -272l-65 -6l319 504l-2 2
q-22 -17 -45.5 -42t-46.5 -49q-10 -11 -12 -14t-5 -3q-4 0 -4 6q0 1 1.5 3.5t6.5 8.5t15.5 16.5t27.5 28.5q15 16 34.5 35t45.5 40z" />
    <glyph glyph-name="mu" unicode="&#x3bc;" 
d="M199 278q-46 -74 -74.5 -116.5t-44 -67t-21 -37.5t-5.5 -28q0 -9 5.5 -13t11.5 -4q19 0 51.5 26t68.5 65t70.5 85t57.5 86l64 4q-7 -12 -20.5 -32t-30.5 -44t-34.5 -50t-32 -49.5t-24 -43t-9.5 -30.5q0 -17 17 -17q11 0 35 16t59 53q22 23 34.5 36.5t18.5 20t7.5 8.5
t3.5 2q5 0 5 -5q0 -1 -6 -8.5t-15 -17.5t-19.5 -21t-18.5 -20q-38 -39 -63.5 -57.5t-45.5 -18.5q-13 0 -21.5 6.5t-13 16.5t-6 21t-1.5 20q0 19 7 38l-2 2q-11 -12 -27 -29.5t-35 -34t-38.5 -28.5t-36.5 -12q-11 0 -21 4t-15 12l-161 -272l-65 -6l319 504l-2 2
q-22 -17 -45.5 -42t-46.5 -49q-10 -11 -12 -14t-5 -3q-4 0 -4 6q0 1 1.5 3.5t6.5 8.5t15.5 16.5t27.5 28.5q15 16 34.5 35t45.5 40z" />
    <glyph glyph-name="numbersign" unicode="#" 
d="M211 288l-38 -108h94l37 108h-93zM370 154h-84l-52 -154h-31l54 154h-94l-53 -154h-32l54 154h-72v26h82l37 108h-72v26h82l53 152h31l-53 -152h95l51 152h31l-52 -152h74v-26h-84l-39 -108h74v-26z" />
    <glyph glyph-name="Aacute" unicode="&#xc1;" horiz-adv-x="1056" 
d="M1344 911q11 0 17 -7.5t6 -14.5q0 -18 -18 -42.5t-41 -46.5t-44.5 -37.5t-29.5 -15.5q-2 1 -4 1q-1 0 -1 3t6 7.5t14 11.5t17.5 16t17.5 20q13 18 18.5 37t9.5 34t10.5 24.5t21.5 9.5zM868 233q0 30 -5.5 63.5t-14.5 55.5q-53 -52 -102 -106t-106 -102q42 -32 95 -48
t101 -22q14 38 23 77.5t9 81.5zM874 146q63 146 152 277.5t204 242.5l-2 2q-17 -2 -55.5 -27.5t-89.5 -67t-109.5 -96t-115.5 -115.5q13 -30 17.5 -61t4.5 -61q0 -46 -8 -92zM532 342q0 -68 28.5 -113.5t67.5 -76.5q58 49 109.5 103.5t105.5 109.5q-14 25 -30.5 47.5
t-37 39.5t-45.5 27t-56 10q-26 0 -51.5 -8.5t-45.5 -26.5t-32.5 -46t-12.5 -66zM876 0h-72l28 62q-54 8 -106.5 24.5t-95.5 48.5q-34 -30 -73.5 -55.5t-84.5 -44.5t-96 -30t-106 -11q-52 0 -98.5 14.5t-81.5 41.5t-55.5 64t-20.5 82q0 55 25 97.5t63 72t82.5 45t83.5 15.5
q46 0 81 -12.5t59 -33.5t36 -48t12 -57q0 -39 -18.5 -70t-47.5 -52.5t-65 -33t-71 -11.5q-31 0 -38.5 2t-7.5 7q0 6 6 6q4 0 10.5 -1.5t19.5 -1.5q39 0 74.5 10.5t62.5 30.5t43 48.5t16 63.5q0 51 -38.5 83t-114.5 32q-43 0 -87 -15.5t-79.5 -43t-58 -66.5t-22.5 -85
q0 -37 19.5 -68.5t51.5 -54.5t73 -36t83 -13q101 0 185.5 33.5t166.5 103.5q-53 42 -89 95t-36 122q0 40 13.5 69.5t35.5 49.5t48.5 30t53.5 10q34 0 65.5 -11.5t58.5 -31t48.5 -45.5t35.5 -55q78 85 146 146t121.5 100t90.5 57.5t54 18.5q5 0 5 -7q0 -2 -12 -15.5
t-33.5 -40.5t-51.5 -69.5t-66 -101.5q-31 -50 -57.5 -99t-51 -98t-48 -98.5t-48.5 -98.5q21 0 42.5 5t45.5 14q21 8 35 17.5t23.5 17.5t14.5 13.5t7 5.5q5 0 5 -5q0 -3 -11.5 -15t-33.5 -25.5t-55.5 -25.5t-76.5 -14z" />
    <glyph glyph-name="Acircumflex" unicode="&#xc2;" horiz-adv-x="1056" 
d="M1300 911q6 -30 17 -58.5t22.5 -51t19.5 -37t8 -15.5q0 -2 -2 -2q-6 0 -18.5 14t-25.5 32t-23.5 35.5t-13.5 23.5q-17 -17 -37.5 -35.5t-39 -34t-33 -25.5t-17.5 -10q-4 0 -4 2q0 3 14 17t34.5 36t43.5 50t41 59h14zM868 233q0 30 -5.5 63.5t-14.5 55.5
q-53 -52 -102 -106t-106 -102q42 -32 95 -48t101 -22q14 38 23 77.5t9 81.5zM874 146q63 146 152 277.5t204 242.5l-2 2q-17 -2 -55.5 -27.5t-89.5 -67t-109.5 -96t-115.5 -115.5q13 -30 17.5 -61t4.5 -61q0 -46 -8 -92zM532 342q0 -68 28.5 -113.5t67.5 -76.5
q58 49 109.5 103.5t105.5 109.5q-14 25 -30.5 47.5t-37 39.5t-45.5 27t-56 10q-26 0 -51.5 -8.5t-45.5 -26.5t-32.5 -46t-12.5 -66zM876 0h-72l28 62q-54 8 -106.5 24.5t-95.5 48.5q-34 -30 -73.5 -55.5t-84.5 -44.5t-96 -30t-106 -11q-52 0 -98.5 14.5t-81.5 41.5t-55.5 64
t-20.5 82q0 55 25 97.5t63 72t82.5 45t83.5 15.5q46 0 81 -12.5t59 -33.5t36 -48t12 -57q0 -39 -18.5 -70t-47.5 -52.5t-65 -33t-71 -11.5q-31 0 -38.5 2t-7.5 7q0 6 6 6q4 0 10.5 -1.5t19.5 -1.5q39 0 74.5 10.5t62.5 30.5t43 48.5t16 63.5q0 51 -38.5 83t-114.5 32
q-43 0 -87 -15.5t-79.5 -43t-58 -66.5t-22.5 -85q0 -37 19.5 -68.5t51.5 -54.5t73 -36t83 -13q101 0 185.5 33.5t166.5 103.5q-53 42 -89 95t-36 122q0 40 13.5 69.5t35.5 49.5t48.5 30t53.5 10q34 0 65.5 -11.5t58.5 -31t48.5 -45.5t35.5 -55q78 85 146 146t121.5 100
t90.5 57.5t54 18.5q5 0 5 -7q0 -2 -12 -15.5t-33.5 -40.5t-51.5 -69.5t-66 -101.5q-31 -50 -57.5 -99t-51 -98t-48 -98.5t-48.5 -98.5q21 0 42.5 5t45.5 14q21 8 35 17.5t23.5 17.5t14.5 13.5t7 5.5q5 0 5 -5q0 -3 -11.5 -15t-33.5 -25.5t-55.5 -25.5t-76.5 -14z" />
    <glyph glyph-name="Adieresis" unicode="&#xc4;" horiz-adv-x="1056" 
d="M1352 861q29 0 29 -25q0 -20 -9 -31.5t-30 -11.5q-12 0 -18.5 5.5t-6.5 22.5t8 28.5t27 11.5zM1208 861q29 0 29 -25q0 -20 -9 -31.5t-30 -11.5q-12 0 -18.5 5.5t-6.5 22.5t8 28.5t27 11.5zM868 233q0 30 -5.5 63.5t-14.5 55.5q-53 -52 -102 -106t-106 -102
q42 -32 95 -48t101 -22q14 38 23 77.5t9 81.5zM874 146q63 146 152 277.5t204 242.5l-2 2q-17 -2 -55.5 -27.5t-89.5 -67t-109.5 -96t-115.5 -115.5q13 -30 17.5 -61t4.5 -61q0 -46 -8 -92zM532 342q0 -68 28.5 -113.5t67.5 -76.5q58 49 109.5 103.5t105.5 109.5
q-14 25 -30.5 47.5t-37 39.5t-45.5 27t-56 10q-26 0 -51.5 -8.5t-45.5 -26.5t-32.5 -46t-12.5 -66zM876 0h-72l28 62q-54 8 -106.5 24.5t-95.5 48.5q-34 -30 -73.5 -55.5t-84.5 -44.5t-96 -30t-106 -11q-52 0 -98.5 14.5t-81.5 41.5t-55.5 64t-20.5 82q0 55 25 97.5t63 72
t82.5 45t83.5 15.5q46 0 81 -12.5t59 -33.5t36 -48t12 -57q0 -39 -18.5 -70t-47.5 -52.5t-65 -33t-71 -11.5q-31 0 -38.5 2t-7.5 7q0 6 6 6q4 0 10.5 -1.5t19.5 -1.5q39 0 74.5 10.5t62.5 30.5t43 48.5t16 63.5q0 51 -38.5 83t-114.5 32q-43 0 -87 -15.5t-79.5 -43
t-58 -66.5t-22.5 -85q0 -37 19.5 -68.5t51.5 -54.5t73 -36t83 -13q101 0 185.5 33.5t166.5 103.5q-53 42 -89 95t-36 122q0 40 13.5 69.5t35.5 49.5t48.5 30t53.5 10q34 0 65.5 -11.5t58.5 -31t48.5 -45.5t35.5 -55q78 85 146 146t121.5 100t90.5 57.5t54 18.5q5 0 5 -7
q0 -2 -12 -15.5t-33.5 -40.5t-51.5 -69.5t-66 -101.5q-31 -50 -57.5 -99t-51 -98t-48 -98.5t-48.5 -98.5q21 0 42.5 5t45.5 14q21 8 35 17.5t23.5 17.5t14.5 13.5t7 5.5q5 0 5 -5q0 -3 -11.5 -15t-33.5 -25.5t-55.5 -25.5t-76.5 -14z" />
    <glyph glyph-name="Agrave" unicode="&#xc0;" horiz-adv-x="1056" 
d="M1178 911q15 0 21.5 -9.5t10.5 -24.5t9.5 -34t18.5 -37q7 -11 17 -20t18 -16t14 -11.5t6 -7.5q0 -4 -5 -4q-8 0 -29.5 15.5t-44.5 37.5t-41 46.5t-18 42.5q0 7 6 14.5t17 7.5zM868 233q0 30 -5.5 63.5t-14.5 55.5q-53 -52 -102 -106t-106 -102q42 -32 95 -48t101 -22
q14 38 23 77.5t9 81.5zM874 146q63 146 152 277.5t204 242.5l-2 2q-17 -2 -55.5 -27.5t-89.5 -67t-109.5 -96t-115.5 -115.5q13 -30 17.5 -61t4.5 -61q0 -46 -8 -92zM532 342q0 -68 28.5 -113.5t67.5 -76.5q58 49 109.5 103.5t105.5 109.5q-14 25 -30.5 47.5t-37 39.5
t-45.5 27t-56 10q-26 0 -51.5 -8.5t-45.5 -26.5t-32.5 -46t-12.5 -66zM876 0h-72l28 62q-54 8 -106.5 24.5t-95.5 48.5q-34 -30 -73.5 -55.5t-84.5 -44.5t-96 -30t-106 -11q-52 0 -98.5 14.5t-81.5 41.5t-55.5 64t-20.5 82q0 55 25 97.5t63 72t82.5 45t83.5 15.5
q46 0 81 -12.5t59 -33.5t36 -48t12 -57q0 -39 -18.5 -70t-47.5 -52.5t-65 -33t-71 -11.5q-31 0 -38.5 2t-7.5 7q0 6 6 6q4 0 10.5 -1.5t19.5 -1.5q39 0 74.5 10.5t62.5 30.5t43 48.5t16 63.5q0 51 -38.5 83t-114.5 32q-43 0 -87 -15.5t-79.5 -43t-58 -66.5t-22.5 -85
q0 -37 19.5 -68.5t51.5 -54.5t73 -36t83 -13q101 0 185.5 33.5t166.5 103.5q-53 42 -89 95t-36 122q0 40 13.5 69.5t35.5 49.5t48.5 30t53.5 10q34 0 65.5 -11.5t58.5 -31t48.5 -45.5t35.5 -55q78 85 146 146t121.5 100t90.5 57.5t54 18.5q5 0 5 -7q0 -2 -12 -15.5
t-33.5 -40.5t-51.5 -69.5t-66 -101.5q-31 -50 -57.5 -99t-51 -98t-48 -98.5t-48.5 -98.5q21 0 42.5 5t45.5 14q21 8 35 17.5t23.5 17.5t14.5 13.5t7 5.5q5 0 5 -5q0 -3 -11.5 -15t-33.5 -25.5t-55.5 -25.5t-76.5 -14z" />
    <glyph glyph-name="Aring" unicode="&#xc5;" horiz-adv-x="1056" 
d="M1209 829q0 -27 19.5 -46.5t46.5 -19.5t46.5 19.5t19.5 46.5t-19.5 46.5t-46.5 19.5t-46.5 -19.5t-19.5 -46.5zM1187 829q0 37 25.5 62.5t62.5 25.5t62.5 -25.5t25.5 -62.5t-25.5 -62.5t-62.5 -25.5t-62.5 25.5t-25.5 62.5zM868 233q0 30 -5.5 63.5t-14.5 55.5
q-53 -52 -102 -106t-106 -102q42 -32 95 -48t101 -22q14 38 23 77.5t9 81.5zM874 146q63 146 152 277.5t204 242.5l-2 2q-17 -2 -55.5 -27.5t-89.5 -67t-109.5 -96t-115.5 -115.5q13 -30 17.5 -61t4.5 -61q0 -46 -8 -92zM532 342q0 -68 28.5 -113.5t67.5 -76.5
q58 49 109.5 103.5t105.5 109.5q-14 25 -30.5 47.5t-37 39.5t-45.5 27t-56 10q-26 0 -51.5 -8.5t-45.5 -26.5t-32.5 -46t-12.5 -66zM876 0h-72l28 62q-54 8 -106.5 24.5t-95.5 48.5q-34 -30 -73.5 -55.5t-84.5 -44.5t-96 -30t-106 -11q-52 0 -98.5 14.5t-81.5 41.5t-55.5 64
t-20.5 82q0 55 25 97.5t63 72t82.5 45t83.5 15.5q46 0 81 -12.5t59 -33.5t36 -48t12 -57q0 -39 -18.5 -70t-47.5 -52.5t-65 -33t-71 -11.5q-31 0 -38.5 2t-7.5 7q0 6 6 6q4 0 10.5 -1.5t19.5 -1.5q39 0 74.5 10.5t62.5 30.5t43 48.5t16 63.5q0 51 -38.5 83t-114.5 32
q-43 0 -87 -15.5t-79.5 -43t-58 -66.5t-22.5 -85q0 -37 19.5 -68.5t51.5 -54.5t73 -36t83 -13q101 0 185.5 33.5t166.5 103.5q-53 42 -89 95t-36 122q0 40 13.5 69.5t35.5 49.5t48.5 30t53.5 10q34 0 65.5 -11.5t58.5 -31t48.5 -45.5t35.5 -55q78 85 146 146t121.5 100
t90.5 57.5t54 18.5q5 0 5 -7q0 -2 -12 -15.5t-33.5 -40.5t-51.5 -69.5t-66 -101.5q-31 -50 -57.5 -99t-51 -98t-48 -98.5t-48.5 -98.5q21 0 42.5 5t45.5 14q21 8 35 17.5t23.5 17.5t14.5 13.5t7 5.5q5 0 5 -5q0 -3 -11.5 -15t-33.5 -25.5t-55.5 -25.5t-76.5 -14z" />
    <glyph glyph-name="Atilde" unicode="&#xc3;" horiz-adv-x="1056" 
d="M1210 868q17 0 35 -5.5t37 -12.5t37 -12.5t33 -5.5q18 0 27.5 7t15 15.5t8 15.5t6.5 7t4 -7q0 -3 -3.5 -15t-12 -25t-23.5 -23.5t-39 -10.5q-17 0 -34 5t-34 12t-33.5 12t-32.5 5q-15 0 -24 -6.5t-15 -15t-9.5 -15t-7.5 -6.5t-4 7q0 3 4.5 15t13 25t21.5 23.5t30 10.5z
M868 233q0 30 -5.5 63.5t-14.5 55.5q-53 -52 -102 -106t-106 -102q42 -32 95 -48t101 -22q14 38 23 77.5t9 81.5zM874 146q63 146 152 277.5t204 242.5l-2 2q-17 -2 -55.5 -27.5t-89.5 -67t-109.5 -96t-115.5 -115.5q13 -30 17.5 -61t4.5 -61q0 -46 -8 -92zM532 342
q0 -68 28.5 -113.5t67.5 -76.5q58 49 109.5 103.5t105.5 109.5q-14 25 -30.5 47.5t-37 39.5t-45.5 27t-56 10q-26 0 -51.5 -8.5t-45.5 -26.5t-32.5 -46t-12.5 -66zM876 0h-72l28 62q-54 8 -106.5 24.5t-95.5 48.5q-34 -30 -73.5 -55.5t-84.5 -44.5t-96 -30t-106 -11
q-52 0 -98.5 14.5t-81.5 41.5t-55.5 64t-20.5 82q0 55 25 97.5t63 72t82.5 45t83.5 15.5q46 0 81 -12.5t59 -33.5t36 -48t12 -57q0 -39 -18.5 -70t-47.5 -52.5t-65 -33t-71 -11.5q-31 0 -38.5 2t-7.5 7q0 6 6 6q4 0 10.5 -1.5t19.5 -1.5q39 0 74.5 10.5t62.5 30.5t43 48.5
t16 63.5q0 51 -38.5 83t-114.5 32q-43 0 -87 -15.5t-79.5 -43t-58 -66.5t-22.5 -85q0 -37 19.5 -68.5t51.5 -54.5t73 -36t83 -13q101 0 185.5 33.5t166.5 103.5q-53 42 -89 95t-36 122q0 40 13.5 69.5t35.5 49.5t48.5 30t53.5 10q34 0 65.5 -11.5t58.5 -31t48.5 -45.5
t35.5 -55q78 85 146 146t121.5 100t90.5 57.5t54 18.5q5 0 5 -7q0 -2 -12 -15.5t-33.5 -40.5t-51.5 -69.5t-66 -101.5q-31 -50 -57.5 -99t-51 -98t-48 -98.5t-48.5 -98.5q21 0 42.5 5t45.5 14q21 8 35 17.5t23.5 17.5t14.5 13.5t7 5.5q5 0 5 -5q0 -3 -11.5 -15t-33.5 -25.5
t-55.5 -25.5t-76.5 -14z" />
    <glyph glyph-name="Eacute" unicode="&#xc9;" horiz-adv-x="556" 
d="M654 911q11 0 17 -7.5t6 -14.5q0 -18 -18 -42.5t-41 -46.5t-44.5 -37.5t-29.5 -15.5q-2 1 -4 1q-1 0 -1 3t6 7.5t14 11.5t17.5 16t17.5 20q13 18 18.5 37t9.5 34t10.5 24.5t21.5 9.5zM670 664q0 32 -46 32q-17 0 -35.5 -5.5t-36.5 -13.5t-35 -18t-31 -19q17 -19 32 -35.5
t15 -18.5q0 -6 -5 -6q-2 0 -4.5 3l-7.5 9t-14.5 16.5t-25.5 25.5q-44 -32 -74 -73.5t-30 -92.5q45 7 97 26t97 46t74.5 59.5t29.5 64.5zM522 222q0 31 -16 50.5t-48 19.5q-30 0 -62 -25.5t-58 -64.5t-43 -85t-17 -87v-13t1 -11q39 -2 82 16.5t79 49.5t59 70t23 80zM110 596
q0 -35 14.5 -60t38.5 -41.5t56 -24.5t68 -8q8 0 17 0.5t18 1.5q-1 7 -1.5 13.5t-0.5 14.5q0 28 11.5 52.5t30.5 45.5t42 37.5t46 28.5q-37 29 -81 45.5t-91 16.5q-24 0 -53.5 -7.5t-55 -22.5t-42.5 -38t-17 -54zM396 402q-31 11 -59 38q-32 -8 -60 -8q-41 0 -76 10t-61 28
t-41 44.5t-15 59.5q0 38 18 67t46 49t63 30t69 10q50 0 96 -18.5t84 -49.5q38 18 79 32t85 14q27 0 42.5 -11.5t15.5 -39.5q0 -23 -18 -47.5t-46 -47.5t-63 -43t-69 -35.5t-64 -25t-48 -10.5q5 -17 15.5 -29.5t29.5 -12.5q5 0 14.5 2t22.5 2q14 0 27 -4.5t13 -10.5
q0 -13 -23 -13q-26 0 -38 6t-21 6q-30 0 -71.5 -18.5t-79 -53t-63.5 -84t-26 -110.5q0 -56 22.5 -85t69.5 -36q-2 9 -3 19t-1 20q0 57 16 105t43 83t62.5 54.5t73.5 19.5q37 0 57 -26t20 -60q0 -44 -24 -84.5t-61.5 -72t-82.5 -51t-86 -20.5q3 -32 11.5 -60t8.5 -33
q0 -3 -5 -3q-4 0 -5.5 9t-9.5 34q-5 14 -7.5 28.5t-4.5 24.5q-34 0 -63.5 9.5t-51.5 27.5t-34.5 45.5t-12.5 63.5q0 54 27.5 98.5t70.5 78t94 55t98 28.5v2z" />
    <glyph glyph-name="Ecircumflex" unicode="&#xca;" horiz-adv-x="556" 
d="M610 911q6 -30 17 -58.5t22.5 -51t19.5 -37t8 -15.5q0 -2 -2 -2q-6 0 -18.5 14t-25.5 32t-23.5 35.5t-13.5 23.5q-17 -17 -37.5 -35.5t-39 -34t-33 -25.5t-17.5 -10q-4 0 -4 2q0 3 14 17t34.5 36t43.5 50t41 59h14zM670 664q0 32 -46 32q-17 0 -35.5 -5.5t-36.5 -13.5
t-35 -18t-31 -19q17 -19 32 -35.5t15 -18.5q0 -6 -5 -6q-2 0 -4.5 3l-7.5 9t-14.5 16.5t-25.5 25.5q-44 -32 -74 -73.5t-30 -92.5q45 7 97 26t97 46t74.5 59.5t29.5 64.5zM522 222q0 31 -16 50.5t-48 19.5q-30 0 -62 -25.5t-58 -64.5t-43 -85t-17 -87v-13t1 -11
q39 -2 82 16.5t79 49.5t59 70t23 80zM110 596q0 -35 14.5 -60t38.5 -41.5t56 -24.5t68 -8q8 0 17 0.5t18 1.5q-1 7 -1.5 13.5t-0.5 14.5q0 28 11.5 52.5t30.5 45.5t42 37.5t46 28.5q-37 29 -81 45.5t-91 16.5q-24 0 -53.5 -7.5t-55 -22.5t-42.5 -38t-17 -54zM396 402
q-31 11 -59 38q-32 -8 -60 -8q-41 0 -76 10t-61 28t-41 44.5t-15 59.5q0 38 18 67t46 49t63 30t69 10q50 0 96 -18.5t84 -49.5q38 18 79 32t85 14q27 0 42.5 -11.5t15.5 -39.5q0 -23 -18 -47.5t-46 -47.5t-63 -43t-69 -35.5t-64 -25t-48 -10.5q5 -17 15.5 -29.5t29.5 -12.5
q5 0 14.5 2t22.5 2q14 0 27 -4.5t13 -10.5q0 -13 -23 -13q-26 0 -38 6t-21 6q-30 0 -71.5 -18.5t-79 -53t-63.5 -84t-26 -110.5q0 -56 22.5 -85t69.5 -36q-2 9 -3 19t-1 20q0 57 16 105t43 83t62.5 54.5t73.5 19.5q37 0 57 -26t20 -60q0 -44 -24 -84.5t-61.5 -72t-82.5 -51
t-86 -20.5q3 -32 11.5 -60t8.5 -33q0 -3 -5 -3q-4 0 -5.5 9t-9.5 34q-5 14 -7.5 28.5t-4.5 24.5q-34 0 -63.5 9.5t-51.5 27.5t-34.5 45.5t-12.5 63.5q0 54 27.5 98.5t70.5 78t94 55t98 28.5v2z" />
    <glyph glyph-name="Edieresis" unicode="&#xcb;" horiz-adv-x="556" 
d="M662 861q29 0 29 -25q0 -20 -9 -31.5t-30 -11.5q-12 0 -18.5 5.5t-6.5 22.5t8 28.5t27 11.5zM518 861q29 0 29 -25q0 -20 -9 -31.5t-30 -11.5q-12 0 -18.5 5.5t-6.5 22.5t8 28.5t27 11.5zM670 664q0 32 -46 32q-17 0 -35.5 -5.5t-36.5 -13.5t-35 -18t-31 -19
q17 -19 32 -35.5t15 -18.5q0 -6 -5 -6q-2 0 -4.5 3l-7.5 9t-14.5 16.5t-25.5 25.5q-44 -32 -74 -73.5t-30 -92.5q45 7 97 26t97 46t74.5 59.5t29.5 64.5zM522 222q0 31 -16 50.5t-48 19.5q-30 0 -62 -25.5t-58 -64.5t-43 -85t-17 -87v-13t1 -11q39 -2 82 16.5t79 49.5t59 70
t23 80zM110 596q0 -35 14.5 -60t38.5 -41.5t56 -24.5t68 -8q8 0 17 0.5t18 1.5q-1 7 -1.5 13.5t-0.5 14.5q0 28 11.5 52.5t30.5 45.5t42 37.5t46 28.5q-37 29 -81 45.5t-91 16.5q-24 0 -53.5 -7.5t-55 -22.5t-42.5 -38t-17 -54zM396 402q-31 11 -59 38q-32 -8 -60 -8
q-41 0 -76 10t-61 28t-41 44.5t-15 59.5q0 38 18 67t46 49t63 30t69 10q50 0 96 -18.5t84 -49.5q38 18 79 32t85 14q27 0 42.5 -11.5t15.5 -39.5q0 -23 -18 -47.5t-46 -47.5t-63 -43t-69 -35.5t-64 -25t-48 -10.5q5 -17 15.5 -29.5t29.5 -12.5q5 0 14.5 2t22.5 2
q14 0 27 -4.5t13 -10.5q0 -13 -23 -13q-26 0 -38 6t-21 6q-30 0 -71.5 -18.5t-79 -53t-63.5 -84t-26 -110.5q0 -56 22.5 -85t69.5 -36q-2 9 -3 19t-1 20q0 57 16 105t43 83t62.5 54.5t73.5 19.5q37 0 57 -26t20 -60q0 -44 -24 -84.5t-61.5 -72t-82.5 -51t-86 -20.5
q3 -32 11.5 -60t8.5 -33q0 -3 -5 -3q-4 0 -5.5 9t-9.5 34q-5 14 -7.5 28.5t-4.5 24.5q-34 0 -63.5 9.5t-51.5 27.5t-34.5 45.5t-12.5 63.5q0 54 27.5 98.5t70.5 78t94 55t98 28.5v2z" />
    <glyph glyph-name="Egrave" unicode="&#xc8;" horiz-adv-x="556" 
d="M488 911q15 0 21.5 -9.5t10.5 -24.5t9.5 -34t18.5 -37q7 -11 17 -20t18 -16t14 -11.5t6 -7.5q0 -4 -5 -4q-8 0 -29.5 15.5t-44.5 37.5t-41 46.5t-18 42.5q0 7 6 14.5t17 7.5zM670 664q0 32 -46 32q-17 0 -35.5 -5.5t-36.5 -13.5t-35 -18t-31 -19q17 -19 32 -35.5
t15 -18.5q0 -6 -5 -6q-2 0 -4.5 3l-7.5 9t-14.5 16.5t-25.5 25.5q-44 -32 -74 -73.5t-30 -92.5q45 7 97 26t97 46t74.5 59.5t29.5 64.5zM522 222q0 31 -16 50.5t-48 19.5q-30 0 -62 -25.5t-58 -64.5t-43 -85t-17 -87v-13t1 -11q39 -2 82 16.5t79 49.5t59 70t23 80zM110 596
q0 -35 14.5 -60t38.5 -41.5t56 -24.5t68 -8q8 0 17 0.5t18 1.5q-1 7 -1.5 13.5t-0.5 14.5q0 28 11.5 52.5t30.5 45.5t42 37.5t46 28.5q-37 29 -81 45.5t-91 16.5q-24 0 -53.5 -7.5t-55 -22.5t-42.5 -38t-17 -54zM396 402q-31 11 -59 38q-32 -8 -60 -8q-41 0 -76 10t-61 28
t-41 44.5t-15 59.5q0 38 18 67t46 49t63 30t69 10q50 0 96 -18.5t84 -49.5q38 18 79 32t85 14q27 0 42.5 -11.5t15.5 -39.5q0 -23 -18 -47.5t-46 -47.5t-63 -43t-69 -35.5t-64 -25t-48 -10.5q5 -17 15.5 -29.5t29.5 -12.5q5 0 14.5 2t22.5 2q14 0 27 -4.5t13 -10.5
q0 -13 -23 -13q-26 0 -38 6t-21 6q-30 0 -71.5 -18.5t-79 -53t-63.5 -84t-26 -110.5q0 -56 22.5 -85t69.5 -36q-2 9 -3 19t-1 20q0 57 16 105t43 83t62.5 54.5t73.5 19.5q37 0 57 -26t20 -60q0 -44 -24 -84.5t-61.5 -72t-82.5 -51t-86 -20.5q3 -32 11.5 -60t8.5 -33
q0 -3 -5 -3q-4 0 -5.5 9t-9.5 34q-5 14 -7.5 28.5t-4.5 24.5q-34 0 -63.5 9.5t-51.5 27.5t-34.5 45.5t-12.5 63.5q0 54 27.5 98.5t70.5 78t94 55t98 28.5v2z" />
    <glyph glyph-name="Iacute" unicode="&#xcd;" horiz-adv-x="778" 
d="M1060 911q11 0 17 -7.5t6 -14.5q0 -18 -18 -42.5t-41 -46.5t-44.5 -37.5t-29.5 -15.5q-2 1 -4 1q-1 0 -1 3t6 7.5t14 11.5t17.5 16t17.5 20q13 18 18.5 37t9.5 34t10.5 24.5t21.5 9.5zM1012 681q-2 0 -4 0.5t-4 0.5q-12 0 -45.5 -5t-77 -16.5t-90.5 -31.5t-86.5 -49
t-65 -68.5t-25.5 -91.5q0 -18 4 -34t13.5 -28.5t26 -20.5t40.5 -9q28 55 65.5 111.5t79.5 105t85 84t84 50.5v2zM30 196q0 50 25 92t64 72t86.5 47t91.5 17q35 0 70.5 -9.5t63.5 -28.5t45.5 -48t17.5 -67q0 -36 -16.5 -66.5t-45 -53t-66.5 -35t-82 -12.5q-23 0 -45.5 5
t-40.5 11.5t-29 12.5t-11 8q0 7 5 7q3 0 12.5 -5t25 -11t36.5 -11t47 -5q43 0 79.5 12t62.5 32.5t41 48.5t15 60q0 33 -14 56t-36.5 37.5t-51 21t-56.5 6.5q-47 0 -95 -15.5t-86.5 -44.5t-62.5 -70.5t-24 -92.5q0 -45 23 -75.5t57.5 -49.5t76 -27.5t77.5 -8.5
q77 0 136.5 25.5t107 68t85.5 98.5t73 118q-23 2 -44 9t-37 20.5t-25.5 32.5t-9.5 45q0 54 29 95t74.5 71.5t101.5 51.5t111 33.5t102.5 18t75.5 5.5q4 0 4 -6q0 -2 -8 -3t-23 -6.5t-37 -17.5t-50 -35q-32 -27 -57.5 -62.5t-48 -75t-43 -81.5t-42.5 -81q28 5 52.5 19
t42.5 29t29 26.5t13 11.5q4 0 4 -6q0 -5 -13 -18.5t-34 -29t-47.5 -29t-53.5 -17.5q-29 -54 -57.5 -97t-62 -77.5t-74 -61t-91.5 -48.5q-54 -23 -101 -30.5t-92 -7.5t-89.5 12.5t-80 38t-58 63.5t-22.5 88z" />
    <glyph glyph-name="Icircumflex" unicode="&#xce;" horiz-adv-x="778" 
d="M1016 911q6 -30 17 -58.5t22.5 -51t19.5 -37t8 -15.5q0 -2 -2 -2q-6 0 -18.5 14t-25.5 32t-23.5 35.5t-13.5 23.5q-17 -17 -37.5 -35.5t-39 -34t-33 -25.5t-17.5 -10q-4 0 -4 2q0 3 14 17t34.5 36t43.5 50t41 59h14zM1012 681q-2 0 -4 0.5t-4 0.5q-12 0 -45.5 -5
t-77 -16.5t-90.5 -31.5t-86.5 -49t-65 -68.5t-25.5 -91.5q0 -18 4 -34t13.5 -28.5t26 -20.5t40.5 -9q28 55 65.5 111.5t79.5 105t85 84t84 50.5v2zM30 196q0 50 25 92t64 72t86.5 47t91.5 17q35 0 70.5 -9.5t63.5 -28.5t45.5 -48t17.5 -67q0 -36 -16.5 -66.5t-45 -53
t-66.5 -35t-82 -12.5q-23 0 -45.5 5t-40.5 11.5t-29 12.5t-11 8q0 7 5 7q3 0 12.5 -5t25 -11t36.5 -11t47 -5q43 0 79.5 12t62.5 32.5t41 48.5t15 60q0 33 -14 56t-36.5 37.5t-51 21t-56.5 6.5q-47 0 -95 -15.5t-86.5 -44.5t-62.5 -70.5t-24 -92.5q0 -45 23 -75.5
t57.5 -49.5t76 -27.5t77.5 -8.5q77 0 136.5 25.5t107 68t85.5 98.5t73 118q-23 2 -44 9t-37 20.5t-25.5 32.5t-9.5 45q0 54 29 95t74.5 71.5t101.5 51.5t111 33.5t102.5 18t75.5 5.5q4 0 4 -6q0 -2 -8 -3t-23 -6.5t-37 -17.5t-50 -35q-32 -27 -57.5 -62.5t-48 -75t-43 -81.5
t-42.5 -81q28 5 52.5 19t42.5 29t29 26.5t13 11.5q4 0 4 -6q0 -5 -13 -18.5t-34 -29t-47.5 -29t-53.5 -17.5q-29 -54 -57.5 -97t-62 -77.5t-74 -61t-91.5 -48.5q-54 -23 -101 -30.5t-92 -7.5t-89.5 12.5t-80 38t-58 63.5t-22.5 88z" />
    <glyph glyph-name="Idieresis" unicode="&#xcf;" horiz-adv-x="778" 
d="M1068 861q29 0 29 -25q0 -20 -9 -31.5t-30 -11.5q-12 0 -18.5 5.5t-6.5 22.5t8 28.5t27 11.5zM924 861q29 0 29 -25q0 -20 -9 -31.5t-30 -11.5q-12 0 -18.5 5.5t-6.5 22.5t8 28.5t27 11.5zM1012 681q-2 0 -4 0.5t-4 0.5q-12 0 -45.5 -5t-77 -16.5t-90.5 -31.5t-86.5 -49
t-65 -68.5t-25.5 -91.5q0 -18 4 -34t13.5 -28.5t26 -20.5t40.5 -9q28 55 65.5 111.5t79.5 105t85 84t84 50.5v2zM30 196q0 50 25 92t64 72t86.5 47t91.5 17q35 0 70.5 -9.5t63.5 -28.5t45.5 -48t17.5 -67q0 -36 -16.5 -66.5t-45 -53t-66.5 -35t-82 -12.5q-23 0 -45.5 5
t-40.5 11.5t-29 12.5t-11 8q0 7 5 7q3 0 12.5 -5t25 -11t36.5 -11t47 -5q43 0 79.5 12t62.5 32.5t41 48.5t15 60q0 33 -14 56t-36.5 37.5t-51 21t-56.5 6.5q-47 0 -95 -15.5t-86.5 -44.5t-62.5 -70.5t-24 -92.5q0 -45 23 -75.5t57.5 -49.5t76 -27.5t77.5 -8.5
q77 0 136.5 25.5t107 68t85.5 98.5t73 118q-23 2 -44 9t-37 20.5t-25.5 32.5t-9.5 45q0 54 29 95t74.5 71.5t101.5 51.5t111 33.5t102.5 18t75.5 5.5q4 0 4 -6q0 -2 -8 -3t-23 -6.5t-37 -17.5t-50 -35q-32 -27 -57.5 -62.5t-48 -75t-43 -81.5t-42.5 -81q28 5 52.5 19
t42.5 29t29 26.5t13 11.5q4 0 4 -6q0 -5 -13 -18.5t-34 -29t-47.5 -29t-53.5 -17.5q-29 -54 -57.5 -97t-62 -77.5t-74 -61t-91.5 -48.5q-54 -23 -101 -30.5t-92 -7.5t-89.5 12.5t-80 38t-58 63.5t-22.5 88z" />
    <glyph glyph-name="Igrave" unicode="&#xcc;" horiz-adv-x="778" 
d="M894 911q15 0 21.5 -9.5t10.5 -24.5t9.5 -34t18.5 -37q7 -11 17 -20t18 -16t14 -11.5t6 -7.5q0 -4 -5 -4q-8 0 -29.5 15.5t-44.5 37.5t-41 46.5t-18 42.5q0 7 6 14.5t17 7.5zM1012 681q-2 0 -4 0.5t-4 0.5q-12 0 -45.5 -5t-77 -16.5t-90.5 -31.5t-86.5 -49t-65 -68.5
t-25.5 -91.5q0 -18 4 -34t13.5 -28.5t26 -20.5t40.5 -9q28 55 65.5 111.5t79.5 105t85 84t84 50.5v2zM30 196q0 50 25 92t64 72t86.5 47t91.5 17q35 0 70.5 -9.5t63.5 -28.5t45.5 -48t17.5 -67q0 -36 -16.5 -66.5t-45 -53t-66.5 -35t-82 -12.5q-23 0 -45.5 5t-40.5 11.5
t-29 12.5t-11 8q0 7 5 7q3 0 12.5 -5t25 -11t36.5 -11t47 -5q43 0 79.5 12t62.5 32.5t41 48.5t15 60q0 33 -14 56t-36.5 37.5t-51 21t-56.5 6.5q-47 0 -95 -15.5t-86.5 -44.5t-62.5 -70.5t-24 -92.5q0 -45 23 -75.5t57.5 -49.5t76 -27.5t77.5 -8.5q77 0 136.5 25.5t107 68
t85.5 98.5t73 118q-23 2 -44 9t-37 20.5t-25.5 32.5t-9.5 45q0 54 29 95t74.5 71.5t101.5 51.5t111 33.5t102.5 18t75.5 5.5q4 0 4 -6q0 -2 -8 -3t-23 -6.5t-37 -17.5t-50 -35q-32 -27 -57.5 -62.5t-48 -75t-43 -81.5t-42.5 -81q28 5 52.5 19t42.5 29t29 26.5t13 11.5
q4 0 4 -6q0 -5 -13 -18.5t-34 -29t-47.5 -29t-53.5 -17.5q-29 -54 -57.5 -97t-62 -77.5t-74 -61t-91.5 -48.5q-54 -23 -101 -30.5t-92 -7.5t-89.5 12.5t-80 38t-58 63.5t-22.5 88z" />
    <glyph glyph-name="Ntilde" unicode="&#xd1;" horiz-adv-x="1111" 
d="M1154 868q17 0 35 -5.5t37 -12.5t37 -12.5t33 -5.5q18 0 27.5 7t15 15.5t8 15.5t6.5 7t4 -7q0 -3 -3.5 -15t-12 -25t-23.5 -23.5t-39 -10.5q-17 0 -34 5t-34 12t-33.5 12t-32.5 5q-15 0 -24 -6.5t-15 -15t-9.5 -15t-7.5 -6.5t-4 7q0 3 4.5 15t13 25t21.5 23.5t30 10.5z
M934 616q-44 -70 -89 -149.5t-95 -155.5t-108 -142.5t-128 -109.5q-61 -38 -119.5 -51.5t-108.5 -13.5q-59 0 -109 12.5t-86.5 37.5t-57.5 61.5t-21 84.5q0 44 20 86t56 74.5t86 52t110 19.5q48 0 86 -11t65 -30.5t41 -46t14 -57.5q0 -38 -18.5 -70t-49 -55.5t-70 -36.5
t-80.5 -13q-16 0 -34 2.5t-33 6.5t-25 8.5t-10 7.5q0 5 5 5q3 0 9.5 -3t18 -6t28.5 -6t42 -3q42 0 79 13t64 34t42.5 48.5t15.5 57.5q0 25 -11.5 47t-34 38.5t-55.5 26t-76 9.5q-45 0 -92 -15.5t-85.5 -44.5t-63 -69.5t-24.5 -89.5q0 -38 18 -68t50 -51t77.5 -32.5
t100.5 -11.5q63 0 125.5 17.5t125.5 61.5t127.5 118t130.5 188q37 63 70 120t58.5 99.5t42.5 68t21 25.5t6.5 -3t2.5 -4q0 -8 -6.5 -20t-14.5 -35.5t-14.5 -60.5t-6.5 -95q0 -28 2 -55t2 -55q0 -76 -8 -151.5t-28 -148.5l2 -2q35 68 75.5 141t83 142.5t86.5 131.5
t86.5 108.5t82 73.5t73.5 27q19 0 33 -14.5t14 -28.5t-10.5 -25.5t-28.5 -11.5q-16 0 -22.5 7t-9.5 16t-5.5 16t-11.5 7q-41 0 -136.5 -110.5t-225.5 -343.5q-42 -75 -64.5 -120t-33.5 -69t-15.5 -31.5t-10.5 -7.5q-2 0 -4 1t-2 5q0 9 3.5 15.5t8 19.5t8.5 36t4 66
q0 55 -8 111.5t-8 106.5q0 61 8.5 106t19 77.5t19.5 54t11 35.5h-2z" />
    <glyph glyph-name="Oacute" unicode="&#xd3;" horiz-adv-x="778" 
d="M823 911q11 0 17 -7.5t6 -14.5q0 -18 -18 -42.5t-41 -46.5t-44.5 -37.5t-29.5 -15.5q-2 1 -4 1q-1 0 -1 3t6 7.5t14 11.5t17.5 16t17.5 20q13 18 18.5 37t9.5 34t10.5 24.5t21.5 9.5zM430 277q0 -38 18 -60.5t57 -22.5q40 0 71 25t52.5 62.5t32.5 79.5t11 77
q0 42 -14 75.5t-40 60.5q-35 -18 -68.5 -49t-60 -70.5t-43 -85.5t-16.5 -92zM292 136q0 -59 25 -97.5t79 -38.5q45 0 93.5 19.5t94 53t86 78t71 95t48 104.5t17.5 105q0 70 -29.5 105.5t-82.5 35.5q-31 0 -65 -17q36 -35 54.5 -81.5t18.5 -94.5q0 -37 -14 -76.5t-39 -72.5
t-59.5 -54.5t-75.5 -21.5t-68.5 25t-27.5 68q0 54 17.5 102t45 88.5t61.5 71t68 49.5q-12 11 -27 20.5t-32 14.5q-51 -38 -98 -91.5t-83 -116.5t-57 -132.5t-21 -140.5zM818 457q0 -48 -16.5 -101t-46.5 -105.5t-70.5 -100t-88 -83.5t-101 -57.5t-107.5 -21.5q-42 0 -71 17
t-47.5 44t-27 61.5t-8.5 69.5q0 62 24.5 125.5t66 122t95 109.5t110.5 89q-39 14 -84 14q-59 0 -108 -24t-85.5 -63t-58.5 -89t-26 -102q-1 -10 -2.5 -13t-3.5 -3q-6 0 -6 7q0 1 1 13t4.5 30.5t11 42t21.5 49.5q17 33 43 62.5t58.5 52t71 36t80.5 13.5q52 0 95 -17
q54 34 106.5 53.5t97.5 19.5q58 0 91 -30.5t33 -88.5q0 -3 -0.5 -11.5t-2 -17.5t-4 -15.5t-6.5 -6.5q-3 0 -3 7q0 3 2 20t2 26q0 53 -31 79t-81 26q-44 0 -90.5 -18.5t-94.5 -52.5q32 -13 60 -38q40 21 73 21q56 0 90 -39.5t34 -111.5z" />
    <glyph glyph-name="Ocircumflex" unicode="&#xd4;" horiz-adv-x="778" 
d="M779 911q6 -30 17 -58.5t22.5 -51t19.5 -37t8 -15.5q0 -2 -2 -2q-6 0 -18.5 14t-25.5 32t-23.5 35.5t-13.5 23.5q-17 -17 -37.5 -35.5t-39 -34t-33 -25.5t-17.5 -10q-4 0 -4 2q0 3 14 17t34.5 36t43.5 50t41 59h14zM430 277q0 -38 18 -60.5t57 -22.5q40 0 71 25
t52.5 62.5t32.5 79.5t11 77q0 42 -14 75.5t-40 60.5q-35 -18 -68.5 -49t-60 -70.5t-43 -85.5t-16.5 -92zM292 136q0 -59 25 -97.5t79 -38.5q45 0 93.5 19.5t94 53t86 78t71 95t48 104.5t17.5 105q0 70 -29.5 105.5t-82.5 35.5q-31 0 -65 -17q36 -35 54.5 -81.5t18.5 -94.5
q0 -37 -14 -76.5t-39 -72.5t-59.5 -54.5t-75.5 -21.5t-68.5 25t-27.5 68q0 54 17.5 102t45 88.5t61.5 71t68 49.5q-12 11 -27 20.5t-32 14.5q-51 -38 -98 -91.5t-83 -116.5t-57 -132.5t-21 -140.5zM818 457q0 -48 -16.5 -101t-46.5 -105.5t-70.5 -100t-88 -83.5t-101 -57.5
t-107.5 -21.5q-42 0 -71 17t-47.5 44t-27 61.5t-8.5 69.5q0 62 24.5 125.5t66 122t95 109.5t110.5 89q-39 14 -84 14q-59 0 -108 -24t-85.5 -63t-58.5 -89t-26 -102q-1 -10 -2.5 -13t-3.5 -3q-6 0 -6 7q0 1 1 13t4.5 30.5t11 42t21.5 49.5q17 33 43 62.5t58.5 52t71 36
t80.5 13.5q52 0 95 -17q54 34 106.5 53.5t97.5 19.5q58 0 91 -30.5t33 -88.5q0 -3 -0.5 -11.5t-2 -17.5t-4 -15.5t-6.5 -6.5q-3 0 -3 7q0 3 2 20t2 26q0 53 -31 79t-81 26q-44 0 -90.5 -18.5t-94.5 -52.5q32 -13 60 -38q40 21 73 21q56 0 90 -39.5t34 -111.5z" />
    <glyph glyph-name="Odieresis" unicode="&#xd6;" horiz-adv-x="778" 
d="M831 861q29 0 29 -25q0 -20 -9 -31.5t-30 -11.5q-12 0 -18.5 5.5t-6.5 22.5t8 28.5t27 11.5zM687 861q29 0 29 -25q0 -20 -9 -31.5t-30 -11.5q-12 0 -18.5 5.5t-6.5 22.5t8 28.5t27 11.5zM430 277q0 -38 18 -60.5t57 -22.5q40 0 71 25t52.5 62.5t32.5 79.5t11 77
q0 42 -14 75.5t-40 60.5q-35 -18 -68.5 -49t-60 -70.5t-43 -85.5t-16.5 -92zM292 136q0 -59 25 -97.5t79 -38.5q45 0 93.5 19.5t94 53t86 78t71 95t48 104.5t17.5 105q0 70 -29.5 105.5t-82.5 35.5q-31 0 -65 -17q36 -35 54.5 -81.5t18.5 -94.5q0 -37 -14 -76.5t-39 -72.5
t-59.5 -54.5t-75.5 -21.5t-68.5 25t-27.5 68q0 54 17.5 102t45 88.5t61.5 71t68 49.5q-12 11 -27 20.5t-32 14.5q-51 -38 -98 -91.5t-83 -116.5t-57 -132.5t-21 -140.5zM818 457q0 -48 -16.5 -101t-46.5 -105.5t-70.5 -100t-88 -83.5t-101 -57.5t-107.5 -21.5q-42 0 -71 17
t-47.5 44t-27 61.5t-8.5 69.5q0 62 24.5 125.5t66 122t95 109.5t110.5 89q-39 14 -84 14q-59 0 -108 -24t-85.5 -63t-58.5 -89t-26 -102q-1 -10 -2.5 -13t-3.5 -3q-6 0 -6 7q0 1 1 13t4.5 30.5t11 42t21.5 49.5q17 33 43 62.5t58.5 52t71 36t80.5 13.5q52 0 95 -17
q54 34 106.5 53.5t97.5 19.5q58 0 91 -30.5t33 -88.5q0 -3 -0.5 -11.5t-2 -17.5t-4 -15.5t-6.5 -6.5q-3 0 -3 7q0 3 2 20t2 26q0 53 -31 79t-81 26q-44 0 -90.5 -18.5t-94.5 -52.5q32 -13 60 -38q40 21 73 21q56 0 90 -39.5t34 -111.5z" />
    <glyph glyph-name="Ograve" unicode="&#xd2;" horiz-adv-x="778" 
d="M657 911q15 0 21.5 -9.5t10.5 -24.5t9.5 -34t18.5 -37q7 -11 17 -20t18 -16t14 -11.5t6 -7.5q0 -4 -5 -4q-8 0 -29.5 15.5t-44.5 37.5t-41 46.5t-18 42.5q0 7 6 14.5t17 7.5zM430 277q0 -38 18 -60.5t57 -22.5q40 0 71 25t52.5 62.5t32.5 79.5t11 77q0 42 -14 75.5
t-40 60.5q-35 -18 -68.5 -49t-60 -70.5t-43 -85.5t-16.5 -92zM292 136q0 -59 25 -97.5t79 -38.5q45 0 93.5 19.5t94 53t86 78t71 95t48 104.5t17.5 105q0 70 -29.5 105.5t-82.5 35.5q-31 0 -65 -17q36 -35 54.5 -81.5t18.5 -94.5q0 -37 -14 -76.5t-39 -72.5t-59.5 -54.5
t-75.5 -21.5t-68.5 25t-27.5 68q0 54 17.5 102t45 88.5t61.5 71t68 49.5q-12 11 -27 20.5t-32 14.5q-51 -38 -98 -91.5t-83 -116.5t-57 -132.5t-21 -140.5zM818 457q0 -48 -16.5 -101t-46.5 -105.5t-70.5 -100t-88 -83.5t-101 -57.5t-107.5 -21.5q-42 0 -71 17t-47.5 44
t-27 61.5t-8.5 69.5q0 62 24.5 125.5t66 122t95 109.5t110.5 89q-39 14 -84 14q-59 0 -108 -24t-85.5 -63t-58.5 -89t-26 -102q-1 -10 -2.5 -13t-3.5 -3q-6 0 -6 7q0 1 1 13t4.5 30.5t11 42t21.5 49.5q17 33 43 62.5t58.5 52t71 36t80.5 13.5q52 0 95 -17q54 34 106.5 53.5
t97.5 19.5q58 0 91 -30.5t33 -88.5q0 -3 -0.5 -11.5t-2 -17.5t-4 -15.5t-6.5 -6.5q-3 0 -3 7q0 3 2 20t2 26q0 53 -31 79t-81 26q-44 0 -90.5 -18.5t-94.5 -52.5q32 -13 60 -38q40 21 73 21q56 0 90 -39.5t34 -111.5z" />
    <glyph glyph-name="Otilde" unicode="&#xd5;" horiz-adv-x="778" 
d="M689 868q17 0 35 -5.5t37 -12.5t37 -12.5t33 -5.5q18 0 27.5 7t15 15.5t8 15.5t6.5 7t4 -7q0 -3 -3.5 -15t-12 -25t-23.5 -23.5t-39 -10.5q-17 0 -34 5t-34 12t-33.5 12t-32.5 5q-15 0 -24 -6.5t-15 -15t-9.5 -15t-7.5 -6.5t-4 7q0 3 4.5 15t13 25t21.5 23.5t30 10.5z
M430 277q0 -38 18 -60.5t57 -22.5q40 0 71 25t52.5 62.5t32.5 79.5t11 77q0 42 -14 75.5t-40 60.5q-35 -18 -68.5 -49t-60 -70.5t-43 -85.5t-16.5 -92zM292 136q0 -59 25 -97.5t79 -38.5q45 0 93.5 19.5t94 53t86 78t71 95t48 104.5t17.5 105q0 70 -29.5 105.5t-82.5 35.5
q-31 0 -65 -17q36 -35 54.5 -81.5t18.5 -94.5q0 -37 -14 -76.5t-39 -72.5t-59.5 -54.5t-75.5 -21.5t-68.5 25t-27.5 68q0 54 17.5 102t45 88.5t61.5 71t68 49.5q-12 11 -27 20.5t-32 14.5q-51 -38 -98 -91.5t-83 -116.5t-57 -132.5t-21 -140.5zM818 457q0 -48 -16.5 -101
t-46.5 -105.5t-70.5 -100t-88 -83.5t-101 -57.5t-107.5 -21.5q-42 0 -71 17t-47.5 44t-27 61.5t-8.5 69.5q0 62 24.5 125.5t66 122t95 109.5t110.5 89q-39 14 -84 14q-59 0 -108 -24t-85.5 -63t-58.5 -89t-26 -102q-1 -10 -2.5 -13t-3.5 -3q-6 0 -6 7q0 1 1 13t4.5 30.5
t11 42t21.5 49.5q17 33 43 62.5t58.5 52t71 36t80.5 13.5q52 0 95 -17q54 34 106.5 53.5t97.5 19.5q58 0 91 -30.5t33 -88.5q0 -3 -0.5 -11.5t-2 -17.5t-4 -15.5t-6.5 -6.5q-3 0 -3 7q0 3 2 20t2 26q0 53 -31 79t-81 26q-44 0 -90.5 -18.5t-94.5 -52.5q32 -13 60 -38
q40 21 73 21q56 0 90 -39.5t34 -111.5z" />
    <glyph glyph-name="Uacute" unicode="&#xda;" horiz-adv-x="833" 
d="M914 911q11 0 17 -7.5t6 -14.5q0 -18 -18 -42.5t-41 -46.5t-44.5 -37.5t-29.5 -15.5q-2 1 -4 1q-1 0 -1 3t6 7.5t14 11.5t17.5 16t17.5 20q13 18 18.5 37t9.5 34t10.5 24.5t21.5 9.5zM502 602q0 23 -9 43t-29 33q-53 -11 -102.5 -38.5t-88 -63.5t-62 -77.5t-23.5 -80.5
q0 -36 18 -61t53 -25q25 0 53 12t55 32.5t51.5 47t43 56.5t29.5 61.5t11 60.5zM1050 686l-200 -312q-33 -52 -68.5 -103.5t-64 -97.5t-46.5 -82.5t-17 -58.5q0 -11 5.5 -18.5t16.5 -7.5q20 0 45 18t55 46q38 35 54.5 57t20.5 22q7 0 7 -5q0 -1 -5 -7t-13.5 -15.5t-18.5 -21
t-19 -21.5q-11 -12 -27.5 -27t-34 -28t-34.5 -21.5t-29 -8.5q-23 0 -33 15.5t-10 43.5q0 44 12.5 78.5t29.5 70.5l-2 2q-11 -15 -30 -37t-42.5 -45t-50 -46t-53 -41.5t-51 -29.5t-44.5 -11q-22 0 -37.5 17t-15.5 46q0 42 20.5 89.5t51.5 97t67 99.5t67 97t51.5 88.5
t20.5 74.5q0 22 -9 37.5t-23 25.5t-32 15t-36 5q-11 0 -22.5 -1t-23.5 -3q22 -18 31 -44t9 -55q0 -45 -20.5 -92.5t-55.5 -86.5t-81 -63.5t-97 -24.5q-48 0 -70 27.5t-22 69.5q0 44 24 87.5t63 80.5t88.5 65t99.5 41q-31 17 -81 17q-56 0 -110.5 -27.5t-98.5 -75t-74 -110.5
t-37 -134q-1 -13 -6 -13t-5.5 4t-0.5 10q0 7 2.5 21.5t6.5 31.5t10 36t14 36q20 45 51 87t70 74.5t84 52t94 19.5q32 0 56.5 -6.5t42.5 -17.5q27 6 53 6q66 0 101 -32t35 -99q0 -43 -20.5 -91.5t-51.5 -98.5t-67 -100t-67 -95t-51.5 -83t-20.5 -65q0 -17 6 -22.5t22 -5.5
q19 0 55.5 20t81 58t93.5 91.5t93 121.5q61 93 103 158t69.5 108t43.5 66.5t25.5 35.5t15 14.5t12.5 3.5z" />
    <glyph glyph-name="Ucircumflex" unicode="&#xdb;" horiz-adv-x="833" 
d="M870 911q6 -30 17 -58.5t22.5 -51t19.5 -37t8 -15.5q0 -2 -2 -2q-6 0 -18.5 14t-25.5 32t-23.5 35.5t-13.5 23.5q-17 -17 -37.5 -35.5t-39 -34t-33 -25.5t-17.5 -10q-4 0 -4 2q0 3 14 17t34.5 36t43.5 50t41 59h14zM502 602q0 23 -9 43t-29 33q-53 -11 -102.5 -38.5
t-88 -63.5t-62 -77.5t-23.5 -80.5q0 -36 18 -61t53 -25q25 0 53 12t55 32.5t51.5 47t43 56.5t29.5 61.5t11 60.5zM1050 686l-200 -312q-33 -52 -68.5 -103.5t-64 -97.5t-46.5 -82.5t-17 -58.5q0 -11 5.5 -18.5t16.5 -7.5q20 0 45 18t55 46q38 35 54.5 57t20.5 22q7 0 7 -5
q0 -1 -5 -7t-13.5 -15.5t-18.5 -21t-19 -21.5q-11 -12 -27.5 -27t-34 -28t-34.5 -21.5t-29 -8.5q-23 0 -33 15.5t-10 43.5q0 44 12.5 78.5t29.5 70.5l-2 2q-11 -15 -30 -37t-42.5 -45t-50 -46t-53 -41.5t-51 -29.5t-44.5 -11q-22 0 -37.5 17t-15.5 46q0 42 20.5 89.5
t51.5 97t67 99.5t67 97t51.5 88.5t20.5 74.5q0 22 -9 37.5t-23 25.5t-32 15t-36 5q-11 0 -22.5 -1t-23.5 -3q22 -18 31 -44t9 -55q0 -45 -20.5 -92.5t-55.5 -86.5t-81 -63.5t-97 -24.5q-48 0 -70 27.5t-22 69.5q0 44 24 87.5t63 80.5t88.5 65t99.5 41q-31 17 -81 17
q-56 0 -110.5 -27.5t-98.5 -75t-74 -110.5t-37 -134q-1 -13 -6 -13t-5.5 4t-0.5 10q0 7 2.5 21.5t6.5 31.5t10 36t14 36q20 45 51 87t70 74.5t84 52t94 19.5q32 0 56.5 -6.5t42.5 -17.5q27 6 53 6q66 0 101 -32t35 -99q0 -43 -20.5 -91.5t-51.5 -98.5t-67 -100t-67 -95
t-51.5 -83t-20.5 -65q0 -17 6 -22.5t22 -5.5q19 0 55.5 20t81 58t93.5 91.5t93 121.5q61 93 103 158t69.5 108t43.5 66.5t25.5 35.5t15 14.5t12.5 3.5z" />
    <glyph glyph-name="Udieresis" unicode="&#xdc;" horiz-adv-x="833" 
d="M922 861q29 0 29 -25q0 -20 -9 -31.5t-30 -11.5q-12 0 -18.5 5.5t-6.5 22.5t8 28.5t27 11.5zM778 861q29 0 29 -25q0 -20 -9 -31.5t-30 -11.5q-12 0 -18.5 5.5t-6.5 22.5t8 28.5t27 11.5zM502 602q0 23 -9 43t-29 33q-53 -11 -102.5 -38.5t-88 -63.5t-62 -77.5
t-23.5 -80.5q0 -36 18 -61t53 -25q25 0 53 12t55 32.5t51.5 47t43 56.5t29.5 61.5t11 60.5zM1050 686l-200 -312q-33 -52 -68.5 -103.5t-64 -97.5t-46.5 -82.5t-17 -58.5q0 -11 5.5 -18.5t16.5 -7.5q20 0 45 18t55 46q38 35 54.5 57t20.5 22q7 0 7 -5q0 -1 -5 -7
t-13.5 -15.5t-18.5 -21t-19 -21.5q-11 -12 -27.5 -27t-34 -28t-34.5 -21.5t-29 -8.5q-23 0 -33 15.5t-10 43.5q0 44 12.5 78.5t29.5 70.5l-2 2q-11 -15 -30 -37t-42.5 -45t-50 -46t-53 -41.5t-51 -29.5t-44.5 -11q-22 0 -37.5 17t-15.5 46q0 42 20.5 89.5t51.5 97t67 99.5
t67 97t51.5 88.5t20.5 74.5q0 22 -9 37.5t-23 25.5t-32 15t-36 5q-11 0 -22.5 -1t-23.5 -3q22 -18 31 -44t9 -55q0 -45 -20.5 -92.5t-55.5 -86.5t-81 -63.5t-97 -24.5q-48 0 -70 27.5t-22 69.5q0 44 24 87.5t63 80.5t88.5 65t99.5 41q-31 17 -81 17q-56 0 -110.5 -27.5
t-98.5 -75t-74 -110.5t-37 -134q-1 -13 -6 -13t-5.5 4t-0.5 10q0 7 2.5 21.5t6.5 31.5t10 36t14 36q20 45 51 87t70 74.5t84 52t94 19.5q32 0 56.5 -6.5t42.5 -17.5q27 6 53 6q66 0 101 -32t35 -99q0 -43 -20.5 -91.5t-51.5 -98.5t-67 -100t-67 -95t-51.5 -83t-20.5 -65
q0 -17 6 -22.5t22 -5.5q19 0 55.5 20t81 58t93.5 91.5t93 121.5q61 93 103 158t69.5 108t43.5 66.5t25.5 35.5t15 14.5t12.5 3.5z" />
    <glyph glyph-name="Ugrave" unicode="&#xd9;" horiz-adv-x="833" 
d="M748 911q15 0 21.5 -9.5t10.5 -24.5t9.5 -34t18.5 -37q7 -11 17 -20t18 -16t14 -11.5t6 -7.5q0 -4 -5 -4q-8 0 -29.5 15.5t-44.5 37.5t-41 46.5t-18 42.5q0 7 6 14.5t17 7.5zM502 602q0 23 -9 43t-29 33q-53 -11 -102.5 -38.5t-88 -63.5t-62 -77.5t-23.5 -80.5
q0 -36 18 -61t53 -25q25 0 53 12t55 32.5t51.5 47t43 56.5t29.5 61.5t11 60.5zM1050 686l-200 -312q-33 -52 -68.5 -103.5t-64 -97.5t-46.5 -82.5t-17 -58.5q0 -11 5.5 -18.5t16.5 -7.5q20 0 45 18t55 46q38 35 54.5 57t20.5 22q7 0 7 -5q0 -1 -5 -7t-13.5 -15.5t-18.5 -21
t-19 -21.5q-11 -12 -27.5 -27t-34 -28t-34.5 -21.5t-29 -8.5q-23 0 -33 15.5t-10 43.5q0 44 12.5 78.5t29.5 70.5l-2 2q-11 -15 -30 -37t-42.5 -45t-50 -46t-53 -41.5t-51 -29.5t-44.5 -11q-22 0 -37.5 17t-15.5 46q0 42 20.5 89.5t51.5 97t67 99.5t67 97t51.5 88.5
t20.5 74.5q0 22 -9 37.5t-23 25.5t-32 15t-36 5q-11 0 -22.5 -1t-23.5 -3q22 -18 31 -44t9 -55q0 -45 -20.5 -92.5t-55.5 -86.5t-81 -63.5t-97 -24.5q-48 0 -70 27.5t-22 69.5q0 44 24 87.5t63 80.5t88.5 65t99.5 41q-31 17 -81 17q-56 0 -110.5 -27.5t-98.5 -75t-74 -110.5
t-37 -134q-1 -13 -6 -13t-5.5 4t-0.5 10q0 7 2.5 21.5t6.5 31.5t10 36t14 36q20 45 51 87t70 74.5t84 52t94 19.5q32 0 56.5 -6.5t42.5 -17.5q27 6 53 6q66 0 101 -32t35 -99q0 -43 -20.5 -91.5t-51.5 -98.5t-67 -100t-67 -95t-51.5 -83t-20.5 -65q0 -17 6 -22.5t22 -5.5
q19 0 55.5 20t81 58t93.5 91.5t93 121.5q61 93 103 158t69.5 108t43.5 66.5t25.5 35.5t15 14.5t12.5 3.5z" />
    <glyph glyph-name="Ydieresis" unicode="&#x178;" horiz-adv-x="889" 
d="M879 861q29 0 29 -25q0 -20 -9 -31.5t-30 -11.5q-12 0 -18.5 5.5t-6.5 22.5t8 28.5t27 11.5zM1023 861q29 0 29 -25q0 -20 -9 -31.5t-30 -11.5q-12 0 -18.5 5.5t-6.5 22.5t8 28.5t27 11.5zM824 358q-16 -23 -48 -55.5t-69.5 -63t-75 -52t-65.5 -21.5q-32 0 -44 18.5
t-12 48.5q0 36 13 71t32 67.5t42 63t42 60t32 56.5t13 53q0 22 -10 38t-25.5 25.5t-35.5 14t-39 4.5q-43 0 -99 -19t-106 -52t-84.5 -78t-34.5 -96q0 -32 24 -51.5t55 -19.5q42 0 90 27.5t92 79.5q25 29 38 58t19.5 51.5t9 36.5t7.5 14q7 0 7 -8q0 -6 -3.5 -29t-13.5 -53.5
t-27 -64.5t-45 -62.5t-67 -47t-93 -18.5q-49 0 -77 25t-28 60q0 33 15.5 65t41.5 61t59.5 53.5t70.5 42t74.5 27.5t70.5 10q64 0 102 -31.5t38 -112.5q0 -32 -13 -64t-32 -64t-42 -62.5t-42 -59t-32 -53.5t-13 -46q0 -15 9 -21t23 -6q16 0 46.5 15t67 41t74 61.5t66.5 77.5
q75 107 136.5 171.5t106.5 98.5t72.5 44.5t35.5 10.5q7 0 7 -6q0 -5 -10 -8.5t-27 -10.5t-40 -20.5t-49.5 -37.5t-54.5 -61.5t-56 -92.5q-13 -26 -32 -63.5t-41 -79.5t-46.5 -86t-49 -84t-47.5 -73t-43 -53q-81 -81 -187.5 -124.5t-221.5 -43.5q-47 0 -94 12.5t-85 38.5
t-62 65t-24 92q0 49 25.5 90.5t65 71.5t86.5 47t91 17t80.5 -12t62 -33t39.5 -48t14 -57q0 -41 -19 -73t-49 -53.5t-67.5 -32.5t-74.5 -11q-13 0 -27 2t-26 5t-19.5 6t-7.5 6q0 5 5 5q3 0 7.5 -2t14 -4t25 -4t39.5 -2q31 0 64 11t59 30.5t43 47.5t17 63q0 34 -13.5 57.5
t-36 37.5t-51 20.5t-57.5 6.5q-47 0 -94.5 -16t-85 -45t-61 -71t-23.5 -93q0 -45 24.5 -76t61 -50.5t77.5 -28t74 -8.5q80 0 143 19.5t113.5 54t91 81t75.5 101t66 114t64 120.5z" />
    <glyph glyph-name="aacute" unicode="&#xe1;" 
d="M351 492q11 0 17 -7.5t6 -14.5q0 -18 -18 -42.5t-41 -46.5t-44.5 -37.5t-29.5 -15.5q-2 1 -4 1q-1 0 -1 3t6 7.5t14 11.5t17.5 16t17.5 20q13 18 18.5 37t9.5 34t10.5 24.5t21.5 9.5zM56 44q0 -14 5.5 -23t17.5 -9q22 0 53 23.5t60 57.5t49.5 71.5t20.5 65.5
q0 15 -7.5 25.5t-23.5 10.5q-30 0 -61.5 -24.5t-56.5 -59.5t-41 -73t-16 -65zM376 273q-7 -8 -20.5 -27.5t-29.5 -44t-32.5 -51.5t-30.5 -52t-22.5 -44t-8.5 -28q0 -14 17 -14q23 0 60.5 34.5t81.5 85.5q9 11 11 13.5t4 2.5q3 0 4.5 -2t1.5 -4q0 -1 -5.5 -7.5t-13.5 -15.5
t-17.5 -20t-18.5 -20q-35 -36 -63 -57.5t-48 -21.5t-32 14t-12 55q0 5 0.5 9.5t0.5 8.5q-11 -11 -26.5 -26t-32.5 -28.5t-34 -23t-31 -9.5q-19 0 -31.5 8t-19.5 20.5t-9.5 29t-2.5 33.5q0 12 1.5 23.5t3.5 23.5q-2 0 -3 -1.5t-3 -1.5q-4 0 -4 5q0 3 3 6t13 15q20 25 45 46
t51.5 37t54 25t53.5 9q23 0 33 -14.5t10 -34.5q0 -18 -3 -27l2 -2q13 21 20.5 35t12.5 21.5t9.5 11t12.5 3.5z" />
    <glyph glyph-name="acircumflex" unicode="&#xe2;" 
d="M307 492q6 -30 17 -58.5t22.5 -51t19.5 -37t8 -15.5q0 -2 -2 -2q-6 0 -18.5 14t-25.5 32t-23.5 35.5t-13.5 23.5q-17 -17 -37.5 -35.5t-39 -34t-33 -25.5t-17.5 -10q-4 0 -4 2q0 3 14 17t34.5 36t43.5 50t41 59h14zM56 44q0 -14 5.5 -23t17.5 -9q22 0 53 23.5t60 57.5
t49.5 71.5t20.5 65.5q0 15 -7.5 25.5t-23.5 10.5q-30 0 -61.5 -24.5t-56.5 -59.5t-41 -73t-16 -65zM376 273q-7 -8 -20.5 -27.5t-29.5 -44t-32.5 -51.5t-30.5 -52t-22.5 -44t-8.5 -28q0 -14 17 -14q23 0 60.5 34.5t81.5 85.5q9 11 11 13.5t4 2.5q3 0 4.5 -2t1.5 -4
q0 -1 -5.5 -7.5t-13.5 -15.5t-17.5 -20t-18.5 -20q-35 -36 -63 -57.5t-48 -21.5t-32 14t-12 55q0 5 0.5 9.5t0.5 8.5q-11 -11 -26.5 -26t-32.5 -28.5t-34 -23t-31 -9.5q-19 0 -31.5 8t-19.5 20.5t-9.5 29t-2.5 33.5q0 12 1.5 23.5t3.5 23.5q-2 0 -3 -1.5t-3 -1.5q-4 0 -4 5
q0 3 3 6t13 15q20 25 45 46t51.5 37t54 25t53.5 9q23 0 33 -14.5t10 -34.5q0 -18 -3 -27l2 -2q13 21 20.5 35t12.5 21.5t9.5 11t12.5 3.5z" />
    <glyph glyph-name="adieresis" unicode="&#xe4;" 
d="M359 442q29 0 29 -25q0 -20 -9 -31.5t-30 -11.5q-12 0 -18.5 5.5t-6.5 22.5t8 28.5t27 11.5zM215 442q29 0 29 -25q0 -20 -9 -31.5t-30 -11.5q-12 0 -18.5 5.5t-6.5 22.5t8 28.5t27 11.5zM56 44q0 -14 5.5 -23t17.5 -9q22 0 53 23.5t60 57.5t49.5 71.5t20.5 65.5
q0 15 -7.5 25.5t-23.5 10.5q-30 0 -61.5 -24.5t-56.5 -59.5t-41 -73t-16 -65zM376 273q-7 -8 -20.5 -27.5t-29.5 -44t-32.5 -51.5t-30.5 -52t-22.5 -44t-8.5 -28q0 -14 17 -14q23 0 60.5 34.5t81.5 85.5q9 11 11 13.5t4 2.5q3 0 4.5 -2t1.5 -4q0 -1 -5.5 -7.5t-13.5 -15.5
t-17.5 -20t-18.5 -20q-35 -36 -63 -57.5t-48 -21.5t-32 14t-12 55q0 5 0.5 9.5t0.5 8.5q-11 -11 -26.5 -26t-32.5 -28.5t-34 -23t-31 -9.5q-19 0 -31.5 8t-19.5 20.5t-9.5 29t-2.5 33.5q0 12 1.5 23.5t3.5 23.5q-2 0 -3 -1.5t-3 -1.5q-4 0 -4 5q0 3 3 6t13 15q20 25 45 46
t51.5 37t54 25t53.5 9q23 0 33 -14.5t10 -34.5q0 -18 -3 -27l2 -2q13 21 20.5 35t12.5 21.5t9.5 11t12.5 3.5z" />
    <glyph glyph-name="agrave" unicode="&#xe0;" 
d="M185 492q15 0 21.5 -9.5t10.5 -24.5t9.5 -34t18.5 -37q7 -11 17 -20t18 -16t14 -11.5t6 -7.5q0 -4 -5 -4q-8 0 -29.5 15.5t-44.5 37.5t-41 46.5t-18 42.5q0 7 6 14.5t17 7.5zM56 44q0 -14 5.5 -23t17.5 -9q22 0 53 23.5t60 57.5t49.5 71.5t20.5 65.5q0 15 -7.5 25.5
t-23.5 10.5q-30 0 -61.5 -24.5t-56.5 -59.5t-41 -73t-16 -65zM376 273q-7 -8 -20.5 -27.5t-29.5 -44t-32.5 -51.5t-30.5 -52t-22.5 -44t-8.5 -28q0 -14 17 -14q23 0 60.5 34.5t81.5 85.5q9 11 11 13.5t4 2.5q3 0 4.5 -2t1.5 -4q0 -1 -5.5 -7.5t-13.5 -15.5t-17.5 -20
t-18.5 -20q-35 -36 -63 -57.5t-48 -21.5t-32 14t-12 55q0 5 0.5 9.5t0.5 8.5q-11 -11 -26.5 -26t-32.5 -28.5t-34 -23t-31 -9.5q-19 0 -31.5 8t-19.5 20.5t-9.5 29t-2.5 33.5q0 12 1.5 23.5t3.5 23.5q-2 0 -3 -1.5t-3 -1.5q-4 0 -4 5q0 3 3 6t13 15q20 25 45 46t51.5 37
t54 25t53.5 9q23 0 33 -14.5t10 -34.5q0 -18 -3 -27l2 -2q13 21 20.5 35t12.5 21.5t9.5 11t12.5 3.5z" />
    <glyph glyph-name="aring" unicode="&#xe5;" 
d="M216 410q0 -27 19.5 -46.5t46.5 -19.5t46.5 19.5t19.5 46.5t-19.5 46.5t-46.5 19.5t-46.5 -19.5t-19.5 -46.5zM194 410q0 37 25.5 62.5t62.5 25.5t62.5 -25.5t25.5 -62.5t-25.5 -62.5t-62.5 -25.5t-62.5 25.5t-25.5 62.5zM56 44q0 -14 5.5 -23t17.5 -9q22 0 53 23.5
t60 57.5t49.5 71.5t20.5 65.5q0 15 -7.5 25.5t-23.5 10.5q-30 0 -61.5 -24.5t-56.5 -59.5t-41 -73t-16 -65zM376 273q-7 -8 -20.5 -27.5t-29.5 -44t-32.5 -51.5t-30.5 -52t-22.5 -44t-8.5 -28q0 -14 17 -14q23 0 60.5 34.5t81.5 85.5q9 11 11 13.5t4 2.5q3 0 4.5 -2t1.5 -4
q0 -1 -5.5 -7.5t-13.5 -15.5t-17.5 -20t-18.5 -20q-35 -36 -63 -57.5t-48 -21.5t-32 14t-12 55q0 5 0.5 9.5t0.5 8.5q-11 -11 -26.5 -26t-32.5 -28.5t-34 -23t-31 -9.5q-19 0 -31.5 8t-19.5 20.5t-9.5 29t-2.5 33.5q0 12 1.5 23.5t3.5 23.5q-2 0 -3 -1.5t-3 -1.5q-4 0 -4 5
q0 3 3 6t13 15q20 25 45 46t51.5 37t54 25t53.5 9q23 0 33 -14.5t10 -34.5q0 -18 -3 -27l2 -2q13 21 20.5 35t12.5 21.5t9.5 11t12.5 3.5z" />
    <glyph glyph-name="atilde" unicode="&#xe3;" 
d="M217 449q17 0 35 -5.5t37 -12.5t37 -12.5t33 -5.5q18 0 27.5 7t15 15.5t8 15.5t6.5 7t4 -7q0 -3 -3.5 -15t-12 -25t-23.5 -23.5t-39 -10.5q-17 0 -34 5t-34 12t-33.5 12t-32.5 5q-15 0 -24 -6.5t-15 -15t-9.5 -15t-7.5 -6.5t-4 7q0 3 4.5 15t13 25t21.5 23.5t30 10.5z
M56 44q0 -14 5.5 -23t17.5 -9q22 0 53 23.5t60 57.5t49.5 71.5t20.5 65.5q0 15 -7.5 25.5t-23.5 10.5q-30 0 -61.5 -24.5t-56.5 -59.5t-41 -73t-16 -65zM376 273q-7 -8 -20.5 -27.5t-29.5 -44t-32.5 -51.5t-30.5 -52t-22.5 -44t-8.5 -28q0 -14 17 -14q23 0 60.5 34.5
t81.5 85.5q9 11 11 13.5t4 2.5q3 0 4.5 -2t1.5 -4q0 -1 -5.5 -7.5t-13.5 -15.5t-17.5 -20t-18.5 -20q-35 -36 -63 -57.5t-48 -21.5t-32 14t-12 55q0 5 0.5 9.5t0.5 8.5q-11 -11 -26.5 -26t-32.5 -28.5t-34 -23t-31 -9.5q-19 0 -31.5 8t-19.5 20.5t-9.5 29t-2.5 33.5
q0 12 1.5 23.5t3.5 23.5q-2 0 -3 -1.5t-3 -1.5q-4 0 -4 5q0 3 3 6t13 15q20 25 45 46t51.5 37t54 25t53.5 9q23 0 33 -14.5t10 -34.5q0 -18 -3 -27l2 -2q13 21 20.5 35t12.5 21.5t9.5 11t12.5 3.5z" />
    <glyph glyph-name="eacute" unicode="&#xe9;" horiz-adv-x="278" 
d="M312 492q11 0 17 -7.5t6 -14.5q0 -18 -18 -42.5t-41 -46.5t-44.5 -37.5t-29.5 -15.5q-2 1 -4 1q-1 0 -1 3t6 7.5t14 11.5t17.5 16t17.5 20q13 18 18.5 37t9.5 34t10.5 24.5t21.5 9.5zM221 266q-20 0 -44 -16.5t-46.5 -40.5t-39.5 -51t-22 -48q25 3 55 14.5t56 30t43.5 42
t17.5 50.5q0 19 -20 19zM271 230q0 -28 -24 -50.5t-57 -39t-68 -27.5t-57 -15q-2 -8 -3 -16.5t-1 -16.5q0 -29 9.5 -40.5t32.5 -12.5q20 -1 57 16.5t83 62.5q29 30 39.5 44t13.5 14q5 0 5 -6q0 -2 -6.5 -10t-16.5 -19.5t-22.5 -24.5t-23.5 -23q-38 -35 -69.5 -50t-66.5 -16
q-21 0 -35.5 9t-24.5 24t-14.5 34t-4.5 39q0 11 1.5 19t1.5 10t-1 2v0l-3 -3q-1 0 -3 2t-2 4q0 1 4.5 7t11 13t12.5 13.5t9 9.5q42 42 87 68.5t86 26.5q23 0 36.5 -13.5t13.5 -34.5z" />
    <glyph glyph-name="ecircumflex" unicode="&#xea;" horiz-adv-x="278" 
d="M268 492q6 -30 17 -58.5t22.5 -51t19.5 -37t8 -15.5q0 -2 -2 -2q-6 0 -18.5 14t-25.5 32t-23.5 35.5t-13.5 23.5q-17 -17 -37.5 -35.5t-39 -34t-33 -25.5t-17.5 -10q-4 0 -4 2q0 3 14 17t34.5 36t43.5 50t41 59h14zM221 266q-20 0 -44 -16.5t-46.5 -40.5t-39.5 -51
t-22 -48q25 3 55 14.5t56 30t43.5 42t17.5 50.5q0 19 -20 19zM271 230q0 -28 -24 -50.5t-57 -39t-68 -27.5t-57 -15q-2 -8 -3 -16.5t-1 -16.5q0 -29 9.5 -40.5t32.5 -12.5q20 -1 57 16.5t83 62.5q29 30 39.5 44t13.5 14q5 0 5 -6q0 -2 -6.5 -10t-16.5 -19.5t-22.5 -24.5
t-23.5 -23q-38 -35 -69.5 -50t-66.5 -16q-21 0 -35.5 9t-24.5 24t-14.5 34t-4.5 39q0 11 1.5 19t1.5 10t-1 2v0l-3 -3q-1 0 -3 2t-2 4q0 1 4.5 7t11 13t12.5 13.5t9 9.5q42 42 87 68.5t86 26.5q23 0 36.5 -13.5t13.5 -34.5z" />
    <glyph glyph-name="edieresis" unicode="&#xeb;" horiz-adv-x="278" 
d="M320 442q29 0 29 -25q0 -20 -9 -31.5t-30 -11.5q-12 0 -18.5 5.5t-6.5 22.5t8 28.5t27 11.5zM176 442q29 0 29 -25q0 -20 -9 -31.5t-30 -11.5q-12 0 -18.5 5.5t-6.5 22.5t8 28.5t27 11.5zM221 266q-20 0 -44 -16.5t-46.5 -40.5t-39.5 -51t-22 -48q25 3 55 14.5t56 30
t43.5 42t17.5 50.5q0 19 -20 19zM271 230q0 -28 -24 -50.5t-57 -39t-68 -27.5t-57 -15q-2 -8 -3 -16.5t-1 -16.5q0 -29 9.5 -40.5t32.5 -12.5q20 -1 57 16.5t83 62.5q29 30 39.5 44t13.5 14q5 0 5 -6q0 -2 -6.5 -10t-16.5 -19.5t-22.5 -24.5t-23.5 -23q-38 -35 -69.5 -50
t-66.5 -16q-21 0 -35.5 9t-24.5 24t-14.5 34t-4.5 39q0 11 1.5 19t1.5 10t-1 2v0l-3 -3q-1 0 -3 2t-2 4q0 1 4.5 7t11 13t12.5 13.5t9 9.5q42 42 87 68.5t86 26.5q23 0 36.5 -13.5t13.5 -34.5z" />
    <glyph glyph-name="egrave" unicode="&#xe8;" horiz-adv-x="278" 
d="M146 492q15 0 21.5 -9.5t10.5 -24.5t9.5 -34t18.5 -37q7 -11 17 -20t18 -16t14 -11.5t6 -7.5q0 -4 -5 -4q-8 0 -29.5 15.5t-44.5 37.5t-41 46.5t-18 42.5q0 7 6 14.5t17 7.5zM221 266q-20 0 -44 -16.5t-46.5 -40.5t-39.5 -51t-22 -48q25 3 55 14.5t56 30t43.5 42
t17.5 50.5q0 19 -20 19zM271 230q0 -28 -24 -50.5t-57 -39t-68 -27.5t-57 -15q-2 -8 -3 -16.5t-1 -16.5q0 -29 9.5 -40.5t32.5 -12.5q20 -1 57 16.5t83 62.5q29 30 39.5 44t13.5 14q5 0 5 -6q0 -2 -6.5 -10t-16.5 -19.5t-22.5 -24.5t-23.5 -23q-38 -35 -69.5 -50t-66.5 -16
q-21 0 -35.5 9t-24.5 24t-14.5 34t-4.5 39q0 11 1.5 19t1.5 10t-1 2v0l-3 -3q-1 0 -3 2t-2 4q0 1 4.5 7t11 13t12.5 13.5t9 9.5q42 42 87 68.5t86 26.5q23 0 36.5 -13.5t13.5 -34.5z" />
    <glyph glyph-name="iacute" unicode="&#xed;" horiz-adv-x="222" 
d="M284 492q11 0 17 -7.5t6 -14.5q0 -18 -18 -42.5t-41 -46.5t-44.5 -37.5t-29.5 -15.5q-2 1 -4 1q-1 0 -1 3t6 7.5t14 11.5t17.5 16t17.5 20q13 18 18.5 37t9.5 34t10.5 24.5t21.5 9.5zM190 278q-45 -74 -72.5 -118.5t-42 -70t-19.5 -37t-5 -19.5q0 -13 6 -17t13 -4
q12 0 26 7t29 17.5t29.5 23.5t26.5 26q10 10 20.5 21.5t19 21.5t14.5 16.5t7 6.5q6 0 6 -5q0 -2 -14.5 -19.5t-46.5 -50.5q-74 -77 -118 -77q-23 0 -35.5 14.5t-12.5 37.5q0 25 10 50t24.5 49t31 46t29.5 41l-2 2q-9 -9 -29 -30t-56 -62q-8 -9 -10 -11t-4 -2q-4 0 -4 6
q0 2 5 7.5t25 28.5q10 11 22.5 24.5t24.5 27t22.5 25.5t16.5 20z" />
    <glyph glyph-name="icircumflex" unicode="&#xee;" horiz-adv-x="222" 
d="M240 492q6 -30 17 -58.5t22.5 -51t19.5 -37t8 -15.5q0 -2 -2 -2q-6 0 -18.5 14t-25.5 32t-23.5 35.5t-13.5 23.5q-17 -17 -37.5 -35.5t-39 -34t-33 -25.5t-17.5 -10q-4 0 -4 2q0 3 14 17t34.5 36t43.5 50t41 59h14zM190 278q-45 -74 -72.5 -118.5t-42 -70t-19.5 -37
t-5 -19.5q0 -13 6 -17t13 -4q12 0 26 7t29 17.5t29.5 23.5t26.5 26q10 10 20.5 21.5t19 21.5t14.5 16.5t7 6.5q6 0 6 -5q0 -2 -14.5 -19.5t-46.5 -50.5q-74 -77 -118 -77q-23 0 -35.5 14.5t-12.5 37.5q0 25 10 50t24.5 49t31 46t29.5 41l-2 2q-9 -9 -29 -30t-56 -62
q-8 -9 -10 -11t-4 -2q-4 0 -4 6q0 2 5 7.5t25 28.5q10 11 22.5 24.5t24.5 27t22.5 25.5t16.5 20z" />
    <glyph glyph-name="idieresis" unicode="&#xef;" horiz-adv-x="222" 
d="M148 442q29 0 29 -25q0 -20 -9 -31.5t-30 -11.5q-12 0 -18.5 5.5t-6.5 22.5t8 28.5t27 11.5zM292 442q29 0 29 -25q0 -20 -9 -31.5t-30 -11.5q-12 0 -18.5 5.5t-6.5 22.5t8 28.5t27 11.5zM190 278q-45 -74 -72.5 -118.5t-42 -70t-19.5 -37t-5 -19.5q0 -13 6 -17t13 -4
q12 0 26 7t29 17.5t29.5 23.5t26.5 26q10 10 20.5 21.5t19 21.5t14.5 16.5t7 6.5q6 0 6 -5q0 -2 -14.5 -19.5t-46.5 -50.5q-74 -77 -118 -77q-23 0 -35.5 14.5t-12.5 37.5q0 25 10 50t24.5 49t31 46t29.5 41l-2 2q-9 -9 -29 -30t-56 -62q-8 -9 -10 -11t-4 -2q-4 0 -4 6
q0 2 5 7.5t25 28.5q10 11 22.5 24.5t24.5 27t22.5 25.5t16.5 20z" />
    <glyph glyph-name="igrave" unicode="&#xec;" horiz-adv-x="222" 
d="M118 492q15 0 21.5 -9.5t10.5 -24.5t9.5 -34t18.5 -37q7 -11 17 -20t18 -16t14 -11.5t6 -7.5q0 -4 -5 -4q-8 0 -29.5 15.5t-44.5 37.5t-41 46.5t-18 42.5q0 7 6 14.5t17 7.5zM190 278q-45 -74 -72.5 -118.5t-42 -70t-19.5 -37t-5 -19.5q0 -13 6 -17t13 -4q12 0 26 7
t29 17.5t29.5 23.5t26.5 26q10 10 20.5 21.5t19 21.5t14.5 16.5t7 6.5q6 0 6 -5q0 -2 -14.5 -19.5t-46.5 -50.5q-74 -77 -118 -77q-23 0 -35.5 14.5t-12.5 37.5q0 25 10 50t24.5 49t31 46t29.5 41l-2 2q-9 -9 -29 -30t-56 -62q-8 -9 -10 -11t-4 -2q-4 0 -4 6q0 2 5 7.5
t25 28.5q10 11 22.5 24.5t24.5 27t22.5 25.5t16.5 20z" />
    <glyph glyph-name="ntilde" unicode="&#xf1;" horiz-adv-x="444" 
d="M261 449q17 0 35 -5.5t37 -12.5t37 -12.5t33 -5.5q18 0 27.5 7t15 15.5t8 15.5t6.5 7t4 -7q0 -3 -3.5 -15t-12 -25t-23.5 -23.5t-39 -10.5q-17 0 -34 5t-34 12t-33.5 12t-32.5 5q-15 0 -24 -6.5t-15 -15t-9.5 -15t-7.5 -6.5t-4 7q0 3 4.5 15t13 25t21.5 23.5t30 10.5z
M26 0q5 9 18.5 29t31.5 45.5t37.5 53.5t35.5 52.5t26.5 43.5t10.5 27t-4.5 11.5t-10.5 3.5q-21 0 -44.5 -17.5t-61.5 -59.5q-18 -19 -27.5 -30t-14 -16.5t-6 -7t-2.5 -1.5q-5 0 -5 6q0 1 4 6.5t10 12t12.5 14t11.5 13.5q36 42 67 67t60 25q20 0 28.5 -13t8.5 -36
q0 -15 -7 -32.5t-16.5 -34.5t-20.5 -32.5t-19 -26.5l2 -2q15 14 41.5 43.5t56.5 59t59 52t48 22.5t27.5 -15.5t8.5 -31.5q0 -26 -12 -47.5t-25 -38.5q-67 -91 -67 -113q0 -8 4 -14t12 -6q17 0 46 23.5t60 56.5q19 20 29 31.5t14.5 17t6 7t3.5 1.5q4 0 4 -5q0 -2 -8 -12
t-18.5 -22t-21 -23t-15.5 -16q-33 -33 -59 -52t-43 -19q-23 0 -33.5 18.5t-10.5 45.5q0 30 17 59.5t37 55t37 45.5t17 30q0 12 -14 12q-12 0 -34 -16t-48 -41t-54 -55.5t-53 -59.5t-44 -52.5t-26 -35.5z" />
    <glyph glyph-name="oacute" unicode="&#xf3;" horiz-adv-x="333" 
d="M323 492q11 0 17 -7.5t6 -14.5q0 -18 -18 -42.5t-41 -46.5t-44.5 -37.5t-29.5 -15.5q-2 1 -4 1q-1 0 -1 3t6 7.5t14 11.5t17.5 16t17.5 20q13 18 18.5 37t9.5 34t10.5 24.5t21.5 9.5zM267 221q0 18 -8 31.5t-27 13.5q-26 0 -55 -22t-53 -55t-39.5 -71t-15.5 -69
q0 -21 7.5 -29t18.5 -8q30 0 60.5 20t55 50.5t40.5 67.5t16 71zM289 209q0 -15 -5 -32.5t-13.5 -34t-19 -32t-21.5 -26.5q4 -2 11 -2q26 0 50 13.5t43 35.5q10 11 12.5 14t4.5 3q5 0 5 -5q0 -2 -4 -7t-21 -23q-19 -20 -44.5 -31.5t-54.5 -11.5q-10 0 -13 1
q-23 -26 -54.5 -48.5t-73.5 -22.5q-30 0 -46 24t-16 65q0 27 2.5 37t2.5 15q0 6 -3 6q-6 0 -11 -8t-7 -8q-6 0 -6 5q0 2 5.5 9t14.5 16l19 19l19 19q44 42 87 60.5t77 18.5q29 0 44.5 -19.5t15.5 -49.5z" />
    <glyph glyph-name="ocircumflex" unicode="&#xf4;" horiz-adv-x="333" 
d="M279 492q6 -30 17 -58.5t22.5 -51t19.5 -37t8 -15.5q0 -2 -2 -2q-6 0 -18.5 14t-25.5 32t-23.5 35.5t-13.5 23.5q-17 -17 -37.5 -35.5t-39 -34t-33 -25.5t-17.5 -10q-4 0 -4 2q0 3 14 17t34.5 36t43.5 50t41 59h14zM267 221q0 18 -8 31.5t-27 13.5q-26 0 -55 -22t-53 -55
t-39.5 -71t-15.5 -69q0 -21 7.5 -29t18.5 -8q30 0 60.5 20t55 50.5t40.5 67.5t16 71zM289 209q0 -15 -5 -32.5t-13.5 -34t-19 -32t-21.5 -26.5q4 -2 11 -2q26 0 50 13.5t43 35.5q10 11 12.5 14t4.5 3q5 0 5 -5q0 -2 -4 -7t-21 -23q-19 -20 -44.5 -31.5t-54.5 -11.5
q-10 0 -13 1q-23 -26 -54.5 -48.5t-73.5 -22.5q-30 0 -46 24t-16 65q0 27 2.5 37t2.5 15q0 6 -3 6q-6 0 -11 -8t-7 -8q-6 0 -6 5q0 2 5.5 9t14.5 16l19 19l19 19q44 42 87 60.5t77 18.5q29 0 44.5 -19.5t15.5 -49.5z" />
    <glyph glyph-name="odieresis" unicode="&#xf6;" horiz-adv-x="333" 
d="M331 442q29 0 29 -25q0 -20 -9 -31.5t-30 -11.5q-12 0 -18.5 5.5t-6.5 22.5t8 28.5t27 11.5zM187 442q29 0 29 -25q0 -20 -9 -31.5t-30 -11.5q-12 0 -18.5 5.5t-6.5 22.5t8 28.5t27 11.5zM267 221q0 18 -8 31.5t-27 13.5q-26 0 -55 -22t-53 -55t-39.5 -71t-15.5 -69
q0 -21 7.5 -29t18.5 -8q30 0 60.5 20t55 50.5t40.5 67.5t16 71zM289 209q0 -15 -5 -32.5t-13.5 -34t-19 -32t-21.5 -26.5q4 -2 11 -2q26 0 50 13.5t43 35.5q10 11 12.5 14t4.5 3q5 0 5 -5q0 -2 -4 -7t-21 -23q-19 -20 -44.5 -31.5t-54.5 -11.5q-10 0 -13 1
q-23 -26 -54.5 -48.5t-73.5 -22.5q-30 0 -46 24t-16 65q0 27 2.5 37t2.5 15q0 6 -3 6q-6 0 -11 -8t-7 -8q-6 0 -6 5q0 2 5.5 9t14.5 16l19 19l19 19q44 42 87 60.5t77 18.5q29 0 44.5 -19.5t15.5 -49.5z" />
    <glyph glyph-name="ograve" unicode="&#xf2;" horiz-adv-x="333" 
d="M157 492q15 0 21.5 -9.5t10.5 -24.5t9.5 -34t18.5 -37q7 -11 17 -20t18 -16t14 -11.5t6 -7.5q0 -4 -5 -4q-8 0 -29.5 15.5t-44.5 37.5t-41 46.5t-18 42.5q0 7 6 14.5t17 7.5zM267 221q0 18 -8 31.5t-27 13.5q-26 0 -55 -22t-53 -55t-39.5 -71t-15.5 -69q0 -21 7.5 -29
t18.5 -8q30 0 60.5 20t55 50.5t40.5 67.5t16 71zM289 209q0 -15 -5 -32.5t-13.5 -34t-19 -32t-21.5 -26.5q4 -2 11 -2q26 0 50 13.5t43 35.5q10 11 12.5 14t4.5 3q5 0 5 -5q0 -2 -4 -7t-21 -23q-19 -20 -44.5 -31.5t-54.5 -11.5q-10 0 -13 1q-23 -26 -54.5 -48.5
t-73.5 -22.5q-30 0 -46 24t-16 65q0 27 2.5 37t2.5 15q0 6 -3 6q-6 0 -11 -8t-7 -8q-6 0 -6 5q0 2 5.5 9t14.5 16l19 19l19 19q44 42 87 60.5t77 18.5q29 0 44.5 -19.5t15.5 -49.5z" />
    <glyph glyph-name="otilde" unicode="&#xf5;" horiz-adv-x="333" 
d="M189 449q17 0 35 -5.5t37 -12.5t37 -12.5t33 -5.5q18 0 27.5 7t15 15.5t8 15.5t6.5 7t4 -7q0 -3 -3.5 -15t-12 -25t-23.5 -23.5t-39 -10.5q-17 0 -34 5t-34 12t-33.5 12t-32.5 5q-15 0 -24 -6.5t-15 -15t-9.5 -15t-7.5 -6.5t-4 7q0 3 4.5 15t13 25t21.5 23.5t30 10.5z
M267 221q0 18 -8 31.5t-27 13.5q-26 0 -55 -22t-53 -55t-39.5 -71t-15.5 -69q0 -21 7.5 -29t18.5 -8q30 0 60.5 20t55 50.5t40.5 67.5t16 71zM289 209q0 -15 -5 -32.5t-13.5 -34t-19 -32t-21.5 -26.5q4 -2 11 -2q26 0 50 13.5t43 35.5q10 11 12.5 14t4.5 3q5 0 5 -5
q0 -2 -4 -7t-21 -23q-19 -20 -44.5 -31.5t-54.5 -11.5q-10 0 -13 1q-23 -26 -54.5 -48.5t-73.5 -22.5q-30 0 -46 24t-16 65q0 27 2.5 37t2.5 15q0 6 -3 6q-6 0 -11 -8t-7 -8q-6 0 -6 5q0 2 5.5 9t14.5 16l19 19l19 19q44 42 87 60.5t77 18.5q29 0 44.5 -19.5t15.5 -49.5z
" />
    <glyph glyph-name="uacute" unicode="&#xfa;" 
d="M368 492q11 0 17 -7.5t6 -14.5q0 -18 -18 -42.5t-41 -46.5t-44.5 -37.5t-29.5 -15.5q-2 1 -4 1q-1 0 -1 3t6 7.5t14 11.5t17.5 16t17.5 20q13 18 18.5 37t9.5 34t10.5 24.5t21.5 9.5zM199 278q-46 -74 -74.5 -116.5t-44 -67t-21 -37.5t-5.5 -28q0 -9 5.5 -13t11.5 -4
q19 0 51.5 26t68.5 65t70.5 85t57.5 86l64 4q-7 -12 -20.5 -32t-30.5 -44t-34.5 -50t-32 -49.5t-24 -43t-9.5 -30.5q0 -17 17 -17q11 0 35 16t59 53q22 23 34.5 36.5t18.5 20t7.5 8.5t3.5 2q5 0 5 -5q0 -1 -6 -8.5t-15 -17.5t-19.5 -21t-18.5 -20q-38 -39 -63.5 -57.5
t-45.5 -18.5q-13 0 -21.5 6.5t-13 16.5t-6 21t-1.5 20q0 19 7 38l-2 2q-11 -12 -27 -29.5t-35 -34t-38.5 -28.5t-36.5 -12q-24 0 -35 15.5t-11 38.5q0 28 10.5 53.5t26.5 48t34 44t32 42.5l-2 2q-22 -17 -45.5 -42t-46.5 -49q-10 -11 -12 -14t-5 -3q-4 0 -4 6q0 1 1.5 3.5
t6.5 8.5t15.5 16.5t27.5 28.5q15 16 34.5 35t45.5 40z" />
    <glyph glyph-name="ucircumflex" unicode="&#xfb;" 
d="M324 492q6 -30 17 -58.5t22.5 -51t19.5 -37t8 -15.5q0 -2 -2 -2q-6 0 -18.5 14t-25.5 32t-23.5 35.5t-13.5 23.5q-17 -17 -37.5 -35.5t-39 -34t-33 -25.5t-17.5 -10q-4 0 -4 2q0 3 14 17t34.5 36t43.5 50t41 59h14zM199 278q-46 -74 -74.5 -116.5t-44 -67t-21 -37.5
t-5.5 -28q0 -9 5.5 -13t11.5 -4q19 0 51.5 26t68.5 65t70.5 85t57.5 86l64 4q-7 -12 -20.5 -32t-30.5 -44t-34.5 -50t-32 -49.5t-24 -43t-9.5 -30.5q0 -17 17 -17q11 0 35 16t59 53q22 23 34.5 36.5t18.5 20t7.5 8.5t3.5 2q5 0 5 -5q0 -1 -6 -8.5t-15 -17.5t-19.5 -21
t-18.5 -20q-38 -39 -63.5 -57.5t-45.5 -18.5q-13 0 -21.5 6.5t-13 16.5t-6 21t-1.5 20q0 19 7 38l-2 2q-11 -12 -27 -29.5t-35 -34t-38.5 -28.5t-36.5 -12q-24 0 -35 15.5t-11 38.5q0 28 10.5 53.5t26.5 48t34 44t32 42.5l-2 2q-22 -17 -45.5 -42t-46.5 -49q-10 -11 -12 -14
t-5 -3q-4 0 -4 6q0 1 1.5 3.5t6.5 8.5t15.5 16.5t27.5 28.5q15 16 34.5 35t45.5 40z" />
    <glyph glyph-name="udieresis" unicode="&#xfc;" 
d="M232 442q29 0 29 -25q0 -20 -9 -31.5t-30 -11.5q-12 0 -18.5 5.5t-6.5 22.5t8 28.5t27 11.5zM376 442q29 0 29 -25q0 -20 -9 -31.5t-30 -11.5q-12 0 -18.5 5.5t-6.5 22.5t8 28.5t27 11.5zM199 278q-46 -74 -74.5 -116.5t-44 -67t-21 -37.5t-5.5 -28q0 -9 5.5 -13t11.5 -4
q19 0 51.5 26t68.5 65t70.5 85t57.5 86l64 4q-7 -12 -20.5 -32t-30.5 -44t-34.5 -50t-32 -49.5t-24 -43t-9.5 -30.5q0 -17 17 -17q11 0 35 16t59 53q22 23 34.5 36.5t18.5 20t7.5 8.5t3.5 2q5 0 5 -5q0 -1 -6 -8.5t-15 -17.5t-19.5 -21t-18.5 -20q-38 -39 -63.5 -57.5
t-45.5 -18.5q-13 0 -21.5 6.5t-13 16.5t-6 21t-1.5 20q0 19 7 38l-2 2q-11 -12 -27 -29.5t-35 -34t-38.5 -28.5t-36.5 -12q-24 0 -35 15.5t-11 38.5q0 28 10.5 53.5t26.5 48t34 44t32 42.5l-2 2q-22 -17 -45.5 -42t-46.5 -49q-10 -11 -12 -14t-5 -3q-4 0 -4 6q0 1 1.5 3.5
t6.5 8.5t15.5 16.5t27.5 28.5q15 16 34.5 35t45.5 40z" />
    <glyph glyph-name="ugrave" unicode="&#xf9;" 
d="M202 492q15 0 21.5 -9.5t10.5 -24.5t9.5 -34t18.5 -37q7 -11 17 -20t18 -16t14 -11.5t6 -7.5q0 -4 -5 -4q-8 0 -29.5 15.5t-44.5 37.5t-41 46.5t-18 42.5q0 7 6 14.5t17 7.5zM199 278q-46 -74 -74.5 -116.5t-44 -67t-21 -37.5t-5.5 -28q0 -9 5.5 -13t11.5 -4
q19 0 51.5 26t68.5 65t70.5 85t57.5 86l64 4q-7 -12 -20.5 -32t-30.5 -44t-34.5 -50t-32 -49.5t-24 -43t-9.5 -30.5q0 -17 17 -17q11 0 35 16t59 53q22 23 34.5 36.5t18.5 20t7.5 8.5t3.5 2q5 0 5 -5q0 -1 -6 -8.5t-15 -17.5t-19.5 -21t-18.5 -20q-38 -39 -63.5 -57.5
t-45.5 -18.5q-13 0 -21.5 6.5t-13 16.5t-6 21t-1.5 20q0 19 7 38l-2 2q-11 -12 -27 -29.5t-35 -34t-38.5 -28.5t-36.5 -12q-24 0 -35 15.5t-11 38.5q0 28 10.5 53.5t26.5 48t34 44t32 42.5l-2 2q-22 -17 -45.5 -42t-46.5 -49q-10 -11 -12 -14t-5 -3q-4 0 -4 6q0 1 1.5 3.5
t6.5 8.5t15.5 16.5t27.5 28.5q15 16 34.5 35t45.5 40z" />
    <glyph glyph-name="ydieresis" unicode="&#xff;" horiz-adv-x="444" 
d="M386 442q29 0 29 -25q0 -20 -9 -31.5t-30 -11.5q-12 0 -18.5 5.5t-6.5 22.5t8 28.5t27 11.5zM242 442q29 0 29 -25q0 -20 -9 -31.5t-30 -11.5q-12 0 -18.5 5.5t-6.5 22.5t8 28.5t27 11.5zM221 -32q-68 -44 -115 -78t-76 -61.5t-41.5 -49.5t-12.5 -41q0 -20 8.5 -29
t21.5 -9q19 0 41.5 14t49.5 46t58 82.5t67 124.5zM451 278l-178 -289l2 -2q26 12 49.5 29t44.5 35.5t38.5 37.5t31.5 35q14 17 17 20.5t7 3.5t4 -5q0 -1 -4.5 -6.5t-11 -13.5t-14 -16.5t-13.5 -15.5q-21 -23 -41 -41t-39.5 -32.5t-39.5 -26.5t-42 -23q-78 -137 -146 -208.5
t-113 -71.5q-21 0 -35 13.5t-14 40.5t20.5 55t57 58t87.5 63t112 69l87 166l-2 2q-7 -9 -19.5 -24t-28.5 -32t-34.5 -34t-37 -31t-35 -23t-28.5 -9q-19 0 -31 18.5t-12 38.5q0 27 15 54.5t33 53t33 47.5t15 39q0 13 -16 13q-19 0 -41.5 -17t-51.5 -47q-21 -23 -33 -36
t-18 -20.5t-8 -9.5t-4 -2q-4 0 -4 5q0 1 1 3t6 8t15 17t27 31q43 48 69.5 64t43.5 16q23 0 33.5 -17.5t10.5 -37.5q0 -27 -15 -55.5t-33 -54.5t-33 -48t-15 -36q0 -15 14 -15q15 0 38 14.5t48 38t51.5 52.5t49.5 57.5t40.5 54t25.5 41.5z" />
    <glyph glyph-name="exclam" unicode="!" horiz-adv-x="333" 
d="M119 62q29 0 29 -25q0 -20 -9 -31.5t-30 -11.5q-12 0 -18.5 5.5t-6.5 22.5t8 28.5t27 11.5zM347 472l74 6l-266 -392h-18z" />
    <glyph glyph-name="quotedbl" unicode="&#x22;" horiz-adv-x="333" 
d="M346 280q-1 -11 -3 -18.5t-7 -7.5t-7 7.5t-3 18.5l-12 156q-1 8 -1 15v13q0 18 4.5 31t18.5 13t18.5 -13t4.5 -31v-13t-1 -15zM214 280q-1 -11 -3 -18.5t-7 -7.5t-7 7.5t-3 18.5l-12 156q-1 8 -1 15v13q0 18 4.5 31t18.5 13t18.5 -13t4.5 -31v-13t-1 -15z" />
    <glyph glyph-name="Lslash" unicode="&#x141;" horiz-adv-x="722" 
d="M34 56q0 -15 23.5 -32.5t68.5 -17.5q46 0 84 12.5t78 35.5q-47 14 -93.5 29t-95.5 15q-32 0 -48.5 -12.5t-16.5 -29.5zM841 686q-19 0 -47.5 -14.5t-61 -44.5t-66.5 -75.5t-62 -107.5q44 7 92.5 29.5t89 51.5t66.5 61.5t26 61.5q0 20 -8.5 29t-28.5 9zM532 312
q-20 -35 -44.5 -71.5t-51.5 -70t-55.5 -61t-58.5 -43.5q54 -16 106 -29t108 -13q42 0 75 14t62 42q21 21 33 33.5t18.5 19.5t8.5 9.5t4 2.5q4 0 4 -7q0 -2 -9 -12.5t-40 -42.5q-86 -89 -189 -89q-24 0 -51 5.5t-53.5 14t-51.5 18t-45 18.5q-38 -23 -85 -39.5t-89 -16.5
q-45 0 -75.5 17.5t-30.5 46.5q0 20 19 36t63 16q20 0 46.5 -3.5t54 -9t53.5 -12t46 -13.5q22 16 43 41.5t39.5 54.5t35.5 60t31 60l-187 -55l8 19l189 56q19 37 32.5 61.5t22.5 32.5l-2 2q-35 -6 -67 -8t-64 -2q-107 0 -157 41.5t-50 106.5q0 33 16 60.5t41.5 47.5t58 31
t64.5 11q49 0 88.5 -11t67 -24.5t42 -25t14.5 -13.5q0 -6 -5 -6q-3 0 -16.5 10.5t-38.5 23.5t-62.5 23.5t-89.5 10.5q-31 0 -60.5 -10t-52.5 -28t-37 -43t-14 -55q0 -26 15 -48t41.5 -38t63 -25t78.5 -9q35 0 73.5 3t76.5 10q34 53 73.5 100.5t80 83t78 56.5t66.5 21
q50 0 50 -50q0 -35 -29.5 -72t-74 -70t-97.5 -57.5t-99 -32.5q-8 -17 -20 -38t-27 -47l273 81l-8 -19z" />
    <glyph glyph-name="lslash" unicode="&#x142;" horiz-adv-x="222" 
d="M358 377l-135 -48q-50 -78 -82.5 -130.5t-52.5 -87.5t-28 -54.5t-8 -31.5q0 -5 4.5 -9t11.5 -4q23 0 50.5 19t65.5 57q34 34 43.5 47.5t13.5 13.5q5 0 5 -5q0 -1 -4 -6t-10 -12t-12.5 -14t-11.5 -13q-44 -47 -79 -73t-64 -26q-26 0 -34.5 15t-8.5 35q0 22 6 40.5t19 40
t32 50t45 71.5l-2 2q-13 -15 -27 -32t-39 -44q-14 -16 -22.5 -25.5t-13.5 -15t-7 -7t-4 -1.5q-4 0 -4 5q0 2 11 14t30 33t44 50.5t52 66.5l-2 2l-119 -43l4 19l135 48q12 17 24.5 36t25.5 39l120 196l66 7q-57 -91 -99.5 -157t-59.5 -92l3 -1v1l123 43z" />
    <glyph glyph-name="threequarters" unicode="&#xbe;" horiz-adv-x="583" 
d="M600 472l-471 -478h-30l471 478h30zM545 284l-43.5 -58t-45 -58.5t-44 -54t-40.5 -43.5l2 -2q4 0 10 1t14 1q24 0 41.5 -3t25.5 -1q37 52 57.5 80.5t30 42t12.5 16.5t5 3q4 0 4 -3q0 -1 -2.5 -5t-10 -18t-22.5 -41t-39 -74q14 0 23.5 4.5t18.5 9.5q8 4 9.5 5.5t2.5 1.5
q3 0 3 -3q0 -2 -4.5 -7t-13 -10t-20 -9t-25.5 -4l-27 -54q-10 0 -27.5 -0.5t-24.5 -1.5l42 55q-12 0 -19 0.5t-13 1.5t-12.5 2t-16.5 0q-20 0 -29 -6t-16 -6q-5 2 -5 8q0 4 9.5 15.5t28 37t45 67t60.5 106.5zM233 337q18 -2 33.5 -15t15.5 -35q0 -18 -11.5 -36t-30 -32
t-42 -22.5t-47.5 -8.5q-40 0 -54.5 16.5t-14.5 34.5q0 10 7 19.5t18 9.5t16 -5.5t5 -12.5t-3 -13t-14 -9q-3 -1 -6 -3t-3 -5q0 -20 41 -20q16 0 34.5 10t34.5 25.5t26 34t10 35.5q0 20 -25 20q-20 0 -32 -8.5t-16 -8.5q-2 0 -4 3t-2 6q0 2 2 3.5t8 4t16 8t26 14.5
q46 26 62.5 48t16.5 42q0 14 -7 18.5t-21 4.5q-17 0 -32.5 -5t-28 -14t-20 -20t-7.5 -23t14 -12q17 0 33.5 11.5t29.5 30.5q7 10 6.5 13.5t3.5 3.5q2 0 2 -5q1 -10 -4 -21.5t-14.5 -21.5t-22 -16.5t-27.5 -6.5q-14 0 -23.5 6t-9.5 20q0 10 8 23t22 23.5t32.5 18t39.5 7.5
t40.5 -11t19.5 -34q0 -21 -12 -35t-28.5 -23.5t-33.5 -16.5t-27 -13v-2z" />
    <glyph glyph-name="onequarter" unicode="&#xbc;" horiz-adv-x="583" 
d="M113 188q45 67 91.5 130.5t79.5 117.5l-1 2q-20 -17 -50 -45t-75 -60q-26 -19 -36 -25.5t-14 -6.5q-5 0 -5 7q0 2 3.5 4.5t14 9.5t28 20t46.5 36q30 24 49.5 41.5t31.5 29.5t19 17.5t13 5.5t6 -6q0 -4 -13.5 -32t-34.5 -68t-46 -86.5t-49 -87.5q-19 0 -32 -1t-26 -3z
M588 472l-471 -478h-30l471 478h30zM545 284l-43.5 -58t-45 -58.5t-44 -54t-40.5 -43.5l2 -2q4 0 10 1t14 1q24 0 41.5 -3t25.5 -1q37 52 57.5 80.5t30 42t12.5 16.5t5 3q4 0 4 -3q0 -1 -2.5 -5t-10 -18t-22.5 -41t-39 -74q14 0 23.5 4.5t18.5 9.5q8 4 9.5 5.5t2.5 1.5
q3 0 3 -3q0 -2 -4.5 -7t-13 -10t-20 -9t-25.5 -4l-27 -54q-10 0 -27.5 -0.5t-24.5 -1.5l42 55q-12 0 -19 0.5t-13 1.5t-12.5 2t-16.5 0q-20 0 -29 -6t-16 -6q-5 2 -5 8q0 4 9.5 15.5t28 37t45 67t60.5 106.5z" />
    <glyph glyph-name="onesuperior" unicode="&#xb9;" horiz-adv-x="233" 
d="M113 188q45 67 91.5 130.5t79.5 117.5l-1 2q-20 -17 -50 -45t-75 -60q-26 -19 -36 -25.5t-14 -6.5q-5 0 -5 7q0 2 3.5 4.5t14 9.5t28 20t46.5 36q30 24 49.5 41.5t31.5 29.5t19 17.5t13 5.5t6 -6q0 -4 -13.5 -32t-34.5 -68t-46 -86.5t-49 -87.5q-19 0 -32 -1t-26 -3z" />
    <glyph glyph-name="multiply" unicode="&#xd7;" horiz-adv-x="400" 
d="M74 256l22 22l117 -118l117 118l22 -22l-117 -117l117 -117l-22 -22l-117 118l-117 -118l-22 22l116 117z" />
    <glyph glyph-name="Thorn" unicode="&#xde;" horiz-adv-x="778" 
d="M200 292q0 -37 18.5 -57.5t49.5 -20.5q39 0 78.5 21.5t71 56t51.5 77.5t20 87q0 30 -7 51t-18 34q-53 -15 -100.5 -41.5t-84 -60.5t-58 -72t-21.5 -75zM822 397q0 50 -30 82.5t-69 49.5q-32 -49 -65 -110t-72 -129q-33 -59 -76.5 -112.5t-94 -94t-106 -65t-113.5 -24.5
q-23 0 -44.5 4.5t-38 14.5t-26 25.5t-9.5 37.5q0 17 9.5 29.5t27.5 12.5q17 0 29 -10.5t12 -27.5q0 -14 -5 -20.5t-5 -14.5q0 -16 14.5 -27.5t49.5 -11.5q44 0 82.5 17.5t72 46.5t62 66.5t52.5 77t44.5 78.5t38.5 72q23 44 54.5 89.5t72.5 89.5q-24 11 -51.5 14t-45.5 3
q-40 0 -66 -5t-47 -10q19 -21 27.5 -46t8.5 -51q0 -44 -20 -87.5t-53 -79t-76.5 -57.5t-89.5 -22q-36 0 -62 21.5t-26 66.5q0 46 26.5 88.5t67 77t87 58.5t87.5 35q-20 14 -41 19.5t-50 5.5q-45 0 -88.5 -20t-72.5 -50q-27 -29 -41.5 -50t-21 -35t-8.5 -21t-5 -7q-6 0 -6 6
q0 3 6.5 18.5t19.5 36.5t33 44.5t47.5 43.5t62.5 33t79 13q30 0 59 -10t41 -23q25 8 58 13.5t65 5.5q33 0 61.5 -4.5t46.5 -10.5q56 58 121 99q20 13 39 24.5t21 11.5q4 0 4 -5q0 -3 -13.5 -11.5t-31.5 -21.5q-37 -26 -61 -51.5t-45 -56.5q65 -24 103 -73t38 -112
q0 -38 -19 -71t-48.5 -57.5t-66 -38.5t-71.5 -14q-14 0 -28.5 5t-26 11t-19 12t-7.5 9q0 5 6 5q1 0 6.5 -4t13.5 -9t18.5 -9t23.5 -4q37 0 67.5 19t52 48t33 65t11.5 69z" />
    <glyph glyph-name="brokenbar" unicode="&#xa6;" horiz-adv-x="222" 
d="M148 675h30v-350h-30v350zM148 175h30v-350h-30v350z" />
    <glyph glyph-name="Eth" unicode="&#xd0;" horiz-adv-x="889" 
d="M327 440q0 -41 14.5 -60.5t38.5 -19.5q42 0 79 16t64.5 43t44 62t16.5 74q0 32 -11 65t-34 56q-47 -17 -86 -45t-67 -61t-43.5 -67.5t-15.5 -62.5zM810 316l-6 -16h-165q-2 -5 -4.5 -9t-5.5 -9q-22 -38 -53.5 -80.5t-69.5 -81t-82 -68.5t-90 -42v-2q17 1 36.5 -0.5
t49.5 -1.5q91 0 175.5 27t150 78.5t105 125.5t39.5 169q0 51 -16 102.5t-53 89.5q-27 -31 -50 -65t-43.5 -70t-39.5 -73t-40 -74h162zM432 300l6 16h143q31 55 59.5 100t56 81t54.5 64.5t55 51.5q-17 18 -41.5 31.5t-50 23t-49.5 14t-41 4.5q-24 0 -38.5 -1t-34.5 -6
q23 -22 34 -56t11 -63q0 -42 -17 -80.5t-46.5 -67.5t-69 -46.5t-84.5 -17.5q-54 0 -78 27.5t-24 66.5q0 44 23 83.5t59 71t80.5 54.5t87.5 34q-18 14 -42.5 19.5t-49.5 5.5q-64 0 -113.5 -32t-81.5 -78q-23 -34 -35 -65.5t-18 -56t-9 -39t-8 -14.5q-4 0 -4 6q1 3 3.5 18
t8 37.5t15.5 49.5t26 52q43 67 99.5 100.5t117.5 33.5q28 0 55.5 -8t48.5 -25q20 5 40.5 7t41.5 2q18 0 42.5 -4.5t51.5 -14.5t53 -24.5t46 -33.5q19 15 40.5 29t40 24.5t31.5 17t14 6.5q5 0 5 -9q0 -2 -10.5 -7t-27 -15t-37.5 -24.5t-42 -36.5q37 -40 55 -90.5t18 -104.5
q0 -105 -42.5 -183t-113 -130t-161 -78t-185.5 -26q-20 0 -40.5 3t-40.5 3q-26 0 -51.5 -3t-51.5 -3q-112 0 -112 33q0 17 42 17q26 0 48.5 -4t43.5 -8.5t41.5 -8t42.5 -3.5q36 0 69.5 26t65 66.5t60.5 90t55 97.5h-140z" />
    <glyph glyph-name="onehalf" unicode="&#xbd;" horiz-adv-x="583" 
d="M113 188q45 67 91.5 130.5t79.5 117.5l-1 2q-20 -17 -50 -45t-75 -60q-26 -19 -36 -25.5t-14 -6.5q-5 0 -5 7q0 2 3.5 4.5t14 9.5t28 20t46.5 36q30 24 49.5 41.5t31.5 29.5t19 17.5t13 5.5t6 -6q0 -4 -13.5 -32t-34.5 -68t-46 -86.5t-49 -87.5q-19 0 -32 -1t-26 -3z
M572 472l-471 -478h-30l471 478h30zM449 -4q-20 0 -28 10t-10 24q-1 8 -3.5 14t-10.5 6q-10 0 -27 -10.5t-30 -24.5q-11 -14 -14 -17.5t-8 -3.5q-4 0 -4 5q0 2 2.5 8t7 14.5t11.5 17.5t15 16q11 10 24 19t29.5 19t36.5 22.5t46 29.5q29 19 46 47.5t17 50.5q0 17 -10 23
t-29 6t-37 -7t-31.5 -18t-21.5 -25t-8 -27q0 -11 6.5 -18t17.5 -7t22 6.5t20.5 16t16.5 20.5t10 19q5 13 7 17t4 4q3 0 3 -4q0 -13 -6 -29t-17 -29.5t-26 -23t-33 -9.5q-15 0 -26 8.5t-11 26.5q0 16 9 32.5t24.5 29.5t36 21t42.5 8q33 0 52 -14.5t19 -40.5q0 -32 -16.5 -53
t-41 -36t-52.5 -26.5t-52 -24.5q-28 -15 -42.5 -25.5t-25.5 -20.5l2 -2q9 5 23.5 15t32.5 10q13 0 26.5 -8.5t13.5 -28.5q0 -9 3 -13t12 -4q6 0 14 5t17 13t18 17t16 18q8 9 9 9h3q3 0 3 -3v-2t-2 -4t-7 -9.5t-15 -16.5q-13 -14 -33 -28.5t-40 -14.5z" />
    <glyph glyph-name="minus" unicode="&#x2212;" horiz-adv-x="400" 
d="M74 124v30h278v-30h-278z" />
    <glyph glyph-name="eth" unicode="&#xf0;" horiz-adv-x="333" 
d="M69 49q0 -21 7.5 -29t18.5 -8q30 0 60.5 20t55 50.5t40.5 67.5t16 71q0 18 -8 31.5t-27 13.5q-26 0 -55 -22t-53 -55t-39.5 -71t-15.5 -69zM410 511q1 0 2 0.5t3 0.5q4 0 4 -5q0 -7 -3 -8l-139 -52q8 -29 12.5 -62t6.5 -71q1 -31 -2.5 -64t-11.5 -63.5t-21 -57.5t-31 -45
q4 -2 11 -2q26 0 50 13.5t43 35.5q10 11 12.5 14t4.5 3q5 0 5 -5q0 -2 -4 -7t-21 -23q-19 -20 -44.5 -31.5t-54.5 -11.5q-10 0 -13 1q-23 -26 -54.5 -48.5t-73.5 -22.5q-30 0 -46 24t-16 65q0 27 2.5 37t2.5 15q0 6 -3 6q-6 0 -11 -8t-7 -8q-6 0 -6 5q0 2 5.5 9t14.5 16
l19 19l19 19q44 42 87 60.5t77 18.5q14 0 26.5 -5.5t19.5 -19.5h2q1 13 2 24.5t1 32.5q0 36 -4 69.5t-12 62.5l-129 -49q-1 0 -2 -0.5t-3 -0.5q-4 0 -4 5q0 6 3 8l132 50q-11 42 -26.5 75.5t-35.5 59.5q-1 2 -2.5 3.5t-1.5 3.5q0 5 7 5q2 0 4 -2.5t4 -4.5q17 -20 34.5 -54.5
t29.5 -80.5z" />
    <glyph glyph-name="thorn" unicode="&#xfe;" 
d="M386 602l-304 -509l2 -2q14 16 40.5 47.5t57 62.5t62 54t55.5 23q20 0 28.5 -15.5t8.5 -36.5q0 -24 -16.5 -50.5t-37 -53.5t-37 -52t-16.5 -44q0 -14 16 -14q8 0 18.5 3.5t24.5 13t32 26.5t41 43q15 17 23.5 27t13 15.5t6 7t3.5 1.5q5 0 5 -5q0 -2 -1 -3.5t-4 -5t-9 -10
t-17 -19.5q-51 -61 -84 -83.5t-55 -22.5q-23 0 -33 17.5t-10 46.5q0 30 16.5 57.5t37 51.5t37 44.5t16.5 35.5q0 13 -13 13q-14 0 -47 -23t-78 -70t-98 -118t-108 -167l-83 -146l-67 -4l343 557l-2 2q-20 -23 -43 -51.5t-44 -53.5t-35.5 -42t-15.5 -17q-6 0 -6 5q0 2 1.5 4
t7 8.5t17.5 20t33 39.5q24 29 41.5 50.5t33 42.5t32.5 45t38.5 57.5t50.5 79.5t70 111z" />
    <glyph glyph-name="twosuperior" unicode="&#xb2;" horiz-adv-x="233" 
d="M181 184q-20 0 -28 10t-10 24q-1 8 -3.5 14t-10.5 6q-10 0 -27 -10.5t-30 -24.5q-11 -14 -14 -17.5t-8 -3.5q-4 0 -4 5q0 2 2.5 8t7 14.5t11.5 17.5t15 16q11 10 24 19t29.5 19t36.5 22.5t46 29.5q29 19 46 47.5t17 50.5q0 17 -10 23t-29 6t-37 -7t-31.5 -18t-21.5 -25
t-8 -27q0 -11 6.5 -18t17.5 -7t22 6.5t20.5 16t16.5 20.5t10 19q5 13 7 17t4 4q3 0 3 -4q0 -13 -6 -29t-17 -29.5t-26 -23t-33 -9.5q-15 0 -26 8.5t-11 26.5q0 16 9 32.5t24.5 29.5t36 21t42.5 8q33 0 52 -14.5t19 -40.5q0 -32 -16.5 -53t-41 -36t-52.5 -26.5t-52 -24.5
q-28 -15 -42.5 -25.5t-25.5 -20.5l2 -2q9 5 23.5 15t32.5 10q13 0 26.5 -8.5t13.5 -28.5q0 -9 3 -13t12 -4q6 0 14 5t17 13t18 17t16 18q8 9 9 9h3q3 0 3 -3v-2t-2 -4t-7 -9.5t-15 -16.5q-13 -14 -33 -28.5t-40 -14.5z" />
    <glyph glyph-name="threesuperior" unicode="&#xb3;" horiz-adv-x="233" 
d="M221 337q18 -2 33.5 -15t15.5 -35q0 -18 -11.5 -36t-30 -32t-42 -22.5t-47.5 -8.5q-40 0 -54.5 16.5t-14.5 34.5q0 10 7 19.5t18 9.5t16 -5.5t5 -12.5t-3 -13t-14 -9q-3 -1 -6 -3t-3 -5q0 -20 41 -20q16 0 34.5 10t34.5 25.5t26 34t10 35.5q0 20 -25 20q-20 0 -32 -8.5
t-16 -8.5q-2 0 -4 3t-2 6q0 2 2 3.5t8 4t16 8t26 14.5q46 26 62.5 48t16.5 42q0 14 -7 18.5t-21 4.5q-17 0 -32.5 -5t-28 -14t-20 -20t-7.5 -23t14 -12q17 0 33.5 11.5t29.5 30.5q7 10 6.5 13.5t3.5 3.5q2 0 2 -5q1 -10 -4 -21.5t-14.5 -21.5t-22 -16.5t-27.5 -6.5
q-14 0 -23.5 6t-9.5 20q0 10 8 23t22 23.5t32.5 18t39.5 7.5t40.5 -11t19.5 -34q0 -21 -12 -35t-28.5 -23.5t-33.5 -16.5t-27 -13v-2z" />
    <glyph glyph-name="Scaron" unicode="&#x160;" horiz-adv-x="778" 
d="M867 747q-6 30 -17 58.5t-22.5 51t-19.5 36.5t-8 16t2 2q6 0 18.5 -14t25.5 -32t23.5 -35.5t13.5 -23.5q16 17 37 35.5t39.5 34t33 25.5t17.5 10q4 0 4 -2q0 -3 -14 -17.5t-34.5 -36t-43.5 -49.5t-41 -59h-14zM1046 650q0 16 -9.5 26t-27.5 10t-38.5 -9.5t-40 -24
t-36 -31.5t-26.5 -31q3 -5 9 -14.5t12 -19.5t10.5 -18.5t4.5 -9.5q0 -4 -4 -4q-2 0 -12 19t-26 39q-31 -38 -52 -80.5t-41 -84.5q44 6 92.5 28.5t89.5 55t68 71.5t27 78zM426 567q0 -37 22.5 -67t57 -51t75 -32t76.5 -11q14 0 26.5 0.5t21.5 2.5q27 53 61.5 102.5t77.5 94.5
q-21 26 -47 46.5t-55 34.5t-60 21.5t-61 7.5q-40 0 -75.5 -10t-62 -29t-42 -46.5t-15.5 -63.5zM30 191q0 53 24 95.5t62.5 72t87 45.5t96.5 16q34 0 68.5 -8.5t62.5 -26.5t45.5 -46.5t17.5 -68.5q0 -39 -18 -69.5t-46.5 -52t-65 -33t-72.5 -11.5q-29 0 -54 5t-43 11.5
t-28.5 12.5t-10.5 8q0 5 5 5q1 0 9.5 -4.5t24 -10.5t39 -10.5t56.5 -4.5q34 0 68.5 9.5t62 29t44.5 48.5t17 68q0 34 -15.5 56.5t-40 36.5t-54 20t-57.5 6q-46 0 -92.5 -16.5t-83.5 -46.5t-60 -71.5t-23 -90.5q0 -41 23 -71t57.5 -49.5t74 -29t73.5 -9.5q93 0 156 32
t108.5 84.5t78.5 121t66 140.5q-14 -1 -27.5 -2.5t-28.5 -1.5q-42 0 -84 11.5t-76 33.5t-55.5 54t-21.5 74q0 40 17.5 72.5t47 55t69 35t83.5 12.5q71 0 132 -32.5t103 -83.5q13 13 32 28.5t40 28t42.5 21t41.5 8.5q26 0 38 -12.5t12 -35.5q0 -41 -29 -82.5t-73 -77
t-96.5 -60.5t-98.5 -34q-25 -58 -51 -113t-60 -103t-79 -87t-108 -66q-39 -17 -85.5 -25t-88.5 -8q-45 0 -91 11.5t-83.5 35.5t-61 61t-23.5 89z" />
    <glyph glyph-name="Yacute" unicode="&#xdd;" horiz-adv-x="889" 
d="M1015 911q11 0 17 -7.5t6 -14.5q0 -18 -18 -42.5t-41 -46.5t-44.5 -37.5t-29.5 -15.5q-2 1 -4 1q-1 0 -1 3t6 7.5t14 11.5t17.5 16t17.5 20q13 18 18.5 37t9.5 34t10.5 24.5t21.5 9.5zM824 358q-16 -23 -48 -55.5t-69.5 -63t-75 -52t-65.5 -21.5q-32 0 -44 18.5t-12 48.5
q0 36 13 71t32 67.5t42 63t42 60t32 56.5t13 53q0 22 -10 38t-25.5 25.5t-35.5 14t-39 4.5q-43 0 -99 -19t-106 -52t-84.5 -78t-34.5 -96q0 -32 24 -51.5t55 -19.5q42 0 90 27.5t92 79.5q25 29 38 58t19.5 51.5t9 36.5t7.5 14q7 0 7 -8q0 -6 -3.5 -29t-13.5 -53.5t-27 -64.5
t-45 -62.5t-67 -47t-93 -18.5q-49 0 -77 25t-28 60q0 33 15.5 65t41.5 61t59.5 53.5t70.5 42t74.5 27.5t70.5 10q64 0 102 -31.5t38 -112.5q0 -32 -13 -64t-32 -64t-42 -62.5t-42 -59t-32 -53.5t-13 -46q0 -15 9 -21t23 -6q16 0 46.5 15t67 41t74 61.5t66.5 77.5
q75 107 136.5 171.5t106.5 98.5t72.5 44.5t35.5 10.5q7 0 7 -6q0 -5 -10 -8.5t-27 -10.5t-40 -20.5t-49.5 -37.5t-54.5 -61.5t-56 -92.5q-13 -26 -32 -63.5t-41 -79.5t-46.5 -86t-49 -84t-47.5 -73t-43 -53q-81 -81 -187.5 -124.5t-221.5 -43.5q-47 0 -94 12.5t-85 38.5
t-62 65t-24 92q0 49 25.5 90.5t65 71.5t86.5 47t91 17t80.5 -12t62 -33t39.5 -48t14 -57q0 -41 -19 -73t-49 -53.5t-67.5 -32.5t-74.5 -11q-13 0 -27 2t-26 5t-19.5 6t-7.5 6q0 5 5 5q3 0 7.5 -2t14 -4t25 -4t39.5 -2q31 0 64 11t59 30.5t43 47.5t17 63q0 34 -13.5 57.5
t-36 37.5t-51 20.5t-57.5 6.5q-47 0 -94.5 -16t-85 -45t-61 -71t-23.5 -93q0 -45 24.5 -76t61 -50.5t77.5 -28t74 -8.5q80 0 143 19.5t113.5 54t91 81t75.5 101t66 114t64 120.5z" />
    <glyph glyph-name="Zcaron" unicode="&#x17d;" horiz-adv-x="778" 
d="M673 747q-6 30 -17 58.5t-22.5 51t-19.5 36.5t-8 16t2 2q6 0 18.5 -14t25.5 -32t23.5 -35.5t13.5 -23.5q16 17 37 35.5t39.5 34t33 25.5t17.5 10q4 0 4 -2q0 -3 -14 -17.5t-34.5 -36t-43.5 -49.5t-41 -59h-14zM716 536q11 -3 22.5 -5.5t22.5 -2.5q37 0 76.5 11.5t72.5 30
t54.5 42t21.5 47.5q0 19 -12.5 26t-29.5 7q-32 0 -64.5 -16.5t-62.5 -40.5t-56 -51t-45 -48zM424 229q-8 3 -20 5.5t-24.5 4t-24 2.5t-18.5 1q-58 0 -110 -18.5t-91.5 -45.5t-62.5 -58.5t-23 -58.5q0 -29 20 -42t48 -13q39 0 83 23.5t85.5 58t77.5 73t60 68.5zM318 334
q-57 0 -83.5 31.5t-26.5 85.5q0 50 29 96.5t73 82.5t96 58t98 22q36 0 60.5 -10.5t41.5 -27t28.5 -36t20.5 -38t18 -33t21 -19.5q23 22 51.5 49.5t61 51.5t67 40.5t69.5 16.5q24 0 39.5 -12t15.5 -32q0 -26 -21.5 -52t-56.5 -46.5t-79.5 -33t-89.5 -12.5q-14 0 -26.5 1
t-24.5 3q-61 -70 -120.5 -140t-122.5 -142q40 -15 63.5 -37t37 -46t19.5 -48t11 -43.5t11.5 -31.5t21.5 -12q20 0 48 16.5t53 39.5q28 25 43 40.5t22.5 24.5l10 12t4.5 3q4 0 4 -6q0 -2 -6.5 -10t-16.5 -18.5t-21 -22t-21 -20.5q-42 -42 -78 -60.5t-62 -18.5q-28 0 -45 15
t-26.5 35t-13.5 41t-7 32q-5 19 -10 34.5t-11.5 27.5t-17 20.5t-26.5 15.5q-32 -35 -72.5 -74.5t-84 -73.5t-86.5 -56.5t-80 -22.5t-60 16t-23 48q0 31 24.5 65.5t66 63.5t96.5 48t117 19q20 0 49 -2.5t46 -8.5q57 75 117.5 145t123.5 140q-33 11 -53 27.5t-32.5 35.5
t-20.5 38t-18 34.5t-25 25t-41 9.5q-41 0 -88 -22t-87 -57t-66.5 -80t-26.5 -90q0 -49 21 -72t71 -23q33 0 65.5 21.5t60 54t47 70t27.5 70.5q4 15 4.5 21t3.5 6q4 0 4 -7q0 -35 -13 -79.5t-38.5 -83.5t-64 -66t-90.5 -27z" />
    <glyph glyph-name="scaron" unicode="&#x161;" horiz-adv-x="222" 
d="M175 328q-6 30 -17 58.5t-22.5 51t-19.5 36.5t-8 16t2 2q6 0 18.5 -14t25.5 -32t23.5 -35.5t13.5 -23.5q16 17 37 35.5t39.5 34t33 25.5t17.5 10q4 0 4 -2q0 -3 -14 -17.5t-34.5 -36t-43.5 -49.5t-41 -59h-14zM245 143q0 -2 -13 -17.5t-28 -32.5q-41 -46 -78 -69.5
t-79 -23.5q-17 0 -26 1.5t-19 9.5q-6 5 -11 15.5t-5 18.5q0 28 25 28q8 0 14.5 -4.5t6.5 -11.5q0 -8 -2 -11t-5 -5t-5 -4.5t-2 -9.5q0 -15 17 -15q18 0 36 18t32.5 43.5t23.5 54t9 48.5q0 36 0.5 63t5.5 31l-2 2q-5 -3 -20 -19.5t-33.5 -37.5t-36 -41.5t-26.5 -30.5
q-6 -8 -9 -8q-4 0 -4 4q0 5 11.5 17t32.5 38q9 11 22.5 26.5t27 30t24.5 25.5t13 12q1 0 3 5t6 10.5t10 10t14 4.5q17 0 17 -15q0 -14 -13 -20t-27 -11q-2 -8 -3 -11.5t-1 -11.5q0 -28 3.5 -47t7 -34t7 -28t3.5 -28q0 -18 -8 -33t-19 -27l1 -1q25 17 42 36t30 34
q16 17 19 22.5t6 5.5q5 0 5 -6z" />
    <glyph glyph-name="yacute" unicode="&#xfd;" horiz-adv-x="444" 
d="M378 492q11 0 17 -7.5t6 -14.5q0 -18 -18 -42.5t-41 -46.5t-44.5 -37.5t-29.5 -15.5q-2 1 -4 1q-1 0 -1 3t6 7.5t14 11.5t17.5 16t17.5 20q13 18 18.5 37t9.5 34t10.5 24.5t21.5 9.5zM221 -32q-68 -44 -115 -78t-76 -61.5t-41.5 -49.5t-12.5 -41q0 -20 8.5 -29t21.5 -9
q19 0 41.5 14t49.5 46t58 82.5t67 124.5zM451 278l-178 -289l2 -2q26 12 49.5 29t44.5 35.5t38.5 37.5t31.5 35q14 17 17 20.5t7 3.5t4 -5q0 -1 -4.5 -6.5t-11 -13.5t-14 -16.5t-13.5 -15.5q-21 -23 -41 -41t-39.5 -32.5t-39.5 -26.5t-42 -23q-78 -137 -146 -208.5
t-113 -71.5q-21 0 -35 13.5t-14 40.5t20.5 55t57 58t87.5 63t112 69l87 166l-2 2q-7 -9 -19.5 -24t-28.5 -32t-34.5 -34t-37 -31t-35 -23t-28.5 -9q-19 0 -31 18.5t-12 38.5q0 27 15 54.5t33 53t33 47.5t15 39q0 13 -16 13q-19 0 -41.5 -17t-51.5 -47q-21 -23 -33 -36
t-18 -20.5t-8 -9.5t-4 -2q-4 0 -4 5q0 1 1 3t6 8t15 17t27 31q43 48 69.5 64t43.5 16q23 0 33.5 -17.5t10.5 -37.5q0 -27 -15 -55.5t-33 -54.5t-33 -48t-15 -36q0 -15 14 -15q15 0 38 14.5t48 38t51.5 52.5t49.5 57.5t40.5 54t25.5 41.5z" />
    <glyph glyph-name="zcaron" unicode="&#x17e;" horiz-adv-x="333" 
d="M231 328q-6 30 -17 58.5t-22.5 51t-19.5 36.5t-8 16t2 2q6 0 18.5 -14t25.5 -32t23.5 -35.5t13.5 -23.5q16 17 37 35.5t39.5 34t33 25.5t17.5 10q4 0 4 -2q0 -3 -14 -17.5t-34.5 -36t-43.5 -49.5t-41 -59h-14zM216 84q1 -12 -2.5 -21t-9 -16.5t-10 -14t-4.5 -13.5
q0 -3 3.5 -5t6.5 -2q7 0 18 6.5t23.5 17.5t26.5 24.5t27 27.5q20 21 30.5 33t15.5 18t6.5 7.5t3.5 1.5q5 0 5 -5q0 -3 -12.5 -17t-39.5 -44q-22 -25 -38.5 -41t-29 -25t-21.5 -12.5t-17 -3.5q-20 0 -34 13.5t-14 33.5q0 16 10 26t10 22q0 9 -13 9q-11 0 -31.5 -9.5t-41 -22
t-37.5 -25t-21 -19.5t-13.5 -17.5t-17.5 -10.5q-14 0 -14 9q0 7 6 13.5t14 12.5t16.5 10.5t13.5 7.5q3 2 24.5 20.5t53.5 45.5t70.5 57t75.5 55l-2 2q-5 -3 -15 -8t-23 -9.5t-27 -8t-27 -3.5q-19 0 -32 6t-27 15q-10 -8 -21 -19t-21 -22t-19 -21.5l-15 -17.5q-5 -5 -6.5 -7
t-4.5 -2t-3 7q0 1 10 12.5t23.5 26t28 29t22.5 21.5q-5 10 -5 20q0 14 8.5 20t21.5 6q11 0 17.5 -6t6.5 -14q0 -11 -6.5 -15.5t-6.5 -13.5q0 -6 11 -9.5t25 -3.5q8 0 22 3.5t28.5 8t26.5 10t17 10.5q7 6 20.5 18t21.5 12t8 -12q0 -8 -5.5 -13.5t-13.5 -10t-16.5 -8.5
t-15.5 -7q-5 -2 -33 -24t-80 -66q-13 -11 -27 -21.5t-25.5 -19t-19 -14t-7.5 -6.5q0 -3 3 -3t12.5 6.5t23.5 15t30.5 15t33.5 6.5q15 0 28.5 -7.5t15.5 -24.5z" />
    <glyph glyph-name="nonbreakingspace" horiz-adv-x="194" 
 />
    <glyph glyph-name="Euro" unicode="&#x20ac;" 
d="M192 262q-6 -12 -10.5 -24t-9.5 -24h132q6 0 6 -8t-6 -8h-138q-25 -73 -25 -123q0 -27 12.5 -47t41.5 -20q26 0 48 10t40.5 25.5t33.5 34.5t27 37q1 2 2.5 4t3.5 2q6 0 6 -5q0 -3 -3 -7q-16 -23 -33 -44t-36.5 -36.5t-42.5 -24.5t-50 -9q-24 0 -41 9t-28 24.5t-16.5 35.5
t-5.5 41t4 44.5t12 48.5h-35q-6 0 -6 8t6 8h40q5 12 9.5 24t10.5 24h-47q-6 0 -6 8t6 8h55q20 38 46 73t56 62t63 43t67 16q19 0 32.5 -6t22 -15t12.5 -20.5t4 -22.5q0 -17 -9.5 -29.5t-24.5 -12.5q-29 0 -29 27q0 9 4 14t9 9t9 8.5t4 13.5q0 12 -11.5 17t-19.5 5
q-26 0 -51.5 -15t-49 -40t-44.5 -58t-39 -69h141q6 0 6 -8t-6 -8h-149z" />
    <glyph glyph-name="afii10023" unicode="&#x401;" horiz-adv-x="556" 
d="M662 861q29 0 29 -25q0 -20 -9 -31.5t-30 -11.5q-12 0 -18.5 5.5t-6.5 22.5t8 28.5t27 11.5zM518 861q29 0 29 -25q0 -20 -9 -31.5t-30 -11.5q-12 0 -18.5 5.5t-6.5 22.5t8 28.5t27 11.5zM670 664q0 32 -46 32q-17 0 -35.5 -5.5t-36.5 -13.5t-35 -18t-31 -19
q17 -19 32 -35.5t15 -18.5q0 -6 -5 -6q-2 0 -4.5 3l-7.5 9t-14.5 16.5t-25.5 25.5q-44 -32 -74 -73.5t-30 -92.5q45 7 97 26t97 46t74.5 59.5t29.5 64.5zM522 222q0 31 -16 50.5t-48 19.5q-30 0 -62 -25.5t-58 -64.5t-43 -85t-17 -87v-13t1 -11q39 -2 82 16.5t79 49.5t59 70
t23 80zM110 596q0 -35 14.5 -60t38.5 -41.5t56 -24.5t68 -8q8 0 17 0.5t18 1.5q-1 7 -1.5 13.5t-0.5 14.5q0 28 11.5 52.5t30.5 45.5t42 37.5t46 28.5q-37 29 -81 45.5t-91 16.5q-24 0 -53.5 -7.5t-55 -22.5t-42.5 -38t-17 -54zM396 402q-31 11 -59 38q-32 -8 -60 -8
q-41 0 -76 10t-61 28t-41 44.5t-15 59.5q0 38 18 67t46 49t63 30t69 10q50 0 96 -18.5t84 -49.5q38 18 79 32t85 14q27 0 42.5 -11.5t15.5 -39.5q0 -23 -18 -47.5t-46 -47.5t-63 -43t-69 -35.5t-64 -25t-48 -10.5q5 -17 15.5 -29.5t29.5 -12.5q5 0 14.5 2t22.5 2
q14 0 27 -4.5t13 -10.5q0 -13 -23 -13q-26 0 -38 6t-21 6q-30 0 -71.5 -18.5t-79 -53t-63.5 -84t-26 -110.5q0 -56 22.5 -85t69.5 -36q-2 9 -3 19t-1 20q0 57 16 105t43 83t62.5 54.5t73.5 19.5q37 0 57 -26t20 -60q0 -44 -24 -84.5t-61.5 -72t-82.5 -51t-86 -20.5
q3 -32 11.5 -60t8.5 -33q0 -3 -5 -3q-4 0 -5.5 9t-9.5 34q-5 14 -7.5 28.5t-4.5 24.5q-34 0 -63.5 9.5t-51.5 27.5t-34.5 45.5t-12.5 63.5q0 54 27.5 98.5t70.5 78t94 55t98 28.5v2z" />
    <glyph glyph-name="afii10071" unicode="&#x451;" horiz-adv-x="278" 
d="M320 442q29 0 29 -25q0 -20 -9 -31.5t-30 -11.5q-12 0 -18.5 5.5t-6.5 22.5t8 28.5t27 11.5zM176 442q29 0 29 -25q0 -20 -9 -31.5t-30 -11.5q-12 0 -18.5 5.5t-6.5 22.5t8 28.5t27 11.5zM221 266q-20 0 -44 -16.5t-46.5 -40.5t-39.5 -51t-22 -48q25 3 55 14.5t56 30
t43.5 42t17.5 50.5q0 19 -20 19zM271 230q0 -28 -24 -50.5t-57 -39t-68 -27.5t-57 -15q-2 -8 -3 -16.5t-1 -16.5q0 -29 9.5 -40.5t32.5 -12.5q20 -1 57 16.5t83 62.5q29 30 39.5 44t13.5 14q5 0 5 -6q0 -2 -6.5 -10t-16.5 -19.5t-22.5 -24.5t-23.5 -23q-38 -35 -69.5 -50
t-66.5 -16q-21 0 -35.5 9t-24.5 24t-14.5 34t-4.5 39q0 11 1.5 19t1.5 10t-1 2q-3 -3 -3.5 -3t-2.5 2t-2 4q0 1 4.5 7t11 13t12.5 13.5t9 9.5q42 42 87 68.5t86 26.5q23 0 36.5 -13.5t13.5 -34.5z" />
    <glyph glyph-name="afii10033" unicode="&#x41f;" horiz-adv-x="889" 
d="M1069 696q42 0 70.5 2.5t48 5.5t32 5.5t23.5 2.5q3 0 3 -5q0 -3 -9.5 -13t-28.5 -21t-49 -20t-70 -9q-30 0 -52.5 2t-43.5 5t-43.5 6t-51.5 6t-68 5t-93 2q-68 0 -123.5 -15.5t-95 -41t-61.5 -57.5t-22 -66q0 -39 26.5 -61.5t71.5 -22.5q46 0 85.5 14t71.5 35t56.5 45
t41.5 45t25.5 35t9.5 14q6 0 6 -5q0 -3 -8.5 -20t-24.5 -41t-39 -50.5t-52 -49t-64.5 -37.5t-75.5 -15q-69 0 -107.5 31t-38.5 79q0 32 21 69t69 68.5t127.5 52t196.5 20.5h236v0zM254 391q-47 0 -93.5 -16t-84.5 -44.5t-61.5 -67t-23.5 -84.5q0 -39 19 -71.5t53 -55.5
t81 -36t103 -13q94 0 162 26.5t119 69.5t90 99t75 115.5t74 117.5t88 106q21 20 42 36t39 27t30.5 17t16.5 6t4 -4q0 -5 -8.5 -9t-21 -10.5t-27 -16.5t-27.5 -26q-26 -32 -63.5 -93t-86.5 -155q-39 -74 -91.5 -133t-116.5 -100t-139.5 -63t-160.5 -22q-57 0 -107 14
t-87 40.5t-58.5 64.5t-21.5 87q0 47 22.5 88.5t60 72.5t85.5 49t100 18q33 0 67.5 -8.5t63 -27t47 -47t18.5 -67.5q0 -41 -19 -72.5t-50 -53.5t-69 -33t-76 -11q-24 0 -46.5 5t-40 11.5t-27.5 12.5t-10 9q0 6 3 6q4 0 13 -5t24 -11t36.5 -11t51.5 -5q34 0 68.5 10t62.5 29.5
t45.5 49t17.5 67.5q0 54 -41.5 86t-123.5 32zM1057 548l-36 -57l-42 -64l-30 -49l-26 -43q-30 -47 -61.5 -93t-57 -86.5t-42 -73.5t-17.5 -53q-1 -10 3 -17t12 -7q15 0 35 16t48 42q34 29 48.5 50t16.5 21q6 0 6 -2.5t-4.5 -8.5t-12 -14t-16 -18.5t-15.5 -19.5
q-10 -10 -24 -23.5t-29.5 -25.5t-31 -20t-27.5 -7t-19 13t-5 40q4 39 15.5 70t27.5 63l50 86q57 81 95.5 138.5t63 95.5t37.5 59.5t20.5 33t11 14.5t9.5 4l40 3l-7 -12l-11 -17zM853 22l18 14z" />
    <glyph glyph-name="afii10017" unicode="&#x410;" horiz-adv-x="1056" 
d="M868 233q0 30 -5.5 63.5t-14.5 55.5q-54 -52 -102.5 -106t-105.5 -102q42 -32 95 -48t101 -22q14 38 23 77.5t9 81.5zM874 146q63 147 152 277.5t204 242.5l-2 2q-17 -2 -55.5 -27t-89.5 -67t-109.5 -96.5t-115.5 -115.5q13 -30 17.5 -61t4.5 -61q0 -23 -2 -46t-6 -46
l2 -2v0zM532 342q0 -68 28.5 -113.5t67.5 -76.5q58 49 109.5 103.5t105.5 109.5q-14 25 -30.5 47.5t-37 39.5t-45.5 27t-56 10q-26 0 -51.5 -8.5t-45.5 -26.5t-32.5 -46t-12.5 -66zM804 0l28 62q-54 8 -106.5 24.5t-95.5 48.5q-34 -30 -73.5 -55.5t-84.5 -44.5t-96 -30
t-106 -11q-52 0 -98.5 14.5t-81.5 41.5t-55.5 64t-20.5 82q0 55 25 97.5t63 72t82.5 45t83.5 15.5q46 0 81 -12.5t59 -33.5t36 -48t12 -57q0 -39 -18.5 -70t-47.5 -52.5t-65 -33t-71 -11.5q-31 0 -38.5 2t-7.5 7q0 6 6 6q4 0 10.5 -1.5t19.5 -1.5q39 0 74.5 10.5t62.5 30.5
t43 48.5t16 63.5q0 51 -38.5 83t-114.5 32q-43 0 -87 -15.5t-79.5 -43t-58 -66.5t-22.5 -85q0 -37 19.5 -68.5t51.5 -54.5t73 -36t83 -13q102 0 186 33.5t166 103.5q-54 42 -89.5 95t-35.5 122q0 40 13.5 69.5t35.5 49.5t48.5 30t53.5 10q34 0 65.5 -11.5t58.5 -31
t48.5 -45.5t35.5 -55q78 85 146 146t121.5 100t90.5 57.5t54 18.5q5 0 5 -7q0 -2 -12 -15.5t-33.5 -40.5t-51.5 -69.5t-66 -101.5q-31 -50 -57.5 -99t-51 -98t-48 -98.5t-48.5 -98.5q21 0 42.5 5t45.5 14q21 8 35 17.5t23.5 17.5t14.5 13.5t7 5.5q5 0 5 -5q0 -3 -11.5 -15
t-33.5 -26t-55.5 -25.5t-76.5 -13.5l-22 -58h-72z" />
    <glyph glyph-name="afii10018" unicode="&#x411;" horiz-adv-x="1070" 
d="M1141 677q47 0 79 2.5t54 5t36.5 5t26.5 2.5q3 0 3 -5q0 -2 -10.5 -12t-32.5 -20.5t-55 -19t-79 -8.5q-34 0 -59 2t-49 4.5t-49 6t-58 6t-77 4.5t-105 2q-76 0 -138.5 -15t-107.5 -39t-69.5 -55t-24.5 -62q0 -38 29.5 -59t80.5 -21q52 0 96.5 13.5t80.5 33t64 43t47 43
t28.5 33t10.5 13.5q7 0 7 -5q0 -3 -9.5 -19.5t-27.5 -39t-44 -48t-59 -47t-72.5 -35.5t-84.5 -14q-78 0 -121.5 30t-43.5 75q0 31 23.5 66t78 65t144 49.5t221.5 19.5h266v0zM283 394q-47 0 -93.5 -16t-84.5 -44.5t-61.5 -67t-23.5 -84.5q0 -39 19 -71.5t53 -55.5t81 -36
t103 -13q94 0 162 26.5t119 69.5t90 99t75 115.5t74 117.5t88 106q21 20 42 36t39 27t30.5 17t16.5 6t4 -4q0 -5 -8.5 -9t-21 -10.5t-27 -16.5t-27.5 -26q-26 -32 -63.5 -93t-86.5 -155q-39 -74 -91.5 -133t-116.5 -100t-139.5 -63t-160.5 -22q-57 0 -107 14t-87 40.5
t-58.5 64.5t-21.5 87q0 47 22.5 88.5t60 72.5t85.5 49t100 18q33 0 67.5 -8.5t63 -27t47 -47t18.5 -67.5q0 -41 -19 -72.5t-50 -53.5t-69 -33t-76 -11q-24 0 -46.5 5t-40 11.5t-27.5 12.5t-10 9q0 6 3 6q4 0 13 -5t24 -11t36.5 -11t51.5 -5q34 0 68.5 10t62.5 29.5t45.5 49
t17.5 67.5q0 54 -41.5 86t-123.5 32zM907 362v2v-2zM918 382q29 -6 54.5 -20t45 -34t30.5 -46.5t11 -57.5q0 -48 -23.5 -90t-61 -73.5t-83 -50t-88.5 -18.5q-23 0 -44.5 7t-38 20.5t-26.5 32.5t-10 43q0 38 18 67.5t37 49.5q7 7 16.5 15.5t17.5 15t14 11t8 4.5q5 0 5 -6
q0 -3 -13 -12t-37 -32q-24 -24 -38.5 -53.5t-14.5 -55.5q0 -45 28 -69.5t71 -24.5t79 23t62.5 58t41 78t14.5 83q0 36 -8 60t-21 39t-29 21.5t-31 6.5q-12 0 -19 -2t-13.5 -4.5t-15.5 -4.5t-24 -2q-20 0 -20 15q0 9 9 13t32 4q15 0 22.5 -1t14.5 -1l28 -9v0z" />
    <glyph glyph-name="afii10019" unicode="&#x412;" horiz-adv-x="944" 
d="M166 348q0 -40 22.5 -64t68.5 -24q49 0 97 32.5t86.5 80t62 101.5t23.5 98q0 36 -7.5 61t-20.5 39q-50 -12 -108 -40t-108 -70t-83 -96t-33 -118zM774 364q28 -6 52.5 -19t43 -32.5t29.5 -44.5t11 -55q0 -45 -23 -84.5t-58.5 -69.5t-79.5 -47.5t-86 -17.5q-23 0 -43.5 7
t-36.5 19.5t-25.5 30.5t-9.5 41q0 35 17.5 63.5t35.5 46.5q7 7 16 15t17 14.5t14 10.5t7 4q5 0 5 -6q0 -3 -12.5 -11.5t-35.5 -30.5t-37.5 -50t-14.5 -52q0 -42 27 -66t69 -24t76.5 21.5t60 55.5t39.5 74t14 78q0 34 -8 57t-20 37.5t-27 20.5t-30 6q-12 0 -18.5 -2l-13 -4
t-15 -4t-23.5 -2q-19 0 -19 14q0 8 8.5 12t30.5 4q15 0 22.5 -1t13.5 -1q30 0 55 17t42 42.5t26.5 55.5t9.5 57q0 38 -11 62t-37 40q-46 -31 -82 -76.5t-66.5 -96.5t-57 -103t-54.5 -97q-30 -48 -70 -98t-88 -90t-103.5 -65.5t-117.5 -25.5q-26 0 -48 6.5t-38.5 18.5
t-25.5 27.5t-9 33.5q0 17 12 28.5t29 11.5q37 0 37 -36q0 -10 -5 -18.5t-5 -16.5q0 -17 13 -30t45 -13q40 0 79 13t77 45t77.5 85.5t81.5 135.5q33 64 66 117t69 98t77.5 83t92.5 71q-45 20 -93.5 28t-97.5 8q-54 0 -115 -14q23 -21 33.5 -55t10.5 -64q0 -54 -24.5 -110
t-65.5 -101t-95 -73.5t-113 -28.5q-45 0 -76.5 26.5t-31.5 80.5q0 57 32.5 110.5t82.5 98t109.5 76t113.5 44.5q-24 19 -53 27.5t-59 8.5q-39 0 -76 -11.5t-68.5 -30t-56.5 -41.5t-41 -47q-23 -33 -34.5 -54.5t-16.5 -34t-6 -17t-4 -4.5q-5 0 -5 5q0 4 12.5 34.5t43.5 73.5
q20 28 47.5 53.5t60 44.5t69.5 30t76 11q34 0 66.5 -11t58.5 -32q33 8 65 12.5t64 4.5q106 0 202 -39q17 9 35.5 19t34.5 10q4 0 4 -4t-15.5 -7.5t-44.5 -23.5q42 -21 66.5 -55t24.5 -79q0 -32 -15 -58t-39 -45.5t-53 -33t-57 -20.5v-2v0z" />
    <glyph glyph-name="afii10020" unicode="&#x413;" horiz-adv-x="889" 
d="M1058 692q42 0 70.5 2.5t48 5.5t32 5.5t23.5 2.5q3 0 3 -5q0 -3 -9.5 -13t-28.5 -21t-49 -20t-70 -9q-30 0 -52.5 2t-43.5 5t-43.5 6t-51.5 6t-68 5t-93 2q-68 0 -123.5 -15.5t-95 -41t-61.5 -57.5t-22 -66q0 -39 26.5 -61.5t71.5 -22.5q46 0 85.5 14t71.5 35t56.5 45
t41.5 45t25.5 35t9.5 14q6 0 6 -5q0 -3 -8.5 -20t-24.5 -41t-39 -50.5t-52 -49t-64.5 -37.5t-75.5 -15q-69 0 -107.5 31t-38.5 79q0 32 21 69t69 68.5t127.5 52t196.5 20.5h236v0zM283 394q-47 0 -93.5 -16t-84.5 -44.5t-61.5 -67t-23.5 -84.5q0 -39 19 -71.5t53 -55.5
t81 -36t103 -13q94 0 162 26.5t119 69.5t90 99t75 115.5t74 117.5t88 106q21 20 42 36t39 27t30.5 17t16.5 6t4 -4q0 -5 -8.5 -9t-21 -10.5t-27 -16.5t-27.5 -26q-26 -32 -63.5 -93t-86.5 -155q-39 -74 -91.5 -133t-116.5 -100t-139.5 -63t-160.5 -22q-57 0 -107 14
t-87 40.5t-58.5 64.5t-21.5 87q0 47 22.5 88.5t60 72.5t85.5 49t100 18q33 0 67.5 -8.5t63 -27t47 -47t18.5 -67.5q0 -41 -19 -72.5t-50 -53.5t-69 -33t-76 -11q-24 0 -46.5 5t-40 11.5t-27.5 12.5t-10 9q0 6 3 6q4 0 13 -5t24 -11t36.5 -11t51.5 -5q34 0 68.5 10t62.5 29.5
t45.5 49t17.5 67.5q0 54 -41.5 86t-123.5 32z" />
    <glyph glyph-name="afii10021" unicode="&#x414;" horiz-adv-x="889" 
d="M210 322q0 -46 26 -65t68 -19q52 0 97.5 27t80 69.5t54.5 93.5t20 99q0 40 -13 80.5t-42 68.5q-53 -16 -105.5 -49.5t-93.5 -80t-66.5 -103.5t-25.5 -121zM334 8q17 1 36.5 -0.5t49.5 -1.5q91 0 175.5 27t150 78.5t105 125.5t39.5 169q0 51 -16 102.5t-53 89.5
q-31 -35 -55.5 -73.5t-47 -78.5t-44 -81.5t-45.5 -82.5q-22 -38 -53.5 -80.5t-69.5 -81t-82 -68.5t-90 -42v-2v0zM104 27q0 17 42 17q26 0 48.5 -4t43.5 -8.5t41.5 -8t42.5 -3.5q36 0 70 26.5t66 67.5t61 91.5t55 98.5q32 58 61.5 104.5t57.5 84t56 67t57 53.5
q-17 18 -41.5 31.5t-53 23t-58.5 14t-57 4.5q-20 0 -42 -1.5t-40 -5.5q28 -27 41 -69t13 -78q0 -52 -21 -106t-57.5 -98.5t-85.5 -73t-104 -28.5q-30 0 -56 10t-44.5 28.5t-29 44t-10.5 56.5q0 62 30 116t77.5 96t105.5 70.5t115 39.5q-25 17 -56.5 25t-62.5 8
q-78 0 -138 -37.5t-105 -100.5q-28 -39 -42 -77.5t-21 -69.5t-10 -50t-7 -19t-4 7q0 3 2 22t8.5 47t18.5 61t32 64q54 84 123.5 124.5t144.5 40.5q29 0 65.5 -10t65.5 -32q27 4 49.5 6t37.5 2q30 0 61.5 -5t61.5 -14.5t56.5 -24t46.5 -33.5q19 15 40.5 29t40 24.5t31 17
t14.5 6.5q5 0 5 -9q0 -2 -10.5 -7t-27 -15t-37.5 -24.5t-42 -36.5q37 -40 55 -90.5t18 -104.5q0 -105 -42.5 -183t-113 -130t-161 -78t-185.5 -26q-20 0 -40.5 3t-40.5 3q-26 0 -51.5 -3t-51.5 -3q-112 0 -112 33z" />
    <glyph glyph-name="afii10022" unicode="&#x415;" horiz-adv-x="556" 
d="M670 664q0 32 -46 32q-35 0 -72 -19t-66 -37q17 -19 32 -35.5t15 -18.5q0 -6 -5 -6q-2 0 -4.5 3l-7.5 9t-14.5 16.5t-25.5 25.5q-45 -32 -74.5 -73.5t-29.5 -92.5q45 7 97 26.5t97 46t74.5 58.5t29.5 65zM522 222q0 31 -16 50.5t-48 19.5q-30 0 -62 -25.5t-58 -64.5
t-43 -85t-17 -87v-13q0 -8 1 -11q39 -2 82 16.5t79 49.5t59 70.5t23 79.5zM110 596q0 -35 14.5 -60t38.5 -41.5t56 -24.5t68 -8q8 0 17 0.5t18 1.5q-1 7 -1.5 13.5t-0.5 14.5q0 28 11.5 52.5t30.5 45.5t42 37.5t46 28.5q-37 29 -80.5 45.5t-91.5 16.5q-24 0 -53.5 -7.5
t-55 -22.5t-42.5 -38t-17 -54zM396 402q-29 10 -59 38q-34 -8 -60 -8q-41 0 -76 10t-61 28t-41 44.5t-15 59.5q0 38 18 67t46 49t63 30t69 10q51 0 96.5 -18.5t83.5 -49.5q38 18 78.5 32t85.5 14q27 0 42.5 -11.5t15.5 -39.5q0 -23 -18 -47.5t-46 -47.5t-63 -43t-69 -35.5
t-64 -25t-48 -10.5q5 -17 15.5 -29.5t29.5 -12.5q5 0 14.5 2t22.5 2q14 0 27 -4.5t13 -10.5q0 -13 -23 -13q-26 0 -38 6t-21 6q-30 0 -71.5 -18.5t-79 -53t-63.5 -84t-26 -110.5q0 -57 22 -85.5t70 -35.5q-2 9 -3 19t-1 20q0 57 16 105t43 83t62.5 54.5t73.5 19.5
q37 0 57 -26t20 -60q0 -44 -24 -84.5t-61.5 -72t-82.5 -51t-86 -20.5q1 -16 4.5 -31.5t7 -28.5t6 -21.5t2.5 -11.5t-5 -3q-4 0 -5.5 9t-9.5 34q-5 14 -7.5 28.5t-4.5 24.5q-34 0 -63.5 9.5t-51.5 27.5t-34.5 45.5t-12.5 63.5q0 54 27.5 98.5t70.5 78t94 55t98 28.5v2v0z" />
    <glyph glyph-name="afii10024" unicode="&#x416;" horiz-adv-x="1188" 
d="M478 353q-30 -10 -102 -39t-150 -68t-138.5 -83.5t-80 -78.5t-4.5 -64q2 -20 25 -29.5t53 -7.5q32 3 66.5 15.5t67 29.5t60.5 36t47 35q31 24 60 56.5t54.5 69.5t46.5 75.5t37 65.5zM1172 229q0 31 -15 50t-47 19t-64 -24.5t-58 -62.5t-42.5 -85t-16.5 -92v-22
q37 1 80 20t79 49t60 68.5t24 79.5zM881 467q27 22 60 50t69 53t78 47q22 15 52 30.5t61.5 28t64 20.5t62.5 8q32 0 53 -15t21 -49q0 -29 -23 -62.5t-62.5 -66t-92 -62.5t-112.5 -53.5t-120.5 -39.5t-44.5 7q25 -1 76 14t108.5 40.5t105 53t81.5 57.5t53 59.5t19 54.5
q0 20 -12 35t-42 15q-32 0 -66 -8.5t-66 -21.5t-60 -29t-49 -30l-9 -5q-66 -42 -117.5 -98.5t-106.5 -154.5q-21 -54 -36.5 -106.5t-15.5 -107.5q0 -30 4.5 -52t16.5 -36.5t32.5 -22t52.5 -8.5q-1 8 -2 15.5t-1 15.5q0 58 15 108t41 86t61 56.5t76 20.5q38 0 58 -25t20 -61
q0 -43 -24 -82.5t-61.5 -70.5t-82.5 -51t-86 -23q4 -42 11 -65.5t7 -27.5q0 -6 -5 -6q-2 0 -6 11t-7.5 27t-7 32.5t-4.5 27.5q-85 0 -128.5 47t-43.5 128q0 19 4.5 41t11.5 44.5t16 43.5t31 62q29 49 47.5 69t19.5 21q-30 -9 -99 -23q-19 -41 -48 -95t-61.5 -110.5
t-65.5 -110.5t-61 -95.5t-47 -64.5t-24 -17q10 13 26 43t34.5 70.5t39.5 86.5t42 91.5t40 85.5t35 68l15 30l8 7q-111 -33 -123 -42q-55 -93 -82.5 -130t-89.5 -100t-110.5 -97t-87 -52t-76.5 -30.5t-68 -13.5q-9 0 -19.5 -0.5t-22.5 2.5t-25 10.5t-26 22.5q-23 33 -15 79.5
t66.5 94t136.5 85t167 74t194 64.5q14 55 23 99.5t4 99.5q-5 61 -29 84.5t-87 19.5q-33 -2 -64.5 -19t-59 -41t-50.5 -52.5t-39.5 -54t-25.5 -44t-9 -22.5q0 8 -1 9t-1 4q0 1 2 7q11 37 38 74.5t61 69.5t69.5 54.5t64.5 29.5l12 2q84 8 132 -35.5t54 -123.5q4 -39 -19 -121
q-2 -4 -3 -8t-3 -8l-1 -8q53 15 82.5 21t36.5 11q16 34 36.5 66.5t41 60.5t39.5 50.5t34 36.5q25 24 49.5 43.5t44.5 33t34 20.5t18 7q-1 0 -1 -2q0 -5 -18 -17t-51 -41q-23 -20 -45.5 -52.5t-43 -68t-38.5 -70t-31 -59.5q57 12 96 22z" />
    <glyph glyph-name="afii10025" unicode="&#x417;" horiz-adv-x="556" 
d="M379 683q-25 -36 -19 -67q3 -24 18 -46t37.5 -40t50.5 -30.5t58 -17.5q37 52 39 94.5t-19 76.5l-4 6q-14 19 -36 38t-55 19q-46 0 -70 -33zM198 228q-30 -41 -37 -81.5t5 -72.5t40 -51t68 -17q2 2 4 4.5t5 6.5l9 14q31 42 48.5 89.5t20.5 87t-9.5 65.5t-41.5 26
q-31 1 -60.5 -19t-51.5 -52zM608 703q31 16 56.5 26t49 15t46 6.5t46.5 1.5q32 0 58.5 -10.5t40 -30.5t9.5 -50.5t-33 -69.5q-25 -34 -59 -61t-72.5 -46t-79.5 -29t-80 -10q-30 -2 -53 8q-24 -14 -44.5 -24.5t-40.5 -15.5l-2 -2q40 -7 74 -29t51 -56t11 -80t-46 -101
q-26 -38 -58 -66t-66.5 -46.5t-70 -28t-68.5 -9.5q-11 -10 -23.5 -25t-28.5 -29q-26 -26 -34 -35.5t-12 -9.5q-5 0 -2 3l12 12t21.5 22t26.5 29t28 33q-39 1 -68.5 20.5t-43 51.5t-7 73.5t38.5 86.5q13 18 29.5 34t34.5 28t37 19.5t37 7.5q38 0 58 -20t20.5 -55.5t-19.5 -85
t-62 -108.5q-7 -10 -15.5 -20.5t-16.5 -19.5q51 6 94 36.5t82 88.5q46 64 57.5 114.5t0.5 85.5t-37.5 54t-56.5 19q-9 0 -24.5 -6t-41.5 -7q-19 0 -13 14q5 6 21 10.5t30 4.5q12 1 20.5 -1.5t13.5 -2.5q18 0 36.5 13t36.5 31q-17 1 -39 10.5t-43.5 25.5t-40 37t-29 44.5
t-10 48t17.5 48.5q20 29 43 41t49 12q45 0 76.5 -17t55.5 -37q13 -12 23 -29t12.5 -38t-4 -46.5t-26.5 -54.5q-5 -8 -10.5 -14.5t-12.5 -14.5q9 -1 17 -1.5t16 -0.5q34 0 71 8.5t73 26t69 43.5t59 62q22 32 21.5 55.5t-14 39.5t-36 23.5t-46.5 7.5h-45.5t-44 -3t-47.5 -11
t-54 -24z" />
    <glyph glyph-name="afii10026" unicode="&#x418;" horiz-adv-x="833" 
d="M502 602q0 23 -9 43t-29 33q-53 -11 -102.5 -38.5t-88 -63.5t-62 -77.5t-23.5 -80.5q0 -36 18 -61t53 -25q25 0 53 12t55 32.5t51.5 47t43 56.5t29.5 61.5t11 60.5zM850 374q-33 -52 -68 -103.5t-64 -97.5t-47 -82.5t-17 -58.5q0 -11 5.5 -18.5t16.5 -7.5q20 0 43 17.5
t57 46.5q39 34 55 56.5t20 22.5q9 2 7 -3.5t-10.5 -15.5t-21 -23.5t-24.5 -27.5q-11 -12 -27.5 -27t-34 -28t-34.5 -21.5t-29 -8.5q-23 0 -33 15.5t-10 43.5q0 45 12.5 79t29.5 70l-2 2q-17 -23 -50 -59t-72 -69.5t-79 -57.5t-70 -24q-22 0 -37.5 17t-15.5 46
q0 42 20.5 89.5t51.5 97t67 99.5t67 97t51.5 88.5t20.5 74.5q0 22 -9 37.5t-23 25.5t-32 15t-36 5q-11 0 -22.5 -1t-23.5 -3q22 -18 31 -44t9 -55q0 -45 -20.5 -92.5t-55.5 -86.5t-81 -63.5t-97 -24.5q-48 0 -70 27.5t-22 69.5q0 44 24 87.5t63 80.5t88.5 65t99.5 41
q-32 17 -81 17q-56 0 -110.5 -27.5t-98.5 -75t-74 -110.5t-37 -134q-1 -13 -6 -13t-5.5 4t-0.5 10q0 7 2 21t6.5 31.5t10.5 36.5t14 36q20 45 51 87t70 74.5t84 52t94 19.5q32 0 56.5 -6.5t42.5 -17.5q27 6 53 6q66 0 101 -32t35 -99q0 -43 -20.5 -91.5t-51.5 -98.5
t-67 -100t-67 -95t-51.5 -83t-20.5 -65q0 -17 6 -22.5t22 -5.5q18 0 54.5 20t81.5 58t94 91.5t93 121.5q61 94 102.5 158.5t69.5 107t44 66.5t25.5 35.5t15 14.5t12.5 4l50 3l-200 -312v0z" />
    <glyph glyph-name="afii10027" unicode="&#x419;" horiz-adv-x="833" 
d="M502 602q0 23 -9 43t-29 33q-53 -11 -102.5 -38.5t-88 -63.5t-62 -77.5t-23.5 -80.5q0 -36 18 -61t53 -25q25 0 53 12t55 32.5t51.5 47t43 56.5t29.5 61.5t11 60.5zM850 374q-33 -52 -68 -103.5t-64 -97.5t-47 -82.5t-17 -58.5q0 -11 5.5 -18.5t16.5 -7.5q20 0 45 18
t55 46q38 35 54.5 57t20.5 22q9 2 7 -3.5t-10.5 -15.5t-21 -23.5t-24.5 -27.5q-11 -12 -27.5 -27t-34 -28t-34.5 -21.5t-29 -8.5q-23 0 -33 15.5t-10 43.5q0 45 12.5 79t29.5 70l-2 2q-17 -23 -50 -59t-72 -69.5t-79 -57.5t-70 -24q-22 0 -37.5 17t-15.5 46q0 42 20.5 89.5
t51.5 97t67 99.5t67 97t51.5 88.5t20.5 74.5q0 22 -9 37.5t-23 25.5t-32 15t-36 5q-11 0 -22.5 -1t-23.5 -3q22 -18 31 -44t9 -55q0 -45 -20.5 -92.5t-55.5 -86.5t-81 -63.5t-97 -24.5q-48 0 -70 27.5t-22 69.5q0 44 24 87.5t63 80.5t88.5 65t99.5 41q-32 17 -81 17
q-56 0 -110.5 -27.5t-98.5 -75t-74 -110.5t-37 -134q-1 -13 -6 -13t-5.5 4t-0.5 10q0 7 2 21t6.5 31.5t10.5 36.5t14 36q20 45 51 87t70 74.5t84 52t94 19.5q32 0 56.5 -6.5t42.5 -17.5q27 6 53 6q66 0 101 -32t35 -99q0 -43 -20.5 -91.5t-51.5 -98.5t-67 -100t-67 -95
t-51.5 -83t-20.5 -65q0 -17 6 -22.5t22 -5.5q18 0 54.5 20t81.5 58t94 91.5t93 121.5q61 94 102.5 158.5t69.5 107t44 66.5t25.5 35.5t15 14.5t12.5 4l50 3l-200 -312v0zM734 814q17 0 35 -5.5t37 -12.5t37 -12.5t33 -5.5q18 0 27.5 7t15 15.5t8 15.5t6.5 7t4 -7
q0 -3 -3.5 -15t-12 -25t-23.5 -23.5t-39 -10.5q-17 0 -34 5t-34 12t-33.5 12t-32.5 5q-15 0 -24 -6.5t-15 -15t-9.5 -15t-7.5 -6.5t-4 7q0 3 4.5 15t13 25t21.5 23.5t30 10.5z" />
    <glyph glyph-name="afii10028" unicode="&#x41a;" horiz-adv-x="1111" 
d="M858 338q48 -18 73 -53.5t25 -80.5q0 -11 -3 -28t-6 -37t-6 -41.5t-3 -40.5q0 -20 6.5 -32.5t21.5 -12.5q11 0 36.5 14.5t61.5 52.5q37 38 51.5 56.5t17.5 18.5q5 0 5 -6q0 -2 -12.5 -17t-42.5 -48q-74 -83 -125 -83q-14 0 -29 8.5t-27 23.5t-20 36.5t-8 47.5
q0 20 3 42.5t6 43t6 37t3 24.5q0 16 -5.5 28.5t-14 20.5t-17 12t-14.5 4q-5 0 -12 -3t-12 -3q-6 0 -11.5 4.5t-5.5 7.5q0 10 16 10q31 0 61.5 14.5t57.5 37t50.5 48t41.5 48.5q35 43 73.5 80.5t78 65.5t79 44t77.5 16q45 0 70 -20t25 -52q0 -16 -10.5 -26t-27.5 -10
q-14 0 -27 7.5t-13 23.5q0 14 7 22t7 19t-12.5 17.5t-32.5 6.5q-35 0 -82.5 -36.5t-92.5 -95.5q-59 -77 -126 -131.5t-162 -82.5v-2v0zM900 596q-15 -7 -34 -16t-38.5 -17t-39 -13.5t-36.5 -5.5q-34 0 -53 20t-19 65q0 21 2 29t2 13q0 7 -13 7q-21 -2 -56 -24t-86 -80
q-21 -25 -33.5 -42.5t-20 -29t-10.5 -16.5t-5 -5q-6 0 -6 5q0 2 10 19t27 40.5t40 51t49.5 50t55 37.5t56.5 14q23 0 36.5 -13t15.5 -54q1 -23 3 -36t5 -20t8 -9t11 -2q21 0 42.5 7.5t42.5 18t40 21.5t33 19q39 24 60.5 39t32.5 24t16 12t10 3q10 0 15 -5t5 -12
q0 -11 -13.5 -17.5t-33 -13.5t-41 -16t-37.5 -24q-20 -20 -42.5 -55.5t-49 -82.5t-58.5 -104t-71 -121q-81 -135 -194.5 -199t-242.5 -64q-61 0 -108.5 15t-80 41.5t-49.5 62.5t-17 77q0 49 22 93t58.5 76.5t84.5 51.5t100 19q34 0 67.5 -9.5t60 -28.5t43 -47.5t16.5 -66.5
t-19 -69t-49 -53.5t-67.5 -35t-74.5 -12.5q-20 0 -39 3.5t-34 8.5t-24.5 10t-9.5 8q0 6 6 6q1 0 8.5 -4t20 -8.5t30 -8t39.5 -3.5q34 0 69.5 11.5t63.5 32.5t46 51t18 66q0 21 -10 40.5t-30.5 35.5t-50.5 25.5t-70 9.5q-47 0 -91.5 -15t-79.5 -43.5t-56.5 -68.5t-21.5 -89
q0 -44 19.5 -76t51 -53t72.5 -31t84 -10q55 0 107 13.5t101 46.5t95.5 88.5t91.5 138.5q25 45 48 82.5t49 72.5t56.5 70t70.5 76l-2 2v0z" />
    </font>
</defs>
</svg>
