<?xml version="1.0" standalone="no"?>
  <!DOCTYPE svg PUBLIC "-//W3C//DTD SVG 1.1//EN" "http://www.w3.org/Graphics/SVG/1.1/DTD/svg11.dtd" >
  <svg>
  <metadata>
  Created by font-carrier
  </metadata>
  <defs>
  <font id="AllegrettoScriptOne" horiz-adv-x="1188" vert-adv-y="1188" >
    <font-face
      
      font-family="Allegretto Script One"
      
      font-weight="400"
      
      font-stretch="normal"
      
      units-per-em="1000"
      
      ascent="917"
      
      descent="-318"
      
    />
      <missing-glyph />

      

      
      <glyph glyph-name="uni24" unicode="&#x24;" d="M378 366Q388 359 391 349Q394 339 399 329Q398 326 403 325Q408 324 410 324Q420 324 432 339.50Q444 355 444 383Q444 399 435 412Q426 425 414 435L378 366M327 464Q290 459 263 435.50Q236 412 236 370Q236 357 238.50 345.50Q241 334 249 318L327 464M185 3Q209 5 227 15Q245 25 256.50 39Q268 53 274 69.50Q280 86 280 101Q280 125 277 138.50Q274 152 270 163L185 3M136 107Q129 108 127.50 117Q126 126 126 130Q126 136 128 146Q123 157 113.50 160.50Q104 164 93 164Q65 164 51.50 143.50Q38 123 38 97Q38 72 52 52.50Q66 33 90 21L136 107M257 301Q265 285 273 268.50Q281 252 289 235L334 320Q332 322 330 328Q328 334 328 337Q328 353 336 363.50Q344 374 361 374L400 445Q390 453 374.50 457.50Q359 462 345 464L257 301M105 15Q116 9 133 6.50Q150 4 165 3L260 181Q253 198 245 214Q237 230 229 247L177 150Q182 139 182 127Q182 113 173.50 104.50Q165 96 157 96Q152 96 149 97L105 15M220 264Q209 284 202.50 307.50Q196 331 196 354Q196 381 207.50 403Q219 425 238.50 441Q258 457 282.50 466Q307 475 333 476L362 530L381 530L351 475Q365 473 379 468Q393 463 406 457L445 530L465 530L420 447Q437 435 446.50 420Q456 405 456 382Q456 345 434 321.50Q412 298 381 298Q363 298 348 310L298 216Q304 202 308.50 190.50Q313 179 315.50 168.50Q318 158 319 146Q320 134 320 119Q320 93 308.50 70Q297 47 278 29.50Q259 12 234 1.50Q209-9 182-9L178-9L148-66L130-66L160-8Q143-7 127-4.50Q111-2 99 3L62-66L44-66L85 11Q55 23 40.50 47Q26 71 26 101Q26 137 50.50 161.50Q75 186 111 186Q126 186 139.50 179Q153 172 166 163L220 264Z"  horiz-adv-x="389" vert-adv-y="1000"  />

      
      <glyph glyph-name="uni25" unicode="&#x25;" d="M214-6L620 556L642 556L236-6L214-6M698 293Q698 327 685 336.50Q672 346 658 346Q639 346 617.50 332.50Q596 319 574.50 296.50Q553 274 533.50 245.50Q514 217 499 187Q484 157 475 127.50Q466 98 466 74Q466 53 477.50 34.50Q489 16 512 16Q527 16 546.50 28.50Q566 41 587 62.50Q608 84 627.50 112Q647 140 663 171Q679 202 688.50 233.50Q698 265 698 293M414 481Q414 515 401 524.50Q388 534 374 534Q355 534 333.50 520.50Q312 507 290.50 484.50Q269 462 249.50 433.50Q230 405 215 375Q200 345 191 315.50Q182 286 182 262Q182 241 193.50 222.50Q205 204 228 204Q243 204 262.50 216.50Q282 229 303 250.50Q324 272 343.50 300Q363 328 379 359Q395 390 404.50 421.50Q414 453 414 481M367 550Q388 550 401.50 543Q415 536 422.50 525Q430 514 433 499.50Q436 485 436 470Q436 446 427 415.50Q418 385 402 353.50Q386 322 365 292.50Q344 263 320.50 239.50Q297 216 272 202Q247 188 224 188Q201 188 185 198Q169 208 159.50 223Q150 238 146 256Q142 274 142 291Q142 333 163 378.50Q184 424 217 462.50Q250 501 289.50 525.50Q329 550 367 550M651 362Q672 362 685.50 355Q699 348 706.50 337Q714 326 717 311.50Q720 297 720 282Q720 258 711 227.50Q702 197 686 165.50Q670 134 649 104.50Q628 75 604.50 51.50Q581 28 556 14Q531 0 508 0Q485 0 469 10Q453 20 443.50 35Q434 50 430 68Q426 86 426 103Q426 145 447 190.50Q468 236 501 274.50Q534 313 573.50 337.50Q613 362 651 362Z"  horiz-adv-x="778" vert-adv-y="1000"  />

      
      <glyph glyph-name="uni26" unicode="&#x26;" d="M288 393Q288 378 288.50 362.50Q289 347 294 332Q320 342 351 353Q382 364 408.50 380.50Q435 397 452.50 421Q470 445 470 480Q470 506 453.50 524Q437 542 409 542Q380 542 358 527.50Q336 513 320 491.50Q304 470 296 443.50Q288 417 288 393M98 96Q98 58 119.50 32Q141 6 180 6Q238 6 286.50 36Q335 66 370 108Q350 161 326 210Q302 259 286 315Q250 301 216 281Q182 261 156 234Q130 207 114 173Q98 139 98 96M410-24Q410-78 388-130Q366-182 327-222.50Q288-263 234-287.50Q180-312 117-312Q89-312 60.50-303.50Q32-295 9.50-278.50Q-13-262-27.50-237.50Q-42-213-42-182Q-43-145-26.50-120.50Q-10-96 11-82Q32-68 52-62Q72-56 78-56Q84-56 84-61Q84-66 72-66.50Q60-67 34-80Q27-84 16-91Q5-98-5-108.50Q-15-119-22.50-134.50Q-30-150-30-170Q-30-198-17-218.50Q-4-239 15-252Q34-265 56-271.50Q78-278 96-278Q150-278 202.50-255Q255-232 297-193Q339-154 364.50-103Q390-52 390 3Q390 22 385.50 50Q381 78 374 97Q357 76 336.50 57.50Q316 39 291.50 25Q267 11 239 2.50Q211-6 180-6Q152-6 127 2.50Q102 11 83.50 26.50Q65 42 54.50 63.50Q44 85 44 112Q44 162 66.50 197Q89 232 124 257Q159 282 201 299Q243 316 283 329Q276 354 276 383Q276 411 284 441.50Q292 472 308.50 497Q325 522 349.50 538Q374 554 407 554Q442 554 462 533.50Q482 513 482 478Q482 444 463 418.50Q444 393 416 374Q388 355 356 342Q324 329 298 319Q301 302 310.50 276.50Q320 251 332.50 223Q345 195 358 167.50Q371 140 380 120Q396 140 414 162Q432 184 448.50 206Q465 228 479.50 248Q494 268 505 284Q518 303 537.50 327Q557 351 580.50 372Q604 393 629.50 407.50Q655 422 681 422Q697 422 707.50 413.50Q718 405 718 388Q718 371 708 361.50Q698 352 681 352Q671 352 665 357.50Q659 363 655 370Q651 377 646.50 382.50Q642 388 635 388Q628 388 616 381Q604 374 589 361.50Q574 349 558 332Q542 315 528 296Q493 247 455.50 199.50Q418 152 385 110Q410 47 410-24Z"  horiz-adv-x="500" vert-adv-y="1000"  />

      
      <glyph glyph-name="uni2019" unicode="&#x2019;" d="M314 480Q314 460 295 433Q276 406 252 382Q228 358 205.50 341Q183 324 177 324Q172 324 172 329Q172 332 175 334.50Q178 337 189 345Q218 366 235.50 386.50Q253 407 254 427Q255 476 264 492Q273 508 293 508Q304 508 309 499.50Q314 491 314 480Z"  horiz-adv-x="222" vert-adv-y="1000"  />

      
      <glyph glyph-name="uni28" unicode="&#x28;" d="M164 34Q164 121 202 209Q240 297 308 380Q376 463 470 537.50Q564 612 676 672Q694 682 711.50 690Q729 698 732 698Q736 698 736 694Q736 692 735 691Q734 690 730 688Q726 686 718 682Q710 678 696 671Q640 642 582 597Q524 552 469 497Q414 442 366 378.50Q318 315 282 247.50Q246 180 225 111Q204 42 204-24Q204-68 212.50-99Q221-130 231.50-151Q242-172 250.50-183.50Q259-195 259-198Q259-200 256-200Q253-200 243.50-191Q234-182 218-157Q202-132 191.50-108.50Q181-85 175-62Q169-39 166.50-15.50Q164 8 164 34Z"  horiz-adv-x="500" vert-adv-y="1000"  />

      
      <glyph glyph-name="uni29" unicode="&#x29;" d="M448 464Q448 377 410 289Q372 201 304 118Q236 35 142-39.50Q48-114-64-174Q-82-184-99.50-192Q-117-200-120-200Q-124-200-124-196Q-124-194-123-193Q-122-192-118-190Q-114-188-106-184.50Q-98-181-84-173Q-28-144 30-99Q88-54 143 1Q198 56 246 119.50Q294 183 330 250.50Q366 318 387 387Q408 456 408 522Q408 565 399.50 596.50Q391 628 380.50 649Q370 670 361.50 681.50Q353 693 353 696Q353 698 356 698Q359 698 368.50 689Q378 680 394 655Q426 604 437 560Q448 516 448 464Z"  horiz-adv-x="500" vert-adv-y="1000"  />

      
      <glyph glyph-name="uni2a" unicode="&#x2a;" d="M200 486Q193 486 188.50 492.50Q184 499 184 507Q184 520 213.50 528.50Q243 537 314 557Q278 581 256.50 594.50Q235 608 224 616.50Q213 625 209.50 629.50Q206 634 206 640Q206 648 210.50 654Q215 660 223 660Q230 660 236 656.50Q242 653 252 643Q262 633 278 615Q294 597 322 569L328 671Q329 686 333.50 692Q338 698 348 698Q359 698 364.50 692.50Q370 687 370 680Q370 676 368 670Q366 664 361.50 652Q357 640 350.50 620Q344 600 336 569Q351 574 369 583.50Q387 593 404 602Q421 611 435 617.50Q449 624 455 624Q462 624 467 617Q472 610 472 606Q472 595 466.50 590Q461 585 446 581Q431 577 405 571.50Q379 566 337 556Q357 543 377.50 530.50Q398 518 414.50 507.50Q431 497 441.50 488.50Q452 480 452 476Q452 466 446 459Q440 452 429 452Q425 452 419.50 456.50Q414 461 403.50 472Q393 483 376.50 500.50Q360 518 333 544Q331 494 329 466.50Q327 439 324 426Q321 413 317 410.50Q313 408 307 408Q290 408 290 426Q290 435 293.50 451Q297 467 302 484Q307 501 312 517.50Q317 534 319 544Q311 540 293.50 530.50Q276 521 257 511Q238 501 222 493.50Q206 486 200 486Z"  horiz-adv-x="389" vert-adv-y="1000"  />

      
      <glyph glyph-name="uni2b" unicode="&#x2b;" d="M198 278L228 278L228 154L352 154L352 124L228 124L228 0L198 0L198 124L74 124L74 154L198 154L198 278Z"  horiz-adv-x="400" vert-adv-y="1000"  />

      
      <glyph glyph-name="uni2c" unicode="&#x2c;" d="M182 38Q182 14 163.50-11Q145-36 118.50-57Q92-78 63.50-91Q35-104 16-104Q10-104 10-100Q10-95 15.50-94.50Q21-94 40-87Q83-71 98.50-53Q114-35 116-5Q119 33 127.50 47.50Q136 62 156 62Q167 62 174.50 56.50Q182 51 182 38Z"  horiz-adv-x="222" vert-adv-y="1000"  />

      
      <glyph glyph-name="uni2d" unicode="&#x2d;" d="M289 120L68 120L80 158L301 158L289 120Z"  horiz-adv-x="333" vert-adv-y="1000"  />

      
      <glyph glyph-name="uniad" unicode="&#xad;" d="M289 120L68 120L80 158L301 158L289 120Z"  horiz-adv-x="333" vert-adv-y="1000"  />

      
      <glyph glyph-name="uni2e" unicode="&#x2e;" d="M153 62Q182 62 182 37Q182 17 173 5.50Q164-6 143-6Q131-6 124.50-0.50Q118 5 118 22Q118 39 126 50.50Q134 62 153 62Z"  horiz-adv-x="222" vert-adv-y="1000"  />

      
      <glyph glyph-name="uni2f" unicode="&#x2f;" d="M495 698L530 698L-29-6L-64-6L495 698Z"  horiz-adv-x="278" vert-adv-y="1000"  />

      
      <glyph glyph-name="uni30" unicode="&#x30;" d="M116 61Q116 37 125.50 21.50Q135 6 161 6Q186 6 214 26.50Q242 47 269.50 81Q297 115 321.50 158Q346 201 365 245Q384 289 395 330.50Q406 372 406 404Q406 430 394 445Q382 460 353 460Q330 460 303.50 440Q277 420 251 387.50Q225 355 200.50 313Q176 271 157 226.50Q138 182 127 139Q116 96 116 61M76 120Q76 154 89 193.50Q102 233 123.50 272.50Q145 312 173 348Q201 384 232 411.50Q263 439 294 455.50Q325 472 353 472Q391 472 406.50 452Q422 432 422 390Q422 350 409.50 304.50Q397 259 376 215Q355 171 328 131Q301 91 271.50 60.50Q242 30 213 12Q184-6 160-6Q116-6 96 30Q76 66 76 120Z"  horiz-adv-x="389" vert-adv-y="1000"  />

      
      <glyph glyph-name="uni31" unicode="&#x31;" d="M109 0Q178 111 251 219.50Q324 328 387 434L385 436Q343 392 293 344Q243 296 177 243Q138 212 122.50 201Q107 190 100 190Q96 190 96 195Q96 198 101.50 203Q107 208 122.50 219.50Q138 231 166 252.50Q194 274 238 312Q284 351 315 381Q346 411 365.50 431.50Q385 452 395 462Q405 472 409 472Q414 472 414 462Q414 457 404 434Q394 411 377.50 375.50Q361 340 338.50 294.50Q316 249 290.50 200Q265 151 238 101Q211 51 185 6Q165 6 146.50 4Q128 2 109 0Z"  horiz-adv-x="389" vert-adv-y="1000"  />

      
      <glyph glyph-name="uni32" unicode="&#x32;" d="M63 53Q63 54 72.50 62Q82 70 96 80Q110 90 128 98Q146 106 163 106Q173 106 183.50 103Q194 100 203 93.50Q212 87 217.50 75.50Q223 64 223 47Q223 31 228 23.50Q233 16 247 16Q256 16 268.50 23.50Q281 31 294 42.50Q307 54 320 68.50Q333 83 344 97Q355 111 359.50 116.50Q364 122 366 122Q371 122 371 116Q371 114 362.50 101Q354 88 323 53Q303 30 277 12Q251-6 222-6Q190-6 178 9.50Q166 25 163 48Q160 69 157 76.50Q154 84 141 84Q133 84 122 79Q111 74 99 66Q87 58 74.50 47.50Q62 37 53 26Q35 4 29-4Q23-12 20-12Q14-12 14-4Q14-1 18 9Q22 19 29 32Q36 45 46 59Q56 73 69 85Q86 102 107 117.50Q128 133 153.50 150.50Q179 168 210.50 189Q242 210 281 238Q303 254 322 275Q341 296 354.50 318.50Q368 341 375.50 363Q383 385 383 403Q383 437 364 448.50Q345 460 316 460Q286 460 257.50 447.50Q229 435 207 415Q185 395 171.50 370.50Q158 346 158 323Q158 303 169.50 290.50Q181 278 202 278Q219 278 236 289.50Q253 301 267 317.50Q281 334 292 352.50Q303 371 308 385Q316 406 319.50 413Q323 420 325 420Q330 420 330 413Q330 391 320.50 365Q311 339 294.50 316Q278 293 254.50 277.50Q231 262 204 262Q181 262 163.50 276Q146 290 146 320Q146 347 160 374Q174 401 198 423Q222 445 253.50 458.50Q285 472 319 472Q370 472 398.50 448Q427 424 427 380Q427 327 401.50 292.50Q376 258 338 234Q300 210 256 192Q212 174 176 152Q155 140 134.50 125Q114 110 98 96.50Q82 83 72 72.50Q62 62 62 58L63 53Z"  horiz-adv-x="389" vert-adv-y="1000"  />

      
      <glyph glyph-name="uni33" unicode="&#x33;" d="M431 396Q431 362 412 338.50Q393 315 366 298.50Q339 282 308.50 270Q278 258 255 246L255 244Q299 244 324 221.50Q349 199 349 163Q349 131 331.50 100.50Q314 70 286 46.50Q258 23 222.50 8.50Q187-6 150-6Q119-6 98.50 1.50Q78 9 66 21.50Q54 34 49 49.50Q44 65 44 80Q44 96 54.50 111.50Q65 127 82 127Q99 127 106 118.50Q113 110 113 99Q113 72 80 63Q71 61 68.50 57Q66 53 66 48Q67 31 84.50 18.50Q102 6 136 6Q164 6 194 24.50Q224 43 248.50 70.50Q273 98 289 131Q305 164 305 194Q305 232 260 232Q245 232 232.50 228Q220 224 211 218.50Q202 213 196 209Q190 205 187 205Q180 205 180 213Q180 216 183 218Q186 220 195 224.50Q204 229 220 237Q236 245 261 260Q332 304 359.50 342Q387 380 387 413Q387 460 335 460Q310 460 284.50 450Q259 440 239 424Q219 408 206 388Q193 368 193 348Q193 334 203 327Q213 320 222 320Q247 320 272.50 343.50Q298 367 318 398Q328 414 328.50 420Q329 426 334 426Q337 426 337 418Q338 401 330 382Q322 363 308 346.50Q294 330 274.50 319Q255 308 233 308Q210 308 195.50 318Q181 328 181 351Q181 369 193.50 390Q206 411 228 429.50Q250 448 278.50 460Q307 472 339 472Q355 472 371.50 467.50Q388 463 401 453.50Q414 444 422.50 429.50Q431 415 431 396Z"  horiz-adv-x="389" vert-adv-y="1000"  />

      
      <glyph glyph-name="uni34" unicode="&#x34;" d="M355 472Q289 377 222 284Q155 191 80 105L82 103Q106 114 134 114Q152 114 164 112.50Q176 111 186 109.50Q196 108 207 107Q218 106 234 106Q292 194 324 242.50Q356 291 371.50 314Q387 337 391.50 342Q396 347 399 347Q406 347 406 342Q406 340 402 333Q398 326 386 302.50Q374 279 351 233Q328 187 289 108Q312 108 327 116Q342 124 356 132Q369 140 371 142Q373 144 375 144Q379 144 379 139Q379 136 372 129Q365 122 352.50 114.50Q340 107 322 101.50Q304 96 283 96L239 0Q231 0 220-0.50Q209-1 197-1.50Q185-2 175-2.50Q165-3 159-3L225 94Q207 94 195.50 95Q184 96 175 97.50Q166 99 156.50 100.50Q147 102 132 102Q100 102 81.50 91Q63 80 58 80Q54 80 54 86Q54 90 68.50 108Q83 126 111.50 168.50Q140 211 181 283Q222 355 275 466L355 472Z"  horiz-adv-x="389" vert-adv-y="1000"  />

      
      <glyph glyph-name="uni35" unicode="&#x35;" d="M163 241L164 240Q181 257 206 271Q231 285 261 285Q309 285 333.50 256.50Q358 228 358 186Q358 150 338 115.50Q318 81 287 54Q256 27 218 10.50Q180-6 145-6Q94-6 70 17.50Q46 41 46 71Q46 97 58 112.50Q70 128 89 128Q120 128 120 101Q120 84 109.50 77Q99 70 84 68Q75 66 73.50 60.50Q72 55 72 47Q72 33 84.50 19.50Q97 6 129 6Q167 6 200 28Q233 50 257.50 84Q282 118 296 156.50Q310 195 310 228Q310 248 295 260.50Q280 273 258 273Q234 273 214 262.50Q194 252 179 239.50Q164 227 154 216.50Q144 206 139 206Q131 206 131 212Q131 214 134 219Q137 224 151 246Q165 268 193.50 314.50Q222 361 273 445Q281 456 283.50 461Q286 466 291 466Q297 466 304.50 463.50Q312 461 322.50 458Q333 455 348 452.50Q363 450 384 450Q426 450 447 461Q468 472 471 472Q475 472 475 468Q475 464 465.50 453.50Q456 443 437.50 431.50Q419 420 391.50 411Q364 402 329 402Q315 402 300.50 404.50Q286 407 273 413L163 241Z"  horiz-adv-x="389" vert-adv-y="1000"  />

      
      <glyph glyph-name="uni36" unicode="&#x36;" d="M108 51Q108 31 119 18.50Q130 6 147 6Q175 6 204 30Q233 54 256 88.50Q279 123 293.50 160.50Q308 198 308 226Q308 253 299.50 266.50Q291 280 270 280Q240 280 211 255Q182 230 159 194Q136 158 122 118.50Q108 79 108 51M352 199Q352 166 336 129.50Q320 93 293 63Q266 33 231.50 13.50Q197-6 160-6Q116-6 95 25Q74 56 74 110Q74 151 90 194Q106 237 132 277.50Q158 318 192.50 353.50Q227 389 264.50 415Q302 441 339 456.50Q376 472 409 472Q448 472 471 454.50Q494 437 494 405Q494 384 482.50 371.50Q471 359 459 359Q428 359 428 389Q428 401 432.50 407Q437 413 442 416.50Q447 420 451.50 423.50Q456 427 456 433Q456 444 443.50 452Q431 460 407 460Q380 460 352.50 446Q325 432 298 409.50Q271 387 247 358.50Q223 330 204 302.50Q185 275 171.50 250Q158 225 153 209L155 207Q164 220 175.50 235Q187 250 202 262.50Q217 275 234.50 283.50Q252 292 272 292Q307 292 329.50 265Q352 238 352 199Z"  horiz-adv-x="389" vert-adv-y="1000"  />

      
      <glyph glyph-name="uni37" unicode="&#x37;" d="M249 486Q235 466 221.50 445Q208 424 194 405L196 403Q202 409 213 418Q224 427 236.50 436Q249 445 261 451.50Q273 458 281 458Q296 458 308 451Q320 444 331.50 435Q343 426 355.50 419Q368 412 385 412Q403 412 415 417.50Q427 423 437 432Q444 439 447.50 446Q451 453 454 459Q457 465 460.50 468.50Q464 472 470 472Q477 472 477 463Q477 451 460.50 434.50Q444 418 418 381Q386 336 360.50 299Q335 262 308.50 220.50Q282 179 251 127Q220 75 178 0Q147-1 129.50-1.50Q112-2 98-6Q121 31 150.50 72Q180 113 212 154Q244 195 275.50 234Q307 273 336 307Q365 341 388 367.50Q411 394 426 409L424 411Q404 401 383 391.50Q362 382 338 382Q326 382 313 388Q300 394 287.50 401.50Q275 409 264 415.50Q253 422 245 422Q227 422 212 408Q197 394 185 376.50Q173 359 162.50 345Q152 331 143 331Q130 331 130 343Q130 352 136.50 360.50Q143 369 151.50 377Q160 385 169 392Q178 399 183 406Q186 410 192.50 420.50Q199 431 205.50 442.50Q212 454 218 465Q224 476 227 481L249 486Z"  horiz-adv-x="389" vert-adv-y="1000"  />

      
      <glyph glyph-name="uni38" unicode="&#x38;" d="M400 399Q400 429 382.50 444.50Q365 460 333 460Q315 460 298 452Q281 444 268.50 430Q256 416 248 398Q240 380 240 361Q240 333 253 310Q266 287 282 266Q305 275 326 287.50Q347 300 363.50 316.50Q380 333 390 353.50Q400 374 400 399M278 121Q278 135 274 150.50Q270 166 263.50 181Q257 196 249 210Q241 224 233 234Q210 224 184.50 209.50Q159 195 138 176Q117 157 103.50 133.50Q90 110 90 81Q90 41 110.50 23.50Q131 6 168 6Q192 6 212 15Q232 24 247 40Q262 56 270 76.50Q278 97 278 121M328 149Q328 120 315.50 92Q303 64 281 42Q259 20 228 7Q197-6 161-6Q135-6 115.50 1.50Q96 9 83 22Q70 35 63 51Q56 67 56 84Q56 114 74.50 139.50Q93 165 119.50 185Q146 205 175.50 220Q205 235 226 244Q212 267 201 293Q190 319 190 347Q190 373 202.50 396Q215 419 235 436Q255 453 280.50 462.50Q306 472 333 472Q372 472 397 453.50Q422 435 422 394Q422 366 409.50 344.50Q397 323 377.50 306.50Q358 290 334.50 277.50Q311 265 289 255Q303 231 315.50 204.50Q328 178 328 149Z"  horiz-adv-x="389" vert-adv-y="1000"  />

      
      <glyph glyph-name="uni39" unicode="&#x39;" d="M346 460Q311 460 284 431Q257 402 237.50 363.50Q218 325 208 288.50Q198 252 198 237Q198 217 207.50 203.50Q217 190 240 190Q263 190 289 211Q315 232 337 264Q359 296 373.50 334Q388 372 388 406Q388 431 378.50 445.50Q369 460 346 460M154 275Q154 308 169.50 343Q185 378 210.50 406.50Q236 435 269 453.50Q302 472 336 472Q384 472 403 441.50Q422 411 422 365Q422 286 390 218.50Q358 151 311 101Q264 51 210 22.50Q156-6 111-6Q91-6 72.50-1.50Q54 3 40 12.50Q26 22 18 37.50Q10 53 10 76Q10 91 18.50 101.50Q27 112 45 112Q59 112 66.50 102Q74 92 74 82Q74 72 70 66Q66 60 61 55Q56 50 52 46Q48 42 48 36Q48 23 62.50 14.50Q77 6 107 6Q137 6 166.50 20Q196 34 222.50 56Q249 78 271.50 107Q294 136 312 166Q330 196 342 224.50Q354 253 358 276L356 278Q326 227 297 202.50Q268 178 233 178Q212 178 197 186Q182 194 172.50 207.50Q163 221 158.50 238.50Q154 256 154 275Z"  horiz-adv-x="389" vert-adv-y="1000"  />

      
      <glyph glyph-name="uni3a" unicode="&#x3a;" d="M275 260Q304 260 304 235Q304 215 295 203.50Q286 192 265 192Q253 192 246.50 197.50Q240 203 240 220Q240 237 248 248.50Q256 260 275 260M153 62Q182 62 182 37Q182 17 173 5.50Q164-6 143-6Q131-6 124.50-0.50Q118 5 118 22Q118 39 126 50.50Q134 62 153 62Z"  horiz-adv-x="333" vert-adv-y="1000"  />

      
      <glyph glyph-name="uni3b" unicode="&#x3b;" d="M275 260Q304 260 304 235Q304 215 295 203.50Q286 192 265 192Q253 192 246.50 197.50Q240 203 240 220Q240 237 248 248.50Q256 260 275 260M182 38Q182 14 163.50-11Q145-36 118.50-57Q92-78 63.50-91Q35-104 16-104Q10-104 10-100Q10-95 15.50-94.50Q21-94 40-87Q83-71 98.50-53Q114-35 116-5Q119 33 127.50 47.50Q136 62 156 62Q167 62 174.50 56.50Q182 51 182 38Z"  horiz-adv-x="333" vert-adv-y="1000"  />

      
      <glyph glyph-name="uni3c" unicode="&#x3c;" d="M342-4L64 124L64 154L342 282L342 252L98 139L342 26L342-4Z"  horiz-adv-x="400" vert-adv-y="1000"  />

      
      <glyph glyph-name="uni3d" unicode="&#x3d;" d="M352 70L74 70L74 100L352 100L352 70M352 178L74 178L74 208L352 208L352 178Z"  horiz-adv-x="400" vert-adv-y="1000"  />

      
      <glyph glyph-name="uni3e" unicode="&#x3e;" d="M100 26L344 139L100 252L100 282L378 154L378 124L100-4L100 26Z"  horiz-adv-x="400" vert-adv-y="1000"  />

      
      <glyph glyph-name="uni3f" unicode="&#x3f;" d="M113 62Q142 62 142 37Q142 17 133 5.50Q124-6 103-6Q91-6 84.50-0.50Q78 5 78 22Q78 39 86 50.50Q94 62 113 62M343 490Q382 490 405 464Q428 438 428 399Q428 362 413.50 337Q399 312 376.50 293.50Q354 275 328 260.50Q302 246 278 231Q242 208 218.50 184Q195 160 180.50 140Q166 120 158 107Q150 94 146 94Q142 94 142 100Q142 103 151.50 118Q161 133 177 153.50Q193 174 213.50 197.50Q234 221 255 240Q292 273 317 299.50Q342 326 358 349.50Q374 373 381 393Q388 413 388 433Q388 456 372.50 467Q357 478 336 478Q318 478 300.50 471.50Q283 465 269 454.50Q255 444 246.50 430Q238 416 238 400Q251 395 259.50 389Q268 383 268 367Q268 356 260 348Q252 340 239 340Q223 340 215.50 350.50Q208 361 208 377Q208 399 220.50 419.50Q233 440 252.50 455.50Q272 471 296 480.50Q320 490 343 490Z"  horiz-adv-x="389" vert-adv-y="1000"  />

      
      <glyph glyph-name="uni40" unicode="&#x40;" d="M636 420Q636 452 621.50 469Q607 486 569 486Q540 486 511.50 467Q483 448 460.50 418Q438 388 424.50 351.50Q411 315 411 279Q411 228 430.50 209Q450 190 483 190Q501 190 525 205Q549 220 572 249.50Q595 279 613 321.50Q631 364 636 420M661 512L705 512L639 255Q637 246 635.50 240Q634 234 634 228Q634 210 650.50 193.50Q667 177 690 177Q730 177 759.50 198Q789 219 808.50 253Q828 287 837.50 328Q847 369 847 410Q847 453 826.50 500Q806 547 767 586.50Q728 626 670.50 652Q613 678 538 678Q469 678 410 654Q351 630 308.50 585.50Q266 541 242 478Q218 415 218 336Q218 271 240.50 213.50Q263 156 305.50 113Q348 70 409 45Q470 20 548 20Q582 20 609.50 24Q637 28 661 34.50Q685 41 706.50 50Q728 59 750 68L764 51Q714 30 661.50 12Q609-6 549-6Q449-6 377 27.50Q305 61 258 111Q211 161 188.50 220.50Q166 280 166 331Q166 413 196 481Q226 549 277 597Q328 645 395.50 671.50Q463 698 538 698Q609 698 670 675.50Q731 653 776 612.50Q821 572 847 517Q873 462 873 398Q873 359 860.50 316Q848 273 824 237.50Q800 202 765 178.50Q730 155 685 155Q659 155 641.50 164.50Q624 174 613.50 186Q603 198 598.50 210Q594 222 594 227L592 227Q587 220 576.50 208Q566 196 550.50 184.50Q535 173 515.50 164.50Q496 156 473 156Q428 156 401.50 187.50Q375 219 375 282Q375 299 380.50 323Q386 347 397 373.50Q408 400 424.50 426.50Q441 453 463 473.50Q485 494 513.50 507Q542 520 576 520Q607 520 623.50 505.50Q640 491 650 472L661 512Z"  horiz-adv-x="800" vert-adv-y="1000"  />

      
      <glyph glyph-name="uni41" unicode="&#x41;" d="M868 233Q868 263 862.50 296.50Q857 330 848 352Q795 300 746 246Q697 192 640 144Q682 112 735 96Q788 80 836 74Q850 112 859 151.50Q868 191 868 233M874 146Q937 292 1026 423.50Q1115 555 1230 666L1228 668Q1211 666 1172.50 640.50Q1134 615 1083 573.50Q1032 532 973.50 477.50Q915 423 858 362Q871 332 875.50 301Q880 270 880 240Q880 194 872 148L874 146M532 342Q532 274 560.50 228.50Q589 183 628 152Q686 201 737.50 255.50Q789 310 843 365Q829 390 812.50 412.50Q796 435 775.50 452Q755 469 730 479Q705 489 674 489Q648 489 622.50 480.50Q597 472 577 454Q557 436 544.50 408Q532 380 532 342M876 0L804 0L832 62Q778 70 725.50 86.50Q673 103 630 135Q596 105 556.50 79.50Q517 54 472 35Q427 16 376 5Q325-6 270-6Q218-6 171.50 8.50Q125 23 90 50Q55 77 34.50 114Q14 151 14 196Q14 251 39 293.50Q64 336 102 365.50Q140 395 184.50 410.50Q229 426 268 426Q314 426 349 413.50Q384 401 408 380Q432 359 444 332Q456 305 456 275Q456 236 437.50 205Q419 174 390 152.50Q361 131 325 119.50Q289 108 254 108Q223 108 215.50 110Q208 112 208 117Q208 123 214 123Q218 123 224.50 121.50Q231 120 244 120Q283 120 318.50 130.50Q354 141 381 161Q408 181 424 209.50Q440 238 440 273Q440 324 401.50 356Q363 388 287 388Q244 388 200 372.50Q156 357 120.50 329.50Q85 302 62.50 263Q40 224 40 178Q40 141 59.50 109.50Q79 78 111 55Q143 32 184 19Q225 6 267 6Q368 6 452.50 39.50Q537 73 619 143Q566 185 530 238Q494 291 494 360Q494 400 507.50 429.50Q521 459 543 479Q565 499 591.50 509Q618 519 645 519Q679 519 710.50 507.50Q742 496 769 476.50Q796 457 817.50 431Q839 405 853 376Q931 461 999 522Q1067 583 1120.50 622Q1174 661 1211 679.50Q1248 698 1265 698Q1270 698 1270 691Q1270 689 1258 675.50Q1246 662 1224.50 635Q1203 608 1173 565.50Q1143 523 1107 464Q1076 414 1049.50 365Q1023 316 998.50 267Q974 218 950.50 168.50Q927 119 902 70Q923 70 944.50 75Q966 80 990 89Q1011 97 1025 106.50Q1039 116 1048.50 124Q1058 132 1063 137.50Q1068 143 1070 143Q1075 143 1075 138Q1075 135 1063.50 123Q1052 111 1030 97.50Q1008 84 974.50 72Q941 60 898 58L876 0Z"  horiz-adv-x="1056" vert-adv-y="1000"  />

      
      <glyph glyph-name="uni42" unicode="&#x42;" d="M166 348Q166 308 188.50 284Q211 260 257 260Q306 260 354 292.50Q402 325 440.50 372.50Q479 420 502.50 474Q526 528 526 572Q526 608 518.50 633Q511 658 498 672Q448 660 390 632Q332 604 282 562Q232 520 199 466Q166 412 166 348M774 364Q802 358 826.50 344.50Q851 331 869.50 312Q888 293 899 268Q910 243 910 213Q910 168 887 128.50Q864 89 828.50 59Q793 29 749 11.50Q705-6 663-6Q640-6 619.50 1Q599 8 583 20.50Q567 33 557.50 51Q548 69 548 92Q548 127 565.50 155.50Q583 184 601 202Q608 209 617 217Q626 225 634 231.50Q642 238 648 242Q654 246 655 246Q660 246 660 240Q660 237 647.50 228.50Q635 220 612 198Q589 176 574.50 148Q560 120 560 96Q560 54 587.50 30Q615 6 656 6Q698 6 732.50 27.50Q767 49 792.50 83Q818 117 832 157Q846 197 846 235Q846 269 838 292Q830 315 818 329.50Q806 344 791 350Q776 356 761 356Q749 356 742.50 354Q736 352 729.50 350Q723 348 714.50 346Q706 344 691 344Q672 344 672 358Q672 366 680.50 370Q689 374 711 374Q726 374 733.50 373Q741 372 747 372Q777 372 802 389Q827 406 844 431.50Q861 457 870.50 487Q880 517 880 544Q880 582 869 606Q858 630 832 646Q786 615 750 569.50Q714 524 684 473Q654 422 627 370Q600 318 572 273Q542 225 502 175Q462 125 414 85Q366 45 310.50 19.50Q255-6 193-6Q167-6 145 0.50Q123 7 106.50 19Q90 31 81 46.50Q72 62 72 80Q72 97 84 108.50Q96 120 113 120Q150 120 150 84Q150 74 145 65.50Q140 57 140 49Q140 32 153 19Q166 6 198 6Q238 6 277 19Q316 32 354 64Q392 96 431.50 149.50Q471 203 513 285Q546 349 578.50 402Q611 455 647.50 500Q684 545 726 583Q768 621 818 654Q774 674 725 682Q676 690 627 690Q571 690 512 676Q535 655 545.50 621Q556 587 556 557Q556 503 531.50 447Q507 391 466 346Q425 301 371 272.50Q317 244 258 244Q213 244 181.50 271Q150 298 150 351Q150 408 182.50 461.50Q215 515 265 559.50Q315 604 374.50 635.50Q434 667 488 680Q464 699 435 707.50Q406 716 376 716Q336 716 299.50 704.50Q263 693 231.50 674.50Q200 656 175 633Q150 610 134 586Q111 553 99.50 531.50Q88 510 83 497.50Q78 485 77 480.50Q76 476 73 476Q68 476 68 481Q68 485 80.50 515.50Q93 546 124 589Q144 617 171.50 642.50Q199 668 231.50 687Q264 706 301 717Q338 728 377 728Q411 728 443.50 717Q476 706 502 685Q535 693 567 697.50Q599 702 631 702Q737 702 833 663Q850 672 868.50 682Q887 692 903 692Q907 692 907 688Q907 686 903 684.50Q899 683 891.50 680.50Q884 678 873 672.50Q862 667 847 657Q888 636 913 602Q938 568 938 523Q938 491 923 465Q908 439 884 419Q860 399 831 386Q802 373 774 366L774 364Z"  horiz-adv-x="944" vert-adv-y="1000"  />

      
      <glyph glyph-name="uni43" unicode="&#x43;" d="M634 223Q634 254 619 273Q604 292 572 292Q540 292 508 267.50Q476 243 450 205Q424 167 407.50 120Q391 73 391 28L391 6Q428 7 471 26Q514 45 550 75Q586 105 610 143.50Q634 182 634 223M798 686Q766 686 732 677.50Q698 669 666 655.50Q634 642 605.50 626.50Q577 611 557 597Q570 580 580.50 563Q591 546 599 531.50Q607 517 611.50 507.50Q616 498 616 497Q616 491 610 491Q608 491 605 497.50Q602 504 595.50 516.50Q589 529 578 548Q567 567 548 592Q482 550 430.50 493Q379 436 340 368Q408 368 472.50 381Q537 394 594 415.50Q651 437 698.50 464.50Q746 492 780 522Q814 552 833 581.50Q852 611 852 636Q852 656 840 671Q828 686 798 686M299 716Q252 716 212.50 701.50Q173 687 144.50 662.50Q116 638 100 606Q84 574 84 540Q84 502 102.50 471.50Q121 441 149.50 419.50Q178 398 212 386Q246 374 278 372Q300 409 332.50 444Q365 479 400.50 509Q436 539 472 564Q508 589 537 606Q493 660 430 688Q367 716 299 716M864 634Q864 604 841 571Q818 538 778.50 505.50Q739 473 686.50 443Q634 413 574 389.50Q514 366 450.50 351Q387 336 326 334Q303 285 287.50 232.50Q272 180 272 125Q272 64 293.50 36Q315 8 378 6Q377 14 376 21.50Q375 29 375 37Q375 95 390 145Q405 195 431 231Q457 267 492 287.50Q527 308 568 308Q606 308 626 283Q646 258 646 222Q646 179 622 139.50Q598 100 560.50 69Q523 38 478 18Q433-2 392-5Q396-47 403-70.50Q410-94 410-98Q410-104 405-104Q403-104 399-93Q395-82 391-66Q387-50 384-33.50Q381-17 380-6Q295-6 251.50 41.50Q208 89 208 169Q208 188 212.50 210Q217 232 224 254.50Q231 277 240 298Q249 319 258 336Q220 339 185.50 354.50Q151 370 125 394.50Q99 419 83.50 451.50Q68 484 68 522Q68 567 86 605Q104 643 136 670Q168 697 212 712.50Q256 728 309 728Q336 728 368 721Q400 714 431.50 700Q463 686 493 664Q523 642 547 612Q572 626 602 641.50Q632 657 663.50 669.50Q695 682 727.50 690Q760 698 790 698Q822 698 843 683Q864 668 864 634Z"  horiz-adv-x="667" vert-adv-y="1000"  />

      
      <glyph glyph-name="uni44" unicode="&#x44;" d="M210 322Q210 276 236 257Q262 238 304 238Q356 238 401.50 265Q447 292 481.50 334.50Q516 377 536 428Q556 479 556 527Q556 567 543 607.50Q530 648 501 676Q448 660 395.50 626.50Q343 593 302 546.50Q261 500 235.50 443Q210 386 210 322M334 8Q351 9 370.50 7.50Q390 6 420 6Q511 6 595.50 33Q680 60 745.50 111.50Q811 163 850.50 237Q890 311 890 406Q890 457 874 508.50Q858 560 821 598Q790 563 765.50 524.50Q741 486 718.50 446Q696 406 674.50 364.50Q653 323 629 282Q607 244 575.50 201.50Q544 159 506 120.50Q468 82 424 52Q380 22 334 10L334 8M104 27Q104 44 146 44Q172 44 194.50 40Q217 36 238 31.50Q259 27 279.50 23.50Q300 20 322 20Q358 20 392 46.50Q426 73 457.50 114Q489 155 518.50 205.50Q548 256 574 304Q606 362 635.50 408.50Q665 455 693 492.50Q721 530 749 559.50Q777 589 806 613Q789 631 764.50 644.50Q740 658 711.50 667.50Q683 677 653.50 681.50Q624 686 596 686Q576 686 554 684.50Q532 683 514 679Q542 652 555 610Q568 568 568 532Q568 480 547 426Q526 372 489.50 327.50Q453 283 404 254.50Q355 226 300 226Q270 226 244 236Q218 246 199.50 264.50Q181 283 170.50 308.50Q160 334 160 365Q160 427 190 481Q220 535 267.50 577Q315 619 373 647.50Q431 676 488 687Q463 704 431.50 712Q400 720 369 720Q291 720 231 682Q171 644 126 582Q98 543 84 504.50Q70 466 63 435Q56 404 53 385Q50 366 46 366Q42 366 42 373Q42 376 44 395Q46 414 52.50 442Q59 470 71 503Q83 536 103 567Q156 650 226 691Q296 732 371 732Q400 732 436.50 722Q473 712 502 690Q529 694 551.50 696Q574 698 589 698Q619 698 650.50 693.50Q682 689 712 679Q742 669 768.50 654.50Q795 640 815 621Q834 636 855.50 650Q877 664 895.50 674.50Q914 685 927 691.50Q940 698 941 698Q946 698 946 689Q946 687 935.50 682Q925 677 908.50 667Q892 657 871 642.50Q850 628 829 606Q866 566 884 515.50Q902 465 902 411Q902 306 859.50 228Q817 150 746.50 98Q676 46 585.50 20Q495-6 400-6Q380-6 359.50-3Q339 0 319 0Q293 0 267.50-3Q242-6 216-6Q104-6 104 27Z"  horiz-adv-x="889" vert-adv-y="1000"  />

      
      <glyph glyph-name="uni45" unicode="&#x45;" d="M670 664Q670 696 624 696Q607 696 588.50 690.50Q570 685 552 677Q534 669 517 659Q500 649 486 640Q503 621 518 604.50Q533 588 533 586Q533 580 528 580Q526 580 523.50 583Q521 586 516 592Q511 598 501.50 608.50Q492 619 476 634Q432 602 402 560.50Q372 519 372 468Q417 475 469 494Q521 513 566 540Q611 567 640.50 599.50Q670 632 670 664M522 222Q522 253 506 272.50Q490 292 458 292Q428 292 396 266.50Q364 241 338 202Q312 163 295 117Q278 71 278 30Q278 23 278 17Q278 11 279 6Q318 4 361 22.50Q404 41 440 72Q476 103 499 142Q522 181 522 222M110 596Q110 561 124.50 536Q139 511 163 494.50Q187 478 219 470Q251 462 287 462Q295 462 304 462.50Q313 463 322 464Q321 471 320.50 477.50Q320 484 320 492Q320 520 331.50 544.50Q343 569 362 590Q381 611 404 627.50Q427 644 450 656Q413 685 369 701.50Q325 718 278 718Q254 718 224.50 710.50Q195 703 169.50 688Q144 673 127 650Q110 627 110 596M396 402Q365 413 337 440Q305 432 277 432Q236 432 201 442Q166 452 140 470Q114 488 99 514.50Q84 541 84 574Q84 612 102 641Q120 670 148 690Q176 710 211 720Q246 730 280 730Q330 730 376 711.50Q422 693 460 662Q498 680 539 694Q580 708 624 708Q651 708 666.50 696.50Q682 685 682 657Q682 634 664 609.50Q646 585 618 562Q590 539 555 519Q520 499 486 483.50Q452 468 422 458.50Q392 449 374 448Q379 431 389.50 418.50Q400 406 419 406Q424 406 433.50 408Q443 410 456 410Q470 410 483 405.50Q496 401 496 395Q496 382 473 382Q447 382 435 388Q423 394 414 394Q384 394 342.50 375.50Q301 357 263.50 322.50Q226 288 200 238.50Q174 189 174 128Q174 72 196.50 43Q219 14 266 7Q264 16 263 26Q262 36 262 46Q262 103 278 151Q294 199 321 234Q348 269 383.50 288.50Q419 308 457 308Q494 308 514 282Q534 256 534 222Q534 178 510 137.50Q486 97 448.50 65.50Q411 34 366 14.50Q321-5 280-6Q283-38 291.50-66Q300-94 300-99Q300-102 295-102Q291-102 289.50-93Q288-84 280-59Q275-45 272.50-30.50Q270-16 268-6Q234-6 204.50 3.50Q175 13 153 31Q131 49 118.50 76.50Q106 104 106 140Q106 194 133.50 238.50Q161 283 204 316.50Q247 350 298 371.50Q349 393 396 400L396 402Z"  horiz-adv-x="556" vert-adv-y="1000"  />

      
      <glyph glyph-name="uni46" unicode="&#x46;" d="M740 664Q660 664 600.50 648Q541 632 502 606.50Q463 581 443.50 549Q424 517 424 485Q424 448 451 425Q478 402 522 402Q558 402 591 411.50Q624 421 653.50 436.50Q683 452 708 472Q733 492 753 513Q769 531 779.50 545Q790 559 796 568.50Q802 578 805 583Q808 588 810 588Q813 588 814.50 586Q816 584 816 582Q816 581 808.50 564.50Q801 548 785.50 525Q770 502 747.50 475Q725 448 696 425Q667 402 630.50 387Q594 372 552 372Q519 372 492.50 381.50Q466 391 447 406Q428 421 418 441Q408 461 408 482Q408 504 416.50 527.50Q425 551 445.50 574Q466 597 499 618.50Q532 640 582 658Q610 668 641.50 674.50Q673 681 721 684.50Q769 688 840.50 689Q912 690 1022 690Q1072 690 1108.50 693Q1145 696 1170 699Q1195 702 1209.50 705Q1224 708 1232 708Q1234 708 1234 703Q1234 700 1224 689.50Q1214 679 1194.50 668Q1175 657 1146 648.50Q1117 640 1079 640Q1037 640 999 643.50Q961 647 921.50 651.50Q882 656 838 660Q794 664 740 664M283 394Q236 394 189.50 378Q143 362 105 333.50Q67 305 43.50 266.50Q20 228 20 182Q20 143 39 110.50Q58 78 92 55Q126 32 173 19Q220 6 276 6Q356 6 420 26.50Q484 47 536 85.50Q588 124 630 178.50Q672 233 710 302Q668 290 634 268Q600 246 575 223Q554 203 550 195.50Q546 188 542 188Q537 188 537 194Q537 196 549.50 211Q562 226 585.50 245.50Q609 265 643 285Q677 305 720 316Q740 347 760.50 378Q781 409 800.50 437Q820 465 837.50 488Q855 511 870 525Q895 549 918.50 567.50Q942 586 961.50 599Q981 612 994.50 619Q1008 626 1012 626Q1016 626 1016 622Q1016 617 996 606.50Q976 596 944 568Q922 548 900 516.50Q878 485 857.50 450Q837 415 820 381.50Q803 348 790 324Q817 330 844.50 337.50Q872 345 897 353.50Q922 362 942 370Q962 378 975 385Q983 389 987 392.50Q991 396 995 396Q1002 396 1002 390Q1002 388 989.50 374.50Q977 361 959 337.50Q941 314 922 282Q903 250 890 212Q873 204 849 194Q825 184 802 172L800 174Q805 190 820 212.50Q835 235 854.50 259.50Q874 284 896.50 309Q919 334 940 356L938 358Q902 342 862.50 332Q823 322 782 312Q743 238 691 179Q639 120 574.50 79Q510 38 434.50 16Q359-6 274-6Q217-6 167 8Q117 22 80 48.50Q43 75 21.50 113Q0 151 0 200Q0 247 22.50 288.50Q45 330 82.50 360.50Q120 391 168 408.50Q216 426 268 426Q301 426 335.50 417.50Q370 409 398.50 391Q427 373 445.50 345Q464 317 464 278Q464 237 445 205.50Q426 174 395 152Q364 130 326 119Q288 108 250 108Q226 108 203.50 113Q181 118 163.50 124.50Q146 131 136 137Q126 143 126 146Q126 154 130 154Q133 154 141 148.50Q149 143 164 137Q179 131 201.50 125.50Q224 120 254 120Q288 120 322.50 130Q357 140 385 159.50Q413 179 430.50 208.50Q448 238 448 276Q448 329 406.50 361.50Q365 394 283 394Z"  horiz-adv-x="889" vert-adv-y="1000"  />

      
      <glyph glyph-name="uni47" unicode="&#x47;" d="M1020 638Q1020 664 1005.50 675Q991 686 958 686Q930 686 898.50 678.50Q867 671 836 659Q805 647 776.50 631.50Q748 616 726 600Q749 565 765.50 538Q782 511 782 503Q782 498 774 498Q771 498 757 527Q743 556 716 592Q656 550 607 495Q558 440 534 370Q589 370 647 382.50Q705 395 759 415.50Q813 436 860.50 463Q908 490 943.50 519.50Q979 549 999.50 579.50Q1020 610 1020 638M250 536Q250 497 270 467Q290 437 321.50 416Q353 395 391.50 384.50Q430 374 466 374Q481 414 506.50 448Q532 482 563 511.50Q594 541 629 565.50Q664 590 700 612Q658 661 596 688.50Q534 716 462 716Q414 716 375 700Q336 684 308 658.50Q280 633 265 601Q250 569 250 536M836 353Q812 329 780 299.50Q748 270 712.50 244.50Q677 219 639.50 201.50Q602 184 565 184Q539 184 518 194Q497 204 483 221Q469 238 461.50 260Q454 282 454 307Q454 313 455 320.50Q456 328 458 334Q420 334 380 347Q340 360 307.50 384Q275 408 254.50 442Q234 476 234 518Q234 567 253.50 606Q273 645 305 672Q337 699 379.50 713.50Q422 728 469 728Q538 728 601.50 698.50Q665 669 710 618Q733 631 764 645Q795 659 829 671Q863 683 896.50 690.50Q930 698 957 698Q994 698 1014.50 680.50Q1035 663 1032 636Q1032 607 1010.50 575Q989 543 952 512Q915 481 865 451.50Q815 422 758.50 398.50Q702 375 642 358.50Q582 342 524 336Q519 325 515.50 310.50Q512 296 512 283Q512 234 527 217Q542 200 567 200Q602 200 638 215.50Q674 231 707 254Q740 277 769.50 303.50Q799 330 822 353Q845 376 861 391.50Q877 407 883 407Q890 407 890 403Q890 398 884 390.50Q878 383 863 358.50Q848 334 822.50 284Q797 234 758 144Q724 66 673.50 6Q623-54 561.50-95.50Q500-137 430.50-158.50Q361-180 288-180Q232-180 184-165.50Q136-151 101-125.50Q66-100 46-64Q26-28 26 14Q26 65 51.50 108Q77 151 117 181.50Q157 212 205.50 229Q254 246 299 246Q337 246 372 236Q407 226 433.50 207Q460 188 476 160Q492 132 492 96Q492 58 474 27.50Q456-3 427.50-25Q399-47 363.50-58.50Q328-70 292-70Q266-70 241.50-66Q217-62 198.50-56Q180-50 169-44Q158-38 158-35Q158-33 160-31.50Q162-30 164-30Q167-30 176-34.50Q185-39 200-44Q215-49 236.50-53.50Q258-58 287-58Q320-58 354.50-48Q389-38 417-18.50Q445 1 462.50 30Q480 59 480 97Q480 125 467.50 147Q455 169 433.50 184.50Q412 200 383 208Q354 216 322 216Q276 216 228 200.50Q180 185 141 156Q102 127 77 86Q52 45 52-6Q52-38 69-67.50Q86-97 117-119.50Q148-142 191.50-155Q235-168 288-168Q347-168 396.50-153Q446-138 488-109Q530-80 567.50-38Q605 4 640 57Q674 109 705.50 157Q737 205 762.50 244Q788 283 807.50 311Q827 339 838 351L836 353Z"  horiz-adv-x="833" vert-adv-y="1000"  />

      
      <glyph glyph-name="uni48" unicode="&#x48;" d="M1364 648Q1364 667 1355 674.50Q1346 682 1328 682Q1296 682 1255.50 658Q1215 634 1173 596Q1131 558 1091 510Q1051 462 1022 414Q1043 421 1076.50 432Q1110 443 1148 458Q1186 473 1224.50 492.50Q1263 512 1294 536Q1325 560 1344.50 588Q1364 616 1364 648M742 316Q752 322 780 332.50Q808 343 840 354.50Q872 366 901 376.50Q930 387 944 392Q961 415 987.50 446.50Q1014 478 1047 512Q1080 546 1117 579Q1154 612 1192 638.50Q1230 665 1267 681.50Q1304 698 1337 698Q1361 698 1377.50 687Q1394 676 1394 650Q1394 618 1373 589Q1352 560 1318 534.50Q1284 509 1241.50 486.50Q1199 464 1156.50 446Q1114 428 1075 414.50Q1036 401 1010 393Q996 371 973.50 330.50Q951 290 929.50 242Q908 194 892 143Q876 92 876 49Q876 34 882 25Q888 16 898 16Q921 16 949 33.50Q977 51 1015 87Q1045 116 1057.50 132Q1070 148 1074 148Q1079 148 1079 143Q1079 140 1057.50 116Q1036 92 1006 64Q979 39 950 19.50Q921 0 898 0Q869 0 850.50 21Q832 42 832 96Q832 140 841 179.50Q850 219 864 253.50Q878 288 895 316.50Q912 345 928 368L926 370Q908 364 881 355Q854 346 826 336Q798 326 772 315.50Q746 305 731 296Q695 232 648.50 177Q602 122 544 81.50Q486 41 417 17.50Q348-6 268-6Q212-6 165.50 7.50Q119 21 85.50 46Q52 71 33 106.50Q14 142 14 185Q14 241 36.50 286Q59 331 97 362.50Q135 394 184.50 411Q234 428 287 428Q319 428 350.50 418Q382 408 407.50 389.50Q433 371 448.50 343.50Q464 316 464 281Q464 242 445 210.50Q426 179 395 156.50Q364 134 326 122Q288 110 251 110Q231 110 212 113Q193 116 178 120Q163 124 153.50 128Q144 132 144 135Q144 142 151 142Q152 142 160 139Q168 136 181 132Q194 128 210.50 125Q227 122 246 122Q280 122 316 132Q352 142 381 162Q410 182 429 211.50Q448 241 448 280Q448 304 436.50 325Q425 346 404 361Q383 376 354 385Q325 394 289 394Q241 394 195.50 378Q150 362 114 333Q78 304 56 262.50Q34 221 34 170Q34 136 51 106.50Q68 77 98.50 54.50Q129 32 172.50 19Q216 6 269 6Q331 6 387.50 27.50Q444 49 492.50 85Q541 121 580 169Q619 217 646 270Q628 263 606.50 251Q585 239 565.50 227Q546 215 532.50 206.50Q519 198 518 198Q510 198 510 203Q510 207 524.50 217Q539 227 561 239.50Q583 252 609.50 266Q636 280 660 292Q676 319 701 358.50Q726 398 755.50 440.50Q785 483 818 523Q851 563 884 590L882 592Q863 581 841.50 568Q820 555 797.50 544Q775 533 751.50 525.50Q728 518 705 518Q636 518 636 589Q636 618 639 634Q642 650 642 660Q642 682 627 682Q622 682 610.50 677.50Q599 673 581 661.50Q563 650 539 630.50Q515 611 485 580Q434 526 412.50 492Q391 458 386 458Q380 458 380 464Q380 465 389 478.50Q398 492 412.50 511.50Q427 531 446.50 554.50Q466 578 487 599Q530 643 570 670.50Q610 698 651 698Q682 698 693 677.50Q704 657 704 633Q704 616 702 602Q700 588 700 567Q700 545 705 539.50Q710 534 724 534Q743 534 766 542Q789 550 813.50 563Q838 576 863.50 592Q889 608 914 624Q929 634 945 647.50Q961 661 977 673.50Q993 686 1007.50 695Q1022 704 1034 704Q1050 704 1050 692Q1050 681 1037.50 674.50Q1025 668 1005.50 660Q986 652 961.50 639Q937 626 914 603Q892 581 870 545Q848 509 825.50 468.50Q803 428 781.50 388Q760 348 740 318L742 316Z"  horiz-adv-x="1056" vert-adv-y="1000"  />

      
      <glyph glyph-name="uni49" unicode="&#x49;" d="M1012 681Q1010 681 1008 681.50Q1006 682 1004 682Q992 682 958.50 677Q925 672 881.50 660.50Q838 649 791 629Q744 609 704.50 580Q665 551 639.50 511.50Q614 472 614 420Q614 402 618 386Q622 370 631.50 357.50Q641 345 657.50 337Q674 329 698 328Q726 383 763.50 439.50Q801 496 843 544.50Q885 593 928 628.50Q971 664 1012 679L1012 681M30 196Q30 246 55 288Q80 330 119 360Q158 390 205.50 407Q253 424 297 424Q332 424 367.50 414.50Q403 405 431 386Q459 367 476.50 338Q494 309 494 271Q494 235 477.50 204.50Q461 174 432.50 151.50Q404 129 366 116.50Q328 104 284 104Q261 104 238.50 109Q216 114 198 120.50Q180 127 169 133Q158 139 158 141Q158 148 163 148Q166 148 175.50 143Q185 138 200.50 132Q216 126 237 121Q258 116 284 116Q327 116 363.50 128Q400 140 426 160.50Q452 181 467 209Q482 237 482 269Q482 302 468 325Q454 348 431.50 362.50Q409 377 380.50 383.50Q352 390 324 390Q277 390 229 374.50Q181 359 142.50 330Q104 301 80 259.50Q56 218 56 167Q56 122 79 91.50Q102 61 136.50 42Q171 23 212.50 14.50Q254 6 290 6Q367 6 426.50 31.50Q486 57 533.50 99.50Q581 142 619 198Q657 254 692 316Q669 318 648 325Q627 332 611 345.50Q595 359 585.50 378Q576 397 576 423Q576 477 605 518Q634 559 679.50 589.50Q725 620 781 641Q837 662 892 674.50Q947 687 994.50 692.50Q1042 698 1070 698Q1074 698 1074 692Q1074 690 1066 689Q1058 688 1043 682.50Q1028 677 1006 665Q984 653 956 630Q924 603 898.50 567.50Q873 532 850.50 492.50Q828 453 807.50 411Q787 369 765 330Q793 335 817.50 349Q842 363 860 378Q878 393 889 404.50Q900 416 902 416Q906 416 906 410Q906 405 893 391.50Q880 378 859 362.50Q838 347 811.50 333.50Q785 320 758 316Q729 262 700.50 219Q672 176 638.50 141.50Q605 107 564.50 80.50Q524 54 473 32Q419 9 372 1.50Q325-6 280-6Q235-6 190.50 6.50Q146 19 110.50 44.50Q75 70 52.50 108Q30 146 30 196Z"  horiz-adv-x="778" vert-adv-y="1000"  />

      
      <glyph glyph-name="uni4a" unicode="&#x4a;" d="M1062 678Q990 669 917 643.50Q844 618 784.50 579Q725 540 687.50 489Q650 438 650 379Q650 341 674 315Q698 289 740 290Q780 363 816 417.50Q852 472 889.50 516.50Q927 561 969 599Q1011 637 1064 676L1062 678M-56-132Q-56-173-38.50-205Q-21-237 8-259.50Q37-282 73.50-294Q110-306 148-306Q212-306 272.50-283Q333-260 387-222Q441-184 486-134.50Q531-85 563-32Q536-36 492-48Q448-60 405-75Q362-90 329-104Q296-118 290-126Q267-156 241-178Q215-200 193-200Q180-200 176-194.50Q172-189 172-179Q172-169 189.50-157Q207-145 228.50-134.50Q250-124 268.50-116.50Q287-109 288-108Q297-98 303.50-82Q310-66 310-41Q310-7 298 15.50Q286 38 267 52Q248 66 223 72Q198 78 173 78Q129 78 88 62Q47 46 15 18Q-17-10-36.50-48.50Q-56-87-56-132M640-2Q685 12 720 34Q755 56 781 78Q818 110 832.50 129.50Q847 149 850 149Q856 149 856 143Q856 141 849 132.50Q842 124 831.50 112.50Q821 101 808 88.50Q795 76 783 66Q753 40 712.50 16Q672-8 624-21Q586-75 536.50-128Q487-181 428.50-223Q370-265 305-291.50Q240-318 172-318Q114-318 68-303Q22-288-10-261Q-42-234-59-196Q-76-158-76-113Q-76-66-56.50-24.50Q-37 17-5 48.50Q27 80 69.50 98Q112 116 158 116Q191 116 221 106.50Q251 97 274.50 79Q298 61 312 34Q326 7 326-29Q326-47 321.50-64Q317-81 312-98Q375-72 439.50-50Q504-28 572-16Q593 20 614.50 60Q636 100 657 139.50Q678 179 697.50 214Q717 249 732 274Q709 274 687.50 281.50Q666 289 649 304Q632 319 622 340.50Q612 362 612 389Q612 442 640 485.50Q668 529 713.50 563Q759 597 816.50 622.50Q874 648 931.50 665Q989 682 1042 690Q1095 698 1132 698Q1142 698 1142 693Q1142 689 1124.50 685Q1107 681 1078.50 666Q1050 651 1013 618.50Q976 586 936 524Q912 486 893.50 454Q875 422 860 394Q845 366 832.50 341Q820 316 807 291Q823 293 844 302Q865 311 881 322Q915 344 926 360Q937 376 942 376Q947 376 947 372Q947 370 937 357Q927 344 907.50 328Q888 312 860.50 296.50Q833 281 797 275Q757 205 720 135.50Q683 66 638 0L640-2Z"  horiz-adv-x="833" vert-adv-y="1000"  />

      
      <glyph glyph-name="uni4b" unicode="&#x4b;" d="M858 338Q906 320 931 284Q956 248 956 204Q956 193 953 176Q950 159 947 139Q944 119 941 98Q938 77 938 57Q938 37 944.50 24.50Q951 12 966 12Q977 12 1002.50 26.50Q1028 41 1064 79Q1101 117 1115.50 135.50Q1130 154 1133 154Q1138 154 1138 148Q1138 146 1125.50 131Q1113 116 1083 83Q1009 0 958 0Q944 0 929 8.50Q914 17 902 32Q890 47 882 68.50Q874 90 874 116Q874 136 877 158.50Q880 181 883 201.50Q886 222 889 238.50Q892 255 892 263Q892 280 886.50 292Q881 304 872.50 312Q864 320 855.50 324Q847 328 841 328Q836 328 829 325Q822 322 817 322Q811 322 805.50 326.50Q800 331 800 334Q800 344 816 344Q847 344 877.50 358.50Q908 373 935 395.50Q962 418 985.50 443.50Q1009 469 1027 492Q1062 535 1100.50 572.50Q1139 610 1178.50 638Q1218 666 1257.50 682Q1297 698 1335 698Q1379 698 1404.50 678Q1430 658 1430 626Q1430 610 1419.50 600Q1409 590 1392 590Q1378 590 1365 597.50Q1352 605 1352 621Q1352 635 1359 643Q1366 651 1366 662Q1366 673 1353.50 679.50Q1341 686 1321 686Q1303 686 1282 676.50Q1261 667 1238.50 649.50Q1216 632 1192 607.50Q1168 583 1146 554Q1087 477 1020 422.50Q953 368 858 340L858 338M900 596Q885 589 866 580Q847 571 827.50 563Q808 555 788.50 549.50Q769 544 752 544Q718 544 699 564Q680 584 680 629Q680 650 682 658Q684 666 684 671Q684 678 671 678Q650 676 615 654Q580 632 529 574Q508 549 495 531.50Q482 514 475 502.50Q468 491 465 486Q462 481 460 481Q454 481 454 486Q454 488 464 505Q474 522 491 545.50Q508 569 531 596.50Q554 624 580.50 646.50Q607 669 635.50 684Q664 699 692 698Q715 698 728.50 685Q742 672 744 631Q745 609 747 595.50Q749 582 752 575Q755 568 760 566Q765 564 771 564Q791 564 813.50 571Q836 578 857 588.50Q878 599 896.50 610.50Q915 622 929 630Q968 654 989.50 669Q1011 684 1022 692.50Q1033 701 1038 704.50Q1043 708 1048 708Q1058 708 1063 703Q1068 698 1068 691Q1068 680 1054.50 673.50Q1041 667 1021.50 660Q1002 653 980.50 644Q959 635 943 620Q923 600 900.50 565Q878 530 851 483Q824 436 792.50 378.50Q761 321 722 257Q641 122 527.50 58Q414-6 285-6Q224-6 176.50 9Q129 24 96.50 50.50Q64 77 47 113Q30 149 30 190Q30 239 52 283Q74 327 110.50 359.50Q147 392 195 411Q243 430 295 430Q329 430 362.50 420.50Q396 411 422.50 392Q449 373 465.50 344.50Q482 316 482 278Q482 241 463 209.50Q444 178 414 155.50Q384 133 346.50 120.50Q309 108 272 108Q252 108 233 111.50Q214 115 199 120Q184 125 174.50 130Q165 135 165 138Q165 144 171 144Q172 144 179.50 140Q187 136 199.50 131.50Q212 127 229.50 123.50Q247 120 269 120Q303 120 338.50 131.50Q374 143 402 164Q430 185 448 215Q466 245 466 281Q466 302 456 321.50Q446 341 425.50 357Q405 373 375 382.50Q345 392 305 392Q258 392 213.50 377Q169 362 134 333.50Q99 305 77.50 265Q56 225 56 176Q56 132 75.50 100Q95 68 126.50 47Q158 26 199 16Q240 6 283 6Q338 6 390 19.50Q442 33 491 66Q540 99 586.50 154.50Q633 210 678 293Q703 339 726 376Q749 413 775 448Q801 483 831.50 518Q862 553 902 594L900 596Z"  horiz-adv-x="1111" vert-adv-y="1000"  />

      
      <glyph glyph-name="uni4c" unicode="&#x4c;" d="M288 54Q241 68 194.50 83Q148 98 99 98Q67 98 50.50 85.50Q34 73 34 56Q34 41 57.50 23.50Q81 6 126 6Q172 6 210 18.50Q248 31 288 54M580 396Q638 415 692 446.50Q746 478 787.50 513Q829 548 853.50 583.50Q878 619 878 648Q878 686 841 686Q822 686 799 674.50Q776 663 754 646Q732 629 713.50 610.50Q695 592 685 579Q701 554 712 534.50Q723 515 723 513Q723 508 719 508Q714 508 707 523.50Q700 539 678 568Q649 527 626 483.50Q603 440 580 396M148 541Q148 498 170.50 466.50Q193 435 227 414Q261 393 301.50 382.50Q342 372 378 372Q410 372 441 374.50Q472 377 504 382Q540 436 577.50 489Q615 542 663 587Q636 620 602 644.50Q568 669 531.50 684.50Q495 700 457 708Q419 716 385 716Q344 716 302 704.50Q260 693 225.50 670.50Q191 648 169.50 615.50Q148 583 148 541M104 110Q124 110 150.50 106.50Q177 103 204.50 97.50Q232 92 258 85.50Q284 79 304 72Q338 104 359 130Q380 156 397.50 185.50Q415 215 433.50 252.50Q452 290 482 346Q453 341 425.50 337.50Q398 334 378 334Q324 334 278.50 348Q233 362 200 387Q167 412 148.50 447Q130 482 130 524Q130 570 152.50 608Q175 646 211.50 672.50Q248 699 293.50 713.50Q339 728 386 728Q419 728 456.50 720.50Q494 713 531.50 697.50Q569 682 605 656.50Q641 631 671 595Q683 609 703.50 627Q724 645 747 660.50Q770 676 794.50 687Q819 698 840 698Q890 698 890 648Q890 611 860 572Q830 533 783.50 495.50Q737 458 679 425.50Q621 393 566 370Q538 320 509.50 274.50Q481 229 451 189.50Q421 150 389 118.50Q357 87 322 66Q376 50 428 37Q480 24 536 24Q578 24 611 38Q644 52 673 80Q694 101 706 113.50Q718 126 724.50 133Q731 140 733 142.50Q735 145 737 145Q741 145 741 138Q741 136 732 125.50Q723 115 692 83Q606-6 503-6Q479-6 452-0.50Q425 5 398.50 13.50Q372 22 347 31.50Q322 41 302 50Q264 27 217 10.50Q170-6 128-6Q83-6 52.50 11.50Q22 29 22 58Q22 78 41 94Q60 110 104 110Z"  horiz-adv-x="722" vert-adv-y="1000"  />

      
      <glyph glyph-name="uni4d" unicode="&#x4d;" d="M1036 650Q1013 635 979.50 608Q946 581 908 547.50Q870 514 831 477.50Q792 441 760 408Q694 340 632.50 267Q571 194 507.50 133Q444 72 375 33Q306-6 226-6Q192-6 154 7Q116 20 83.50 45.50Q51 71 29.50 109.50Q8 148 8 198Q8 242 28 282Q48 322 82.50 352Q117 382 163 400Q209 418 260 418Q306 418 341.50 405.50Q377 393 401 372Q425 351 437.50 323.50Q450 296 450 266Q450 228 433.50 197.50Q417 167 390 145.50Q363 124 327.50 112Q292 100 255 100Q235 100 214 104.50Q193 109 175 114.50Q157 120 145.50 125.50Q134 131 134 134Q134 140 140 140Q142 140 150.50 135.50Q159 131 174 126Q189 121 209.50 116.50Q230 112 257 112Q288 112 319.50 121.50Q351 131 376.50 149.50Q402 168 418 195.50Q434 223 434 258Q434 280 424.50 302Q415 324 395.50 341.50Q376 359 346 369.50Q316 380 274 380Q233 380 189.50 367.50Q146 355 110 331Q74 307 51 271Q28 235 28 188Q28 150 45 117Q62 84 89.50 59Q117 34 152.50 20Q188 6 224 6Q305 6 374.50 48.50Q444 91 510 157Q576 223 643.50 303Q711 383 788 458Q849 517 902 562Q955 607 995 637Q1035 667 1059.50 682.50Q1084 698 1088 698Q1096 698 1096 693Q1096 691 1089 684Q1082 677 1067 660.50Q1052 644 1028.50 615.50Q1005 587 972 540.50Q939 494 896 428Q853 362 799 271Q783 244 766 210Q749 176 734.50 145Q720 114 711 90.50Q702 67 702 62Q702 54 711 54Q718 54 727.50 61Q737 68 758 91Q779 114 816 159Q853 204 916 280Q1007 391 1080.50 470Q1154 549 1206.50 599.50Q1259 650 1290 674Q1321 698 1326 698Q1328 698 1330 696Q1332 694 1332 692Q1332 690 1315 666.50Q1298 643 1266.50 595.50Q1235 548 1189 475.50Q1143 403 1086 303Q1026 197 1004 131.50Q982 66 982 43Q982 27 987.50 20.50Q993 14 1008 14Q1024 14 1043 24Q1062 34 1081 49Q1100 64 1118 82Q1136 100 1150.50 115Q1165 130 1174 140Q1183 150 1185 150Q1190 150 1190 144Q1190 143 1180.50 131Q1171 119 1155.50 102.50Q1140 86 1120 67Q1100 48 1079 31.50Q1058 15 1037.50 4.50Q1017-6 1000-6Q928-6 928 80Q928 111 944.50 160.50Q961 210 1002.50 279.50Q1044 349 1114.50 441Q1185 533 1292 650L1290 652Q1210 586 1137.50 510.50Q1065 435 997.50 356Q930 277 866 199Q802 121 740 51Q711 18 695.50 9Q680 0 667 0Q654 0 646 11Q638 22 638 43Q638 97 674 172.50Q710 248 767.50 331Q825 414 896 496.50Q967 579 1038 648L1036 650Z"  horiz-adv-x="1167" vert-adv-y="1000"  />

      
      <glyph glyph-name="uni4e" unicode="&#x4e;" d="M934 616Q890 546 845 466.50Q800 387 750 311Q700 235 642 168.50Q584 102 514 59Q453 21 394.50 7.50Q336-6 286-6Q227-6 177 6.50Q127 19 90.50 44Q54 69 33 105.50Q12 142 12 190Q12 234 32 276Q52 318 88 350.50Q124 383 174 402.50Q224 422 284 422Q332 422 370 411Q408 400 435 380.50Q462 361 476 334.50Q490 308 490 277Q490 239 471.50 207Q453 175 422.50 151.50Q392 128 352.50 115Q313 102 272 102Q256 102 238 104.50Q220 107 205 111Q190 115 180 119.50Q170 124 170 127Q170 132 175 132Q178 132 184.50 129Q191 126 202.50 123Q214 120 231 117Q248 114 273 114Q315 114 352 127Q389 140 416 161Q443 182 458.50 209.50Q474 237 474 267Q474 292 462.50 314Q451 336 428.50 352.50Q406 369 373 378.50Q340 388 297 388Q252 388 205 372.50Q158 357 119.50 328Q81 299 56.50 258.50Q32 218 32 169Q32 131 50 101Q68 71 100 50Q132 29 177.50 17.50Q223 6 278 6Q341 6 403.50 23.50Q466 41 529 85Q592 129 656.50 203Q721 277 787 391Q824 454 857 511Q890 568 915.50 610.50Q941 653 958 678.50Q975 704 979 704Q983 704 985.50 701Q988 698 988 697Q988 689 981.50 677Q975 665 967 641.50Q959 618 952.50 581Q946 544 946 486Q946 458 948 431Q950 404 950 376Q950 300 942 224.50Q934 149 914 76L916 74Q951 142 991.50 215Q1032 288 1074.50 357.50Q1117 427 1161 489Q1205 551 1247.50 597.50Q1290 644 1329.50 671Q1369 698 1403 698Q1422 698 1436 683.50Q1450 669 1450 655Q1450 641 1439.50 629.50Q1429 618 1411 618Q1395 618 1388.50 625Q1382 632 1379 641Q1376 650 1373.50 657Q1371 664 1362 664Q1321 664 1225.50 553.50Q1130 443 1000 210Q958 135 935.50 90Q913 45 902 21Q891-3 886.50-10.50Q882-18 876-18Q874-18 872-17Q870-16 870-12Q870-3 873.50 3.50Q877 10 881.50 23Q886 36 890 59Q894 82 894 125Q894 180 886 236.50Q878 293 878 343Q878 404 886.50 449Q895 494 905.50 526.50Q916 559 925 580.50Q934 602 936 616L934 616Z"  horiz-adv-x="1111" vert-adv-y="1000"  />

      
      <glyph glyph-name="uni4f" unicode="&#x4f;" d="M430 277Q430 239 448 216.50Q466 194 505 194Q545 194 576 219Q607 244 628.50 281.50Q650 319 661 361Q672 403 672 438Q672 480 658 513.50Q644 547 618 574Q583 556 549.50 525Q516 494 489.50 454.50Q463 415 446.50 369Q430 323 430 277M292 136Q292 77 317 38.50Q342 0 396 0Q441 0 489.50 19.50Q538 39 583.50 72.50Q629 106 669.50 150.50Q710 195 740.50 245.50Q771 296 788.50 350Q806 404 806 455Q806 525 776.50 560.50Q747 596 694 596Q663 596 629 579Q665 544 683.50 497.50Q702 451 702 403Q702 366 688 326.50Q674 287 649 254Q624 221 589.50 199.50Q555 178 514 178Q473 178 445.50 203Q418 228 418 271Q418 325 435.50 373Q453 421 480.50 461.50Q508 502 542 532.50Q576 563 610 582Q598 593 583 602.50Q568 612 551 617Q500 579 453 525.50Q406 472 370 409Q334 346 313 276.50Q292 207 292 136M818 457Q818 409 801.50 356Q785 303 755 250.50Q725 198 684.50 150.50Q644 103 596.50 67Q549 31 495.50 9.50Q442-12 388-12Q346-12 317 5Q288 22 269.50 49Q251 76 242.50 110.50Q234 145 234 180Q234 242 258.50 305.50Q283 369 324.50 427.50Q366 486 419.50 537Q473 588 530 626Q491 640 446 640Q387 640 338 616Q289 592 252.50 553Q216 514 194 464Q172 414 168 362Q167 352 165.50 349Q164 346 162 346Q156 346 156 353Q156 354 157 366Q158 378 161.50 396.50Q165 415 172.50 438.50Q180 462 194 488Q211 521 237 550.50Q263 580 295.50 602.50Q328 625 366.50 638.50Q405 652 447 652Q499 652 542 635Q596 669 648.50 688.50Q701 708 746 708Q804 708 837 677.50Q870 647 870 589Q870 586 869.50 577.50Q869 569 867.50 560Q866 551 863.50 544.50Q861 538 857 538Q854 538 854 545Q854 548 856 565Q858 582 858 591Q858 644 827 670Q796 696 746 696Q702 696 655.50 677.50Q609 659 561 625Q593 612 621 587Q661 608 694 608Q750 608 784 568.50Q818 529 818 457Z"  horiz-adv-x="778" vert-adv-y="1000"  />

      
      <glyph glyph-name="uni50" unicode="&#x50;" d="M164 354Q164 307 187.50 281.50Q211 256 250 256Q299 256 348 286.50Q397 317 436.50 363.50Q476 410 501 466Q526 522 526 574Q526 601 522 625Q518 649 502 666Q441 654 380.50 621Q320 588 272 544Q224 500 194 450Q164 400 164 354M78 76Q78 93 87.50 105.50Q97 118 115 118Q132 118 144 107.50Q156 97 156 80Q156 66 151 59.50Q146 53 146 45Q146 29 160.50 17.50Q175 6 210 6Q254 6 292.50 23.50Q331 41 364.50 70Q398 99 426.50 136.50Q455 174 479 213.50Q503 253 523.50 292Q544 331 562 364Q582 401 609 441Q636 481 667.50 519Q699 557 734.50 590Q770 623 806 646Q764 666 720.50 673Q677 680 639 680Q604 680 574.50 678Q545 676 516 669Q539 643 547.50 611.50Q556 580 556 547Q556 493 531 438.50Q506 384 465 339.50Q424 295 371 267.50Q318 240 262 240Q240 240 220 247Q200 254 185 267.50Q170 281 161 301.50Q152 322 152 350Q152 388 168 425Q184 462 210.50 495.50Q237 529 271.50 559Q306 589 344 612.50Q382 636 420 652Q458 668 491 675Q467 692 435 700Q403 708 374 708Q317 708 264 684.50Q211 661 168 618Q141 591 124 565Q107 539 97 519.50Q87 500 82 488Q77 476 74 476Q72 476 71 478Q70 480 70 481Q70 487 78 507.50Q86 528 102.50 554.50Q119 581 143.50 610Q168 639 202 663.50Q236 688 279.50 704Q323 720 376 720Q414 720 450.50 707Q487 694 506 678Q534 685 569.50 688.50Q605 692 639 692Q692 692 740 682.50Q788 673 821 657Q842 669 858 680.50Q874 692 882 692Q886 692 886 687Q886 682 870 673.50Q854 665 834 651Q881 625 910.50 581.50Q940 538 940 483Q940 445 921 412Q902 379 872.50 354.50Q843 330 806.50 316Q770 302 735 302Q721 302 706.50 307Q692 312 680.50 318Q669 324 661.50 330Q654 336 654 339Q654 344 660 344Q661 344 666.50 340Q672 336 680 331Q688 326 698.50 322Q709 318 722 318Q759 318 789.50 337Q820 356 841.50 385Q863 414 874.50 450Q886 486 886 519Q886 557 869.50 588Q853 619 819 639Q787 617 759 581.50Q731 546 704 500.50Q677 455 648 401.50Q619 348 586 290Q553 231 509.50 177.50Q466 124 415.50 83.50Q365 43 309.50 18.50Q254-6 196-6Q173-6 151.50-1.50Q130 3 113.50 13Q97 23 87.50 38.50Q78 54 78 76Z"  horiz-adv-x="778" vert-adv-y="1000"  />

      
      <glyph glyph-name="uni51" unicode="&#x51;" d="M36 53Q36 31 60 18.50Q84 6 128 6Q166 6 208.50 13.50Q251 21 293 41Q271 48 246 57.50Q221 67 195 75.50Q169 84 143.50 90Q118 96 97 96Q69 96 52.50 85.50Q36 75 36 53M536 579Q536 607 529 631.50Q522 656 501 676Q447 665 389 632Q331 599 284 554Q237 509 206.50 457Q176 405 176 357Q176 311 196.50 284.50Q217 258 267 258Q315 258 363 290Q411 322 449.50 370Q488 418 512 474.50Q536 531 536 579M24 53Q24 79 46.50 95.50Q69 112 121 112Q175 112 230 96Q285 80 339 65Q380 86 423 116Q466 146 506 182.50Q546 219 582 262Q618 305 644.50 352.50Q671 400 686.50 452Q702 504 702 559Q702 625 669.50 655.50Q637 686 568 686Q560 686 543.50 684.50Q527 683 519 681Q545 649 555.50 620Q566 591 566 552Q566 500 542 445Q518 390 477 345Q436 300 382 271Q328 242 268 242Q243 242 224 251.50Q205 261 191.50 276Q178 291 171 310Q164 329 164 349Q164 406 196 461.50Q228 517 277 562.50Q326 608 384 640.50Q442 673 493 685Q476 699 449 707.50Q422 716 388 716Q330 716 281 694Q232 672 194 638Q156 604 129 563Q102 522 88 484Q83 472 79 472Q76 472 76 477Q76 480 82 495.50Q88 511 100.50 534Q113 557 132 584.50Q151 612 178 638Q216 675 267 701.50Q318 728 384 728Q436 728 465.50 714.50Q495 701 509 689Q526 692 542 695Q558 698 575 698Q660 698 708 648.50Q756 599 756 516Q756 432 717 364Q678 296 618.50 240.50Q559 185 488.50 140.50Q418 96 354 60Q395 48 434.50 34Q474 20 522 20Q557 20 586.50 33Q616 46 649 69Q678 89 694.50 104Q711 119 720 128.50Q729 138 732.50 143Q736 148 738 148Q744 148 744 142Q744 140 738.50 133Q733 126 722.50 115.50Q712 105 697.50 92.50Q683 80 666 67Q638 46 614 32Q590 18 568 9.50Q546 1 524-2.50Q502-6 478-6Q432-6 390 6Q348 18 307 35Q284 25 262.50 17.50Q241 10 219.50 4.50Q198-1 175-3.50Q152-6 125-6Q76-6 50 12.50Q24 31 24 53Z"  horiz-adv-x="722" vert-adv-y="1000"  />

      
      <glyph glyph-name="uni52" unicode="&#x52;" d="M128 344Q128 301 153 279.50Q178 258 220 258Q267 258 315 288Q363 318 402 364Q441 410 465.50 466Q490 522 490 575Q490 605 485 629Q480 653 464 670Q410 659 351 629Q292 599 242.50 555.50Q193 512 160.50 457.50Q128 403 128 344M674 330Q690 325 704.50 312Q719 299 729.50 281.50Q740 264 746 245Q752 226 752 211Q752 192 746.50 170Q741 148 735 125Q729 102 723.50 80.50Q718 59 718 42Q718 26 723 16Q728 6 743 6Q757 6 775.50 19Q794 32 828 66Q856 94 870.50 109.50Q885 125 892 133Q899 141 900.50 143Q902 145 904 145Q910 145 910 139Q910 137 888 113Q866 89 834 57Q814 37 800 25Q786 13 775.50 6Q765-1 756.50-3.50Q748-6 740-6Q725-6 711 3Q697 12 686.50 26Q676 40 670 58.50Q664 77 664 95Q664 122 669.50 144Q675 166 681 187Q687 208 692.50 229.50Q698 251 698 278Q698 290 690.50 306Q683 322 664 325Q657 326 647.50 323Q638 320 632 320Q617 320 607.50 325Q598 330 598 336Q598 341 606 346.50Q614 352 628 352Q637 352 648.50 346Q660 340 667 340Q688 340 716 355Q744 370 769.50 396.50Q795 423 812.50 459Q830 495 830 537Q830 570 818 599Q806 628 779 645Q728 603 690.50 547.50Q653 492 624 432Q603 387 575.50 336.50Q548 286 515.50 237.50Q483 189 445 145Q407 101 363.50 67.50Q320 34 270.50 14Q221-6 166-6Q135-6 113 2Q91 10 76.50 21.50Q62 33 55 45.50Q48 58 48 68Q48 89 58.50 103.50Q69 118 92 118Q108 118 119 108.50Q130 99 130 82Q130 68 124 61.50Q118 55 118 44Q118 26 132.50 16Q147 6 164 6Q229 6 276.50 29.50Q324 53 362 95Q400 137 432.50 195.50Q465 254 500 323Q524 371 550 413.50Q576 456 607 496.50Q638 537 676.50 576Q715 615 765 655Q750 663 729.50 669Q709 675 686 678.50Q663 682 639 684Q615 686 594 686Q565 686 537 683Q509 680 481 673Q499 652 509.50 617.50Q520 583 520 552Q520 498 496 443Q472 388 431 343Q390 298 335.50 270Q281 242 220 242Q173 242 144.50 270.50Q116 299 116 346Q116 386 131.50 424.50Q147 463 173 497Q199 531 233 561Q267 591 305 614.50Q343 638 381.50 654.50Q420 671 455 679Q434 697 400 705.50Q366 714 338 714Q255 714 179.50 663Q104 612 53 513Q45 496 42.50 486Q40 476 35 476Q32 476 32 485Q32 490 40.50 510Q49 530 66 556.50Q83 583 108.50 613Q134 643 168 668Q202 693 244.50 709.50Q287 726 338 726Q356 726 375 723Q394 720 412 714.50Q430 709 445.50 701Q461 693 471 683Q503 691 537 694.50Q571 698 603 698Q627 698 651.50 695Q676 692 699.50 687.50Q723 683 743 677.50Q763 672 778 666Q782 668 791 672.50Q800 677 810 682Q820 687 829 690.50Q838 694 841 694Q846 693 846 688Q846 686 832 681Q818 676 795 659Q812 652 828.50 639Q845 626 858.50 608Q872 590 880 568Q888 546 888 520Q888 476 863 442Q838 408 803.50 384.50Q769 361 732.50 347.50Q696 334 674 332L674 330Z"  horiz-adv-x="889" vert-adv-y="1000"  />

      
      <glyph glyph-name="uni53" unicode="&#x53;" d="M1046 650Q1046 666 1036.50 676Q1027 686 1009 686Q991 686 970.50 676.50Q950 667 930.50 652.50Q911 638 894.50 621Q878 604 868 590Q871 585 877 575.50Q883 566 889 556Q895 546 899.50 537.50Q904 529 904 528Q904 524 900 524Q898 524 888 543Q878 562 862 582Q831 544 810 501.50Q789 459 769 417Q813 423 861.50 445.50Q910 468 951 500.50Q992 533 1019 572Q1046 611 1046 650M426 567Q426 530 448.50 500Q471 470 505.50 449Q540 428 580.50 417Q621 406 657 406Q671 406 683.50 406.50Q696 407 705 409Q732 462 766.50 511.50Q801 561 844 606Q823 632 797 652.50Q771 673 742 687Q713 701 682 708.50Q651 716 621 716Q581 716 545.50 706Q510 696 483.50 677Q457 658 441.50 630.50Q426 603 426 567M30 191Q30 244 54 286.50Q78 329 116.50 358.50Q155 388 203.50 404Q252 420 300 420Q334 420 368.50 411.50Q403 403 431 385Q459 367 476.50 338.50Q494 310 494 270Q494 231 476 200.50Q458 170 429.50 148.50Q401 127 364.50 115.50Q328 104 292 104Q263 104 238 109Q213 114 195 120.50Q177 127 166.50 133Q156 139 156 141Q156 146 161 146Q162 146 170.50 141.50Q179 137 194.50 131Q210 125 233.50 120.50Q257 116 290 116Q324 116 358.50 125.50Q393 135 420.50 154.50Q448 174 465 203Q482 232 482 271Q482 305 466.50 327.50Q451 350 426.50 364Q402 378 372.50 384Q343 390 315 390Q269 390 222.50 373.50Q176 357 139 327Q102 297 79 255.50Q56 214 56 165Q56 124 79 94Q102 64 136.50 44.50Q171 25 210.50 15.50Q250 6 284 6Q377 6 440 38Q503 70 548.50 122.50Q594 175 627 243.50Q660 312 693 384Q679 383 665.50 381.50Q652 380 637 380Q595 380 553 391.50Q511 403 477 425Q443 447 421.50 479Q400 511 400 553Q400 593 417.50 625.50Q435 658 464.50 680.50Q494 703 533.50 715.50Q573 728 617 728Q688 728 749 695.50Q810 663 852 612Q865 625 884 640.50Q903 656 924 668.50Q945 681 966.50 689.50Q988 698 1008 698Q1034 698 1046 685.50Q1058 673 1058 650Q1058 609 1029 567.50Q1000 526 956 490.50Q912 455 859.50 430Q807 405 761 396Q736 338 710 283Q684 228 650 180Q616 132 571 93Q526 54 463 27Q424 10 377.50 2Q331-6 289-6Q244-6 198 5.50Q152 17 114.50 41Q77 65 53.50 102Q30 139 30 191Z"  horiz-adv-x="778" vert-adv-y="1000"  />

      
      <glyph glyph-name="uni54" unicode="&#x54;" d="M1058 692Q1100 692 1128.50 694.50Q1157 697 1176.50 700Q1196 703 1208.50 705.50Q1221 708 1232 708Q1235 708 1235 703Q1235 700 1225.50 690Q1216 680 1197 669Q1178 658 1148 649Q1118 640 1078 640Q1048 640 1025.50 642Q1003 644 982 647Q961 650 939 653Q917 656 887.50 659Q858 662 819 664Q780 666 726 666Q658 666 602.50 650.50Q547 635 507.50 609.50Q468 584 446 552Q424 520 424 486Q424 447 451 424.50Q478 402 522 402Q568 402 607.50 416Q647 430 679 451Q711 472 735.50 496Q760 520 777 541Q794 562 802.50 576Q811 590 812 590Q818 590 818 585Q818 582 809.50 565Q801 548 785 524Q769 500 746 473.50Q723 447 694 424.50Q665 402 629.50 387Q594 372 554 372Q485 372 446.50 403.50Q408 435 408 482Q408 514 429 551Q450 588 498 619.50Q546 651 625.50 671.50Q705 692 822 692L1058 692M283 394Q236 394 189.50 378Q143 362 105 333.50Q67 305 43.50 266.50Q20 228 20 182Q20 143 39 110.50Q58 78 92 55Q126 32 173 19Q220 6 276 6Q370 6 438 32.50Q506 59 557 102Q608 145 647 201Q686 257 722 316.50Q758 376 796 434Q834 492 884 540Q905 560 926 576Q947 592 965 603Q983 614 995.50 620Q1008 626 1012 626Q1016 626 1016 622Q1016 617 1007.50 613Q999 609 986.50 602.50Q974 596 959.50 586Q945 576 932 560Q906 528 868.50 467Q831 406 782 312Q743 238 691 179Q639 120 574.50 79Q510 38 434.50 16Q359-6 274-6Q217-6 167 8Q117 22 80 48.50Q43 75 21.50 113Q0 151 0 200Q0 247 22.50 288.50Q45 330 82.50 361Q120 392 168 410Q216 428 268 428Q301 428 335.50 419.50Q370 411 398.50 392.50Q427 374 445.50 345.50Q464 317 464 278Q464 237 445 205.50Q426 174 395 152Q364 130 326 119Q288 108 250 108Q226 108 203.50 113Q181 118 163.50 124.50Q146 131 136 137Q126 143 126 146Q126 152 129 152Q133 152 142 147Q151 142 166 136Q181 130 202.50 125Q224 120 254 120Q288 120 322.50 130Q357 140 385 159.50Q413 179 430.50 208.50Q448 238 448 276Q448 329 406.50 361.50Q365 394 283 394Z"  horiz-adv-x="889" vert-adv-y="1000"  />

      
      <glyph glyph-name="uni55" unicode="&#x55;" d="M502 602Q502 625 493 645Q484 665 464 678Q411 667 361.50 639.50Q312 612 273.50 576Q235 540 211.50 498.50Q188 457 188 418Q188 382 206 357Q224 332 259 332Q284 332 312 344Q340 356 367 376.50Q394 397 418.50 423.50Q443 450 461.50 480Q480 510 491 541.50Q502 573 502 602M1050 686L850 374Q817 322 781.50 270.50Q746 219 717.50 173Q689 127 671 90.50Q653 54 654 32Q654 21 659.50 13.50Q665 6 676 6Q696 6 721 24Q746 42 776 70Q814 105 830.50 127Q847 149 851 149Q858 149 858 144Q858 143 853 137Q848 131 839.50 121.50Q831 112 821 100.50Q811 89 802 79Q791 67 774.50 52Q758 37 740.50 24Q723 11 706 2.50Q689-6 677-6Q654-6 644 9.50Q634 25 634 53Q634 97 646.50 131.50Q659 166 676 202L674 204Q663 189 644 167Q625 145 601.50 122Q578 99 551.50 76Q525 53 498.50 34.50Q472 16 447.50 5Q423-6 403-6Q381-6 365.50 11Q350 28 350 57Q350 99 370.50 146.50Q391 194 422 243.50Q453 293 489 343Q525 393 556 440Q587 487 607.50 528.50Q628 570 628 603Q628 625 619 640.50Q610 656 596 666Q582 676 564 681Q546 686 528 686Q517 686 505.50 685Q494 684 482 682Q504 664 513 638Q522 612 522 583Q522 538 501.50 490.50Q481 443 446 404Q411 365 365 340.50Q319 316 268 316Q220 316 198 343.50Q176 371 176 413Q176 457 200 500.50Q224 544 263 581Q302 618 351.50 646Q401 674 451 687Q420 704 370 704Q314 704 259.50 676.50Q205 649 161 601.50Q117 554 87 491Q57 428 50 357Q49 344 44 344Q39 344 38.50 348Q38 352 38 358Q38 365 40.50 379.50Q43 394 47 411Q51 428 57 447Q63 466 71 483Q91 528 122 570Q153 612 192 644.50Q231 677 276 696.50Q321 716 370 716Q402 716 426.50 709.50Q451 703 469 692Q496 698 522 698Q588 698 623 666Q658 634 658 567Q658 524 637.50 475.50Q617 427 586 377Q555 327 519 277Q483 227 452 182Q421 137 400.50 99Q380 61 380 34Q380 17 386 11.50Q392 6 408 6Q427 6 463.50 26Q500 46 544.50 84Q589 122 638 175.50Q687 229 731 297Q792 390 834 455Q876 520 903.50 563Q931 606 947 629.50Q963 653 972.50 665Q982 677 987.50 679.50Q993 682 1000 683L1050 686Z"  horiz-adv-x="833" vert-adv-y="1000"  />

      
      <glyph glyph-name="uni56" unicode="&#x56;" d="M794 663Q794 673 788 679.50Q782 686 768 686Q745 686 724.50 670.50Q704 655 687 632.50Q670 610 657.50 585Q645 560 640 542Q673 545 701.50 557Q730 569 750.50 586.50Q771 604 782.50 624Q794 644 794 663M440 583Q440 565 434.50 538.50Q429 512 417.50 482.50Q406 453 389 424Q372 395 349.50 372.50Q327 350 298.50 335.50Q270 321 236 322Q182 322 151 353Q120 384 120 438Q120 483 145 529.50Q170 576 211 613.50Q252 651 304 674.50Q356 698 409 698Q451 698 474.50 687.50Q498 677 511 660.50Q524 644 530.50 625Q537 606 544 589Q551 572 562.50 559.50Q574 547 598 544Q608 563 627 589.50Q646 616 669.50 640Q693 664 718.50 681Q744 698 767 698Q784 698 795 689Q806 680 806 658Q806 640 792 618Q778 596 754.50 576.50Q731 557 700.50 543Q670 529 636 526Q606 386 543.50 257.50Q481 129 390 18L392 16Q467 67 532 130Q597 193 657 260.50Q717 328 773 397.50Q829 467 885 532Q963 621 1009 659.50Q1055 698 1082 698Q1099 698 1111.50 686.50Q1124 675 1124 659Q1124 646 1115.50 634Q1107 622 1093 622Q1081 622 1074.50 626Q1068 630 1063 635Q1058 640 1051.50 644Q1045 648 1034 648Q1013 648 976 613Q939 578 892.50 524.50Q846 471 793.50 407Q741 343 691 285Q623 207 564 150Q505 93 460.50 55.50Q416 18 388.50 0Q361-18 357-18Q348-18 348-10Q348-4 352-1Q356 2 364 8Q389 27 410 65.50Q431 104 450.50 152Q470 200 487.50 254.50Q505 309 522 360Q539 411 555.50 455Q572 499 590 528Q549 537 525 552.50Q501 568 487 585Q473 602 465.50 619.50Q458 637 449.50 650.50Q441 664 428 673Q415 682 390 682Q350 682 305 662Q260 642 222.50 608.50Q185 575 160.50 531.50Q136 488 136 441Q136 396 156 372Q176 348 215 348Q253 348 295 372.50Q337 397 367 442Q387 472 399 499Q411 526 418 546Q425 566 428 578Q431 590 433 590Q440 590 440 583Z"  horiz-adv-x="778" vert-adv-y="1000"  />

      
      <glyph glyph-name="uni57" unicode="&#x57;" d="M608 540Q631 540 658 550Q685 560 708 577Q731 594 746.50 615.50Q762 637 762 661Q762 675 753.50 681.50Q745 688 733 688Q715 688 695.50 672.50Q676 657 658.50 634.50Q641 612 627.50 586.50Q614 561 608 540M890 582Q830 526 780.50 469.50Q731 413 690 360.50Q649 308 615 262Q581 216 551 182Q517 140 481.50 103Q446 66 415.50 37.50Q385 9 361.50-7.50Q338-24 329-24Q320-24 320-17Q320-11 327-5Q334 1 343 12Q369 43 390 83.50Q411 124 428.50 169.50Q446 215 461.50 263.50Q477 312 493 359Q509 406 525.50 449.50Q542 493 562 528Q522 534 499 547.50Q476 561 461.50 578Q447 595 438.50 613.50Q430 632 420.50 647Q411 662 396.50 672Q382 682 356 682Q316 682 271.50 661Q227 640 190 606Q153 572 128.50 529.50Q104 487 104 445Q104 400 124 373Q144 346 192 346Q224 346 252.50 362Q281 378 312 410Q342 440 358.50 470.50Q375 501 384 525.50Q393 550 396.50 565Q400 580 403 580Q408 580 408 572Q408 567 406 553.50Q404 540 398.50 522Q393 504 385 482.50Q377 461 365 440Q352 417 334.50 395Q317 373 296 356.50Q275 340 252 330Q229 320 204 320Q176 320 155 329.50Q134 339 120 356Q106 373 99 396Q92 419 92 446Q92 491 118.50 536Q145 581 187 617Q229 653 279.50 675.50Q330 698 378 698Q419 698 442.50 687Q466 676 480 659.50Q494 643 501 623.50Q508 604 515.50 587Q523 570 534.50 557Q546 544 568 542Q583 566 602 594Q621 622 643 645.50Q665 669 689 684.50Q713 700 737 700Q751 700 762.50 689Q774 678 774 660Q774 635 757.50 611.50Q741 588 715.50 569.50Q690 551 660 539.50Q630 528 604 528Q587 459 567.50 390.50Q548 322 515 258Q500 228 480.50 193.50Q461 159 440.50 125Q420 91 399.50 62Q379 33 360 14L362 12Q375 17 396.50 34.50Q418 52 442.50 77Q467 102 493.50 131.50Q520 161 544 190Q572 223 595.50 254Q619 285 644 317Q669 349 697.50 385Q726 421 763 464Q796 502 825 532.50Q854 563 878.50 589.50Q903 616 923.50 639.50Q944 663 960 688Q967 698 975 698Q978 698 982 694.50Q986 691 986 686Q986 681 981 676Q976 671 968 662Q945 637 928.50 612.50Q912 588 899 556Q892 539 883 511Q874 483 864.50 454Q855 425 846.50 399Q838 373 832 361Q807 310 786 266Q765 222 741.50 181.50Q718 141 691 100Q664 59 627 14Q639 16 669 40.50Q699 65 734.50 97.50Q770 130 803 163.50Q836 197 853 217Q889 258 918 292.50Q947 327 972.50 359Q998 391 1022.50 422Q1047 453 1074 487Q1099 519 1129.50 555Q1160 591 1191.50 621.50Q1223 652 1253.50 672Q1284 692 1310 692Q1327 692 1337.50 684Q1348 676 1348 657Q1348 643 1338.50 632.50Q1329 622 1315 622Q1304 622 1296.50 626.50Q1289 631 1283 636Q1277 641 1271.50 645.50Q1266 650 1260 650Q1246 650 1226 636Q1206 622 1175 588.50Q1144 555 1099 499.50Q1054 444 988 362Q902 254 833 181.50Q764 109 714.50 65Q665 21 636.50 2.50Q608-16 602-16Q594-16 594-8Q594-5 602.50 6.50Q611 18 624 38.50Q637 59 653.50 89.50Q670 120 687 161Q700 195 711.50 224.50Q723 254 733 281.50Q743 309 753.50 336Q764 363 776 392Q789 424 805 453Q821 482 837 506.50Q853 531 867 550Q881 569 892 580L890 582Z"  horiz-adv-x="1000" vert-adv-y="1000"  />

      
      <glyph glyph-name="uni58" unicode="&#x58;" d="M1012 638Q1012 662 1002 672Q992 682 972 682Q944 682 910.50 665Q877 648 843 620.50Q809 593 775.50 558.50Q742 524 713.50 489Q685 454 662.50 422.50Q640 391 628 369Q645 375 680.50 385.50Q716 396 758.50 412.50Q801 429 846 451Q891 473 928 501Q965 529 988.50 563Q1012 597 1012 638M518 604Q518 626 510.50 645.50Q503 665 483 679Q447 668 403 642Q359 616 320.50 580Q282 544 256 501Q230 458 230 415Q230 389 243 371.50Q256 354 283 354Q322 354 363.50 379Q405 404 439.50 441.50Q474 479 496 522.50Q518 566 518 604M116 70Q116 38 130.50 22Q145 6 178 6Q222 6 275 38.50Q328 71 379 120Q430 169 474 226Q518 283 544 332Q522 326 482 315.50Q442 305 394.50 289Q347 273 297.50 251Q248 229 207.50 202Q167 175 141.50 142Q116 109 116 70M672 506Q696 534 732.50 567.50Q769 601 811 630Q853 659 896.50 678.50Q940 698 978 698Q1006 698 1022 677.50Q1038 657 1038 631Q1038 595 1015.50 563Q993 531 956.50 503Q920 475 874.50 451.50Q829 428 782.50 409Q736 390 693 376Q650 362 620 354Q600 318 580 280.50Q560 243 544.50 205.50Q529 168 519.50 131Q510 94 510 59Q510 36 519 21Q528 6 553 6Q584 6 616.50 27.50Q649 49 676 75Q703 101 721 122.50Q739 144 743 144Q748 144 748 139Q748 139 739 128Q730 117 714.50 101Q699 85 679 66Q659 47 637.50 31Q616 15 594.50 4.50Q573-6 554-6Q515-6 497.50 27.50Q480 61 480 121Q480 131 481.50 140.50Q483 150 484 160Q458 134 420.50 104.50Q383 75 341 50.50Q299 26 255.50 10Q212-6 174-6Q159-6 142-2.50Q125 1 110.50 8.50Q96 16 87 29Q78 42 78 61Q78 103 105.50 138.50Q133 174 176.50 204Q220 234 274 257.50Q328 281 380.50 299Q433 317 479 329Q525 341 552 348Q565 375 580.50 402.50Q596 430 609 459Q622 488 631 518Q640 548 640 578Q640 635 613.50 661.50Q587 688 541 688Q530 688 518 686Q506 684 497 682Q519 661 526.50 638Q534 615 534 586Q534 540 513.50 495Q493 450 459 414Q425 378 381 356Q337 334 291 334Q254 334 236 357.50Q218 381 218 415Q218 458 243.50 502Q269 546 307.50 583Q346 620 390 647.50Q434 675 472 686Q459 695 435.50 698.50Q412 702 395 702Q335 702 282 674.50Q229 647 187 603Q145 559 116.50 504Q88 449 76 395Q71 374 70.50 364.50Q70 355 65 355Q60 355 60 362Q60 388 70.50 424.50Q81 461 101.50 500Q122 539 151.50 577.50Q181 616 218.50 646.50Q256 677 301 695.50Q346 714 398 714Q428 714 451.50 706Q475 698 486 691Q499 693 514 696.50Q529 700 541 700Q567 700 590.50 691.50Q614 683 631.50 664.50Q649 646 659.50 615Q670 584 670 539L670 508L672 506Z"  horiz-adv-x="722" vert-adv-y="1000"  />

      
      <glyph glyph-name="uni59" unicode="&#x59;" d="M824 358Q808 335 776 302.50Q744 270 706.50 239.50Q669 209 631.50 187.50Q594 166 566 166Q534 166 522 184.50Q510 203 510 233Q510 269 523 304Q536 339 555 371.50Q574 404 597 434.50Q620 465 639 494.50Q658 524 671 551Q684 578 684 604Q684 626 674 642Q664 658 648.50 667.50Q633 677 613 681.50Q593 686 574 686Q531 686 475 667Q419 648 369 615Q319 582 284.50 537Q250 492 250 441Q250 409 274 389.50Q298 370 329 370Q371 370 419 397.50Q467 425 511 477Q536 506 549 535Q562 564 568.50 586.50Q575 609 577.50 623Q580 637 585 637Q592 637 592 629Q592 623 588.50 600Q585 577 575 546.50Q565 516 548 482Q531 448 503 419.50Q475 391 436 372.50Q397 354 343 354Q294 354 266 379Q238 404 238 439Q238 472 253.50 504Q269 536 295 565Q321 594 354.50 618.50Q388 643 425 660.50Q462 678 499.50 688Q537 698 570 698Q634 698 672 666.50Q710 635 710 554Q710 522 697 490Q684 458 665 426Q646 394 623 363.50Q600 333 581 304.50Q562 276 549 251Q536 226 536 205Q536 190 545 184Q554 178 568 178Q584 178 614.50 193Q645 208 681.50 234Q718 260 755.50 295.50Q793 331 822 373Q897 480 958.50 544.50Q1020 609 1065 643Q1110 677 1137.50 687.50Q1165 698 1173 698Q1180 698 1180 692Q1180 687 1170 683.50Q1160 680 1143 673Q1126 666 1103 652.50Q1080 639 1053.50 615Q1027 591 999 553.50Q971 516 943 461Q930 435 911 397.50Q892 360 870 318Q848 276 823.50 232Q799 188 774.50 148Q750 108 727 75Q704 42 684 22Q603-59 496.50-102.50Q390-146 275-146Q228-146 181-133.50Q134-121 96-95Q58-69 34-30Q10 9 10 62Q10 111 35.50 152.50Q61 194 100.50 224Q140 254 187 271Q234 288 278 288Q322 288 358.50 276Q395 264 420.50 243Q446 222 460 195Q474 168 474 138Q474 97 455 65Q436 33 406 11.50Q376-10 338.50-21Q301-32 264-32Q251-32 237-30Q223-28 211-25Q199-22 191.50-19Q184-16 184-13Q184-8 189-8Q192-8 196.50-10Q201-12 210.50-14Q220-16 235.50-18Q251-20 275-20Q306-20 339-9Q372 2 398 21.50Q424 41 441 69Q458 97 458 132Q458 166 444.50 189.50Q431 213 408.50 227Q386 241 357.50 247.50Q329 254 300 254Q253 254 205.50 238Q158 222 120.50 193Q83 164 59.50 122Q36 80 36 29Q36-16 60.50-47Q85-78 121.50-97.50Q158-117 199-125.50Q240-134 273-134Q353-134 416-114.50Q479-95 529.50-60.50Q580-26 620.50 20.50Q661 67 696 121.50Q731 176 762 235.50Q793 295 826 356L824 358Z"  horiz-adv-x="889" vert-adv-y="1000"  />

      
      <glyph glyph-name="uni5a" unicode="&#x5a;" d="M716 536Q727 533 738.50 530.50Q750 528 761 528Q798 528 837.50 539.50Q877 551 910 569.50Q943 588 964.50 611.50Q986 635 986 659Q986 678 973.50 685Q961 692 944 692Q912 692 879.50 675.50Q847 659 817 635Q787 611 761 584Q735 557 716 536M424 229Q416 232 404 234.50Q392 237 379.50 238.50Q367 240 355.50 241Q344 242 337 242Q279 242 227 223.50Q175 205 135.50 178Q96 151 73 119.50Q50 88 50 61Q50 32 70 19Q90 6 118 6Q157 6 201 29.50Q245 53 286.50 87.50Q328 122 364 160.50Q400 199 424 229M318 334Q261 334 234.50 365.50Q208 397 208 451Q208 501 237 547.50Q266 594 310 630Q354 666 406 688Q458 710 504 710Q540 710 564.50 699.50Q589 689 606 672.50Q623 656 634.50 636.50Q646 617 655 598.50Q664 580 673 565.50Q682 551 694 546Q717 568 745.50 595.50Q774 623 806.50 647Q839 671 873.50 687.50Q908 704 943 704Q967 704 982.50 692Q998 680 998 660Q998 634 976.50 608Q955 582 920 561.50Q885 541 840.50 528.50Q796 516 751 516Q737 516 724.50 517Q712 518 700 520Q639 450 579.50 380Q520 310 457 238Q497 223 520.50 201Q544 179 557.50 155Q571 131 577 107Q583 83 588 63.50Q593 44 599.50 32Q606 20 621 20Q641 20 669 36.50Q697 53 722 76Q750 101 765 116.50Q780 132 787.50 141Q795 150 797.50 153Q800 156 802 156Q806 156 806 150Q806 148 799.50 140Q793 132 783 121.50Q773 111 762 99.50Q751 88 741 79Q699 37 663 18.50Q627 0 601 0Q573 0 556 15Q539 30 529.50 50Q520 70 516 91Q512 112 509 123Q504 142 499 157.50Q494 173 487.50 185Q481 197 470.50 205.50Q460 214 444 221Q412 186 371.50 146.50Q331 107 287.50 73Q244 39 201 16.50Q158-6 121-6Q84-6 61 10Q38 26 38 58Q38 89 62.50 123.50Q87 158 128.50 187Q170 216 225 235Q280 254 342 254Q362 254 391 251.50Q420 249 437 243Q494 318 554.50 388Q615 458 678 528Q645 539 625 555.50Q605 572 592.50 591Q580 610 572 629Q564 648 554 663.50Q544 679 529 688.50Q514 698 488 698Q447 698 400 676Q353 654 313 619Q273 584 246.50 539Q220 494 220 449Q220 400 241 377Q262 354 312 354Q345 354 377.50 375.50Q410 397 437.50 429.50Q465 462 484.50 499.50Q504 537 512 570Q516 585 516.50 591Q517 597 520 597Q524 597 524 590Q524 555 511 510.50Q498 466 472.50 427Q447 388 408.50 361Q370 334 318 334Z"  horiz-adv-x="778" vert-adv-y="1000"  />

      
      <glyph glyph-name="uni5b" unicode="&#x5b;" d="M450 698L695 698L683 674L496 674L74-172L263-172L251-196L4-196L450 698Z"  horiz-adv-x="500" vert-adv-y="1000"  />

      
      <glyph glyph-name="uni5c" unicode="&#x5c;" d="M143 698L366-6L335-6L112 698L143 698Z"  horiz-adv-x="278" vert-adv-y="1000"  />

      
      <glyph glyph-name="uni5d" unicode="&#x5d;" d="M158-196L-87-196L-75-172L112-172L534 674L345 674L357 698L604 698L158-196Z"  horiz-adv-x="500" vert-adv-y="1000"  />

      
      <glyph glyph-name="uni5e" unicode="&#x5e;" d="M166 265L267 466L292 466L394 265L363 265L280 430L196 265L166 265Z"  horiz-adv-x="400" vert-adv-y="1000"  />

      
      <glyph glyph-name="uni5f" unicode="&#x5f;" d="M0-125L0-75L500-75L500-125L0-125Z"  horiz-adv-x="500" vert-adv-y="1000"  />

      
      <glyph glyph-name="uni2018" unicode="&#x2018;" d="M132 352Q132 372 151 399Q170 426 194 450Q218 474 240.50 491Q263 508 269 508Q274 508 274 503Q274 500 271 497.50Q268 495 257 487Q228 466 210.50 445.50Q193 425 192 405Q191 380 188.50 364.50Q186 349 181.50 340Q177 331 170 327.50Q163 324 153 324Q142 324 137 332.50Q132 341 132 352Z"  horiz-adv-x="222" vert-adv-y="1000"  />

      
      <glyph glyph-name="uni61" unicode="&#x61;" d="M56 44Q56 30 61.50 21Q67 12 79 12Q101 12 132 35.50Q163 59 192 93Q221 127 241.50 164.50Q262 202 262 230Q262 245 254.50 255.50Q247 266 231 266Q201 266 169.50 241.50Q138 217 113 182Q88 147 72 109Q56 71 56 44M376 273Q369 265 355.50 245.50Q342 226 326 201.50Q310 177 293.50 150Q277 123 263 98Q249 73 240.50 54Q232 35 232 26Q232 12 249 12Q272 12 309.50 46.50Q347 81 391 132Q400 143 402 145.50Q404 148 406 148Q409 148 410.50 146Q412 144 412 142Q412 141 406.50 134.50Q401 128 393 119Q385 110 375.50 99Q366 88 357 79Q322 43 294 21.50Q266 0 246 0Q226 0 214 14Q202 28 202 69Q202 74 202.50 78.50Q203 83 203 87Q192 76 176.50 61Q161 46 144 32.50Q127 19 110 9.50Q93 0 79 0Q60 0 47.50 8Q35 16 28 28.50Q21 41 18.50 57.50Q16 74 16 91Q16 103 17.50 114.50Q19 126 21 138Q19 138 18 136.50Q17 135 15 135Q11 135 11 140Q11 143 14 146Q17 149 27 161Q47 186 72 207Q97 228 123.50 244Q150 260 177.50 269Q205 278 231 278Q254 278 264 263.50Q274 249 274 229Q274 211 271 202L273 200Q286 221 293.50 235Q301 249 306 256.50Q311 264 315.50 267.50Q320 271 328 271L376 273Z"  horiz-adv-x="389" vert-adv-y="1000"  />

      
      <glyph glyph-name="uni62" unicode="&#x62;" d="M381 602Q289 449 227.50 346.50Q166 244 129 179.50Q92 115 76.50 83Q61 51 61 38Q61 27 65.50 19.50Q70 12 84 12Q112 12 142.50 27.50Q173 43 198 71Q223 99 239 137.50Q255 176 255 223Q255 251 260.50 264.50Q266 278 285 278Q298 278 303.50 266Q309 254 309 240Q309 217 300 193.50Q291 170 279 148.50Q267 127 254.50 110Q242 93 235 85Q238 84 244 84Q267 84 290.50 96.50Q314 109 330 127Q344 142 346 145Q348 148 350 148Q355 148 355 143Q355 140 351 135.50Q347 131 339 122Q317 97 289 84.50Q261 72 235 72Q230 72 227.50 72.50Q225 73 224 73Q215 64 200 52Q185 40 167 28.50Q149 17 128 8.50Q107 0 86 0Q54-1 40.50 19.50Q27 40 27 70Q27 97 42 126Q57 155 74.50 180.50Q92 206 107 224Q122 242 122 247Q122 249 120 249Q118 249 106.50 235Q95 221 69 193Q49 171 38 158Q27 145 21.50 138.50Q16 132 14 130.50Q12 129 10 129Q5 129 5 133Q5 135 18 150.50Q31 166 47.50 185Q64 204 80 221.50Q96 239 101 245Q114 259 137.50 294.50Q161 330 191 378Q221 426 254 481.50Q287 537 318 592L381 602Z"  horiz-adv-x="333" vert-adv-y="1000"  />

      
      <glyph glyph-name="uni63" unicode="&#x63;" d="M280 229Q280 215 270 200.50Q260 186 243 186Q229 186 223.50 193.50Q218 201 218 211Q218 221 222.50 225Q227 229 233 231.50Q239 234 243.50 237.50Q248 241 248 249Q248 255 242.50 260.50Q237 266 225 266Q202 266 174.50 248.50Q147 231 123 201.50Q99 172 82.50 133Q66 94 66 51Q66 12 108 12Q134 12 168.50 30.50Q203 49 236 84Q256 105 267.50 118Q279 131 284.50 137.50Q290 144 292 146.50Q294 149 295 149Q301 149 301 143Q301 141 289.50 127.50Q278 114 262 97Q214 45 176.50 22.50Q139 0 101 0Q78 0 62.50 10.50Q47 21 38 37Q29 53 25.50 72.50Q22 92 22 110Q22 122 23.50 128.50Q25 135 25 137Q25 139 23 139Q21 139 19.50 137Q18 135 16 135Q11 135 11 140Q11 141 12 142.50Q13 144 16 148.50Q19 153 26 161Q33 169 45 183Q88 234 130.50 256Q173 278 215 278Q244 278 262 265.50Q280 253 280 229Z"  horiz-adv-x="278" vert-adv-y="1000"  />

      
      <glyph glyph-name="uni64" unicode="&#x64;" d="M263 234Q263 251 257 261.50Q251 272 234 272Q209 272 178.50 249.50Q148 227 121 192.50Q94 158 76 117Q58 76 58 39Q58 12 85 12Q104 12 134 34Q164 56 192.50 89.50Q221 123 242 162Q263 201 263 234M493 600L552 602Q493 497 436 400.50Q379 304 334 226.50Q289 149 261.50 97.50Q234 46 234 31Q234 12 251 12Q262 12 282 25Q302 38 334 70Q374 109 389.50 129Q405 149 407 149Q413 149 413 145Q413 141 392 117Q339 56 304 28Q269 0 241 0Q224 0 214 15Q204 30 204 53Q204 65 206.50 75.50Q209 86 211 94L209 96Q201 83 186 66.50Q171 50 153 35Q135 20 114.50 10Q94 0 75 0Q60 0 49 8.50Q38 17 31 30Q24 43 21 59.50Q18 76 18 91Q18 102 19 115Q20 128 22 139Q20 139 18.50 136.50Q17 134 16 134Q11 134 11 140Q11 140 11.50 141.50Q12 143 15 147Q18 151 24 158.50Q30 166 41 178Q82 223 130 253.50Q178 284 228 284Q247 284 261 273Q275 262 275 239Q275 232 275 225Q275 219 273 214L275 212L493 600Z"  horiz-adv-x="389" vert-adv-y="1000"  />

      
      <glyph glyph-name="uni65" unicode="&#x65;" d="M221 266Q201 266 177 249.50Q153 233 130.50 209Q108 185 91 158Q74 131 69 110Q94 113 124 124.50Q154 136 180 154.50Q206 173 223.50 196.50Q241 220 241 247Q241 266 221 266M271 230Q271 202 247 179.50Q223 157 190 140.50Q157 124 122 113Q87 102 65 98Q63 90 62 81.50Q61 73 61 65Q61 36 70.50 24.50Q80 13 103 12Q123 11 160 28.50Q197 46 243 91Q272 121 282.50 135Q293 149 296 149Q301 149 301 143Q301 141 294.50 133Q288 125 278 113.50Q268 102 255.50 89Q243 76 232 66Q194 31 162.50 16Q131 1 96 0Q75 0 60.50 9Q46 18 36 33Q26 48 21.50 67Q17 86 17 106Q17 117 18.50 125Q20 133 20 135Q20 137 19 137Q19 137 19 137Q16 134 16 134Q15 134 13 136Q11 138 11 140Q11 141 15.50 147Q20 153 26.50 160Q33 167 39 173.50Q45 180 48 183Q90 225 135 251.50Q180 278 221 278Q244 278 257.50 264.50Q271 251 271 230Z"  horiz-adv-x="278" vert-adv-y="1000"  />

      
      <glyph glyph-name="uni66" unicode="&#x66;" d="M192 281Q211 298 239 320Q267 342 298 368Q329 394 360 422.50Q391 451 415.50 480.50Q440 510 455 539.50Q470 569 470 597Q470 620 442 620Q412 620 380.50 590Q349 560 317 512Q285 464 253 403.50Q221 343 190 283L192 281M61 20Q93 22 130 45Q167 68 209 115Q229 136 232.50 142Q236 148 240 148Q245 148 245 143Q245 141 240 135Q235 129 227.50 120.50Q220 112 211.50 102.50Q203 93 195 85Q163 53 127 31Q91 9 53 3L-90-264L-151-272L4 10Q-4 15-6 23Q-8 31-8 39Q-8 53 0 61.50Q8 70 20 70Q28 70 33 67L148 272L146 274Q116 248 98.50 228Q81 208 62 187Q40 163 29 148.50Q18 134 15 134Q10 134 10 139Q10 140 14 145Q18 150 27 161Q36 172 52 190Q68 208 92 234Q112 256 126 269.50Q140 283 150 292Q160 301 167.50 309.50Q175 318 182 331Q193 351 210.50 381.50Q228 412 249 445.50Q270 479 294.50 512.50Q319 546 345 572.50Q371 599 397.50 615.50Q424 632 449 632Q469 632 477.50 620Q486 608 486 586Q486 550 461 512Q436 474 393.50 434Q351 394 295.50 350Q240 306 180 258L61 20Z"  horiz-adv-x="222" vert-adv-y="1000"  />

      
      <glyph glyph-name="uni67" unicode="&#x67;" d="M-70-262Q-70-279-65.50-289.50Q-61-300-41-300Q-22-300-1.50-285Q19-270 40-246.50Q61-223 80.50-193.50Q100-164 116.50-135.50Q133-107 144.50-82Q156-57 161-42Q136-57 97-80Q58-103 21-132Q-16-161-43-194Q-70-227-70-262M244 266Q214 266 181.50 242Q149 218 122 183Q95 148 77.50 109.50Q60 71 60 43Q60 30 66.50 21Q73 12 86 12Q105 12 126 24.50Q147 37 168 56.50Q189 76 208 100Q227 124 241.50 148Q256 172 265 193.50Q274 215 274 229Q274 246 268 256Q262 266 244 266M391 274L223-4L225-6Q246 3 268 17.50Q290 32 311 50Q332 68 351.50 88Q371 108 387 127Q399 141 402 145Q405 149 408 149Q412 149 412 144Q412 140 405 132Q398 124 376 100Q336 55 292 22.50Q248-10 217-21Q208-40 191.50-69Q175-98 153.50-130.50Q132-163 106.50-195Q81-227 55-253Q29-279 3-295.50Q-23-312-46-312Q-68-312-82-299.50Q-96-287-96-261Q-96-231-78-204Q-60-177-26-149Q8-121 57-91.50Q106-62 169-26Q180-1 195.50 31Q211 63 239 117L237 119Q226 104 209 83.50Q192 63 171.50 44.50Q151 26 129 13Q107 0 86 0Q51 0 37.50 24Q24 48 24 87Q24 106 27.50 117Q31 128 31 139Q31 142 27 142Q22 142 20 138.50Q18 135 16 135Q12 135 12 141Q12 143 17.50 149.50Q23 156 44 179Q61 197 84.50 214.50Q108 232 134 246Q160 260 186 269Q212 278 234 278Q258 278 272 267Q286 256 286 230Q286 208 282 195L284 193Q294 209 305 228.50Q316 248 326 269L391 274Z"  horiz-adv-x="389" vert-adv-y="1000"  />

      
      <glyph glyph-name="uni68" unicode="&#x68;" d="M-28 0Q54 144 139 272L138 274Q117 251 102 231.50Q87 212 60 183Q44 165 35 155Q26 145 21.50 140Q17 135 15.50 133.50Q14 132 13 132Q9 132 9 138Q9 142 29 163Q49 184 79.50 219.50Q110 255 146.50 303.50Q183 352 216 409L324 595L385 602Q376 585 355.50 550.50Q335 516 308 471.50Q281 427 250.50 376.50Q220 326 191 276.50Q162 227 136 182.50Q110 138 92 107L94 105Q166 188 219 233Q272 278 298 278Q320 278 329 262Q338 246 338 226Q338 205 321 177.50Q304 150 283 122Q262 94 245 68Q228 42 228 26Q228 21 231.50 16.50Q235 12 243 12Q266 12 292 33Q318 54 360 98Q369 107 377 116.50Q385 126 392 134Q399 142 404 147.50Q409 153 411 153Q416 153 416 148Q416 146 401 128Q386 110 366 89Q339 60 319 42.50Q299 25 284 15.50Q269 6 258 3Q247 0 238 0Q223 0 210.50 11Q198 22 198 55Q198 88 215 117.50Q232 147 253 172Q274 197 291 217.50Q308 238 308 253Q308 258 304.50 262Q301 266 297 266Q284 266 261 250.50Q238 235 211.50 211Q185 187 156.50 157Q128 127 103 98Q78 69 59.50 44.50Q41 20 34 6L-28 0Z"  horiz-adv-x="389" vert-adv-y="1000"  />

      
      <glyph glyph-name="uni69" unicode="&#x69;" d="M225 436Q225 449 234 461.50Q243 474 260 474Q271 474 277 466.50Q283 459 283 448Q283 435 274 422.50Q265 410 248 410Q237 410 231 417.50Q225 425 225 436M190 278Q145 204 117.50 159.50Q90 115 75.50 89.50Q61 64 56 52.50Q51 41 51 33Q51 20 57 16Q63 12 70 12Q82 12 96 19Q110 26 125 36.50Q140 47 154.50 60Q169 73 181 86Q191 96 201.50 107.50Q212 119 220.50 129Q229 139 235 145.50Q241 152 242 152Q248 152 248 147Q248 145 233.50 127.50Q219 110 187 77Q113 0 69 0Q46 0 33.50 14.50Q21 29 21 52Q21 77 31 102Q41 127 55.50 151Q70 175 86.50 197Q103 219 116 238L114 240Q105 231 85 210Q65 189 29 148Q21 139 19 137Q17 135 15 135Q11 135 11 141Q11 143 16 148.50Q21 154 41 177Q51 188 63.50 201.50Q76 215 88 228.50Q100 242 110.50 254Q121 266 127 274L190 278Z"  horiz-adv-x="222" vert-adv-y="1000"  />

      
      <glyph glyph-name="uni6a" unicode="&#x6a;" d="M229 434Q229 447 238 459.50Q247 472 264 472Q275 472 281 464.50Q287 457 287 446Q287 433 278 420.50Q269 408 252 408Q241 408 235 415.50Q229 423 229 434M-238-274Q-238-288-229-294Q-220-300-206-300Q-186-300-165.50-285Q-145-270-126-246.50Q-107-223-89-194Q-71-165-56.50-136.50Q-42-108-30.50-83.50Q-19-59-13-44L-15-42Q-41-59-78.50-83.50Q-116-108-150.50-138Q-185-168-210-202.50Q-235-237-238-274M208 278Q193 250 170.50 208.50Q148 167 124 124Q100 81 78.50 43Q57 5 43-16L45-18Q90 5 133.50 41Q177 77 219 126Q233 142 235.50 145.50Q238 149 241 149Q245 149 245 144Q245 140 241 136.50Q237 133 226 119Q192 77 147 37.50Q102-2 33-37Q23-56 7-84Q-9-112-28.50-142.50Q-48-173-70-203Q-92-233-116-257.50Q-140-282-164.50-297Q-189-312-213-312Q-236-312-250-301.50Q-264-291-264-267Q-264-232-236.50-198Q-209-164-169-133Q-129-102-84-75Q-39-48-4-26Q49 85 86 156.50Q123 228 136 247L134 249Q120 238 110 229Q100 220 90 211Q80 202 70.50 192Q61 182 49 170Q38 158 31.50 151.50Q25 145 22 141Q19 137 18 136Q17 135 16 135Q11 135 11 141Q11 142 12 143.50Q13 145 16.50 149Q20 153 27.50 160.50Q35 168 47 182Q67 203 94.50 228.50Q122 254 145 274L208 278Z"  horiz-adv-x="222" vert-adv-y="1000"  />

      
      <glyph glyph-name="uni6b" unicode="&#x6b;" d="M357 220Q341 220 336.50 229.50Q332 239 331 256Q314 253 305.50 243.50Q297 234 285 214Q272 194 248.50 179.50Q225 165 201 160L201 158Q211 156 220.50 149.50Q230 143 237.50 134Q245 125 249.50 115Q254 105 254 97Q254 89 250.50 78Q247 67 243 56.50Q239 46 235.50 38Q232 30 232 27Q232 21 236.50 16.50Q241 12 247 12Q259 12 273 20.50Q287 29 301.50 40Q316 51 328 63Q340 75 347 83Q368 105 379 117.50Q390 130 395.50 137Q401 144 402.50 146Q404 148 406 148Q412 148 412 143Q412 142 407.50 136Q403 130 395.50 121.50Q388 113 379 102.50Q370 92 361 83Q348 69 332.50 54Q317 39 301 27Q285 15 270 7.50Q255 0 243 0Q229 0 219 7.50Q209 15 202.50 26.50Q196 38 193 51Q190 64 190 75Q190 86 193 95Q196 104 200 111.50Q204 119 207 125.50Q210 132 210 138Q210 144 204 149Q198 154 192 154Q184 154 175.50 147Q167 140 153 140Q138 140 138 152Q138 157 144.50 162.50Q151 168 173 168Q177 168 180.50 167Q184 166 192 166Q198 166 208.50 171Q219 176 231.50 185Q244 194 256.50 206Q269 218 280 232Q302 260 316 269Q330 278 347 278Q364 278 374.50 269.50Q385 261 385 247Q385 234 376.50 227Q368 220 357 220M387 602L37 4L-31 0L129 259L127 261Q121 254 112.50 244Q104 234 95 222.50Q86 211 76.50 200.50Q67 190 59 181Q42 163 32.50 152Q23 141 18 135Q13 129 11 127.50Q9 126 8 126Q4 126 4 132Q4 134 6.50 137.50Q9 141 18 150.50Q27 160 43.50 179Q60 198 89 231Q114 260 133 284.50Q152 309 168.50 333Q185 357 200.50 382.50Q216 408 234 439Q252 470 274 508Q296 546 325 596L387 602Z"  horiz-adv-x="389" vert-adv-y="1000"  />

      
      <glyph glyph-name="uni6c" unicode="&#x6c;" d="M396 602Q298 448 232.50 345Q167 242 126.50 176.50Q86 111 69 76.50Q52 42 52 25Q52 20 56.50 16Q61 12 68 12Q91 12 118.50 31Q146 50 184 88Q218 122 227.50 135.50Q237 149 241 149Q246 149 246 144Q246 143 242 138Q238 133 232 126Q226 119 219.50 112Q213 105 208 99Q164 52 129 26Q94 0 65 0Q39 0 30.50 15Q22 30 22 50Q22 72 28 90.50Q34 109 47 130.50Q60 152 79 180.50Q98 209 124 252L122 254Q109 239 95 222Q81 205 56 178Q42 162 33.50 152.50Q25 143 20 137.50Q15 132 13 130.50Q11 129 9 129Q5 129 5 134Q5 137 23.50 157Q42 177 71.50 211.50Q101 246 137.50 293.50Q174 341 210 399L330 595L396 602Z"  horiz-adv-x="222" vert-adv-y="1000"  />

      
      <glyph glyph-name="uni6d" unicode="&#x6d;" d="M208 0Q213 9 225.50 29Q238 49 254 74Q270 99 287 126.50Q304 154 318.50 178.50Q333 203 342 222.50Q351 242 351 251Q351 265 338 266Q328 267 308 251.50Q288 236 263.50 210.50Q239 185 213 154Q187 123 164 93.50Q141 64 123 40.50Q105 17 98 6L33 0Q106 116 146 178Q186 240 186 252Q186 266 171 266Q150 266 125.50 246.50Q101 227 76 201Q41 163 29.50 148.50Q18 134 15 134Q12 134 11 136Q10 138 10 140Q10 142 25.50 159.50Q41 177 69 209Q104 248 129 263Q154 278 172 278Q212 278 212 240Q212 223 206 205Q200 187 191 169.50Q182 152 172 135Q162 118 155 105L157 103Q170 117 193.50 146Q217 175 243.50 204.50Q270 234 296.50 256Q323 278 343 278Q360 278 368.50 267.50Q377 257 377 233Q377 216 372 199Q367 182 359.50 165.50Q352 149 343.50 134Q335 119 328 107L330 105Q343 120 366.50 149Q390 178 417.50 206.50Q445 235 472.50 256.50Q500 278 521 278Q535 278 545.50 266Q556 254 556 227Q556 203 541 177Q526 151 507 125.50Q488 100 472 76.50Q456 53 454 34Q453 26 457.50 19Q462 12 470 12Q484 12 508.50 29.50Q533 47 561 76Q586 103 599 117.50Q612 132 618 138.50Q624 145 625.50 146.50Q627 148 629 148Q634 148 634 143Q634 141 628.50 134.50Q623 128 615 119Q607 110 597 99Q587 88 577 78Q539 39 513.50 19.50Q488 0 467 0Q444 0 434 17.50Q424 35 424 64Q424 95 440.50 124Q457 153 477 178Q497 203 513.50 223Q530 243 530 257Q530 260 527.50 263Q525 266 517 266Q503 266 481 249.50Q459 233 434 207.50Q409 182 383 151.50Q357 121 334.50 92Q312 63 295 39.50Q278 16 271 6L208 0Z"  horiz-adv-x="611" vert-adv-y="1000"  />

      
      <glyph glyph-name="uni6e" unicode="&#x6e;" d="M26 0Q31 9 44.50 29Q58 49 76 74.50Q94 100 113.50 128Q133 156 149 180.50Q165 205 175.50 224Q186 243 186 251Q186 259 181.50 262.50Q177 266 171 266Q150 266 126.50 248.50Q103 231 65 189Q47 170 37.50 159Q28 148 23.50 142.50Q19 137 17.50 135.50Q16 134 15 134Q10 134 10 140Q10 141 14 146.50Q18 152 24 158.50Q30 165 36.50 172.50Q43 180 48 186Q84 228 115 253Q146 278 175 278Q195 278 203.50 265Q212 252 212 229Q212 214 205 196.50Q198 179 188.50 162Q179 145 168 129.50Q157 114 149 103L151 101Q166 115 192.50 144.50Q219 174 249 203.50Q279 233 308 255.50Q337 278 356 278Q375 278 383.50 262.50Q392 247 392 231Q392 205 380 183.50Q368 162 355 145Q288 54 288 32Q288 24 292 18Q296 12 304 12Q321 12 350 35.50Q379 59 410 92Q429 112 439 123.50Q449 135 453.50 140.50Q458 146 459.50 147.50Q461 149 463 149Q467 149 467 144Q467 142 459 132Q451 122 440.50 110Q430 98 419.50 87Q409 76 404 71Q371 38 345 19Q319 0 302 0Q279 0 268.50 18.50Q258 37 258 64Q258 94 275 123.50Q292 153 312 178.50Q332 204 349 224Q366 244 366 254Q366 266 352 266Q340 266 318 250Q296 234 270 209Q244 184 216 153.50Q188 123 163 94Q138 65 119 41.50Q100 18 93 6L26 0Z"  horiz-adv-x="444" vert-adv-y="1000"  />

      
      <glyph glyph-name="uni6f" unicode="&#x6f;" d="M267 221Q267 239 259 252.50Q251 266 232 266Q206 266 177 244Q148 222 124 189Q100 156 84.50 118Q69 80 69 49Q69 28 76.50 20Q84 12 95 12Q125 12 155.50 32Q186 52 210.50 82.50Q235 113 251 150Q267 187 267 221M289 209Q289 194 284 176.50Q279 159 270.50 142.50Q262 126 251.50 110.50Q241 95 230 84Q234 82 241 82Q267 82 291 95.50Q315 109 334 131Q344 142 346.50 145Q349 148 351 148Q356 148 356 143Q356 141 352 136Q348 131 331 113Q312 93 286.50 81.50Q261 70 232 70Q222 70 219 71Q196 45 164.50 22.50Q133 0 91 0Q61 0 45 24Q29 48 29 89Q29 116 31.50 126Q34 136 34 141Q34 147 31 147Q25 147 20 139Q15 131 13 131Q7 131 7 136Q7 138 12.50 145Q18 152 27 161Q36 170 46 180Q56 190 65 199Q109 241 152 259.50Q195 278 229 278Q258 278 273.50 258.50Q289 239 289 209Z"  horiz-adv-x="333" vert-adv-y="1000"  />

      
      <glyph glyph-name="uni70" unicode="&#x70;" d="M295 454L82 93L84 91Q98 107 124.50 138.50Q151 170 181.50 201Q212 232 243.50 255Q275 278 299 278Q319 278 327.50 262.50Q336 247 336 226Q336 202 319.50 175.50Q303 149 282.50 122Q262 95 245.50 70Q229 45 229 26Q229 12 245 12Q253 12 263.50 15.50Q274 19 288 28.50Q302 38 320 55Q338 72 361 98Q376 115 384.50 125Q393 135 397.50 140.50Q402 146 403.50 147.50Q405 149 407 149Q412 149 412 144Q412 142 411 140.50Q410 139 407 135.50Q404 132 398 125.50Q392 119 381 106Q330 45 297 22.50Q264 0 242 0Q219 0 209 17.50Q199 35 199 64Q199 94 215.50 121.50Q232 149 252.50 173Q273 197 289.50 217.50Q306 238 306 253Q306 266 293 266Q279 266 246 243Q213 220 168 173Q123 126 70 55Q17-16-38-112L-121-258L-188-262L155 295L153 297Q133 274 110 245.50Q87 217 66 192Q45 167 30.50 150Q16 133 15 133Q9 133 9 138Q9 140 10.50 142Q12 144 17.50 150.50Q23 157 35 170.50Q47 184 68 210Q91 239 108.50 260Q126 281 139.50 298Q153 315 164 329.50Q175 344 186.50 360.50Q198 377 211.50 397Q225 417 243 445L295 454Z"  horiz-adv-x="389" vert-adv-y="1000"  />

      
      <glyph glyph-name="uni71" unicode="&#x71;" d="M64 40Q64 30 68.50 21Q73 12 81 12Q110 12 144 36.50Q178 61 207.50 95.50Q237 130 256.50 167Q276 204 276 229Q276 249 267.50 257.50Q259 266 239 266Q216 266 186 245.50Q156 225 129 192Q102 159 83 119Q64 79 64 40M383 272L117-178L119-180Q179-104 243.50-31Q308 42 371 111Q395 137 400.50 143.50Q406 150 408 150Q414 150 414 144Q414 143 404.50 132.50Q395 122 382.50 108.50Q370 95 357.50 81.50Q345 68 339 61Q321 40 285.50 1Q250-38 209.50-84.50Q169-131 130.50-179Q92-227 70-265L6-272L232 100L230 102Q223 94 207 77Q191 60 170 43Q149 26 126 13Q103 0 82 0Q53 0 38.50 24.50Q24 49 24 90Q24 109 27.50 124.50Q31 140 31 142Q31 144 28 144Q22 144 20 139Q18 134 16 134Q15 134 13 135.50Q11 137 11 141Q11 143 21.50 154.50Q32 166 49 184Q72 208 98 225.50Q124 243 149.50 254.50Q175 266 198 272Q221 278 239 278Q260 278 274 267Q288 256 288 229Q288 223 285.50 211.50Q283 200 282 195L284 193L328 270L383 272Z"  horiz-adv-x="389" vert-adv-y="1000"  />

      
      <glyph glyph-name="uni72" unicode="&#x72;" d="M30 0Q68 61 96.50 104.50Q125 148 144.50 177Q164 206 174 224Q184 242 184 252Q184 266 167 266Q156 266 137.50 255.50Q119 245 89 214Q66 190 52 174.50Q38 159 30.50 150Q23 141 19.50 137.50Q16 134 15 134Q10 134 10 139Q10 141 15.50 148Q21 155 30 165Q39 175 49.50 186Q60 197 69 208Q101 243 125.50 260.50Q150 278 171 278Q190 278 200 263.50Q210 249 210 231Q210 216 203 197Q196 178 186 159Q176 140 165 123Q154 106 147 96L149 94Q189 140 221 168Q253 196 260 216Q268 238 284 258Q300 278 326 278Q350 278 350 262Q350 247 332.50 233.50Q315 220 294 204Q273 188 255.50 169Q238 150 238 124Q238 109 247.50 99.50Q257 90 271 90Q296 90 316 110Q333 127 340 137.50Q347 148 350 148Q356 148 356 143Q356 141 347 130Q338 119 331 111Q316 94 300 87Q284 80 270 80Q253 80 239.50 90.50Q226 101 226 119Q226 136 231 149.50Q236 163 246 175L244 177Q205 141 168 98Q131 55 93 6L30 0Z"  horiz-adv-x="333" vert-adv-y="1000"  />

      
      </font>
</defs>
</svg>
