<svg width="100" height="16" viewBox="0 0 100 16" fill="none" xmlns="http://www.w3.org/2000/svg">
<path d="M0 0.390564V2.01685H4.78126V15.1897H6.58644V2.01685H11.5791V0.390564H0Z" fill="#252A3A"/>
<path d="M31.1595 2.09855C30.6232 1.43036 29.9338 0.901193 29.1497 0.555836C28.3656 0.210479 27.5098 0.0590975 26.6548 0.114494C25.7847 0.086299 24.9204 0.266402 24.134 0.639804C23.3476 1.01321 22.6618 1.5691 22.1337 2.26118C21.0184 3.82983 20.4473 5.72041 20.5074 7.64417C20.441 9.6395 21.0105 11.6043 22.1337 13.2548C22.618 13.9478 23.2668 14.5096 24.0218 14.89C24.7768 15.2703 25.6145 15.4573 26.4596 15.434C27.3484 15.4814 28.2359 15.3208 29.0518 14.9651C29.8677 14.6094 30.5894 14.0684 31.1595 13.3849C32.3274 11.7127 32.9001 9.69687 32.7858 7.66043C32.9115 5.67327 32.336 3.705 31.1595 2.09855ZM29.7772 12.1815C29.4496 12.7069 28.9871 13.1349 28.438 13.4209C27.8888 13.7069 27.2731 13.8405 26.6548 13.8078C26.0008 13.8356 25.3518 13.6836 24.7783 13.3681C24.2048 13.0527 23.7289 12.586 23.4022 12.0189C22.6647 10.6762 22.305 9.15873 22.3614 7.62791C22.3055 6.12815 22.6657 4.64218 23.4022 3.33453C23.759 2.80692 24.2457 2.38012 24.8154 2.09528C25.3851 1.81043 26.0186 1.67714 26.6548 1.70825H26.8011C27.8094 1.70825 30.8831 1.70824 30.8831 7.64417C30.9799 9.23347 30.5944 10.815 29.7772 12.1815Z" fill="#252A3A"/>
<path d="M52.5128 0.39031V10.5546L44.1375 0V15.157H45.7637V5.12279L54.3017 15.4334V0.39031H52.5128Z" fill="#252A3A"/>
<path d="M72.9546 6.76558L77.3456 0.390564H75.4428L69.5882 8.37561V0.390564H67.7993V15.1572H69.5882V11.1728L71.7349 8.14793L76.0283 15.1572H77.9961L72.9546 6.76558Z" fill="#252A3A"/>
<path d="M94.0316 0.146973L88.0631 15.1575H89.9171L91.1856 11.9863H96.9589L98.2111 15.1575H100L94.0316 0.146973ZM91.706 10.3437L93.9665 4.45661L96.227 10.3437H91.706Z" fill="#252A3A"/>
</svg>
