<svg width="124" height="124" viewBox="0 0 124 124" fill="none" xmlns="http://www.w3.org/2000/svg">
<path d="M61.9998 123.348C95.8812 123.348 123.348 95.8812 123.348 61.9998C123.348 28.1184 95.8812 0.6521 61.9998 0.6521C28.1184 0.6521 0.652099 28.1184 0.652098 61.9998C0.652097 95.8812 28.1184 123.348 61.9998 123.348Z" fill="#FDECEF"/>
<path d="M23.7021 70.092V71.3379H27.365V81.4294H28.7479V71.3379H32.5727V70.092H23.7021Z" fill="#252A3A"/>
<path d="M47.5726 71.4003C47.1617 70.8884 46.6336 70.4831 46.0329 70.2185C45.4322 69.9539 44.7766 69.8379 44.1215 69.8804C43.455 69.8588 42.7929 69.9968 42.1905 70.2828C41.588 70.5689 41.0626 70.9947 40.6581 71.5249C39.8037 72.7266 39.3661 74.1749 39.4122 75.6487C39.3613 77.1773 39.7976 78.6825 40.6581 79.9469C41.0291 80.4778 41.5261 80.9082 42.1045 81.1996C42.6829 81.491 43.3246 81.6342 43.972 81.6164C44.6529 81.6526 45.3329 81.5296 45.9579 81.2571C46.5829 80.9846 47.1358 80.5701 47.5726 80.0466C48.4672 78.7655 48.9059 77.2212 48.8184 75.6612C48.9147 74.1388 48.4738 72.631 47.5726 71.4003ZM46.5136 79.1246C46.2626 79.5271 45.9083 79.855 45.4876 80.0741C45.0669 80.2932 44.5952 80.3956 44.1215 80.3705C43.6206 80.3918 43.1234 80.2753 42.6841 80.0337C42.2447 79.7921 41.8801 79.4346 41.6298 79.0001C41.0648 77.9715 40.7893 76.809 40.8325 75.6362C40.7896 74.4873 41.0656 73.3489 41.6298 72.3472C41.9032 71.943 42.276 71.616 42.7125 71.3978C43.1489 71.1796 43.6342 71.0775 44.1215 71.1013H44.2337C45.0061 71.1013 47.3608 71.1013 47.3608 75.6487C47.435 76.8662 47.1397 78.0778 46.5136 79.1246Z" fill="#252A3A"/>
<path d="M63.9308 70.0917V77.8783L57.5146 69.7927V81.4041H58.7605V73.7172L65.3013 81.6159V70.0917H63.9308Z" fill="#252A3A"/>
<path d="M79.591 74.9758L82.9548 70.092H81.4971L77.0121 76.2092V70.092H75.6416V81.4044H77.0121V78.3521L78.6566 76.0348L81.9457 81.4044H83.4531L79.591 74.9758Z" fill="#252A3A"/>
<path d="M95.7376 69.9053L91.1653 81.4046H92.5856L93.5573 78.9751H97.9801L98.9394 81.4046H100.31L95.7376 69.9053ZM93.956 77.7168L95.6877 73.2068L97.4195 77.7168H93.956Z" fill="#252A3A"/>
<path d="M37.731 87.4716C37.8858 87.5793 38.0103 87.7252 38.0922 87.8952C38.173 88.093 38.2153 88.3044 38.2168 88.5181C38.2178 88.732 38.1755 88.9439 38.0922 89.141C38.0099 89.3074 37.8853 89.4491 37.731 89.5522C37.5755 89.6535 37.3932 89.7056 37.2077 89.7017C37.0549 89.7043 36.9042 89.6656 36.7716 89.5895C36.65 89.5255 36.547 89.431 36.4726 89.3154V90.499H35.8995V87.3843H36.4726V87.7207C36.5343 87.5965 36.6349 87.4959 36.7592 87.4342C36.8967 87.3593 37.0511 87.3207 37.2077 87.3221C37.3927 87.3217 37.574 87.3735 37.731 87.4716ZM37.4818 89.0912C37.5914 88.9349 37.6442 88.7459 37.6313 88.5555C37.6404 88.3615 37.5881 88.1697 37.4818 88.0073C37.4283 87.9447 37.3612 87.8953 37.2856 87.8629C37.2099 87.8305 37.1279 87.816 37.0457 87.8204C36.9654 87.816 36.8852 87.8306 36.8115 87.8631C36.7379 87.8956 36.673 87.945 36.6221 88.0073C36.5125 88.1682 36.4599 88.3612 36.4726 88.5555C36.4689 88.7486 36.5304 88.9373 36.6471 89.0912C36.698 89.1535 36.7628 89.2029 36.8365 89.2354C36.9101 89.2678 36.9903 89.2825 37.0706 89.2781C37.1486 89.2787 37.2259 89.2623 37.2969 89.2301C37.3679 89.1978 37.431 89.1504 37.4818 89.0912Z" fill="#252A3A"/>
<path d="M41.6301 88.6303H40.0728C40.0807 88.8007 40.1466 88.9634 40.2597 89.0912C40.3239 89.1483 40.3989 89.192 40.4801 89.2198C40.5614 89.2476 40.6474 89.2589 40.7331 89.2532C40.9831 89.2498 41.2246 89.162 41.4183 89.004L41.5928 89.4027C41.4739 89.497 41.3388 89.5688 41.1941 89.6145C41.039 89.6736 40.8742 89.7031 40.7082 89.7017C40.3823 89.7137 40.0647 89.5974 39.8236 89.3778C39.7145 89.2637 39.6295 89.1288 39.5739 88.981C39.5182 88.8333 39.493 88.6759 39.4997 88.5181C39.4967 88.3027 39.5436 88.0895 39.6368 87.8952C39.7252 87.7179 39.8639 87.5706 40.0354 87.4716C40.2096 87.3713 40.4076 87.3197 40.6085 87.3221C40.7484 87.3155 40.888 87.34 41.0173 87.3939C41.1465 87.4477 41.2622 87.5296 41.3561 87.6336C41.5457 87.8693 41.6432 88.166 41.6301 88.4683V88.6303ZM40.2472 87.8454C40.1479 87.9707 40.0873 88.1222 40.0728 88.2814H41.1318C41.1328 88.1233 41.0801 87.9696 40.9823 87.8454C40.9373 87.7948 40.8814 87.7551 40.8188 87.7292C40.7562 87.7033 40.6886 87.6919 40.621 87.6959C40.5518 87.6942 40.483 87.7065 40.4188 87.7322C40.3545 87.7579 40.2962 87.7964 40.2472 87.8454Z" fill="#252A3A"/>
<path d="M44.6203 87.8452H44.2839C43.8977 87.8452 43.7108 88.082 43.7108 88.4308V89.6767H43.1252V87.3843H43.6859V87.8452C43.7479 87.707 43.8498 87.5904 43.9786 87.5104C44.1073 87.4305 44.257 87.3909 44.4085 87.3967H44.5829L44.6203 87.8452Z" fill="#252A3A"/>
<path d="M46.8882 87.3843H47.4862V87.8453H46.8882V89.6891H46.3026V87.8453H45.8666V87.4092H46.3026C46.2911 87.2596 46.313 87.1092 46.3669 86.9691C46.4208 86.829 46.5052 86.7027 46.6141 86.5994C46.8399 86.4182 47.1219 86.3212 47.4114 86.3253H47.6357V86.7489H47.4239C47.2806 86.7433 47.1398 86.7873 47.0252 86.8735C46.9843 86.9213 46.9533 86.9767 46.934 87.0366C46.9148 87.0965 46.9077 87.1597 46.9131 87.2223L46.8882 87.3843Z" fill="#252A3A"/>
<path d="M50.9236 87.3843V89.6642H50.3505V89.3154C50.2781 89.4315 50.1801 89.5295 50.064 89.6019C49.9367 89.667 49.7958 89.7011 49.6528 89.7016C49.0922 89.7016 48.8057 89.3777 48.8057 88.7547V87.3843H49.3912V88.7672C49.3839 88.8914 49.419 89.0144 49.4909 89.116C49.5282 89.1613 49.5762 89.1964 49.6307 89.2182C49.6851 89.24 49.7442 89.2477 49.8024 89.2406C49.8744 89.2417 49.9459 89.2278 50.0124 89.1999C50.0788 89.1721 50.1388 89.1308 50.1886 89.0786C50.2904 88.9616 50.3439 88.8101 50.3381 88.6551V87.4092L50.9236 87.3843Z" fill="#252A3A"/>
<path d="M55.8444 87.5591C55.9864 87.7673 56.0524 88.018 56.0312 88.2692V89.6646H55.4581V88.2817C55.4682 88.1494 55.4331 88.0176 55.3585 87.9079C55.3263 87.8665 55.2845 87.8335 55.2368 87.8118C55.189 87.7901 55.1367 87.7804 55.0844 87.7833C55.014 87.7808 54.9439 87.794 54.8792 87.8221C54.8145 87.8501 54.7569 87.8922 54.7106 87.9453C54.618 88.0757 54.574 88.2343 54.586 88.3938V89.6396H54.0005V88.2817C54.0142 88.1508 53.9835 88.0192 53.9133 87.9079C53.8792 87.8655 53.8353 87.832 53.7854 87.8103C53.7354 87.7886 53.681 87.7794 53.6267 87.7833C53.5602 87.7828 53.4944 87.797 53.4341 87.825C53.3737 87.853 53.3204 87.8941 53.2779 87.9453C53.1809 88.074 53.1324 88.2328 53.1409 88.3938V89.6396H52.5553V87.3846H53.1284V87.7086C53.1901 87.5843 53.2907 87.4837 53.4149 87.422C53.5417 87.3556 53.6829 87.3213 53.8261 87.3224C53.9725 87.3083 54.1195 87.3436 54.2437 87.4226C54.3678 87.5016 54.462 87.6198 54.5113 87.7584C54.5815 87.6257 54.69 87.5171 54.8228 87.4469C54.9555 87.3595 55.1124 87.316 55.2713 87.3224C55.3784 87.3168 55.4854 87.3352 55.5845 87.3761C55.6836 87.4171 55.7724 87.4796 55.8444 87.5591Z" fill="#252A3A"/>
<path d="M59.6568 88.6303H58.0994C58.1018 88.8019 58.1685 88.9664 58.2863 89.0912C58.3505 89.1483 58.4255 89.192 58.5068 89.2198C58.588 89.2476 58.674 89.2589 58.7597 89.2532C59.0097 89.2498 59.2512 89.162 59.445 89.004L59.6194 89.4027C59.4992 89.4951 59.3645 89.5666 59.2207 89.6145C59.0656 89.6736 58.9008 89.7031 58.7348 89.7017C58.4089 89.7137 58.0914 89.5974 57.8503 89.3778C57.7411 89.2637 57.6562 89.1288 57.6005 88.981C57.5448 88.8333 57.5196 88.6759 57.5263 88.5181C57.5233 88.3027 57.5702 88.0895 57.6634 87.8952C57.7518 87.7179 57.8905 87.5706 58.0621 87.4716C58.2358 87.3701 58.434 87.3184 58.6352 87.3221C58.775 87.3155 58.9146 87.34 59.0439 87.3939C59.1731 87.4477 59.2888 87.5296 59.3827 87.6336C59.5724 87.8693 59.6698 88.166 59.6568 88.4683V88.6303ZM58.2739 87.8454C58.1696 87.9677 58.1083 88.1209 58.0994 88.2814H59.146C59.1741 88.1318 59.1475 87.9771 59.0712 87.8454C59.0262 87.7948 58.9703 87.7551 58.9077 87.7292C58.8451 87.7033 58.7775 87.6919 58.7099 87.6959C58.6306 87.6849 58.5498 87.6927 58.4741 87.7186C58.3983 87.7446 58.3297 87.788 58.2739 87.8454Z" fill="#252A3A"/>
<path d="M61.4389 89.6268C61.2786 89.5856 61.1296 89.5089 61.0028 89.4026L61.1648 89.0039C61.4082 89.1775 61.7005 89.2692 61.9995 89.2655C62.0967 89.297 62.2013 89.297 62.2985 89.2655C62.3333 89.2486 62.3625 89.222 62.3824 89.1888C62.4023 89.1556 62.4121 89.1173 62.4106 89.0786C62.4116 89.0477 62.4054 89.017 62.3924 88.9888C62.3794 88.9607 62.3601 88.936 62.3359 88.9167C62.2541 88.8707 62.1659 88.8371 62.0742 88.817L61.7005 88.7298C61.5258 88.7097 61.3632 88.6306 61.2395 88.5056C61.1842 88.453 61.141 88.3889 61.113 88.3179C61.085 88.2469 61.0729 88.1706 61.0776 88.0944C61.0747 87.9592 61.1187 87.8271 61.2021 87.7207C61.2878 87.6121 61.3991 87.5264 61.5261 87.4715C61.6863 87.4152 61.8546 87.3858 62.0244 87.3843C62.1811 87.3838 62.3368 87.4091 62.4854 87.459C62.6301 87.5048 62.7652 87.5765 62.8841 87.6708L62.7221 88.0695C62.5182 87.9108 62.2701 87.8193 62.012 87.8079C61.9108 87.8006 61.8101 87.8269 61.7254 87.8826C61.6906 87.9027 61.6617 87.9319 61.642 87.9669C61.6223 88.002 61.6124 88.0417 61.6133 88.082C61.6134 88.1381 61.6358 88.1918 61.6756 88.2315C61.7431 88.2789 61.8193 88.3128 61.8998 88.3311L62.286 88.4183C62.4684 88.4498 62.6399 88.527 62.7844 88.6426C62.8908 88.7578 62.9488 88.9094 62.9463 89.0662C62.9491 89.1664 62.9265 89.2658 62.8808 89.355C62.8351 89.4443 62.7677 89.5206 62.6847 89.577C62.478 89.712 62.2336 89.7775 61.987 89.7639C61.7985 89.746 61.6136 89.6998 61.4389 89.6268Z" fill="#252A3A"/>
<path d="M70.0103 87.5591C70.1523 87.7673 70.2183 88.018 70.1971 88.2692V89.6646H69.6116V88.2817C69.6253 88.1508 69.5946 88.0192 69.5244 87.9079C69.4903 87.8655 69.4464 87.832 69.3964 87.8103C69.3465 87.7886 69.2921 87.7794 69.2378 87.7833C69.1695 87.7826 69.1018 87.7968 69.0394 87.8247C68.9771 87.8527 68.9215 87.8938 68.8765 87.9453C68.7839 88.0757 68.7399 88.2343 68.7519 88.3938V89.6397H68.1664V88.2817C68.1801 88.1508 68.1494 88.0192 68.0792 87.9079C68.0392 87.8766 67.9927 87.8547 67.9431 87.8439C67.8934 87.8331 67.842 87.8337 67.7926 87.8456C67.7243 87.8449 67.6566 87.8591 67.5942 87.887C67.5319 87.915 67.4763 87.9561 67.4313 88.0076C67.3387 88.138 67.2947 88.2966 67.3067 88.4561V89.7019H66.7212V87.3846H67.2943V87.7086C67.356 87.5843 67.4566 87.4837 67.5808 87.422C67.7071 87.354 67.8486 87.3197 67.992 87.3224C68.1384 87.3083 68.2854 87.3436 68.4096 87.4226C68.5337 87.5016 68.6279 87.6198 68.6772 87.7584C68.7549 87.6286 68.8642 87.5205 68.9949 87.4443C69.1256 87.368 69.2734 87.3261 69.4247 87.3224C69.5338 87.3158 69.6429 87.3337 69.7442 87.3746C69.8455 87.4156 69.9364 87.4786 70.0103 87.5591Z" fill="#252A3A"/>
<path d="M72.2408 89.5522C72.0689 89.4552 71.9267 89.313 71.8297 89.1411C71.7364 88.9425 71.6895 88.7252 71.6927 88.5057C71.6896 88.2903 71.7365 88.0771 71.8297 87.8828C71.9267 87.7109 72.0689 87.5687 72.2408 87.4717C72.4282 87.3705 72.6384 87.319 72.8513 87.3222C73.0684 87.3168 73.2832 87.3684 73.4742 87.4717C73.6424 87.5695 73.7803 87.7117 73.8729 87.8828C73.9719 88.075 74.0191 88.2897 74.01 88.5057C74.0213 88.7259 73.974 88.9452 73.8729 89.1411C73.7803 89.3122 73.6424 89.4544 73.4742 89.5522C73.2832 89.6555 73.0684 89.7071 72.8513 89.7017C72.6384 89.7049 72.4282 89.6534 72.2408 89.5522ZM73.2874 89.0539C73.3988 88.8938 73.4516 88.7002 73.4369 88.5057C73.4496 88.3114 73.397 88.1184 73.2874 87.9575C73.2339 87.895 73.1668 87.8456 73.0911 87.8132C73.0155 87.7808 72.9335 87.7662 72.8513 87.7707C72.771 87.7662 72.6907 87.7809 72.6171 87.8133C72.5435 87.8458 72.4786 87.8952 72.4277 87.9575C72.3181 88.1184 72.2654 88.3114 72.2782 88.5057C72.2635 88.7002 72.3163 88.8938 72.4277 89.0539C72.4786 89.1162 72.5435 89.1656 72.6171 89.1981C72.6907 89.2306 72.771 89.2452 72.8513 89.2408C72.9305 89.2499 73.0108 89.2412 73.0862 89.2153C73.1617 89.1895 73.2304 89.1471 73.2874 89.0913V89.0539Z" fill="#252A3A"/>
<path d="M75.8037 89.6268C75.645 89.5817 75.4967 89.5055 75.3677 89.4026L75.5296 89.0039C75.773 89.1775 76.0654 89.2692 76.3644 89.2655C76.466 89.2957 76.5742 89.2957 76.6758 89.2655C76.7083 89.2469 76.7349 89.2195 76.7525 89.1864C76.7702 89.1534 76.7781 89.116 76.7755 89.0787C76.7765 89.0477 76.7702 89.017 76.7573 88.9888C76.7443 88.9607 76.7249 88.936 76.7007 88.9167C76.6248 88.8679 76.5402 88.8341 76.4516 88.817L76.0778 88.7298C75.8995 88.7096 75.733 88.6307 75.6044 88.5056C75.5532 88.4505 75.5136 88.3858 75.4879 88.3152C75.4622 88.2446 75.451 88.1695 75.4549 88.0944C75.4538 87.9614 75.4928 87.8311 75.567 87.7207C75.6576 87.6119 75.7729 87.5264 75.9034 87.4715C76.059 87.414 76.2234 87.3845 76.3893 87.3843C76.5501 87.3838 76.7099 87.409 76.8627 87.459C77.0053 87.5096 77.1397 87.5809 77.2614 87.6708L77.0994 88.0695C76.8956 87.9108 76.6474 87.8193 76.3893 87.8079C76.2844 87.803 76.1805 87.829 76.0903 87.8826C76.0554 87.9027 76.0266 87.9319 76.0069 87.9669C75.9872 88.002 75.9772 88.0417 75.9781 88.082C75.9771 88.1112 75.9834 88.1401 75.9964 88.1663C76.0095 88.1924 76.0289 88.2148 76.0529 88.2315C76.114 88.2819 76.1869 88.3162 76.2647 88.3311L76.6509 88.4183C76.8341 88.4471 77.0063 88.5245 77.1493 88.6426C77.2043 88.698 77.2471 88.7644 77.275 88.8373C77.3029 88.9102 77.3152 88.9882 77.3112 89.0662C77.3139 89.1665 77.2914 89.2658 77.2457 89.355C77.2 89.4443 77.1325 89.5206 77.0496 89.577C76.8475 89.7119 76.607 89.7775 76.3644 89.7639C76.1716 89.7469 75.9826 89.7007 75.8037 89.6268Z" fill="#252A3A"/>
<path d="M79.2177 89.5522C79.0466 89.4584 78.9076 89.3151 78.8191 89.1411C78.7259 88.9468 78.679 88.7336 78.682 88.5182C78.68 88.3014 78.7313 88.0875 78.8315 87.8952C78.9245 87.7171 79.0674 87.5699 79.2427 87.4717C79.4337 87.3684 79.6485 87.3168 79.8656 87.3222C80.0276 87.3202 80.1884 87.3498 80.339 87.4094C80.4756 87.4503 80.6027 87.518 80.7128 87.6087L80.5384 88.0198C80.4528 87.9467 80.3561 87.8878 80.2518 87.8454C80.1446 87.8277 80.0351 87.8277 79.9279 87.8454C79.8402 87.8407 79.7525 87.8549 79.6708 87.8872C79.5891 87.9194 79.5153 87.9689 79.4545 88.0323C79.3404 88.1916 79.2834 88.3847 79.2925 88.5805C79.2852 88.7721 79.3422 88.9607 79.4545 89.1162C79.5153 89.1796 79.5891 89.2291 79.6708 89.2613C79.7525 89.2936 79.8402 89.3078 79.9279 89.3031C80.0386 89.3004 80.148 89.2794 80.2518 89.2408C80.3605 89.1996 80.4615 89.1407 80.5508 89.0664L80.7252 89.465C80.6139 89.5664 80.4822 89.6428 80.339 89.6893C80.1821 89.7402 80.0181 89.7654 79.8531 89.764C79.626 89.7528 79.4062 89.6795 79.2177 89.5522Z" fill="#252A3A"/>
<path d="M82.5313 89.5522C82.3524 89.4417 82.2096 89.2815 82.1201 89.0912C82.019 88.8953 81.9717 88.676 81.9831 88.4558C81.974 88.2398 82.0212 88.0251 82.1201 87.8329C82.2172 87.661 82.3593 87.5188 82.5313 87.4218C82.7229 87.3193 82.9369 87.2656 83.1542 87.2656C83.3715 87.2656 83.5855 87.3193 83.7771 87.4218C83.9491 87.5188 84.0912 87.661 84.1883 87.8329C84.2814 88.0272 84.3283 88.2404 84.3253 88.4558C84.3285 88.6753 84.2816 88.8926 84.1883 89.0912C84.0912 89.2632 83.9491 89.4053 83.7771 89.5024C83.5855 89.6049 83.3715 89.6585 83.1542 89.6585C82.9369 89.6585 82.7229 89.6049 82.5313 89.5024V89.5522ZM83.5653 89.0539C83.6768 88.8938 83.7296 88.7002 83.7148 88.5057C83.7276 88.3114 83.675 88.1184 83.5653 87.9575C83.5144 87.8952 83.4495 87.8458 83.3759 87.8133C83.3023 87.7808 83.2221 87.7662 83.1417 87.7706C83.0597 87.7671 82.9779 87.7821 82.9025 87.8144C82.827 87.8468 82.7597 87.8957 82.7057 87.9575C82.5961 88.1184 82.5434 88.3114 82.5562 88.5057C82.543 88.7174 82.6097 88.9263 82.7431 89.0912C82.7965 89.1538 82.8637 89.2032 82.9393 89.2356C83.0149 89.268 83.097 89.2825 83.1791 89.2781C83.2532 89.2768 83.3261 89.2595 83.3928 89.2272C83.4595 89.1949 83.5184 89.1485 83.5653 89.0912V89.0539Z" fill="#252A3A"/>
<path d="M88.8477 87.3843H89.4083L88.5238 89.6642H88.013L87.4523 88.1941L86.9041 89.6642H86.4058L85.5088 87.3843H86.1068L86.6799 88.9665L87.2654 87.3843H87.7264L88.2995 88.979L88.8477 87.3843Z" fill="#252A3A"/>
<path d="M65.6873 41.0635C65.557 37.3461 64.3159 33.753 62.1241 30.7478L61.5635 30.0127L60.9904 30.7478C58.7986 33.753 57.5575 37.3461 57.4272 41.0635C57.5417 44.6041 58.6703 48.0375 60.6789 50.9556C59.717 52.4437 59.1826 54.1677 59.1341 55.939C59.2032 57.8779 59.8495 59.7519 60.9904 61.3211L61.5635 62.0562L62.1241 61.3211C63.265 59.7519 63.9114 57.8779 63.9805 55.939C63.9345 54.1672 63.3999 52.4426 62.4356 50.9556C64.4442 48.0375 65.5728 44.6041 65.6873 41.0635ZM61.5635 32.467C63.2197 35.0372 64.1496 38.0077 64.2545 41.0635C64.1537 44.1238 63.2236 47.0994 61.5635 49.6723C59.9096 47.0965 58.9801 44.1227 58.8724 41.0635C58.973 38.0069 59.9033 35.0353 61.5635 32.467ZM61.5635 59.4772C60.9148 58.3928 60.5722 57.1528 60.5722 55.8892C60.5722 54.6255 60.9148 53.3855 61.5635 52.3011C62.1735 53.4013 62.511 54.6317 62.5477 55.8892C62.5174 57.1476 62.1795 58.3795 61.5635 59.4772Z" fill="#252A3A"/>
</svg>
