<svg width="86" height="86" viewBox="0 0 86 86" fill="none" xmlns="http://www.w3.org/2000/svg">
<path d="M42.9999 85.2393C66.3281 85.2393 85.2393 66.3281 85.2393 42.9999C85.2393 19.6717 66.3281 0.760483 42.9999 0.760483C19.6717 0.760483 0.760497 19.6717 0.760497 42.9999C0.760496 66.3281 19.6717 85.2393 42.9999 85.2393Z" fill="white"/>
<path d="M16.6309 48.5716V49.4294H19.1528V56.3776H20.105V49.4294H22.7384V48.5716H16.6309Z" fill="#252A3A"/>
<path d="M33.0664 49.4724C32.7835 49.1199 32.4199 48.8408 32.0063 48.6587C31.5927 48.4765 31.1413 48.3967 30.6903 48.4259C30.2314 48.411 29.7755 48.506 29.3607 48.703C28.9459 48.8999 28.5842 49.1931 28.3056 49.5582C27.7174 50.3856 27.4161 51.3828 27.4478 52.3975C27.4128 53.45 27.7132 54.4863 28.3056 55.3569C28.5611 55.7224 28.9033 56.0188 29.3015 56.2194C29.6998 56.42 30.1416 56.5186 30.5874 56.5064C31.0562 56.5313 31.5243 56.4467 31.9547 56.259C32.385 56.0714 32.7657 55.786 33.0664 55.4256C33.6824 54.5435 33.9845 53.4802 33.9242 52.4061C33.9905 51.3579 33.687 50.3197 33.0664 49.4724ZM32.3373 54.7908C32.1645 55.0679 31.9206 55.2937 31.6309 55.4445C31.3413 55.5954 31.0165 55.6658 30.6903 55.6486C30.3454 55.6633 30.0031 55.5831 29.7006 55.4167C29.3981 55.2503 29.147 55.0042 28.9747 54.705C28.5857 53.9968 28.396 53.1964 28.4257 52.3889C28.3962 51.5979 28.5862 50.8141 28.9747 50.1243C29.1629 49.846 29.4196 49.6209 29.7201 49.4707C30.0206 49.3204 30.3548 49.2501 30.6903 49.2665H30.7675C31.2994 49.2665 32.9206 49.2665 32.9206 52.3975C32.9717 53.2358 32.7684 54.07 32.3373 54.7908Z" fill="#252A3A"/>
<path d="M44.3296 48.5714V53.9326L39.9119 48.3655V56.3602H40.7697V51.0676L45.2731 56.506V48.5714H44.3296Z" fill="#252A3A"/>
<path d="M55.1118 51.9342L57.4279 48.5716H56.4243L53.3362 52.7834V48.5716H52.3926V56.3604H53.3362V54.2588L54.4685 52.6633L56.7331 56.3604H57.771L55.1118 51.9342Z" fill="#252A3A"/>
<path d="M66.2292 48.443L63.0811 56.3605H64.059L64.728 54.6878H67.7732L68.4337 56.3605H69.3773L66.2292 48.443ZM65.0025 53.8214L66.1949 50.7162L67.3872 53.8214H65.0025Z" fill="#252A3A"/>
<path d="M26.2903 60.5378C26.3969 60.612 26.4826 60.7125 26.539 60.8295C26.5946 60.9657 26.6237 61.1113 26.6248 61.2584C26.6255 61.4057 26.5963 61.5516 26.539 61.6873C26.4824 61.8018 26.3966 61.8994 26.2903 61.9704C26.1833 62.0402 26.0577 62.076 25.93 62.0733C25.8248 62.0751 25.721 62.0485 25.6298 61.9961C25.546 61.952 25.4751 61.887 25.4239 61.8074V62.6223H25.0293V60.4778H25.4239V60.7094C25.4664 60.6239 25.5356 60.5546 25.6212 60.5121C25.7159 60.4606 25.8222 60.434 25.93 60.4349C26.0574 60.4347 26.1822 60.4703 26.2903 60.5378ZM26.1187 61.653C26.1942 61.5454 26.2305 61.4152 26.2216 61.2841C26.2279 61.1506 26.1919 61.0185 26.1187 60.9067C26.0819 60.8636 26.0357 60.8296 25.9836 60.8073C25.9315 60.785 25.875 60.775 25.8185 60.778C25.7632 60.775 25.7079 60.7851 25.6572 60.8074C25.6066 60.8298 25.5619 60.8638 25.5268 60.9067C25.4513 61.0175 25.4151 61.1504 25.4239 61.2841C25.4213 61.4171 25.4637 61.547 25.544 61.653C25.579 61.6959 25.6237 61.7299 25.6744 61.7523C25.7251 61.7746 25.7803 61.7847 25.8356 61.7817C25.8893 61.7821 25.9425 61.7708 25.9914 61.7486C26.0403 61.7264 26.0837 61.6938 26.1187 61.653Z" fill="#252A3A"/>
<path d="M28.9749 61.3357H27.9026C27.908 61.453 27.9535 61.5651 28.0313 61.6531C28.0755 61.6923 28.1271 61.7224 28.1831 61.7416C28.2391 61.7607 28.2983 61.7685 28.3573 61.7646C28.5294 61.7622 28.6956 61.7017 28.8291 61.593L28.9492 61.8675C28.8673 61.9324 28.7743 61.9819 28.6747 62.0133C28.5679 62.054 28.4544 62.0744 28.3401 62.0734C28.1157 62.0816 27.8971 62.0015 27.7311 61.8504C27.6559 61.7718 27.5974 61.6789 27.5591 61.5772C27.5208 61.4755 27.5034 61.3671 27.5081 61.2585C27.506 61.1101 27.5383 60.9633 27.6024 60.8296C27.6633 60.7075 27.7588 60.6061 27.8769 60.5379C27.9968 60.4688 28.1331 60.4333 28.2715 60.435C28.3678 60.4304 28.4639 60.4473 28.5529 60.4844C28.6419 60.5215 28.7216 60.5778 28.7862 60.6494C28.9168 60.8117 28.9839 61.016 28.9749 61.2241V61.3357ZM28.0227 60.7952C27.9544 60.8815 27.9126 60.9858 27.9026 61.0955H28.6318C28.6325 60.9866 28.5962 60.8808 28.5288 60.7952C28.4978 60.7604 28.4594 60.7331 28.4163 60.7152C28.3732 60.6974 28.3266 60.6896 28.2801 60.6923C28.2325 60.6911 28.1851 60.6997 28.1408 60.7174C28.0966 60.735 28.0564 60.7615 28.0227 60.7952Z" fill="#252A3A"/>
<path d="M31.0338 60.7951H30.8021C30.5362 60.7951 30.4076 60.9581 30.4076 61.1983V62.0561H30.0044V60.4777H30.3904V60.7951C30.4331 60.6999 30.5033 60.6196 30.5919 60.5646C30.6806 60.5096 30.7837 60.4823 30.8879 60.4863H31.008L31.0338 60.7951Z" fill="#252A3A"/>
<path d="M32.5952 60.4778H33.007V60.7951H32.5952V62.0647H32.1921V60.7951H31.8918V60.4949H32.1921C32.1841 60.3919 32.1992 60.2884 32.2363 60.1919C32.2734 60.0954 32.3316 60.0085 32.4065 59.9373C32.562 59.8125 32.7562 59.7458 32.9555 59.7486H33.1099V60.0403H32.9641C32.8655 60.0364 32.7685 60.0667 32.6896 60.1261C32.6614 60.159 32.6401 60.1971 32.6268 60.2384C32.6136 60.2796 32.6087 60.3231 32.6124 60.3662L32.5952 60.4778Z" fill="#252A3A"/>
<path d="M35.3738 60.4777V62.0475H34.9792V61.8073C34.9294 61.8873 34.8619 61.9548 34.7819 62.0046C34.6943 62.0494 34.5973 62.0729 34.4988 62.0732C34.1128 62.0732 33.9155 61.8502 33.9155 61.4213V60.4777H34.3187V61.4299C34.3136 61.5154 34.3378 61.6001 34.3873 61.6701C34.413 61.7012 34.4461 61.7254 34.4836 61.7404C34.521 61.7554 34.5617 61.7607 34.6018 61.7559C34.6514 61.7566 34.7006 61.7471 34.7464 61.7279C34.7921 61.7087 34.8334 61.6802 34.8677 61.6443C34.9378 61.5637 34.9746 61.4595 34.9706 61.3527V60.4949L35.3738 60.4777Z" fill="#252A3A"/>
<path d="M38.7619 60.598C38.8597 60.7413 38.9052 60.914 38.8906 61.0869V62.0477H38.496V61.0955C38.5029 61.0044 38.4787 60.9137 38.4274 60.8382C38.4052 60.8097 38.3765 60.787 38.3436 60.772C38.3107 60.7571 38.2747 60.7504 38.2387 60.7524C38.1902 60.7507 38.1419 60.7598 38.0974 60.7791C38.0529 60.7984 38.0132 60.8274 37.9813 60.8639C37.9176 60.9537 37.8872 61.0629 37.8955 61.1727V62.0305H37.4924V61.0955C37.5018 61.0054 37.4807 60.9148 37.4323 60.8382C37.4088 60.809 37.3786 60.7859 37.3442 60.771C37.3099 60.7561 37.2724 60.7497 37.235 60.7524C37.1892 60.752 37.1439 60.7618 37.1024 60.7811C37.0608 60.8004 37.0241 60.8287 36.9948 60.8639C36.928 60.9526 36.8946 61.0619 36.9005 61.1727V62.0305H36.4973V60.4779H36.8919V60.7009C36.9344 60.6154 37.0037 60.5461 37.0892 60.5036C37.1765 60.4579 37.2737 60.4343 37.3723 60.435C37.4731 60.4253 37.5743 60.4496 37.6598 60.504C37.7453 60.5584 37.8101 60.6398 37.8441 60.7352C37.8924 60.6438 37.9671 60.5691 38.0585 60.5208C38.1499 60.4606 38.2579 60.4306 38.3673 60.435C38.4411 60.4312 38.5147 60.4438 38.583 60.472C38.6512 60.5002 38.7124 60.5433 38.7619 60.598Z" fill="#252A3A"/>
<path d="M41.3868 61.3357H40.3145C40.3161 61.4538 40.3621 61.5671 40.4432 61.6531C40.4874 61.6923 40.539 61.7224 40.595 61.7416C40.6509 61.7607 40.7101 61.7685 40.7692 61.7646C40.9413 61.7622 41.1075 61.7017 41.2409 61.593L41.361 61.8675C41.2783 61.9311 41.1855 61.9804 41.0865 62.0133C40.9797 62.054 40.8663 62.0744 40.752 62.0734C40.5276 62.0816 40.309 62.0015 40.143 61.8504C40.0678 61.7718 40.0093 61.6789 39.971 61.5772C39.9327 61.4755 39.9153 61.3671 39.9199 61.2585C39.9178 61.1101 39.9501 60.9633 40.0143 60.8296C40.0752 60.7075 40.1706 60.6061 40.2888 60.5379C40.4084 60.468 40.5449 60.4324 40.6834 60.435C40.7797 60.4304 40.8758 60.4473 40.9648 60.4844C41.0538 60.5215 41.1335 60.5778 41.1981 60.6494C41.3287 60.8117 41.3957 61.016 41.3868 61.2241V61.3357ZM40.4346 60.7952C40.3628 60.8795 40.3206 60.985 40.3145 61.0955H41.0351C41.0544 60.9925 41.0362 60.8859 40.9836 60.7952C40.9526 60.7604 40.9141 60.7331 40.871 60.7152C40.8279 60.6974 40.7814 60.6896 40.7348 60.6923C40.6802 60.6847 40.6246 60.6901 40.5725 60.708C40.5203 60.7259 40.4731 60.7557 40.4346 60.7952Z" fill="#252A3A"/>
<path d="M42.6137 62.0218C42.5034 61.9934 42.4008 61.9406 42.3135 61.8674L42.425 61.5929C42.5926 61.7124 42.7939 61.7755 42.9997 61.773C43.0666 61.7947 43.1387 61.7947 43.2056 61.773C43.2296 61.7614 43.2496 61.743 43.2633 61.7202C43.277 61.6973 43.2838 61.671 43.2828 61.6443C43.2835 61.623 43.2792 61.6019 43.2702 61.5825C43.2613 61.5632 43.248 61.5461 43.2313 61.5328C43.175 61.5012 43.1143 61.478 43.0512 61.4642L42.7938 61.4042C42.6736 61.3903 42.5616 61.3359 42.4765 61.2498C42.4384 61.2136 42.4086 61.1695 42.3894 61.1206C42.3701 61.0717 42.3618 61.0191 42.3649 60.9667C42.363 60.8736 42.3933 60.7826 42.4507 60.7093C42.5097 60.6346 42.5863 60.5756 42.6738 60.5378C42.7841 60.4991 42.9 60.4788 43.0169 60.4777C43.1248 60.4774 43.232 60.4948 43.3343 60.5292C43.4339 60.5607 43.5269 60.6101 43.6088 60.675L43.4972 60.9495C43.3569 60.8402 43.186 60.7773 43.0083 60.7694C42.9387 60.7644 42.8693 60.7825 42.811 60.8209C42.787 60.8347 42.7672 60.8548 42.7536 60.8789C42.74 60.9031 42.7332 60.9304 42.7338 60.9581C42.7339 60.9968 42.7493 61.0338 42.7767 61.061C42.8232 61.0937 42.8757 61.117 42.9311 61.1297L43.197 61.1897C43.3226 61.2114 43.4406 61.2645 43.5401 61.3441C43.6134 61.4234 43.6533 61.5278 43.6517 61.6358C43.6535 61.7048 43.638 61.7732 43.6065 61.8346C43.5751 61.8961 43.5286 61.9487 43.4715 61.9875C43.3292 62.0804 43.1609 62.1255 42.9911 62.1161C42.8613 62.1039 42.7341 62.0721 42.6137 62.0218Z" fill="#252A3A"/>
<path d="M48.5153 60.598C48.6132 60.7413 48.6586 60.914 48.644 61.0869V62.0477H48.2408V61.0955C48.2503 61.0054 48.2292 60.9148 48.1808 60.8382C48.1573 60.809 48.1271 60.7859 48.0927 60.771C48.0584 60.7561 48.0209 60.7497 47.9835 60.7524C47.9364 60.7519 47.8898 60.7617 47.8469 60.7809C47.804 60.8002 47.7657 60.8285 47.7347 60.8639C47.671 60.9537 47.6406 61.0629 47.649 61.1727V62.0305H47.2458V61.0955C47.2553 61.0054 47.2341 60.9148 47.1857 60.8382C47.1582 60.8166 47.1262 60.8015 47.092 60.7941C47.0578 60.7867 47.0224 60.7871 46.9884 60.7953C46.9414 60.7948 46.8948 60.8045 46.8518 60.8238C46.8089 60.843 46.7706 60.8714 46.7397 60.9068C46.6759 60.9966 46.6456 61.1058 46.6539 61.2156V62.0734H46.2507V60.4779H46.6453V60.7009C46.6878 60.6154 46.7571 60.5461 46.8426 60.5036C46.9295 60.4568 47.027 60.4332 47.1257 60.435C47.2265 60.4253 47.3277 60.4496 47.4132 60.504C47.4987 60.5584 47.5635 60.6398 47.5975 60.7352C47.651 60.6459 47.7262 60.5715 47.8162 60.519C47.9062 60.4665 48.008 60.4376 48.1122 60.435C48.1873 60.4305 48.2624 60.4428 48.3322 60.471C48.4019 60.4992 48.4645 60.5426 48.5153 60.598Z" fill="#252A3A"/>
<path d="M50.0511 61.9703C49.9327 61.9035 49.8349 61.8056 49.768 61.6873C49.7038 61.5505 49.6715 61.4009 49.6737 61.2498C49.6716 61.1014 49.7039 60.9546 49.768 60.8209C49.8349 60.7025 49.9327 60.6046 50.0511 60.5378C50.1801 60.4681 50.3248 60.4327 50.4714 60.4349C50.6209 60.4312 50.7688 60.4667 50.9004 60.5378C51.0161 60.6052 51.1111 60.7031 51.1749 60.8209C51.243 60.9532 51.2755 61.1011 51.2692 61.2498C51.277 61.4014 51.2445 61.5524 51.1749 61.6873C51.1111 61.805 51.0161 61.903 50.9004 61.9703C50.7688 62.0415 50.6209 62.0769 50.4714 62.0733C50.3248 62.0754 50.1801 62.04 50.0511 61.9703ZM50.7717 61.6272C50.8484 61.517 50.8848 61.3837 50.8746 61.2498C50.8834 61.116 50.8472 60.9831 50.7717 60.8723C50.7349 60.8293 50.6887 60.7953 50.6366 60.773C50.5845 60.7507 50.528 60.7406 50.4714 60.7437C50.4161 60.7406 50.3609 60.7507 50.3102 60.7731C50.2595 60.7954 50.2148 60.8294 50.1798 60.8723C50.1043 60.9831 50.0681 61.116 50.0769 61.2498C50.0667 61.3837 50.1031 61.517 50.1798 61.6272C50.2148 61.6701 50.2595 61.7041 50.3102 61.7265C50.3609 61.7489 50.4161 61.7589 50.4714 61.7559C50.526 61.7622 50.5813 61.7562 50.6332 61.7384C50.6851 61.7206 50.7325 61.6914 50.7717 61.653V61.6272Z" fill="#252A3A"/>
<path d="M52.5043 62.0218C52.395 61.9907 52.293 61.9382 52.2041 61.8674L52.3156 61.5929C52.4832 61.7124 52.6845 61.7755 52.8903 61.773C52.9603 61.7938 53.0348 61.7938 53.1048 61.773C53.1272 61.7602 53.1455 61.7413 53.1576 61.7186C53.1697 61.6958 53.1752 61.6701 53.1734 61.6444C53.1741 61.623 53.1698 61.6019 53.1609 61.5825C53.1519 61.5632 53.1386 61.5462 53.122 61.5328C53.0696 61.4993 53.0114 61.476 52.9504 61.4642L52.6931 61.4042C52.5703 61.3902 52.4556 61.3359 52.3671 61.2498C52.3318 61.2119 52.3045 61.1673 52.2869 61.1187C52.2692 61.0701 52.2615 61.0184 52.2641 60.9667C52.2634 60.8751 52.2903 60.7854 52.3414 60.7093C52.4037 60.6345 52.4831 60.5756 52.573 60.5378C52.6801 60.4982 52.7933 60.4779 52.9075 60.4777C53.0182 60.4774 53.1283 60.4948 53.2335 60.5292C53.3317 60.564 53.4242 60.6131 53.508 60.675L53.3965 60.9495C53.2561 60.8402 53.0852 60.7773 52.9075 60.7694C52.8353 60.766 52.7637 60.7839 52.7016 60.8209C52.6776 60.8347 52.6578 60.8548 52.6442 60.8789C52.6306 60.9031 52.6238 60.9304 52.6244 60.9581C52.6237 60.9782 52.628 60.9982 52.637 61.0161C52.646 61.0341 52.6594 61.0496 52.6759 61.061C52.718 61.0958 52.7681 61.1194 52.8217 61.1297L53.0876 61.1897C53.2138 61.2095 53.3323 61.2628 53.4308 61.3441C53.4686 61.3823 53.4981 61.428 53.5173 61.4782C53.5365 61.5284 53.545 61.5821 53.5423 61.6358C53.5441 61.7048 53.5286 61.7732 53.4972 61.8346C53.4657 61.8961 53.4192 61.9487 53.3621 61.9875C53.223 62.0804 53.0574 62.1255 52.8903 62.1161C52.7576 62.1045 52.6275 62.0727 52.5043 62.0218Z" fill="#252A3A"/>
<path d="M54.855 61.9703C54.7372 61.9057 54.6415 61.8071 54.5805 61.6873C54.5164 61.5535 54.4841 61.4067 54.4862 61.2584C54.4848 61.1091 54.5201 60.9618 54.5891 60.8295C54.6531 60.7068 54.7515 60.6055 54.8722 60.5378C55.0037 60.4667 55.1516 60.4312 55.3011 60.4349C55.4126 60.4335 55.5233 60.4539 55.6271 60.4949C55.7211 60.5231 55.8086 60.5697 55.8844 60.6322L55.7643 60.9152C55.7054 60.8649 55.6388 60.8243 55.567 60.7951C55.4932 60.783 55.4178 60.783 55.344 60.7951C55.2836 60.7919 55.2232 60.8017 55.167 60.8239C55.1107 60.8461 55.0599 60.8802 55.018 60.9238C54.9395 61.0335 54.9002 61.1665 54.9065 61.3012C54.9015 61.4332 54.9407 61.563 55.018 61.6701C55.0599 61.7137 55.1107 61.7478 55.167 61.77C55.2232 61.7922 55.2836 61.802 55.344 61.7988C55.4202 61.797 55.4956 61.7825 55.567 61.7559C55.6418 61.7276 55.7114 61.687 55.7729 61.6358L55.893 61.9103C55.8163 61.9801 55.7257 62.0327 55.6271 62.0647C55.519 62.0997 55.4061 62.1171 55.2925 62.1162C55.1361 62.1084 54.9848 62.058 54.855 61.9703Z" fill="#252A3A"/>
<path d="M57.1364 61.9705C57.0132 61.8944 56.9149 61.7841 56.8533 61.6531C56.7837 61.5182 56.7511 61.3672 56.7589 61.2156C56.7527 61.0669 56.7852 60.9191 56.8533 60.7867C56.9201 60.6683 57.018 60.5705 57.1364 60.5036C57.2683 60.4331 57.4157 60.3961 57.5653 60.3961C57.7149 60.3961 57.8622 60.4331 57.9942 60.5036C58.1126 60.5705 58.2104 60.6683 58.2773 60.7867C58.3414 60.9205 58.3737 61.0673 58.3716 61.2156C58.3738 61.3667 58.3415 61.5163 58.2773 61.6531C58.2104 61.7715 58.1126 61.8694 57.9942 61.9362C57.8622 62.0068 57.7149 62.0437 57.5653 62.0437C57.4157 62.0437 57.2683 62.0068 57.1364 61.9362V61.9705ZM57.8484 61.6274C57.9251 61.5172 57.9615 61.3838 57.9513 61.2499C57.9601 61.1162 57.9238 60.9833 57.8484 60.8725C57.8133 60.8296 57.7686 60.7956 57.7179 60.7732C57.6673 60.7509 57.612 60.7408 57.5567 60.7438C57.5002 60.7414 57.4439 60.7517 57.392 60.774C57.34 60.7963 57.2937 60.8299 57.2565 60.8725C57.181 60.9833 57.1448 61.1162 57.1535 61.2499C57.1444 61.3957 57.1904 61.5396 57.2822 61.6531C57.319 61.6962 57.3652 61.7302 57.4173 61.7525C57.4694 61.7748 57.5259 61.7848 57.5824 61.7818C57.6334 61.7809 57.6836 61.7689 57.7296 61.7467C57.7755 61.7245 57.816 61.6926 57.8484 61.6531V61.6274Z" fill="#252A3A"/>
<path d="M61.4854 60.4777H61.8715L61.2624 62.0475H60.9107L60.5247 61.0353L60.1473 62.0475H59.8041L59.1865 60.4777H59.5983L59.9929 61.5672L60.396 60.4777H60.7134L61.108 61.5757L61.4854 60.4777Z" fill="#252A3A"/>
<path d="M45.5388 28.5847C45.4491 26.0252 44.5946 23.5513 43.0855 21.4821L42.6995 20.976L42.3049 21.4821C40.7958 23.5513 39.9413 26.0252 39.8516 28.5847C39.9304 31.0225 40.7075 33.3865 42.0904 35.3956C41.4281 36.4203 41.0602 37.6072 41.0268 38.8269C41.0743 40.1618 41.5194 41.4521 42.3049 42.5326L42.6995 43.0387L43.0855 42.5326C43.871 41.4521 44.316 40.1618 44.3636 38.8269C44.332 37.607 43.9639 36.4195 43.2999 35.3956C44.6829 33.3865 45.46 31.0225 45.5388 28.5847ZM42.6995 22.6658C43.8398 24.4355 44.4801 26.4807 44.5523 28.5847C44.4829 30.6918 43.8425 32.7405 42.6995 34.5121C41.5608 32.7385 40.9207 30.691 40.8466 28.5847C40.9159 26.4802 41.5564 24.4342 42.6995 22.6658ZM42.6995 41.263C42.2528 40.5164 42.0169 39.6626 42.0169 38.7925C42.0169 37.9225 42.2528 37.0687 42.6995 36.3221C43.1195 37.0796 43.3518 37.9267 43.3771 38.7925C43.3563 39.659 43.1236 40.5072 42.6995 41.263Z" fill="#252A3A"/>
</svg>
