<svg width="86" height="86" viewBox="0 0 86 86" fill="none" xmlns="http://www.w3.org/2000/svg">
<path d="M42.9999 85.2393C66.3281 85.2393 85.2393 66.3281 85.2393 42.9999C85.2393 19.6717 66.3281 0.760483 42.9999 0.760483C19.6717 0.760483 0.760467 19.6717 0.760466 42.9999C0.760466 66.3281 19.6717 85.2393 42.9999 85.2393Z" fill="#FDECEF"/>
<path d="M16.631 48.5716V49.4294H19.1529V56.3776H20.1051V49.4294H22.7385V48.5716H16.631Z" fill="#252A3A"/>
<path d="M33.0664 49.4724C32.7835 49.1199 32.4199 48.8408 32.0063 48.6587C31.5927 48.4765 31.1413 48.3967 30.6903 48.4259C30.2313 48.411 29.7755 48.506 29.3607 48.703C28.9459 48.8999 28.5841 49.1931 28.3056 49.5582C27.7173 50.3856 27.4161 51.3828 27.4478 52.3975C27.4128 53.45 27.7132 54.4863 28.3056 55.3569C28.5611 55.7224 28.9033 56.0188 29.3015 56.2194C29.6998 56.42 30.1416 56.5186 30.5874 56.5064C31.0562 56.5313 31.5243 56.4467 31.9547 56.259C32.385 56.0714 32.7657 55.786 33.0664 55.4256C33.6824 54.5435 33.9845 53.4802 33.9242 52.4061C33.9905 51.3579 33.6869 50.3197 33.0664 49.4724ZM32.3373 54.7908C32.1645 55.0679 31.9205 55.2937 31.6309 55.4445C31.3412 55.5954 31.0164 55.6658 30.6903 55.6486C30.3454 55.6633 30.003 55.5831 29.7005 55.4167C29.398 55.2503 29.147 55.0042 28.9747 54.705C28.5857 53.9968 28.396 53.1964 28.4257 52.3889C28.3962 51.5979 28.5862 50.8141 28.9747 50.1243C29.1629 49.846 29.4196 49.6209 29.7201 49.4707C30.0206 49.3204 30.3547 49.2501 30.6903 49.2665H30.7675C31.2993 49.2665 32.9206 49.2665 32.9206 52.3975C32.9717 53.2358 32.7683 54.07 32.3373 54.7908Z" fill="#252A3A"/>
<path d="M44.3295 48.5714V53.9326L39.9118 48.3655V56.3602H40.7696V51.0676L45.273 56.506V48.5714H44.3295Z" fill="#252A3A"/>
<path d="M55.1118 51.9342L57.4279 48.5716H56.4243L53.3362 52.7834V48.5716H52.3926V56.3604H53.3362V54.2588L54.4685 52.6633L56.7331 56.3604H57.771L55.1118 51.9342Z" fill="#252A3A"/>
<path d="M66.2292 48.443L63.081 56.3605H64.0589L64.728 54.6878H67.7732L68.4337 56.3605H69.3773L66.2292 48.443ZM65.0025 53.8214L66.1948 50.7162L67.3872 53.8214H65.0025Z" fill="#252A3A"/>
<path d="M26.2902 60.5378C26.3968 60.612 26.4825 60.7125 26.5389 60.8295C26.5945 60.9657 26.6236 61.1113 26.6247 61.2584C26.6254 61.4057 26.5962 61.5516 26.5389 61.6873C26.4822 61.8018 26.3964 61.8994 26.2902 61.9704C26.1832 62.0402 26.0576 62.076 25.9299 62.0733C25.8247 62.0751 25.7209 62.0485 25.6296 61.9961C25.5459 61.952 25.475 61.887 25.4238 61.8074V62.6223H25.0292V60.4778H25.4238V60.7094C25.4662 60.6239 25.5355 60.5546 25.6211 60.5121C25.7158 60.4606 25.822 60.434 25.9299 60.4349C26.0573 60.4347 26.1821 60.4703 26.2902 60.5378ZM26.1186 61.653C26.1941 61.5454 26.2304 61.4152 26.2215 61.2841C26.2278 61.1506 26.1918 61.0185 26.1186 60.9067C26.0818 60.8636 26.0356 60.8296 25.9835 60.8073C25.9314 60.785 25.8749 60.775 25.8184 60.778C25.763 60.775 25.7078 60.7851 25.6571 60.8074C25.6064 60.8298 25.5617 60.8638 25.5267 60.9067C25.4512 61.0175 25.415 61.1504 25.4238 61.2841C25.4212 61.4171 25.4635 61.547 25.5439 61.653C25.5789 61.6959 25.6236 61.7299 25.6743 61.7523C25.725 61.7746 25.7802 61.7847 25.8355 61.7817C25.8892 61.7821 25.9424 61.7708 25.9913 61.7486C26.0402 61.7264 26.0836 61.6938 26.1186 61.653Z" fill="#252A3A"/>
<path d="M28.9748 61.3357H27.9026C27.908 61.453 27.9534 61.5651 28.0313 61.6531C28.0755 61.6923 28.1271 61.7224 28.183 61.7416C28.239 61.7607 28.2982 61.7685 28.3572 61.7646C28.5293 61.7622 28.6956 61.7017 28.829 61.593L28.9491 61.8675C28.8673 61.9324 28.7742 61.9819 28.6746 62.0133C28.5678 62.054 28.4543 62.0744 28.3401 62.0734C28.1157 62.0816 27.897 62.0015 27.731 61.8504C27.6559 61.7718 27.5974 61.6789 27.5591 61.5772C27.5207 61.4755 27.5034 61.3671 27.508 61.2585C27.5059 61.1101 27.5382 60.9633 27.6024 60.8296C27.6632 60.7075 27.7587 60.6061 27.8769 60.5379C27.9968 60.4688 28.1331 60.4333 28.2714 60.435C28.3678 60.4304 28.4639 60.4473 28.5529 60.4844C28.6419 60.5215 28.7215 60.5778 28.7861 60.6494C28.9167 60.8117 28.9838 61.016 28.9748 61.2241V61.3357ZM28.0227 60.7952C27.9543 60.8815 27.9126 60.9858 27.9026 61.0955H28.6317C28.6324 60.9866 28.5961 60.8808 28.5288 60.7952C28.4978 60.7604 28.4593 60.7331 28.4162 60.7152C28.3731 60.6974 28.3266 60.6896 28.28 60.6923C28.2324 60.6911 28.185 60.6997 28.1408 60.7174C28.0965 60.735 28.0564 60.7615 28.0227 60.7952Z" fill="#252A3A"/>
<path d="M31.0336 60.7951H30.802C30.5361 60.7951 30.4074 60.9581 30.4074 61.1983V62.0561H30.0042V60.4777H30.3903V60.7951C30.4329 60.6999 30.5031 60.6196 30.5918 60.5646C30.6804 60.5096 30.7835 60.4823 30.8878 60.4863H31.0079L31.0336 60.7951Z" fill="#252A3A"/>
<path d="M32.5952 60.4778H33.0069V60.7951H32.5952V62.0647H32.192V60.7951H31.8918V60.4949H32.192C32.184 60.3919 32.1991 60.2884 32.2362 60.1919C32.2733 60.0954 32.3315 60.0085 32.4064 59.9373C32.5619 59.8125 32.7561 59.7458 32.9554 59.7486H33.1098V60.0403H32.964C32.8654 60.0364 32.7684 60.0667 32.6895 60.1261C32.6613 60.159 32.64 60.1971 32.6267 60.2384C32.6135 60.2796 32.6086 60.3231 32.6123 60.3662L32.5952 60.4778Z" fill="#252A3A"/>
<path d="M35.3736 60.4777V62.0475H34.9791V61.8073C34.9292 61.8873 34.8617 61.9548 34.7818 62.0046C34.6941 62.0494 34.5971 62.0729 34.4987 62.0732C34.1127 62.0732 33.9154 61.8502 33.9154 61.4213V60.4777H34.3185V61.4299C34.3135 61.5154 34.3377 61.6001 34.3872 61.6701C34.4128 61.7012 34.4459 61.7254 34.4834 61.7404C34.5209 61.7554 34.5615 61.7607 34.6016 61.7559C34.6512 61.7566 34.7005 61.7471 34.7462 61.7279C34.792 61.7087 34.8333 61.6802 34.8675 61.6443C34.9377 61.5637 34.9745 61.4595 34.9705 61.3527V60.4949L35.3736 60.4777Z" fill="#252A3A"/>
<path d="M38.7617 60.598C38.8595 60.7413 38.905 60.914 38.8904 61.0869V62.0477H38.4958V61.0955C38.5027 61.0044 38.4785 60.9137 38.4272 60.8382C38.405 60.8097 38.3762 60.787 38.3434 60.772C38.3105 60.7571 38.2745 60.7504 38.2384 60.7524C38.1899 60.7507 38.1417 60.7598 38.0972 60.7791C38.0526 60.7984 38.013 60.8274 37.9811 60.8639C37.9173 60.9537 37.887 61.0629 37.8953 61.1727V62.0305H37.4922V61.0955C37.5016 61.0054 37.4805 60.9148 37.4321 60.8382C37.4086 60.809 37.3784 60.7859 37.344 60.771C37.3097 60.7561 37.2722 60.7497 37.2348 60.7524C37.189 60.752 37.1437 60.7618 37.1022 60.7811C37.0606 60.8004 37.0239 60.8287 36.9946 60.8639C36.9278 60.9526 36.8944 61.0619 36.9003 61.1727V62.0305H36.4971V60.4779H36.8917V60.7009C36.9342 60.6154 37.0034 60.5461 37.089 60.5036C37.1763 60.4579 37.2735 60.4343 37.3721 60.435C37.4729 60.4253 37.5741 60.4496 37.6596 60.504C37.7451 60.5584 37.8099 60.6398 37.8439 60.7352C37.8922 60.6438 37.9669 60.5691 38.0583 60.5208C38.1497 60.4606 38.2577 60.4306 38.3671 60.435C38.4409 60.4312 38.5145 60.4438 38.5828 60.472C38.651 60.5002 38.7121 60.5433 38.7617 60.598Z" fill="#252A3A"/>
<path d="M41.3866 61.3357H40.3144C40.316 61.4538 40.3619 61.5671 40.443 61.6531C40.4873 61.6923 40.5389 61.7224 40.5948 61.7416C40.6508 61.7607 40.71 61.7685 40.769 61.7646C40.9411 61.7622 41.1074 61.7017 41.2408 61.593L41.3609 61.8675C41.2782 61.9311 41.1854 61.9804 41.0864 62.0133C40.9796 62.054 40.8661 62.0744 40.7518 62.0734C40.5275 62.0816 40.3088 62.0015 40.1428 61.8504C40.0677 61.7718 40.0092 61.6789 39.9708 61.5772C39.9325 61.4755 39.9151 61.3671 39.9198 61.2585C39.9177 61.1101 39.95 60.9633 40.0141 60.8296C40.075 60.7075 40.1705 60.6061 40.2886 60.5379C40.4082 60.468 40.5447 60.4324 40.6832 60.435C40.7795 60.4304 40.8756 60.4473 40.9646 60.4844C41.0536 60.5215 41.1333 60.5778 41.1979 60.6494C41.3285 60.8117 41.3956 61.016 41.3866 61.2241V61.3357ZM40.4345 60.7952C40.3627 60.8795 40.3205 60.985 40.3144 61.0955H41.0349C41.0543 60.9925 41.036 60.8859 40.9834 60.7952C40.9524 60.7604 40.914 60.7331 40.8709 60.7152C40.8278 60.6974 40.7812 60.6896 40.7347 60.6923C40.6801 60.6847 40.6245 60.6901 40.5723 60.708C40.5201 60.7259 40.4729 60.7557 40.4345 60.7952Z" fill="#252A3A"/>
<path d="M42.6136 62.0218C42.5033 61.9934 42.4007 61.9406 42.3134 61.8674L42.4249 61.5929C42.5925 61.7124 42.7938 61.7755 42.9996 61.773C43.0665 61.7947 43.1386 61.7947 43.2055 61.773C43.2295 61.7614 43.2495 61.743 43.2632 61.7202C43.277 61.6973 43.2837 61.671 43.2827 61.6443C43.2834 61.623 43.2791 61.6019 43.2701 61.5825C43.2612 61.5632 43.2479 61.5461 43.2312 61.5328C43.1749 61.5012 43.1142 61.478 43.0511 61.4642L42.7938 61.4042C42.6735 61.3903 42.5615 61.3359 42.4764 61.2498C42.4383 61.2136 42.4085 61.1695 42.3893 61.1206C42.37 61.0717 42.3617 61.0191 42.3649 60.9667C42.3629 60.8736 42.3932 60.7826 42.4506 60.7093C42.5096 60.6346 42.5863 60.5756 42.6737 60.5378C42.784 60.4991 42.8999 60.4788 43.0168 60.4777C43.1247 60.4774 43.2319 60.4948 43.3342 60.5292C43.4338 60.5607 43.5268 60.6101 43.6087 60.675L43.4972 60.9495C43.3568 60.8402 43.1859 60.7773 43.0082 60.7694C42.9386 60.7644 42.8692 60.7825 42.8109 60.8209C42.7869 60.8347 42.7671 60.8548 42.7535 60.8789C42.7399 60.9031 42.7331 60.9304 42.7337 60.9581C42.7338 60.9968 42.7492 61.0338 42.7766 61.061C42.8231 61.0937 42.8756 61.117 42.931 61.1297L43.1969 61.1897C43.3225 61.2114 43.4405 61.2645 43.54 61.3441C43.6133 61.4234 43.6532 61.5278 43.6516 61.6358C43.6534 61.7048 43.6379 61.7732 43.6064 61.8346C43.575 61.8961 43.5285 61.9487 43.4714 61.9875C43.3291 62.0804 43.1608 62.1255 42.9911 62.1161C42.8612 62.1039 42.734 62.0721 42.6136 62.0218Z" fill="#252A3A"/>
<path d="M48.5152 60.598C48.613 60.7413 48.6585 60.914 48.6439 61.0869V62.0477H48.2407V61.0955C48.2502 61.0054 48.229 60.9148 48.1807 60.8382C48.1572 60.809 48.127 60.7859 48.0926 60.771C48.0582 60.7561 48.0208 60.7497 47.9834 60.7524C47.9363 60.7519 47.8897 60.7617 47.8468 60.7809C47.8038 60.8002 47.7656 60.8285 47.7346 60.8639C47.6709 60.9537 47.6405 61.0629 47.6488 61.1727V62.0305H47.2457V61.0955C47.2551 61.0054 47.234 60.9148 47.1856 60.8382C47.1581 60.8166 47.1261 60.8015 47.0919 60.7941C47.0577 60.7867 47.0223 60.7871 46.9883 60.7953C46.9413 60.7948 46.8947 60.8045 46.8517 60.8238C46.8088 60.843 46.7705 60.8714 46.7396 60.9068C46.6758 60.9966 46.6455 61.1058 46.6538 61.2156V62.0734H46.2506V60.4779H46.6452V60.7009C46.6877 60.6154 46.757 60.5461 46.8425 60.5036C46.9294 60.4568 47.0269 60.4332 47.1256 60.435C47.2264 60.4253 47.3276 60.4496 47.4131 60.504C47.4986 60.5584 47.5634 60.6398 47.5974 60.7352C47.6509 60.6459 47.7261 60.5715 47.8161 60.519C47.9061 60.4665 48.0079 60.4376 48.1121 60.435C48.1871 60.4305 48.2623 60.4428 48.332 60.471C48.4018 60.4992 48.4644 60.5426 48.5152 60.598Z" fill="#252A3A"/>
<path d="M50.0511 61.9703C49.9327 61.9035 49.8348 61.8056 49.768 61.6873C49.7037 61.5505 49.6715 61.4009 49.6736 61.2498C49.6715 61.1014 49.7038 60.9546 49.768 60.8209C49.8348 60.7025 49.9327 60.6046 50.0511 60.5378C50.1801 60.4681 50.3248 60.4327 50.4714 60.4349C50.6209 60.4312 50.7687 60.4667 50.9003 60.5378C51.0161 60.6052 51.111 60.7031 51.1748 60.8209C51.2429 60.9532 51.2754 61.1011 51.2691 61.2498C51.277 61.4014 51.2444 61.5524 51.1748 61.6873C51.111 61.805 51.0161 61.903 50.9003 61.9703C50.7687 62.0415 50.6209 62.0769 50.4714 62.0733C50.3248 62.0754 50.1801 62.04 50.0511 61.9703ZM50.7716 61.6272C50.8484 61.517 50.8847 61.3837 50.8746 61.2498C50.8833 61.116 50.8471 60.9831 50.7716 60.8723C50.7348 60.8293 50.6886 60.7953 50.6365 60.773C50.5845 60.7507 50.528 60.7406 50.4714 60.7437C50.4161 60.7406 50.3608 60.7507 50.3101 60.7731C50.2595 60.7954 50.2148 60.8294 50.1797 60.8723C50.1042 60.9831 50.068 61.116 50.0768 61.2498C50.0666 61.3837 50.103 61.517 50.1797 61.6272C50.2148 61.6701 50.2595 61.7041 50.3101 61.7265C50.3608 61.7489 50.4161 61.7589 50.4714 61.7559C50.5259 61.7622 50.5812 61.7562 50.6331 61.7384C50.6851 61.7206 50.7324 61.6914 50.7716 61.653V61.6272Z" fill="#252A3A"/>
<path d="M52.5042 62.0218C52.3949 61.9907 52.2928 61.9382 52.2039 61.8674L52.3155 61.5929C52.483 61.7124 52.6843 61.7755 52.8902 61.773C52.9602 61.7938 53.0347 61.7938 53.1046 61.773C53.127 61.7602 53.1453 61.7413 53.1575 61.7186C53.1696 61.6958 53.1751 61.6701 53.1733 61.6444C53.1739 61.623 53.1696 61.6019 53.1607 61.5825C53.1518 61.5632 53.1385 61.5462 53.1218 61.5328C53.0695 61.4993 53.0113 61.476 52.9502 61.4642L52.6929 61.4042C52.5701 61.3902 52.4555 61.3359 52.3669 61.2498C52.3317 61.2119 52.3044 61.1673 52.2867 61.1187C52.269 61.0701 52.2613 61.0184 52.264 60.9667C52.2632 60.8751 52.2901 60.7854 52.3412 60.7093C52.4036 60.6345 52.483 60.5756 52.5728 60.5378C52.6799 60.4982 52.7932 60.4779 52.9073 60.4777C53.0181 60.4774 53.1281 60.4948 53.2333 60.5292C53.3315 60.564 53.424 60.6131 53.5078 60.675L53.3963 60.9495C53.2559 60.8402 53.0851 60.7773 52.9073 60.7694C52.8352 60.766 52.7636 60.7839 52.7015 60.8209C52.6775 60.8347 52.6576 60.8548 52.6441 60.8789C52.6305 60.9031 52.6236 60.9304 52.6243 60.9581C52.6235 60.9782 52.6279 60.9982 52.6369 61.0161C52.6459 61.0341 52.6592 61.0496 52.6757 61.061C52.7178 61.0958 52.768 61.1194 52.8216 61.1297L53.0875 61.1897C53.2136 61.2095 53.3321 61.2628 53.4306 61.3441C53.4685 61.3823 53.498 61.428 53.5172 61.4782C53.5364 61.5284 53.5449 61.5821 53.5421 61.6358C53.544 61.7048 53.5285 61.7732 53.497 61.8346C53.4655 61.8961 53.4191 61.9487 53.362 61.9875C53.2228 62.0804 53.0572 62.1255 52.8902 62.1161C52.7575 62.1045 52.6273 62.0727 52.5042 62.0218Z" fill="#252A3A"/>
<path d="M54.8548 61.9703C54.737 61.9057 54.6413 61.8071 54.5803 61.6873C54.5162 61.5535 54.4839 61.4067 54.486 61.2584C54.4846 61.1091 54.5199 60.9618 54.5889 60.8295C54.6529 60.7068 54.7513 60.6055 54.872 60.5378C55.0035 60.4667 55.1514 60.4312 55.3009 60.4349C55.4124 60.4335 55.5231 60.4539 55.6268 60.4949C55.7209 60.5231 55.8084 60.5697 55.8842 60.6322L55.7641 60.9152C55.7052 60.8649 55.6386 60.8243 55.5668 60.7951C55.493 60.783 55.4176 60.783 55.3438 60.7951C55.2834 60.7919 55.223 60.8017 55.1667 60.8239C55.1105 60.8461 55.0597 60.8802 55.0178 60.9238C54.9393 61.0335 54.9 61.1665 54.9063 61.3012C54.9013 61.4332 54.9405 61.563 55.0178 61.6701C55.0597 61.7137 55.1105 61.7478 55.1667 61.77C55.223 61.7922 55.2834 61.802 55.3438 61.7988C55.42 61.797 55.4954 61.7825 55.5668 61.7559C55.6416 61.7276 55.7112 61.687 55.7727 61.6358L55.8928 61.9103C55.8161 61.9801 55.7255 62.0327 55.6268 62.0647C55.5188 62.0997 55.4059 62.1171 55.2923 62.1162C55.1359 62.1084 54.9846 62.058 54.8548 61.9703Z" fill="#252A3A"/>
<path d="M57.1363 61.9705C57.0131 61.8944 56.9148 61.7841 56.8532 61.6531C56.7836 61.5182 56.751 61.3672 56.7588 61.2156C56.7525 61.0669 56.785 60.9191 56.8532 60.7867C56.92 60.6683 57.0179 60.5705 57.1363 60.5036C57.2682 60.4331 57.4155 60.3961 57.5652 60.3961C57.7148 60.3961 57.8621 60.4331 57.9941 60.5036C58.1124 60.5705 58.2103 60.6683 58.2771 60.7867C58.3413 60.9205 58.3736 61.0673 58.3715 61.2156C58.3737 61.3667 58.3414 61.5163 58.2771 61.6531C58.2103 61.7715 58.1124 61.8694 57.9941 61.9362C57.8621 62.0068 57.7148 62.0437 57.5652 62.0437C57.4155 62.0437 57.2682 62.0068 57.1363 61.9362V61.9705ZM57.8482 61.6274C57.925 61.5172 57.9613 61.3838 57.9512 61.2499C57.96 61.1162 57.9237 60.9833 57.8482 60.8725C57.8132 60.8296 57.7685 60.7956 57.7178 60.7732C57.6671 60.7509 57.6119 60.7408 57.5566 60.7438C57.5001 60.7414 57.4438 60.7517 57.3918 60.774C57.3399 60.7963 57.2936 60.8299 57.2564 60.8725C57.1809 60.9833 57.1446 61.1162 57.1534 61.2499C57.1443 61.3957 57.1902 61.5396 57.2821 61.6531C57.3189 61.6962 57.3651 61.7302 57.4172 61.7525C57.4692 61.7748 57.5258 61.7848 57.5823 61.7818C57.6333 61.7809 57.6835 61.7689 57.7294 61.7467C57.7754 61.7245 57.8159 61.6926 57.8482 61.6531V61.6274Z" fill="#252A3A"/>
<path d="M61.4853 60.4777H61.8713L61.2623 62.0475H60.9106L60.5246 61.0353L60.1471 62.0475H59.804L59.1864 60.4777H59.5981L59.9927 61.5672L60.3959 60.4777H60.7133L61.1079 61.5757L61.4853 60.4777Z" fill="#252A3A"/>
<path d="M45.5387 28.5847C45.449 26.0252 44.5945 23.5513 43.0854 21.4821L42.6994 20.976L42.3048 21.4821C40.7957 23.5513 39.9412 26.0252 39.8515 28.5847C39.9303 31.0225 40.7074 33.3865 42.0904 35.3956C41.4281 36.4203 41.0601 37.6072 41.0267 38.8269C41.0743 40.1618 41.5193 41.4521 42.3048 42.5326L42.6994 43.0387L43.0854 42.5326C43.8709 41.4521 44.316 40.1618 44.3635 38.8269C44.3319 37.607 43.9638 36.4195 43.2999 35.3956C44.6828 33.3865 45.4599 31.0225 45.5387 28.5847ZM42.6994 22.6658C43.8398 24.4355 44.48 26.4807 44.5523 28.5847C44.4828 30.6918 43.8424 32.7405 42.6994 34.5121C41.5607 32.7385 40.9207 30.691 40.8466 28.5847C40.9158 26.4802 41.5563 24.4342 42.6994 22.6658ZM42.6994 41.263C42.2528 40.5164 42.0169 39.6626 42.0169 38.7925C42.0169 37.9225 42.2528 37.0687 42.6994 36.3221C43.1194 37.0796 43.3518 37.9267 43.3771 38.7925C43.3562 39.659 43.1235 40.5072 42.6994 41.263Z" fill="#252A3A"/>
</svg>
