<svg width="72" height="72" viewBox="0 0 72 72" fill="none" xmlns="http://www.w3.org/2000/svg">
<path d="M35.9998 71.1994C55.44 71.1994 71.1993 55.4401 71.1993 35.9999C71.1993 16.5598 55.44 0.800415 35.9998 0.800415C16.5597 0.800415 0.800293 16.5598 0.800292 35.9999C0.800291 55.4401 16.5597 71.1994 35.9998 71.1994Z" fill="white"/>
<path d="M41.1638 29.7494C41.0009 25.2897 39.4491 20.9791 36.7086 17.3737L36.0077 16.4918L35.2911 17.3737C32.5506 20.9791 30.9989 25.2897 30.8359 29.7494C30.9791 33.9972 32.3902 38.1162 34.9017 41.617C33.6989 43.4024 33.0307 45.4706 32.97 47.5957C33.0564 49.9217 33.8646 52.17 35.2911 54.0526L36.0077 54.9344L36.7086 54.0526C38.1351 52.17 38.9433 49.9217 39.0297 47.5957C38.9722 45.4701 38.3038 43.4011 37.0981 41.617C39.6095 38.1162 41.0207 33.9972 41.1638 29.7494ZM36.0077 19.4363C38.0785 22.5197 39.2412 26.0834 39.3724 29.7494C39.2463 33.421 38.0833 36.9907 36.0077 40.0775C33.9398 36.9872 32.7775 33.4196 32.6429 29.7494C32.7687 26.0825 33.9318 22.5175 36.0077 19.4363ZM36.0077 51.8405C35.1965 50.5395 34.7682 49.0519 34.7682 47.5359C34.7682 46.0199 35.1965 44.5322 36.0077 43.2313C36.7704 44.5512 37.1924 46.0273 37.2383 47.5359C37.2004 49.0456 36.7779 50.5235 36.0077 51.8405Z" fill="#252A3A"/>
</svg>
