<svg width="71" height="71" viewBox="0 0 71 71" fill="none" xmlns="http://www.w3.org/2000/svg">
<path d="M35.4999 70.1966C54.6623 70.1966 70.1966 54.6624 70.1966 35.4999C70.1966 16.3375 54.6623 0.803268 35.4999 0.803268C16.3375 0.803268 0.803222 16.3375 0.803222 35.4999C0.803221 54.6624 16.3374 70.1966 35.4999 70.1966Z" fill="#FFEEF5"/>
<path d="M40.5902 29.3387C40.4297 24.9427 38.9 20.6937 36.1987 17.1397L35.5078 16.2705L34.8014 17.1397C32.1001 20.6937 30.5705 24.9427 30.4099 29.3387C30.551 33.5258 31.942 37.586 34.4176 41.0368C33.232 42.7966 32.5733 44.8353 32.5135 46.93C32.5987 49.2228 33.3953 51.439 34.8014 53.2947L35.5078 54.1639L36.1987 53.2947C37.6048 51.439 38.4014 49.2228 38.4866 46.93C38.43 44.8348 37.771 42.7953 36.5826 41.0368C39.0582 37.586 40.4491 33.5258 40.5902 29.3387ZM35.5078 19.1729C37.549 22.2123 38.6951 25.7251 38.8244 29.3387C38.7001 32.9578 37.5538 36.4766 35.5078 39.5193C33.4694 36.4731 32.3237 32.9564 32.1911 29.3387C32.3151 25.7242 33.4616 22.2101 35.5078 19.1729ZM35.5078 51.1142C34.7082 49.8318 34.286 48.3654 34.286 46.8711C34.286 45.3767 34.7082 43.9103 35.5078 42.6279C36.2596 43.929 36.6755 45.384 36.7208 46.8711C36.6834 48.3592 36.267 49.816 35.5078 51.1142Z" fill="#252A3A"/>
</svg>
