<svg width="20" height="20" fill="none" xmlns="http://www.w3.org/2000/svg"><g clip-path="url(#clip0)"><path d="M16.73 3.262h0a9.35 9.35 0 012.775 6.655c-.005 5.187-4.248 9.412-9.46 9.412h-.004a9.502 9.502 0 01-4.522-1.147l-.174-.094-.19.05-4.444 1.16 1.18-4.302.055-.202-.104-.18a9.396 9.396 0 01-1.26-4.706C.585 4.726 4.828.5 10.04.5a9.39 9.39 0 016.688 2.762z" stroke="#252E3A"/><path d="M12.881 11.176c.23.086 1.452.684 1.7.808.248.123.415.185.478.29.062.104.062.599-.144 1.178-.21.58-1.203 1.107-1.68 1.179-.43.061-.97.09-1.566-.1a13.748 13.748 0 01-1.418-.523c-2.497-1.074-4.125-3.573-4.25-3.74-.124-.166-1.017-1.34-1.017-2.56 0-1.222.64-1.82.87-2.068a.917.917 0 01.663-.308c.167 0 .334 0 .478.01.152.004.358-.063.558.422.21.494.707 1.715.769 1.839.062.123.1.266.019.432-.081.167-.124.271-.248.414-.125.142-.263.323-.373.432-.124.124-.253.257-.11.504.148.247.645 1.06 1.385 1.715.95.846 1.752 1.107 2 1.23.249.124.397.105.54-.06.143-.162.62-.723.788-.97.162-.247.33-.205.558-.124z" fill="#252E3A"/></g><defs><clipPath id="clip0"><path fill="#fff" d="M0 0h20v20H0z"/></clipPath></defs></svg>