<svg width="29" height="30" fill="none" xmlns="http://www.w3.org/2000/svg"><g clip-path="url(#clip0)"><path d="M24.416 5.07l.001.001a13.782 13.782 0 014.09 9.809c-.007 7.645-6.261 13.872-13.941 13.872h-.007c-2.333 0-4.625-.585-6.664-1.69l-.174-.094-.19.05-6.82 1.78 1.813-6.614.056-.201-.105-.18a13.85 13.85 0 01-1.857-6.937C.624 7.227 6.878 1 14.558 1c3.732 0 7.232 1.443 9.858 4.07z" stroke="#252E3A"/><path d="M18.678 16.705c.332.124 2.105.992 2.464 1.172.36.179.603.268.693.42.09.151.09.868-.208 1.709-.304.84-1.744 1.605-2.437 1.708-.623.09-1.405.131-2.27-.144a19.916 19.916 0 01-2.057-.758c-3.62-1.558-5.98-5.182-6.16-5.423-.18-.241-1.475-1.943-1.475-3.713 0-1.771.927-2.64 1.26-2.998a1.33 1.33 0 01.962-.448c.242 0 .484 0 .692.014.222.007.52-.09.81.613.305.717 1.025 2.488 1.115 2.667.09.179.145.386.027.627-.117.241-.18.393-.36.6-.18.206-.38.468-.54.626-.18.18-.367.372-.159.73.215.359.935 1.537 2.008 2.488 1.377 1.226 2.54 1.605 2.9 1.784.36.18.575.152.783-.09.207-.233.9-1.046 1.142-1.405.235-.358.478-.296.81-.179z" fill="#252E3A"/></g><defs><clipPath id="clip0"><path fill="#fff" transform="translate(0 .5)" d="M0 0h29v29H0z"/></clipPath></defs></svg>