<svg width="14" height="14" fill="none" xmlns="http://www.w3.org/2000/svg"><path d="M10.274 9.831L7.836 8.9c-.325-.11-.542-.438-.487-.767.65-.493 1.408-1.316 1.408-2.247V4.788s-.163-.603-.38-.767c-.162-.11-.487-.439-.703-.713-.217-.274-.325-.328-.38-.548-.054-.219-.487-.603-.541-.383-.054.219-.542.328-.921.548-.38.219-.596.219-.758.548-.109.329-.542 1.15-.542 1.864v.548c0 .986.758 1.808 1.408 2.247 0 .329-.216.658-.541.713l-.109.054-2.275 1.097a1.49 1.49 0 00-.704.822v1.315h8.667v-1.315c-.108-.33-.38-.822-.704-.987z" stroke="#252A3A" stroke-width=".6"/></svg>