<svg width="22" height="22" viewBox="0 0 22 22" fill="none" xmlns="http://www.w3.org/2000/svg">
<path d="M20.0422 10.806C20.0422 16.0707 15.7743 20.3386 10.5096 20.3386C5.24492 20.3386 0.977051 16.0707 0.977051 10.806C0.977051 5.54131 5.24492 1.27344 10.5096 1.27344C15.7743 1.27344 20.0422 5.54131 20.0422 10.806Z" stroke="#221F20"/>
<path d="M12.7829 5.68457H11.3862C10.7688 5.68457 10.1767 5.95435 9.74014 6.43456C9.30358 6.91477 9.05833 7.56608 9.05833 8.2452V9.26945H7.66162V11.318H9.05833V15.9271H10.9206V11.318H12.3173L12.7829 9.26945H10.9206V8.2452C10.9206 8.10938 10.9697 7.97912 11.057 7.88307C11.1443 7.78703 11.2627 7.73308 11.3862 7.73308H12.7829V5.68457Z" fill="#221F20"/>
</svg>
