<svg width="32" height="32" viewBox="0 0 32 32" fill="none" xmlns="http://www.w3.org/2000/svg">
<path d="M29.3795 15.7178C29.3795 23.5011 23.0699 29.8106 15.2867 29.8106C7.50342 29.8106 1.19385 23.5011 1.19385 15.7178C1.19385 7.93457 7.50342 1.625 15.2867 1.625C23.0699 1.625 29.3795 7.93457 29.3795 15.7178Z" stroke="#221F20"/>
<path d="M18.5933 8.26855H16.5617C15.6637 8.26855 14.8025 8.66096 14.1675 9.35945C13.5325 10.0579 13.1757 11.0053 13.1757 11.9931V13.4829H11.1442V16.4626H13.1757V23.1668H15.8845V16.4626H17.9161L18.5933 13.4829H15.8845V11.9931C15.8845 11.7955 15.9559 11.6061 16.0829 11.4664C16.2099 11.3267 16.3821 11.2482 16.5617 11.2482H18.5933V8.26855Z" fill="#221F20"/>
</svg>
