<svg width="32" height="32" viewBox="0 0 32 32" fill="none" xmlns="http://www.w3.org/2000/svg">
<path d="M9.29445 2.1001H23.3037C26.8962 2.1001 29.8084 5.01233 29.8084 8.60475V22.6141C29.8084 26.2065 26.8962 29.1187 23.3037 29.1187H9.29445C5.70203 29.1187 2.78979 26.2065 2.78979 22.6141V8.60475C2.78979 5.01233 5.70203 2.1001 9.29445 2.1001Z" stroke="#221F20" stroke-linecap="round" stroke-linejoin="round"/>
<path d="M21.4446 14.8464C21.6051 15.9287 21.4202 17.034 20.9163 18.0052C20.4124 18.9763 19.6151 19.7639 18.6378 20.2558C17.6604 20.7477 16.5529 20.9189 15.4727 20.7451C14.3925 20.5713 13.3945 20.0613 12.6209 19.2876C11.8472 18.5139 11.3372 17.516 11.1634 16.4358C10.9896 15.3556 11.1608 14.248 11.6527 13.2707C12.1446 12.2934 12.9321 11.4961 13.9033 10.9922C14.8745 10.4883 15.9798 10.3034 17.0621 10.4639C18.1661 10.6276 19.1881 11.142 19.9773 11.9312C20.7665 12.7204 21.2809 13.7424 21.4446 14.8464Z" stroke="#221F20" stroke-width="1.2" stroke-linecap="round" stroke-linejoin="round"/>
<path d="M25.034 8.11675C25.0795 8.42357 25.027 8.73693 24.8842 9.01225C24.7413 9.28757 24.5153 9.51083 24.2382 9.65028C23.9612 9.78973 23.6472 9.83827 23.341 9.789C23.0347 9.73972 22.7518 9.59513 22.5325 9.37581C22.3132 9.15648 22.1686 8.87358 22.1193 8.56734C22.07 8.26111 22.1186 7.94713 22.258 7.67007C22.3975 7.39301 22.6207 7.16698 22.8961 7.02412C23.1714 6.88126 23.4847 6.82885 23.7916 6.87435C24.1045 6.92076 24.3943 7.0666 24.618 7.29032C24.8417 7.51404 24.9875 7.80378 25.034 8.11675Z" fill="#221F20"/>
</svg>
