<svg width="22" height="22" viewBox="0 0 22 22" fill="none" xmlns="http://www.w3.org/2000/svg">
<path d="M6.38992 1.6001H16.0213C18.4048 1.6001 20.337 3.5323 20.337 5.9158V15.5472C20.337 17.9307 18.4048 19.8629 16.0213 19.8629H6.38992C4.00642 19.8629 2.07422 17.9307 2.07422 15.5472V5.9158C2.07422 3.5323 4.00642 1.6001 6.38992 1.6001Z" stroke="#221F20" stroke-linecap="round" stroke-linejoin="round"/>
<path d="M14.5577 10.2343C14.6623 10.9394 14.5418 11.6595 14.2135 12.2921C13.8853 12.9248 13.3658 13.4379 12.7292 13.7583C12.0925 14.0788 11.371 14.1903 10.6673 14.0771C9.96356 13.9638 9.31346 13.6316 8.80946 13.1276C8.30545 12.6236 7.9732 11.9735 7.85996 11.2698C7.74672 10.566 7.85826 9.84454 8.17872 9.20786C8.49918 8.57119 9.01223 8.05177 9.6449 7.72349C10.2776 7.39521 10.9976 7.27478 11.7027 7.37933C12.4219 7.48598 13.0877 7.82111 13.6018 8.33521C14.1159 8.84932 14.4511 9.51514 14.5577 10.2343Z" stroke="#221F20" stroke-width="1.2" stroke-linecap="round" stroke-linejoin="round"/>
<path d="M17.2108 5.57996C17.2421 5.7909 17.206 6.00633 17.1078 6.19561C17.0096 6.3849 16.8542 6.53839 16.6637 6.63426C16.4733 6.73014 16.2574 6.76351 16.0469 6.72963C15.8363 6.69575 15.6418 6.59635 15.491 6.44556C15.3402 6.29477 15.2408 6.10028 15.207 5.88974C15.1731 5.6792 15.2065 5.46335 15.3023 5.27287C15.3982 5.08239 15.5517 4.92699 15.741 4.82878C15.9303 4.73056 16.1457 4.69453 16.3566 4.72581C16.5718 4.75772 16.771 4.85798 16.9248 5.01179C17.0786 5.1656 17.1789 5.3648 17.2108 5.57996Z" fill="#221F20"/>
</svg>
