<svg width="29" height="30" viewBox="0 0 29 30" fill="none" xmlns="http://www.w3.org/2000/svg">
<g clip-path="url(#clip0)">
<path d="M24.4165 5.07018L24.4174 5.07107C27.0508 7.69202 28.5001 11.175 28.5069 14.8799C28.4997 22.5252 22.2457 28.752 14.5658 28.752H14.5588C12.2263 28.752 9.93354 28.1666 7.89486 27.0623L7.72137 26.9683L7.53046 27.0181L0.711023 28.7977L2.52445 22.1841L2.57964 21.9829L2.47535 21.8021C1.2591 19.6937 0.61773 17.3133 0.617689 14.8659C0.624481 7.22732 6.87849 1 14.5588 1C18.2901 1 21.7902 2.44311 24.4165 5.07018Z" stroke="#252E3A"/>
<path d="M18.678 16.7052C19.0103 16.8292 20.7826 17.6973 21.1425 17.8765C21.5025 18.0556 21.7448 18.1452 21.8348 18.2968C21.9248 18.4483 21.9248 19.1649 21.6271 20.0055C21.3225 20.8461 19.8826 21.6108 19.1903 21.7142C18.5672 21.8038 17.7849 21.8451 16.9196 21.5695C16.3934 21.4041 15.7219 21.1837 14.8635 20.8116C11.2428 19.2545 8.88211 15.6303 8.70211 15.3892C8.52212 15.148 7.22754 13.4462 7.22754 11.6755C7.22754 9.90474 8.15521 9.0366 8.4875 8.67832C8.8198 8.32004 9.20748 8.23047 9.44979 8.23047C9.69209 8.23047 9.93439 8.23047 10.1421 8.24425C10.3636 8.25114 10.6613 8.15468 10.9521 8.85746C11.2567 9.57402 11.9766 11.3447 12.0666 11.5239C12.1566 11.703 12.212 11.9097 12.0943 12.1509C11.9766 12.392 11.9143 12.5436 11.7343 12.7503C11.5543 12.957 11.3536 13.2188 11.1944 13.3773C11.0144 13.5564 10.8274 13.7494 11.0351 14.1076C11.2497 14.4659 11.9697 15.6441 13.0428 16.5949C14.4204 17.8213 15.5835 18.2003 15.9435 18.3794C16.3034 18.5586 16.5181 18.531 16.7257 18.2899C16.9334 18.0556 17.6257 17.2426 17.868 16.8843C18.1034 16.526 18.3457 16.588 18.678 16.7052Z" fill="#252E3A"/>
</g>
<defs>
<clipPath id="clip0">
<rect width="29" height="29" fill="white" transform="translate(0 0.5)"/>
</clipPath>
</defs>
</svg>
