<svg width="20" height="20" viewBox="0 0 20 20" fill="none" xmlns="http://www.w3.org/2000/svg">
<g clip-path="url(#clip0)">
<path d="M16.7292 3.26155L16.7301 3.26245C18.5171 5.04091 19.5001 7.40347 19.5048 9.9173C19.4997 15.1036 15.2567 19.3289 10.0454 19.3289H10.0406C8.45784 19.3289 6.90203 18.9317 5.51864 18.1824L5.34515 18.0884L5.15424 18.1382L0.711023 19.2977L1.89065 14.9956L1.94584 14.7943L1.84155 14.6135C1.01632 13.183 0.581205 11.5681 0.581165 9.90758C0.585806 4.7259 4.82883 0.5 10.0406 0.5C12.573 0.5 14.9473 1.47911 16.7292 3.26155Z" stroke="#252E3A"/>
<path d="M12.8814 11.1762C13.1105 11.2617 14.3328 11.8604 14.5811 11.984C14.8293 12.1075 14.9964 12.1693 15.0585 12.2738C15.1206 12.3783 15.1206 12.8725 14.9153 13.4522C14.7052 14.0319 13.7121 14.5594 13.2347 14.6307C12.805 14.6924 12.2655 14.7209 11.6687 14.5309C11.3058 14.4168 10.8427 14.2648 10.2507 14.0082C7.75365 12.9343 6.12558 10.4349 6.00144 10.2686C5.87731 10.1023 4.9845 8.9286 4.9845 7.7074C4.9845 6.48621 5.62427 5.88749 5.85344 5.64041C6.08261 5.39332 6.34998 5.33154 6.51708 5.33154C6.68419 5.33154 6.85129 5.33154 6.99452 5.34105C7.1473 5.3458 7.3526 5.27927 7.55313 5.76395C7.7632 6.25813 8.25974 7.47932 8.32181 7.60287C8.38387 7.72641 8.42207 7.86896 8.3409 8.03527C8.25974 8.20158 8.21677 8.30612 8.09264 8.44867C7.9685 8.59122 7.83004 8.77179 7.72023 8.88108C7.5961 9.00463 7.46719 9.13767 7.61042 9.38476C7.75843 9.63185 8.25496 10.4444 8.995 11.1001C9.9451 11.9459 10.7472 12.2073 10.9955 12.3308C11.2437 12.4544 11.3917 12.4354 11.535 12.2691C11.6782 12.1075 12.1557 11.5468 12.3228 11.2997C12.4851 11.0526 12.6522 11.0954 12.8814 11.1762Z" fill="#252E3A"/>
</g>
<defs>
<clipPath id="clip0">
<rect width="20" height="20" fill="white"/>
</clipPath>
</defs>
</svg>
