<svg width="14" height="14" viewBox="0 0 14 14" fill="none" xmlns="http://www.w3.org/2000/svg">
<path d="M10.2737 9.83119L7.83616 8.89936C7.51116 8.78973 7.29449 8.46085 7.34866 8.13197C7.99866 7.63865 8.75699 6.81646 8.75699 5.88463V4.78836C8.75699 4.78836 8.59449 4.18542 8.37782 4.02098C8.21532 3.91135 7.89032 3.58247 7.67366 3.3084C7.45699 3.03434 7.34866 2.97952 7.29449 2.76027C7.24032 2.54102 6.80699 2.15732 6.75282 2.37658C6.69866 2.59583 6.21116 2.70546 5.83199 2.92471C5.45282 3.14396 5.23616 3.14396 5.07366 3.47284C4.96532 3.80172 4.53199 4.62392 4.53199 5.3365V5.88463C4.53199 6.87127 5.29032 7.69347 5.94032 8.13197C5.94032 8.46085 5.72366 8.78973 5.39866 8.84455L5.29032 8.89936L3.01532 9.99563C2.69032 10.1601 2.41949 10.4889 2.31116 10.8178V12.1333C2.31116 12.1333 4.47782 12.1333 6.64449 12.1333C8.81116 12.1333 10.9778 12.1333 10.9778 12.1333V10.8178C10.8695 10.4889 10.5987 9.99563 10.2737 9.83119Z" stroke="#252A3A" stroke-width="0.6"/>
</svg>
